<?xml version="1.0" encoding="UTF-8" standalone="no"?>
<svg
   xmlns:dc="http://purl.org/dc/elements/1.1/"
   xmlns:cc="http://creativecommons.org/ns#"
   xmlns:rdf="http://www.w3.org/1999/02/22-rdf-syntax-ns#"
   xmlns:svg="http://www.w3.org/2000/svg"
   xmlns="http://www.w3.org/2000/svg"
   xmlns:sodipodi="http://sodipodi.sourceforge.net/DTD/sodipodi-0.dtd"
   xmlns:inkscape="http://www.inkscape.org/namespaces/inkscape"
   width="150"
   height="200"
   viewBox="0 0 39.687499 52.916668"
   version="1.1"
   id="svg8"
   inkscape:version="1.0.1 (3bc2e813f5, 2020-09-07)"
   sodipodi:docname="Mrs Peacock.svg">
  <defs
     id="defs2" />
  <sodipodi:namedview
     id="base"
     pagecolor="#ffffff"
     bordercolor="#666666"
     borderopacity="1.0"
     inkscape:pageopacity="0.0"
     inkscape:pageshadow="2"
     inkscape:zoom="2.8"
     inkscape:cx="65.75889"
     inkscape:cy="113.55762"
     inkscape:document-units="mm"
     inkscape:current-layer="layer1"
     inkscape:document-rotation="0"
     showgrid="false"
     units="px"
     inkscape:window-width="1920"
     inkscape:window-height="1001"
     inkscape:window-x="-9"
     inkscape:window-y="-9"
     inkscape:window-maximized="1" />
  <metadata
     id="metadata5">
    <rdf:RDF>
      <cc:Work
         rdf:about="">
        <dc:format>image/svg+xml</dc:format>
        <dc:type
           rdf:resource="http://purl.org/dc/dcmitype/StillImage" />
        <dc:title></dc:title>
      </cc:Work>
    </rdf:RDF>
  </metadata>
  <g
     inkscape:label="Layer 1"
     inkscape:groupmode="layer"
     id="layer1">
    <path
       style="fill:#000000;fill-opacity:1;stroke:#000000;stroke-width:0.452173;stroke-opacity:1"
       d="M 6.9925593,26.836309 C 9.0502763,34.271794 1.6209228,39.092188 3.1183035,31.75 c -4.9134174,8.434416 1.836454,9.651592 10.2053575,10.311 l 13.040178,0.08334 c 7.989973,-0.200436 14.20404,-3.26372 11.150296,-9.921875 0.850449,6.520091 -6.065895,2.399985 -4.709067,-5.622396 z"
       id="path1419"
       sodipodi:nodetypes="ccccccc" />
    <path
       id="path833"
       style="fill:#ffffff;stroke:#000000;stroke-width:0.438457;stroke-opacity:1;fill-opacity:1"
       d="m 32.805068,26.600072 c 0,8.532676 -9.27278,17.566443 -12.971851,17.566443 -4.143313,0 -12.9718507,-9.033767 -12.9718511,-17.566443 0,-8.532676 5.8076961,-13.333111 12.9718511,-13.33311 7.164155,0 12.971851,4.800434 12.971851,13.33311 z"
       sodipodi:nodetypes="sssss" />
    <path
       style="fill:#000000;fill-opacity:1;stroke:#000000;stroke-width:0.452173;stroke-opacity:1"
       d="M 12.189732,15.497024 C 18.191825,24.16859 21.978003,26.746278 32.805068,26.600073 32.396987,14.86579 20.897192,10.515054 12.189732,15.497024 Z"
       id="path1415"
       sodipodi:nodetypes="ccc" />
    <path
       style="fill:#000000;fill-opacity:1;stroke:#000000;stroke-width:0.452173;stroke-opacity:1"
       d="M 12.189732,15.497024 6.9925593,26.836309 c 0.5955252,-5.936836 1.7354279,-8.35001 5.1971727,-11.339285 z"
       id="path1417"
       sodipodi:nodetypes="ccc" />
  </g>
</svg>
