<?xml version="1.0" encoding="UTF-8" standalone="no"?>
<svg
   xmlns:dc="http://purl.org/dc/elements/1.1/"
   xmlns:cc="http://creativecommons.org/ns#"
   xmlns:rdf="http://www.w3.org/1999/02/22-rdf-syntax-ns#"
   xmlns:svg="http://www.w3.org/2000/svg"
   xmlns="http://www.w3.org/2000/svg"
   xmlns:sodipodi="http://sodipodi.sourceforge.net/DTD/sodipodi-0.dtd"
   xmlns:inkscape="http://www.inkscape.org/namespaces/inkscape"
   width="150"
   height="200"
   viewBox="0 0 39.687499 52.916668"
   version="1.1"
   id="svg8"
   sodipodi:docname="Professor Plum.svg"
   inkscape:version="1.0.1 (3bc2e813f5, 2020-09-07)">
  <defs
     id="defs2" />
  <sodipodi:namedview
     id="base"
     pagecolor="#ffffff"
     bordercolor="#666666"
     borderopacity="1.0"
     inkscape:pageopacity="0.0"
     inkscape:pageshadow="2"
     inkscape:zoom="2.8"
     inkscape:cx="65.75889"
     inkscape:cy="113.55762"
     inkscape:document-units="mm"
     inkscape:current-layer="layer1"
     inkscape:document-rotation="0"
     showgrid="false"
     units="px"
     inkscape:window-width="1920"
     inkscape:window-height="1001"
     inkscape:window-x="-9"
     inkscape:window-y="-9"
     inkscape:window-maximized="1" />
  <metadata
     id="metadata5">
    <rdf:RDF>
      <cc:Work
         rdf:about="">
        <dc:format>image/svg+xml</dc:format>
        <dc:type
           rdf:resource="http://purl.org/dc/dcmitype/StillImage" />
        <dc:title />
      </cc:Work>
    </rdf:RDF>
  </metadata>
  <g
     inkscape:label="Layer 1"
     inkscape:groupmode="layer"
     id="layer1">
    <path
       id="path833"
       style="fill:none;stroke:#000000;stroke-width:0.452173;stroke-opacity:1"
       d="m 33.828866,29.245907 c 0,8.532676 -6.176738,17.566443 -13.79613,17.566443 -7.619392,0 -13.7961299,-9.033767 -13.7961304,-17.566443 0,-8.532676 6.1767384,-13.333111 13.7961304,-13.33311 7.619392,0 13.79613,4.800434 13.79613,13.33311 z"
       sodipodi:nodetypes="sssss" />
    <path
       style="fill:#000000;fill-opacity:1;stroke:#000000;stroke-width:0.752;stroke-opacity:1;stroke-miterlimit:4;stroke-dasharray:none"
       d="m 6.1421131,29.104166 27.6867519,0.14174"
       id="path1445" />
    <circle
       style="fill:#ffffff;fill-opacity:1;stroke:#000000;stroke-width:0.452173;stroke-opacity:1"
       id="path1447"
       cx="13.947321"
       cy="30.445982"
       r="2.9293153" />
    <circle
       style="fill:#ffffff;fill-opacity:1;stroke:#000000;stroke-width:0.452173;stroke-opacity:1"
       id="circle1449"
       cx="25.588987"
       cy="30.445982"
       r="2.9293153" />
    <rect
       style="fill:#ffffff;fill-opacity:1;stroke:none;stroke-width:0.751999;stroke-miterlimit:4;stroke-dasharray:none;stroke-opacity:1"
       id="rect1473"
       width="28.348215"
       height="7.8430057"
       x="6.1421127"
       y="14.646577" />
    <path
       style="fill:#000000;stroke-width:0.122302"
       d="m 6.4504279,22.821035 c -2.7031614,-1.22999 -3.2123932,-5.274054 -1.377744,-7.139285 1.268993,-1.268993 2.108093,-1.318061 4.9032585,-0.286736 3.4219386,1.262585 5.4699526,1.652074 9.2062146,1.750824 4.042129,0.106835 6.023179,-0.202351 10.089884,-1.574741 3.788992,-1.278672 4.598901,-1.267219 6.045054,0.08549 1.717194,1.683003 1.377005,4.05004 -0.03655,5.413204 -0.885187,0.837173 -1.210786,1.604234 -2.702066,1.918252 -0.363625,0.07657 -0.39748,0.058 -0.39748,-0.217953 0,-0.165907 -0.178866,-0.566409 -0.39748,-0.890005 -0.721821,-1.068447 -3.637093,-1.754294 -6.608583,-2.214186 -2.003937,-0.310146 -8.120752,-0.309396 -10.151035,0.0012 -3.51505,0.537816 -6.6343705,1.444403 -7.0392885,2.958346 -0.08078,0.302015 -0.176729,0.547014 -0.213227,0.544442 -0.0365,-0.0026 -0.7410676,-0.159574 -1.3209586,-0.348893 z M 17.428523,17.524029 C 15.762428,17.253625 13.92121,16.781237 11.858627,16.095001 l -1.8811056,-0.625858 0.06629,-1.78495 c 0.03853,-1.03739 0.148445,-2.092278 0.26245,-2.518759 0.764625,-2.8603812 2.826506,-4.7924982 6.035584,-5.6557372 1.106547,-0.29766 1.372079,-0.320083 3.818725,-0.32248 2.456025,-0.0024 2.706988,0.01846 3.804357,0.316259 1.856476,0.50381 2.939636,1.095412 4.096641,2.237514 0.747539,0.73791 1.101599,1.203885 1.440384,1.8956745 0.657089,1.3417597 0.818064,2.0590617 0.895428,3.9900067 l 0.06921,1.727428 -1.269933,0.490479 c -1.502516,0.580308 -3.487571,1.157771 -5.183585,1.507935 -1.6188,0.334223 -5.03391,0.423179 -6.584549,0.171516 z"
       id="path1467"
       sodipodi:nodetypes="ccsssccsssscscccssccssccssscsss" />
  </g>
</svg>
