<?xml version="1.0" encoding="UTF-8" standalone="no"?>
<svg
   xmlns:dc="http://purl.org/dc/elements/1.1/"
   xmlns:cc="http://creativecommons.org/ns#"
   xmlns:rdf="http://www.w3.org/1999/02/22-rdf-syntax-ns#"
   xmlns:svg="http://www.w3.org/2000/svg"
   xmlns="http://www.w3.org/2000/svg"
   xmlns:sodipodi="http://sodipodi.sourceforge.net/DTD/sodipodi-0.dtd"
   xmlns:inkscape="http://www.inkscape.org/namespaces/inkscape"
   viewBox="0 0 348 348"
   fill="none"
   version="1.1"
   id="svg831"
   sodipodi:docname="A.svg"
   inkscape:version="1.0.1 (3bc2e813f5, 2020-09-07)">
  <metadata
     id="metadata1359">
    <rdf:RDF>
      <cc:Work
         rdf:about="">
        <dc:format>image/svg+xml</dc:format>
        <dc:type
           rdf:resource="http://purl.org/dc/dcmitype/StillImage" />
        <dc:title></dc:title>
      </cc:Work>
    </rdf:RDF>
  </metadata>
  <defs
     id="defs1357" />
  <sodipodi:namedview
     pagecolor="#ffffff"
     bordercolor="#666666"
     borderopacity="1"
     objecttolerance="10"
     gridtolerance="10"
     guidetolerance="10"
     inkscape:pageopacity="0"
     inkscape:pageshadow="2"
     inkscape:window-width="1920"
     inkscape:window-height="1001"
     id="namedview1355"
     showgrid="false"
     inkscape:zoom="2.3017241"
     inkscape:cx="172.20826"
     inkscape:cy="174.0621"
     inkscape:window-x="-9"
     inkscape:window-y="-9"
     inkscape:window-maximized="1"
     inkscape:current-layer="svg831"
     inkscape:document-rotation="0" />
  <style
     id="style1281"></style>
  <path
     style="fill:none;fill-opacity:0.547244;stroke:#000000;stroke-width:1.73783"
     d=""
     id="path1453" />
  <path
     style="fill:#000000;stroke-width:0.726721"
     d="m 168.52189,346.32339 c -8.71414,-0.38195 -22.7334,-1.66636 -25.99068,-2.38123 -1.89283,-0.4154 -5.07661,-1.08552 -7.0751,-1.48915 C 111.51769,337.61814 86.920499,325.63596 66.417665,308.8219 57.745048,300.3953 48.750106,293.01914 40.98844,283.63727 39.51889,281.83864 37.652174,279.58519 36.840168,278.62961 31.401193,268.99977 15.869988,248.03445 13.555189,238.49386 13.34564,237.54233 12.186827,233.9841 10.980038,230.58667 7.5996525,221.07 6.2150908,215.59222 3.9999902,202.9713 c -0.925761,-5.27465 -2.4200091,-23.11605 -2.52587,-30.1589 -0.05372,-3.57126 1.983109,-27.23041 2.4026746,-27.90928 0.2129827,-0.34461 0.5558148,-1.89108 0.7618573,-3.43657 0.5094271,-3.8212 1.8509184,-10.40652 2.5709436,-12.62072 0.3249469,-0.99925 1.1371014,-3.77896 1.8048062,-6.17713 0.6677039,-2.39819 1.9781191,-6.32247 2.9120371,-8.72065 4.797236,-9.30319 7.598508,-17.982759 12.484539,-26.525296 C 26.328502,84.094943 34.981312,71.371077 36.829223,69.161879 57.132084,44.889451 75.335706,29.791348 98.002956,18.424334 109.44771,12.685095 118.50531,9.4727528 135.09275,5.2701654 139.57177,4.1353612 151.1618,2.5068919 161.0275,1.626173 c 7.43816,-0.66400871 12.40007,-0.65605668 22.16498,0.035517 6.91979,0.4900783 13.88952,1.1977443 15.48831,1.5725909 1.59878,0.3748468 4.542,0.8462292 6.54048,1.0475175 1.99849,0.2012883 4.45116,0.6565473 5.4504,1.0116873 0.99924,0.3551399 2.88609,0.8570696 4.19299,1.1154004 1.30691,0.2583299 5.23119,1.3893747 8.72064,2.5134318 25.93229,8.3535671 46.72351,21.0075211 65.60771,39.9301631 5.01574,5.025953 10.1635,10.352566 11.43947,11.836917 3.4289,3.988895 11.28529,15.116109 10.92625,15.475153 -0.17072,0.170727 -2.68485,-1.980761 -5.58691,-4.781103 -2.90209,-2.800339 -7.62725,-6.82226 -10.50038,-8.937602 -5.36256,-3.948175 -13.32533,-9.17895 -13.97308,-9.17895 -0.20003,0 -1.58352,-0.757521 -3.07444,-1.683379 -3.56028,-2.21092 -16.81258,-8.032278 -22.33222,-9.809893 -8.55541,-2.755301 -13.82296,-4.073576 -22.58977,-5.653393 -8.16707,-1.471744 -35.29345,-1.710246 -42.81507,-0.37644 -18.78494,3.331124 -28.60285,6.320883 -42.14978,12.835481 -23.73341,11.413175 -45.94542,32.378783 -59.884079,56.523768 -2.037178,3.52886 -3.703955,6.55741 -3.703955,6.73009 0,0.17268 -0.638769,1.70024 -1.419496,3.3946 -9.386339,20.37073 -13.487228,45.89909 -11.351775,70.66564 0.551408,6.39514 1.370682,13.26264 1.820594,15.26113 0.449912,1.99847 1.162266,5.26872 1.582997,7.2672 0.816584,3.87872 2.551238,9.96525 3.520929,12.35425 0.32447,0.79939 1.488716,3.74262 2.587207,6.54048 3.307075,8.42322 10.185194,20.59632 16.424644,29.06883 16.036174,18.66421 31.871034,33.92584 52.592664,43.53094 9.24173,4.42437 18.42992,7.52152 29.07925,9.80204 18.76916,4.01934 41.65077,4.04046 59.53665,0.0551 3.85526,-0.85907 14.99043,-4.07913 17.49572,-5.05939 10.58503,-1.84197 19.32907,-9.91874 28.35133,-13.80935 0.58174,0 7.65769,-5.16541 13.07173,-9.5423 5.24799,-4.24266 15.29438,-14.32168 18.73894,-18.79979 2.50923,-3.26212 2.53247,-1.78711 0.0426,2.69942 -1.98693,3.58018 -8.87457,14.09526 -9.65633,14.74187 -0.2416,0.19985 -2.12422,2.48902 -4.18358,5.08705 -14.47151,18.2568 -42.01063,38.37822 -65.62274,47.94718 -2.19834,0.8909 -4.65101,1.88685 -5.45041,2.21325 -8.10675,3.31006 -24.4425,7.97722 -27.92136,7.97722 -1.17862,0 -3.00177,0.32652 -4.05143,0.72559 -3.02295,1.14933 -23.8464,2.70997 -31.61528,2.36945 z m 31.24899,-51.71403 c -22.42123,-1.92472 -44.20443,-10.9129 -62.96688,-25.98138 -10.10753,-8.11754 -22.81021,-22.31158 -26.89304,-30.05043 -0.73893,-1.40062 -2.0221,-3.52627 -2.85149,-4.72367 -1.38354,-1.99748 -3.3936,-6.07687 -5.72775,-11.62449 -0.50452,-1.19909 -1.32897,-3.16124 -1.832135,-4.36032 -4.45649,-10.62029 -7.977681,-30.6609 -7.980426,-45.42002 -0.0011,-8.79106 1.671661,-23.29043 3.606286,-31.24898 4.226777,-17.38781 11.140495,-31.1854 22.948125,-45.797084 5.04771,-6.246428 17.2567,-17.670992 21.27599,-19.90901 0.65647,-0.365532 1.3571,-0.89053 1.55696,-1.166661 15.84709,-11.843807 37.44391,-19.636138 57.04755,-21.371052 2.79787,-0.212096 7.32806,-0.603464 10.06706,-0.869705 5.19202,-0.504683 14.4371,0.479382 21.71598,2.311491 2.29223,0.576957 5.00947,1.049011 6.03833,1.049011 3.9505,0 0.83926,1.249379 -5.26801,2.115487 -20.82222,2.952909 -33.9605,6.795992 -48.17785,14.092508 -3.79712,1.948722 -8.45796,4.658534 -10.35744,6.021821 -1.89949,1.363276 -3.60104,2.478676 -3.78125,2.478676 -0.18019,0 -2.04373,1.553361 -4.14122,3.451929 -13.37549,12.106985 -20.84399,23.004409 -25.6022,37.356739 -4.00158,12.07001 -5.02363,18.86156 -5.01381,33.31681 0.012,17.62329 2.24778,28.50902 8.65715,42.14978 11.86096,25.2432 36.66545,46.22441 63.13046,53.39976 12.72839,3.45099 30.04654,4.34629 41.88783,2.16547 21.36159,-3.9342 40.38335,-14.72787 57.30951,-32.5196 7.64508,-8.03604 13.05133,-15.87741 18.04714,-26.17607 4.4778,-9.23082 6.20184,-15.81515 7.17245,-27.39224 0.23669,-2.82345 0.70907,-5.30579 1.04971,-5.51634 0.34064,-0.21052 0.64259,0.20881 0.671,0.93187 0.0284,0.72307 0.31788,4.25788 0.64326,7.85514 0.67502,7.46253 -0.24856,22.7502 -1.78598,29.56289 -3.49105,12.91197 -6.97163,25.52399 -14.32669,37.28241 -5.46181,8.42853 -13.9102,19.03329 -18.7296,23.51014 -1.00391,0.93256 -3.46042,3.24138 -5.4589,5.13073 -14.87104,14.05897 -34.23375,24.02581 -55.10121,28.36301 -8.02069,1.66705 -26.55841,2.46304 -36.82891,1.58138 z m 17.07792,-63.29163 c -7.9184,-1.80677 -12.0575,-3.27485 -18.89473,-6.70162 -18.95868,-9.50199 -37.20518,-29.24745 -42.83442,-46.35331 -0.72343,-2.19833 -1.61733,-4.78369 -1.98645,-5.74525 -0.36911,-0.96156 -1.13944,-4.3953 -1.71183,-7.63056 -4.0942,-23.14119 4.65988,-45.72629 25.65211,-66.181121 3.08718,-3.008144 6.02327,-5.469348 6.52465,-5.469348 0.50139,0 0.91161,-0.327024 0.91161,-0.726723 0,-0.399688 0.34649,-0.726723 0.76998,-0.726723 0.42347,0 -0.52424,1.553372 -2.10604,3.451928 -5.55993,6.673267 -13.19836,20.028347 -13.19836,23.076157 0,0.65055 -0.31317,1.76804 -0.69595,2.48327 -1.08739,2.0318 -2.15035,10.01989 -2.18346,16.40867 -0.0856,16.51686 5.74317,29.54293 19.21363,42.9383 8.64731,8.59911 17.86346,14.01626 29.81254,17.52346 6.48136,1.90237 24.15345,1.71846 31.61234,-0.329 9.50522,-2.60918 14.63946,-5.00873 21.43825,-10.01948 8.65123,-6.37599 14.90868,-13.93319 19.23024,-23.22462 2.16015,-4.64433 2.75516,-6.85711 4.60914,-17.14095 1.48272,-8.22442 1.48924,-8.62534 0.28093,-17.23471 -0.6804,-4.84795 -1.52101,-9.56143 -1.868,-10.47444 -0.34698,-0.91301 -1.214,-3.42833 -1.92665,-5.58961 -1.50508,-4.56441 -5.31323,-12.57108 -8.01374,-16.848974 -2.6383,-4.179334 -1.46782,-4.558349 2.03714,-0.659678 3.49594,3.888662 10.72279,13.504332 10.72279,14.267222 0,0.29528 0.62811,1.21201 1.39576,2.03715 3.24997,3.49337 12.11527,22.93354 12.62979,27.69509 0.13154,1.21716 0.52336,2.67291 0.87074,3.23497 1.28624,2.08117 1.31198,16.1026 0.0413,22.53073 -2.81527,14.24264 -5.27939,19.76078 -15.3879,34.45955 -2.57918,3.75041 -12.68419,13.52343 -18.22409,17.6254 -2.87653,2.12987 -5.37955,3.87251 -5.56227,3.87251 -0.18273,0 -2.25982,1.08955 -4.61579,2.42121 -5.02698,2.84142 -13.00549,5.71582 -20.34468,7.32954 -7.13238,1.56824 -20.64305,1.42497 -28.19862,-0.29904 z m 7.2672,-50.10194 c -0.79939,-0.32023 -4.23315,-1.65516 -7.63055,-2.96651 -10.08875,-3.89413 -20.06076,-11.2266 -23.00129,-16.91296 -1.44867,-2.80139 -3.88738,-11.21518 -3.88738,-13.41178 0,-2.03169 1.19346,-2.14795 1.81897,-0.17719 0.98528,3.10435 10.02292,11.0557 15.4174,13.56429 13.84475,6.4382 27.05736,5.57085 37.63102,-2.4703 10.12768,-7.70198 15.62449,-17.97066 15.62449,-29.18835 0,-5.04206 -2.3157,-12.89844 -5.5136,-18.70575 -2.97033,-5.39407 -8.92314,-13.201927 -11.65244,-15.283686 -1.34269,-1.02411 -2.24226,-2.183991 -1.99903,-2.577513 0.63705,-1.030795 6.5994,0.01304 10.00849,1.752262 2.48906,1.269833 10.54083,8.765047 13.38486,12.459697 3.12287,4.05688 8.20964,13.24665 9.85095,17.79672 2.50271,6.9381 2.66929,16.47756 0.40484,23.18298 -4.51984,13.384 -18.16439,27.23626 -31.25327,31.72908 -4.30625,1.47814 -6.83828,1.87891 -11.62753,1.84046 -3.36737,-0.027 -6.77654,-0.31122 -7.57593,-0.63145 z m -3.91437,-28.21492 c -2.72059,-0.30971 -7.43077,-3.02801 -10.26796,-5.92579 -7.16843,-7.32151 -9.74669,-14.58815 -7.98685,-22.51041 1.26707,-5.70397 2.51622,-8.2619 5.64684,-11.56328 9.08579,-9.58135 23.61903,-8.87928 34.75844,1.67911 2.91363,2.76165 6.11994,10.44514 6.09799,14.613 -0.0406,7.72114 -7.29556,17.29559 -16.70353,22.04391 -2.77172,1.39891 -7.66942,2.1046 -11.54493,1.66346 z"
     id="path2153"
     sodipodi:nodetypes="sscccccsscsssscccsssssssssssssssssssssscsssssccssccssssssssssssssssscsssccsssssssssssssssssssccssssssssssssssssssssssssssssssssssssssssssssssssssssssssssssssscss" />
</svg>
