<?xml version="1.0" encoding="UTF-8" standalone="no"?>
<svg
   xmlns:dc="http://purl.org/dc/elements/1.1/"
   xmlns:cc="http://creativecommons.org/ns#"
   xmlns:rdf="http://www.w3.org/1999/02/22-rdf-syntax-ns#"
   xmlns:svg="http://www.w3.org/2000/svg"
   xmlns="http://www.w3.org/2000/svg"
   xmlns:sodipodi="http://sodipodi.sourceforge.net/DTD/sodipodi-0.dtd"
   xmlns:inkscape="http://www.inkscape.org/namespaces/inkscape"
   viewBox="0 0 348 348"
   fill="none"
   version="1.1"
   id="svg831"
   sodipodi:docname="B.svg"
   inkscape:version="1.0.1 (3bc2e813f5, 2020-09-07)">
  <metadata
     id="metadata1359">
    <rdf:RDF>
      <cc:Work
         rdf:about="">
        <dc:format>image/svg+xml</dc:format>
        <dc:type
           rdf:resource="http://purl.org/dc/dcmitype/StillImage" />
        <dc:title></dc:title>
      </cc:Work>
    </rdf:RDF>
  </metadata>
  <defs
     id="defs1357" />
  <sodipodi:namedview
     pagecolor="#ffffff"
     bordercolor="#666666"
     borderopacity="1"
     objecttolerance="10"
     gridtolerance="10"
     guidetolerance="10"
     inkscape:pageopacity="0"
     inkscape:pageshadow="2"
     inkscape:window-width="1920"
     inkscape:window-height="1001"
     id="namedview1355"
     showgrid="false"
     inkscape:zoom="2.3017241"
     inkscape:cx="172.20826"
     inkscape:cy="175.40184"
     inkscape:window-x="-9"
     inkscape:window-y="-9"
     inkscape:window-maximized="1"
     inkscape:current-layer="svg831"
     inkscape:document-rotation="0" />
  <style
     id="style1281"></style>
  <path
     style="fill:none;fill-opacity:0.547244;stroke:#000000;stroke-width:1.73783"
     d=""
     id="path1453" />
  <path
     id="path2169"
     style="fill:#000000;stroke-width:0.68567"
     d="M 156.98857,345.84981 C 136.85019,343.62146 117.27034,338.1369 99.36802,329.02294 61.753823,309.15399 30.455827,275.85033 13.804026,236.40215 9.6122761,223.27528 4.4784047,210.11373 3.7765506,196.05074 -0.85148996,172.57281 2.8474822,148.27773 9.5129945,125.66236 14.379737,113.96252 18.545595,101.46121 25.412597,90.742353 37.899793,68.579209 54.630273,48.206852 74.784544,32.470215 84.800748,31.704399 71.2676,52.487645 70.642905,59.513856 65.338172,73.432307 60.293087,87.284656 55.24163,101.25381 c -6.334101,17.78286 -8.262327,36.61366 -6.998796,55.44279 1.23994,33.26445 19.967465,63.72302 44.536187,85.33453 18.736709,16.72105 42.479559,27.61044 67.412699,30.19178 18.99081,3.42419 38.24288,-1.16019 56.41179,-6.24099 23.4899,-9.04054 44.71273,-25.51988 59.88515,-46.15316 7.29698,-8.96142 13.23738,-19.91408 16.93357,-30.95453 5.92425,-13.43071 6.4659,-28.50781 8.54584,-42.9941 -1.95767,-18.10614 -6.43168,-35.81372 -14.28848,-52.217676 -6.93196,-18.985882 -17.84832,-37.803407 -16.03991,-58.736312 15.0502,2.574887 26.53821,21.471491 37.93192,32.41324 16.44921,21.173738 27.87273,46.296198 33.32632,72.397988 4.3799,22.67956 3.94333,46.44275 -0.0254,69.2001 -2.60657,13.12821 -6.68372,25.95935 -11.96105,38.01194 -17.08214,36.71801 -47.50422,67.25583 -84.14431,84.68729 -22.56586,10.2454 -47.16589,14.72029 -72.00656,14.66644 -5.91414,0.0447 -11.91039,0.53187 -17.77199,-0.45333 z m -2.672,-87.58517 C 134.21472,253.71693 115.06644,244.48932 100.15794,229.94348 81.242383,213.20108 67.88931,189.92153 64.339024,165.00778 61.839058,149.32321 62.533912,132.6774 67.323322,117.54102 73.992874,93.563183 88.99139,71.489201 109.58037,57.107513 c 5.55259,8.545258 -7.92384,24.423228 -9.09323,35.661389 -4.429971,16.148038 -9.189361,33.366998 -5.169026,50.135948 3.082946,32.52801 31.101716,60.29086 63.237756,64.53034 15.48835,4.54521 32.13517,0.86179 46.84315,-4.29315 30.0777,-11.98731 53.14529,-43.00617 51.45801,-76.12984 0.3721,-23.38209 -19.26214,-41.73928 -18.25463,-65.024854 8.8865,-5.741885 20.61942,16.463663 28.11122,23.2758 15.14593,20.226834 20.22812,45.956224 18.01369,70.817144 0.13024,14.03081 -4.60248,27.62512 -10.41872,40.01735 -16.23641,31.24848 -46.95406,56.94111 -82.40038,61.94455 -12.51309,0.42513 -25.08685,0.9598 -37.59164,0.22245 z m 7.86828,-66.66775 c -21.49358,-3.56829 -41.02836,-19.11612 -49.35137,-39.10986 -6.50723,-12.84355 -5.93249,-29.05177 -3.0239,-42.97921 4.39274,-13.138364 13.42266,-29.271651 27.35368,-32.766274 -2.60763,13.678267 -8.70156,27.278114 -9.9909,41.624824 0.29177,17.12749 9.40361,34.86132 26.85843,39.71899 21.18931,7.61579 49.95754,3.014 61.55305,-18.13447 6.27917,-12.07174 7.46409,-27.12888 1.93261,-39.74319 -1.69402,-7.684054 -13.40676,-33.068208 3.27181,-19.537246 11.76439,11.40912 18.51578,27.457166 19.82952,43.679516 1.2972,15.90782 -3.52582,32.43652 -14.44897,44.16781 -12.50103,14.37891 -30.98275,24.39448 -50.65916,23.45009 -4.44188,0.0746 -8.90357,0.13748 -13.3248,-0.37098 z" />
</svg>
