<?xml version="1.0" encoding="UTF-8" standalone="no"?>
<svg
   xmlns:dc="http://purl.org/dc/elements/1.1/"
   xmlns:cc="http://creativecommons.org/ns#"
   xmlns:rdf="http://www.w3.org/1999/02/22-rdf-syntax-ns#"
   xmlns:svg="http://www.w3.org/2000/svg"
   xmlns="http://www.w3.org/2000/svg"
   xmlns:sodipodi="http://sodipodi.sourceforge.net/DTD/sodipodi-0.dtd"
   xmlns:inkscape="http://www.inkscape.org/namespaces/inkscape"
   viewBox="0 0 348 348"
   fill="none"
   version="1.1"
   id="svg831"
   sodipodi:docname="C.svg"
   inkscape:version="1.0.1 (3bc2e813f5, 2020-09-07)">
  <metadata
     id="metadata1359">
    <rdf:RDF>
      <cc:Work
         rdf:about="">
        <dc:format>image/svg+xml</dc:format>
        <dc:type
           rdf:resource="http://purl.org/dc/dcmitype/StillImage" />
        <dc:title></dc:title>
      </cc:Work>
    </rdf:RDF>
  </metadata>
  <defs
     id="defs1357" />
  <sodipodi:namedview
     pagecolor="#ffffff"
     bordercolor="#666666"
     borderopacity="1"
     objecttolerance="10"
     gridtolerance="10"
     guidetolerance="10"
     inkscape:pageopacity="0"
     inkscape:pageshadow="2"
     inkscape:window-width="1920"
     inkscape:window-height="1001"
     id="namedview1355"
     showgrid="false"
     inkscape:zoom="2.3017241"
     inkscape:cx="172.20826"
     inkscape:cy="175.40184"
     inkscape:window-x="-9"
     inkscape:window-y="-9"
     inkscape:window-maximized="1"
     inkscape:current-layer="svg831"
     inkscape:document-rotation="0" />
  <style
     id="style1281"></style>
  <path
     style="fill:none;fill-opacity:0.547244;stroke:#000000;stroke-width:1.73783"
     d=""
     id="path1453" />
  <path
     id="path2788"
     style="fill:#000000;stroke-width:0.685451"
     d="M 160.4052,344.08489 C 121.65105,341.01004 85.061729,323.81705 57.459943,296.45021 33.9283,274.71995 16.027137,246.60144 7.9850318,215.67007 1.9547516,193.56431 0.19235358,169.97397 4.1121487,147.28118 6.5672361,132.35541 11.025729,117.12763 18.243525,103.95917 29.434236,76.577018 48.976164,52.480557 71.406654,33.01635 86.639211,22.463359 72.489322,50.041453 70.953894,57.007112 65.684109,70.823923 60.479761,84.805761 55.531269,98.75102 c -9.82257,28.5786 -10.968063,61.09521 0,89.59907 6.719534,16.41617 16.733941,31.93339 29.811827,44.43249 20.005594,20.90882 47.166814,34.5925 75.924724,37.52026 18.1056,3.34787 36.64566,-1.4189 54.07004,-6.0069 25.65334,-9.20165 48.18288,-27.86071 63.94512,-50.05441 9.26715,-13.48358 15.75011,-28.31284 19.33522,-44.21368 2.06773,-14.34323 4.46748,-29.05198 0.9368,-43.49309 -3.55281,-15.36398 -8.75978,-29.919946 -15.61447,-44.008396 -5.86674,-15.969467 -14.34683,-32.519039 -11.84098,-50.163785 11.90126,3.390859 21.45024,15.72163 30.41299,24.663713 17.27069,19.032511 29.6297,42.131598 36.81253,66.469518 9.29566,29.70969 8.53199,62.06164 1.76168,92.27979 -4.26871,14.02977 -8.55653,27.95825 -16.12387,40.71519 -12.98666,23.76373 -32.67268,43.54084 -54.37855,59.61334 -32.03872,21.68708 -71.6216,31.06222 -110.17913,27.98076 z m 3.28956,-129.02842 c -31.09273,-3.80839 -59.3884,-30.52504 -60.86134,-62.55553 -1.89019,-15.28649 1.00634,-31.3878 8.53551,-44.74846 14.03792,-25.891168 44.11399,-42.325516 73.58395,-36.911024 28.06038,5.053667 52.3052,27.198794 61.80054,53.961804 8.45268,26.83042 -3.20306,57.13146 -25.26168,73.94749 -15.7959,12.92457 -37.50992,19.54345 -57.79698,16.30572 z" />
</svg>
