<?xml version="1.0" encoding="UTF-8" standalone="no"?>
<svg
   xmlns:dc="http://purl.org/dc/elements/1.1/"
   xmlns:cc="http://creativecommons.org/ns#"
   xmlns:rdf="http://www.w3.org/1999/02/22-rdf-syntax-ns#"
   xmlns:svg="http://www.w3.org/2000/svg"
   xmlns="http://www.w3.org/2000/svg"
   xmlns:sodipodi="http://sodipodi.sourceforge.net/DTD/sodipodi-0.dtd"
   xmlns:inkscape="http://www.inkscape.org/namespaces/inkscape"
   viewBox="0 0 348 348"
   fill="none"
   version="1.1"
   id="svg831"
   sodipodi:docname="D.svg"
   inkscape:version="1.0.1 (3bc2e813f5, 2020-09-07)">
  <metadata
     id="metadata1359">
    <rdf:RDF>
      <cc:Work
         rdf:about="">
        <dc:format>image/svg+xml</dc:format>
        <dc:type
           rdf:resource="http://purl.org/dc/dcmitype/StillImage" />
        <dc:title></dc:title>
      </cc:Work>
    </rdf:RDF>
  </metadata>
  <defs
     id="defs1357" />
  <sodipodi:namedview
     pagecolor="#ffffff"
     bordercolor="#666666"
     borderopacity="1"
     objecttolerance="10"
     gridtolerance="10"
     guidetolerance="10"
     inkscape:pageopacity="0"
     inkscape:pageshadow="2"
     inkscape:window-width="1920"
     inkscape:window-height="1001"
     id="namedview1355"
     showgrid="false"
     inkscape:zoom="2.3017241"
     inkscape:cx="172.20826"
     inkscape:cy="175.40184"
     inkscape:window-x="-9"
     inkscape:window-y="-9"
     inkscape:window-maximized="1"
     inkscape:current-layer="svg831"
     inkscape:document-rotation="0" />
  <style
     id="style1281"></style>
  <path
     style="fill:none;fill-opacity:0.547244;stroke:#000000;stroke-width:1.73783"
     d=""
     id="path1453" />
  <path
     id="path2822"
     style="fill:#000000;stroke-width:0.687391"
     d="M 160.59725,345.94744 C 118.39379,342.65433 78.257243,321.91143 49.6245,290.79954 42.315987,280.58136 24.432683,266.13439 29.64948,254.37232 c 16.876195,-3.69559 34.178984,-4.18006 51.185807,-6.64951 6.330441,-0.93372 36.370513,-1.6285 33.079203,-3.55702 -13.70588,-2.39685 -33.715011,-2.70872 -47.561385,-4.29045 -18.0019,-1.51711 -36.924755,-2.08964 -52.107005,-12.6577 6.337721,-6.89761 28.644116,-6.08095 40.764461,-10.37362 21.197975,-1.56451 42.250012,-4.322 63.431239,-6.032 9.09311,-1.6857 11.90895,-1.58684 0.88462,-2.91396 -21.39891,-2.46345 -42.827596,-3.9735 -64.250474,-6.26152 -16.157631,-2.00758 -32.479569,-4.18932 -48.4907155,-7.24373 6.5553195,-6.72821 25.3502425,-8.42961 36.4216595,-11.8583 21.035079,-4.38919 54.55494,-6.09565 75.86539,-8.74395 19.16435,-2.09912 -11.30154,-4.27679 -16.86701,-5.45916 -24.819766,-1.44801 -53.564174,-4.5633 -77.969977,-8.71677 -16.4740866,-2.76314 -15.5921736,-6.30082 -4.701044,-8.10468 17.924289,-3.17314 35.909513,-5.81223 54.11349,-7.60558 16.874791,-2.58569 33.987431,-3.5488 50.984321,-4.40857 -3.55524,-5.22076 -29.572623,-3.4301 -40.960332,-5.46496 -15.332398,-1.56876 -30.48251,-4.16492 -45.893591,-4.48039 -7.711552,-1.03347 -34.9150483,-2.27158 -14.73252,-8.06045 23.530655,-3.40271 46.656634,-8.78768 70.151865,-12.31391 6.738119,-2.27442 23.154908,-2.51214 24.976758,-6.02187 C 93.846222,101.02591 69.72257,98.868907 45.704062,96.121843 33.541661,96.409013 18.762221,92.524334 32.635462,79.325118 52.354317,48.618503 82.599735,24.860501 116.79186,12.254127 c 30.0537,-11.68539426 64.23473,-14.4359116 95.69632,-6.1865088 46.7694,10.2587548 87.84483,42.3841408 112.08064,83.3739878 -6.41722,9.782567 -28.67711,4.147491 -41.13915,7.419512 -21.03857,2.779623 -40.39812,3.063987 -61.43865,5.699612 12.30218,2.52497 27.81421,3.39952 42.23064,4.4963 16.42633,2.31814 32.94355,3.27361 49.48309,4.45692 10.09216,1.48816 30.02899,-0.95347 23.9512,15.26428 -18.85871,1.99099 -37.68364,3.2349 -56.44794,5.70694 -21.61544,2.70616 -43.68527,2.50987 -64.97445,7.37288 25.20379,0.81845 50.31013,4.05094 75.36024,6.54823 16.5579,0.83253 32.91225,3.19864 49.42295,4.38431 4.1415,9.91073 -22.43145,10.13003 -30.79932,12.96406 -22.59245,4.97733 -69.74192,5.06806 -92.6156,8.26875 -4.9472,2.45317 41.0947,2.36319 46.91796,3.85945 25.02387,2.03102 50.0901,5.26687 74.0483,12.70981 15.25478,8.08533 -16.53609,8.63798 -22.04176,10.6315 -19.71872,2.73456 -39.59159,4.74729 -59.46968,5.54926 -20.88093,1.57941 -40.24286,2.97719 -39.98407,4.31184 0.25879,1.33466 20.13831,2.6062 38.10215,3.93313 19.52794,2.01671 39.07587,3.65095 58.53041,6.0164 11.01736,4.27297 23.7211,3.21981 21.08464,11.5899 -20.81596,3.86204 -41.30403,8.65609 -62.1253,9.73203 -9.08783,2.29207 -44.52613,2.46597 -46.77231,4.94871 16.54741,2.51933 45.11861,4.00071 61.78691,5.05996 13.9342,2.97642 50.47263,-1.37529 29.29619,20.31542 -17.03317,24.35269 -40.39972,44.64995 -66.78019,57.77259 -15.45319,8.3202 -32.72726,13.24919 -50.07402,16.43229 -13.15838,0.81832 -26.32055,3.66238 -39.52381,1.06175 z"
     sodipodi:nodetypes="ccccccccccccccccccccccccccccccccccccccccccccscccccccccc" />
</svg>
