<?xml version="1.0" encoding="UTF-8" standalone="no"?>
<svg
   xmlns:dc="http://purl.org/dc/elements/1.1/"
   xmlns:cc="http://creativecommons.org/ns#"
   xmlns:rdf="http://www.w3.org/1999/02/22-rdf-syntax-ns#"
   xmlns:svg="http://www.w3.org/2000/svg"
   xmlns="http://www.w3.org/2000/svg"
   xmlns:sodipodi="http://sodipodi.sourceforge.net/DTD/sodipodi-0.dtd"
   xmlns:inkscape="http://www.inkscape.org/namespaces/inkscape"
   viewBox="0 0 348 348"
   fill="none"
   version="1.1"
   id="svg831"
   sodipodi:docname="F.svg"
   inkscape:version="1.0.1 (3bc2e813f5, 2020-09-07)">
  <metadata
     id="metadata1359">
    <rdf:RDF>
      <cc:Work
         rdf:about="">
        <dc:format>image/svg+xml</dc:format>
        <dc:type
           rdf:resource="http://purl.org/dc/dcmitype/StillImage" />
        <dc:title></dc:title>
      </cc:Work>
    </rdf:RDF>
  </metadata>
  <defs
     id="defs1357" />
  <sodipodi:namedview
     pagecolor="#ffffff"
     bordercolor="#666666"
     borderopacity="1"
     objecttolerance="10"
     gridtolerance="10"
     guidetolerance="10"
     inkscape:pageopacity="0"
     inkscape:pageshadow="2"
     inkscape:window-width="1920"
     inkscape:window-height="1001"
     id="namedview1355"
     showgrid="false"
     inkscape:zoom="2.3017241"
     inkscape:cx="172.20826"
     inkscape:cy="175.40184"
     inkscape:window-x="-9"
     inkscape:window-y="-9"
     inkscape:window-maximized="1"
     inkscape:current-layer="svg831"
     inkscape:document-rotation="0" />
  <style
     id="style1281"></style>
  <path
     style="fill:none;fill-opacity:0.547244;stroke:#000000;stroke-width:1.73783"
     d=""
     id="path1453" />
  <path
     id="path2856"
     style="fill:#000000;stroke-width:0.791653"
     d="M 147.51308,342.89239 C 131.9288,339.05444 116.08066,335.97067 101.59717,328.5053 62.30506,309.70932 29.840242,276.21001 13.770394,235.60593 c 11.033278,-5.57035 27.247078,4.31558 40.534037,3.33568 23.179657,4.74267 47.297949,0.93949 69.477749,-6.01128 15.06609,-4.56651 29.49602,-10.56284 43.78431,-17.41458 10.60453,-3.93232 21.05996,-9.11837 31.77815,-13.48385 11.94462,-5.46799 24.71735,-9.34006 37.19638,-13.47824 36.45026,-9.1662 75.55886,-6.9987 104.99127,12.26867 1.91523,16.62951 -0.93249,33.94331 -7.41212,49.21182 -14.72826,31.09573 -42.84846,53.16567 -72.07758,69.4434 -18.27554,10.59498 -38.08921,18.15186 -58.71792,22.15217 -9.1748,1.28765 -18.49487,3.60743 -27.83766,3.60323 -9.34279,-0.004 -16.97046,-0.59451 -27.97393,-2.34056 z M 55.561652,235.07102 C 37.362126,232.2183 16.813474,227.96279 5.5868528,211.98965 c 2.2160317,-11.64114 23.9153252,2.19547 33.6007712,1.19552 19.202151,2.73713 38.98073,5.85077 58.24114,1.31115 15.277106,-2.05934 30.233316,-7.32282 44.891966,-12.38884 13.86829,-4.82983 27.06745,-10.48985 40.38072,-16.53028 14.65226,-5.96115 29.86059,-11.78852 45.14272,-16.32334 19.00902,-6.02234 39.19385,-9.252 59.36662,-7.65366 19.92595,0.7164 41.4863,6.8967 53.86984,23.55886 0.003,12.07592 -25.5496,-5.95477 -35.72737,-5.37493 -27.24951,-3.71287 -55.83872,-3.59104 -81.61007,6.54042 -14.39848,4.35655 -27.51523,11.82383 -41.69337,16.99583 -14.62759,6.8684 -29.44046,13.43979 -44.53983,19.39064 -21.68319,8.63873 -44.828266,13.7702 -68.379053,12.64156 -4.52367,0.003 -9.052464,-0.009 -13.569285,-0.28156 z M 52.51463,210.69033 C 33.926171,207.71751 6.4143212,200.17203 2.9608396,185.26588 c 4.8210649,-10.12566 21.6311464,3.54169 35.8919084,5.70572 16.69318,3.46408 34.27691,6.43904 51.215785,2.59457 18.872797,-1.6708 36.972987,-7.99359 54.277937,-14.8347 16.95291,-7.73119 33.89578,-14.54671 50.9925,-22.4731 10.75257,-4.41653 21.97778,-8.79462 33.12238,-12.78078 17.2923,-4.12397 35.46614,-8.94615 53.39837,-7.16562 18.22241,2.33408 35.67799,7.71821 53.34354,12.62618 14.37109,5.76105 13.76914,24.7057 -1.8361,17.17467 -15.01642,-5.75243 -30.13652,-11.9875 -46.66467,-10.29513 -21.15318,-0.7381 -41.70914,4.80038 -61.85419,10.29513 -14.19982,4.7765 -28.46581,10.6902 -42.67862,15.83307 -13.3925,5.35709 -26.80193,11.25041 -40.69499,15.80791 -24.67236,8.52358 -50.986238,14.0067 -77.465426,13.29889 -3.832728,-0.0343 -7.67252,-0.0373 -11.494634,-0.36236 z M 12.074074,176.25736 c -13.2245824,-2.5423 -15.2894293,-20.59109 2.361964,-14.89447 24.879535,10.35834 52.78704,8.20284 79.317151,7.29796 16.272121,-2.45099 32.308391,-6.77367 47.514521,-12.54959 13.3937,-5.59026 26.60287,-11.52551 39.56355,-17.39332 14.66839,-5.92035 28.86589,-13.37721 43.88982,-18.00947 23.19771,-7.98266 48.7843,-12.3943 73.22797,-6.87956 16.6779,3.35203 34.55435,11.55531 41.93588,28.04691 -9.40137,3.89002 -26.61035,-9.18902 -39.75663,-8.66877 -26.37372,-4.53833 -53.60429,-1.03609 -78.49152,8.31258 -28.19249,8.41628 -54.36232,22.88009 -82.09461,32.51014 -13.74917,5.26358 -28.17824,9.31395 -42.649698,12.71734 -31.319308,6.83762 -57.609197,-1.64168 -84.818398,-10.48975 z m 42.17131,-12.58053 C 37.388296,162.2672 21.319773,156.1671 6.4983842,148.59609 5.5994129,96.602122 57.01654,42.113354 93.931362,21.558319 104.9422,16.064237 117.23321,11.39159 129.42684,8.161137 c 21.43677,-4.972622 43.93067,-6.9503637 65.87387,-3.936639 14.28344,1.648794 28.13971,5.758788 41.3731,10.974652 43.25378,18.921656 80.15686,53.988213 97.54161,98.27468 -27.15989,-1.43949 -58.89061,-14.35865 -87.27253,-3.12696 -17.72699,3.21673 -34.39177,11.37174 -51.13894,17.37117 -18.57406,7.36907 -36.35096,15.78989 -55.10708,22.56214 -26.937,9.73542 -55.458049,16.50379 -84.388248,13.52377 l -2.063238,-0.12667 z"
     sodipodi:nodetypes="ccccccccccccscccccccccccccccccccccccccccccccccccccccccccccccccccccccccc" />
</svg>
