<?xml version="1.0" encoding="UTF-8" standalone="no"?>
<svg
   xmlns:dc="http://purl.org/dc/elements/1.1/"
   xmlns:cc="http://creativecommons.org/ns#"
   xmlns:rdf="http://www.w3.org/1999/02/22-rdf-syntax-ns#"
   xmlns:svg="http://www.w3.org/2000/svg"
   xmlns="http://www.w3.org/2000/svg"
   xmlns:sodipodi="http://sodipodi.sourceforge.net/DTD/sodipodi-0.dtd"
   xmlns:inkscape="http://www.inkscape.org/namespaces/inkscape"
   viewBox="0 0 348 348"
   fill="none"
   version="1.1"
   id="svg831"
   sodipodi:docname="H.svg"
   inkscape:version="1.0.1 (3bc2e813f5, 2020-09-07)">
  <metadata
     id="metadata1359">
    <rdf:RDF>
      <cc:Work
         rdf:about="">
        <dc:format>image/svg+xml</dc:format>
        <dc:type
           rdf:resource="http://purl.org/dc/dcmitype/StillImage" />
        <dc:title></dc:title>
      </cc:Work>
    </rdf:RDF>
  </metadata>
  <defs
     id="defs1357" />
  <sodipodi:namedview
     pagecolor="#ffffff"
     bordercolor="#666666"
     borderopacity="1"
     objecttolerance="10"
     gridtolerance="10"
     guidetolerance="10"
     inkscape:pageopacity="0"
     inkscape:pageshadow="2"
     inkscape:window-width="1920"
     inkscape:window-height="1001"
     id="namedview1355"
     showgrid="false"
     inkscape:zoom="2.3017241"
     inkscape:cx="172.20826"
     inkscape:cy="175.40184"
     inkscape:window-x="-9"
     inkscape:window-y="-9"
     inkscape:window-maximized="1"
     inkscape:current-layer="svg831"
     inkscape:document-rotation="0" />
  <style
     id="style1281"></style>
  <path
     style="fill:none;fill-opacity:0.547244;stroke:#000000;stroke-width:1.73783"
     d=""
     id="path1453" />
  <path
     id="path2891"
     style="fill:#000000;stroke-width:0.773336"
     d="m 69.015086,250.29544 c -6.540983,0.83764 -18.841708,-3.46085 -4.819259,-3.56157 13.838463,-0.99 27.454615,-3.80453 41.416443,-3.53958 22.15502,-1.02116 44.27434,-2.46153 66.43921,-3.14894 17.13203,-1.8025 34.61026,-2.35249 51.73709,-0.77721 5.39443,1.87479 22.39218,10.86122 7.57404,11.03827 -54.11258,0.39931 -108.23685,0.57057 -162.347524,-0.0117 z M 253.32253,240.25358 c -11.88104,-3.1892 -24.09815,-7.36444 -33.68518,-15.77452 -13.85522,-11.36029 -22.32937,-28.08024 -25.12529,-45.53125 0.001,-14.54295 -0.89388,-29.89225 5.14326,-43.30771 4.07161,-8.8401 9.48406,-17.72744 16.58472,-23.8294 8.7115,-8.97116 20.5858,-13.885065 32.1049,-17.630717 13.223,-2.252447 26.43046,-2.887969 39.62333,-0.03714 12.91752,4.355983 25.99674,10.331167 35.29533,20.966957 7.45777,7.3887 13.30942,15.7585 16.70885,25.66212 6.947,18.82525 5.35512,40.5226 -3.38322,58.28993 -8.38553,18.3352 -25.48703,33.11196 -44.91191,38.61774 -11.96023,4.74661 -25.63814,2.26024 -38.35479,2.57391 z M 61.101487,234.60352 c -6.150439,0.80604 -16.316096,-2.66002 -3.846387,-3.36896 14.610317,-0.0405 29.063627,-1.70311 43.59216,-2.89521 24.67892,-0.34766 49.17476,-3.38388 73.85961,-3.78194 10.90914,0.51512 25.86192,-5.45301 34.28196,1.54801 12.99662,13.64137 -13.82528,7.38276 -21.21415,8.97062 -42.22147,0.16711 -84.45997,0.44796 -126.673193,-0.47252 z m 3.273578,-17.81558 c -5.262595,0.29366 -25.494162,-1.58063 -9.260771,-3.01947 23.620439,-2.08783 47.239856,-4.15249 70.966046,-4.27472 18.57482,-1.66334 37.44084,-3.27198 56.00883,-0.86146 8.81073,0.46105 14.42317,10.7244 1.98218,8.52137 -39.89413,0.37157 -79.80732,0.4012 -119.696285,-0.36572 z M 9.5843552,201.06984 C 5.7692806,189.58881 28.352093,196.67717 35.144086,194.468 c 50.579299,-0.0577 101.167924,-0.37095 151.741434,0.37429 4.15294,12.92057 -19.47426,5.88602 -27.43707,7.94126 -49.4002,0.13617 -98.800888,0.0288 -148.201299,0.0562 -0.55424,-0.59001 -1.108616,-1.17996 -1.6627958,-1.77 z M 5.3680763,188.39235 c -11.0461676,-12.22806 12.9462857,-8.78289 20.0614097,-9.24966 50.632147,-0.13064 101.286094,-0.73154 151.906204,0.34442 10.72008,3.90236 -1.40693,12.21954 -8.66655,8.80382 -54.42913,0.49812 -108.871801,0.50021 -163.3010637,0.10137 z M 30.377574,166.5875 c -2.818167,-13.80289 19.475853,-5.12521 27.393695,-7.74281 40.80543,-0.0821 81.610991,-0.031 122.416491,-0.0453 4.08528,6.09448 -0.88406,10.95872 -7.11803,8.91154 -46.52984,-0.0733 -93.074441,0.73711 -139.592974,-0.13098 -0.989651,-0.23626 -2.479823,0.0626 -3.099182,-0.99249 z M 19.521596,152.67739 c -6.847515,-12.62162 17.693569,-5.55684 24.865249,-7.55914 43.928628,0.0134 87.890025,-0.8635 131.798235,0.47501 14.6725,3.19708 -3.31069,9.93851 -9.94075,7.51388 -48.90298,0.29061 -97.826477,0.38002 -146.722734,-0.42975 z M 6.1080802,138.05182 c -3.0080476,-13.98616 21.6777118,-5.08669 30.4375758,-7.78747 49.783191,0.11341 99.590894,-0.65612 149.358244,0.60564 7.98582,12.5744 -17.03951,7.20245 -24.26587,8.48889 -50.95931,-0.11676 -101.949355,0.73107 -152.8905007,-0.51465 L 6.8435458,138.50148 Z M 162.97537,125.84572 c -24.79953,-2.3662 -49.73844,-1.71674 -74.558979,-3.72811 -18.623798,-0.21334 -37.166249,-1.52009 -55.635675,-3.71485 -5.474727,0.92203 -22.669797,-2.7774 -7.681587,-2.89901 57.253557,-0.36341 114.538851,-0.98453 171.777461,0.28765 -2.82228,7.18908 -20.36322,9.46756 -29.71646,10.15519 l -2.15879,-0.01 z m 6.18667,-16.21037 c -19.82788,-1.58316 -39.76819,-1.00544 -59.59102,-2.88402 -21.197535,-0.31266 -42.33092,-1.83219 -63.284471,-4.89155 6.914321,-4.083741 25.741178,-1.03908 37.122664,-2.199021 42.260127,-0.10204 84.536797,-0.786809 126.787867,0.111072 7.05322,4.978309 -12.93356,12.697429 -19.39434,10.992249 -7.22111,-0.0335 -14.47281,-0.19028 -21.6407,-1.12871 z m 19.33339,-15.137355 c -19.67537,-1.592034 -39.46155,-1.52437 -59.08345,-3.70201 -22.5513,-0.09351 -44.86951,-3.297867 -67.404332,-3.787288 -13.415866,-2.924703 10.275763,-3.502481 14.193645,-3.382325 52.502857,-0.552921 105.040147,-1.117433 157.532277,0.140847 14.87412,1.803323 -8.81768,7.842723 -13.39624,10.992298 -10.54739,0.929931 -21.29955,0.658038 -31.8419,-0.261506 z" />
</svg>
