<?xml version="1.0" encoding="UTF-8" standalone="no"?>
<svg
   xmlns:dc="http://purl.org/dc/elements/1.1/"
   xmlns:cc="http://creativecommons.org/ns#"
   xmlns:rdf="http://www.w3.org/1999/02/22-rdf-syntax-ns#"
   xmlns:svg="http://www.w3.org/2000/svg"
   xmlns="http://www.w3.org/2000/svg"
   xmlns:sodipodi="http://sodipodi.sourceforge.net/DTD/sodipodi-0.dtd"
   xmlns:inkscape="http://www.inkscape.org/namespaces/inkscape"
   viewBox="0 0 348 348"
   fill="none"
   version="1.1"
   id="svg831"
   sodipodi:docname="I.svg"
   inkscape:version="1.0.1 (3bc2e813f5, 2020-09-07)">
  <metadata
     id="metadata1359">
    <rdf:RDF>
      <cc:Work
         rdf:about="">
        <dc:format>image/svg+xml</dc:format>
        <dc:type
           rdf:resource="http://purl.org/dc/dcmitype/StillImage" />
        <dc:title></dc:title>
      </cc:Work>
    </rdf:RDF>
  </metadata>
  <defs
     id="defs1357" />
  <sodipodi:namedview
     pagecolor="#ffffff"
     bordercolor="#666666"
     borderopacity="1"
     objecttolerance="10"
     gridtolerance="10"
     guidetolerance="10"
     inkscape:pageopacity="0"
     inkscape:pageshadow="2"
     inkscape:window-width="1920"
     inkscape:window-height="1001"
     id="namedview1355"
     showgrid="false"
     inkscape:zoom="2.3017241"
     inkscape:cx="172.20826"
     inkscape:cy="175.40184"
     inkscape:window-x="-9"
     inkscape:window-y="-9"
     inkscape:window-maximized="1"
     inkscape:current-layer="svg831"
     inkscape:document-rotation="0" />
  <style
     id="style1281"></style>
  <path
     style="fill:none;fill-opacity:0.547244;stroke:#000000;stroke-width:1.73783"
     d=""
     id="path1453" />
  <path
     id="path2909"
     style="fill:#000000;stroke-width:0.75439"
     d="m 147.45944,345.20092 c -31.51396,-5.31724 -57.725107,-30.87182 -67.122694,-60.85906 -7.206438,-30.80623 -0.769405,-66.85254 24.198064,-88.10839 15.34165,-13.91231 36.07272,-19.34023 56.56724,-19.56899 21.21923,0.29343 16.85737,-26.18352 13.34609,-39.91558 C 167.50367,116.38607 151.84611,100.39265 134.28802,88.554636 111.8609,75.088412 82.674977,72.549326 58.630755,82.677179 40.88236,88.361025 27.529424,103.01872 17.277103,118.12848 12.470813,103.5593 27.706391,88.596698 38.135731,78.818714 57.242952,61.973935 82.858894,52.549201 108.40653,55.861867 c 26.92151,3.045307 48.42374,23.371672 62.15222,45.670063 10.31876,16.16388 14.95092,35.46367 16.34091,54.16685 6.65853,-15.13878 5.53984,-32.69014 3.18391,-48.82808 C 185.32833,85.333722 171.4741,65.103743 151.44037,54.530015 140.73448,46.964501 126.91115,43.415929 113.70907,41.8598 94.833248,36.825351 75.913666,43.889454 59.742679,53.008876 50.667181,50.085226 72.320362,37.254775 78.525833,34.33137 93.78997,26.473209 110.76621,20.847289 128.22739,23.298618 c 31.45712,4.676364 59.15352,27.676493 72.39945,56.339591 5.40004,13.795406 8.62904,29.721631 3.8773,44.022471 -0.87083,11.05754 -10.85896,27.12767 -8.42335,34.71644 16.12216,-13.91497 25.47109,-34.70426 23.89092,-56.09932 1.03169,-15.630741 -1.08111,-31.095658 -8.98851,-44.689123 -13.7479,-25.744016 -41.65802,-42.212452 -70.333,-44.370621 -8.34786,0.781098 -18.07188,-0.74943 -4.15808,-5.4837343 31.28737,-8.2988023 66.58536,5.3805063 85.17903,31.8261703 17.82486,21.74984 21.96307,53.144143 12.66132,79.435168 -5.97081,15.94674 -15.99263,30.56569 -27.42805,43.44437 11.31079,-1.01442 22.79309,-12.62752 29.6168,-22.62287 11.01467,-15.87666 14.33003,-35.87075 13.268,-55.141922 -0.24656,-32.119752 -20.43714,-63.923199 -51.40517,-74.821265 -9.20688,-2.2024167 -13.29371,-8.5592086 -0.12791,-7.104197 27.91132,-1.5626378 49.37254,20.996726 61.75141,43.647902 8.57579,17.014499 14.95191,36.923861 9.37868,55.830672 -7.45754,23.95291 -21.90038,45.77595 -39.22822,63.87949 -4.93999,5.95628 -27.28764,16.55521 -6.42433,11.21025 21.37634,-3.22198 38.12175,-17.73087 50.93327,-34.3847 8.10867,-14.39987 14.06644,-30.32064 12.86671,-47.263219 2.14815,-22.72381 -6.62681,-45.176747 -22.55979,-61.278871 -10.33411,-14.300286 16.18921,1.129687 18.67951,7.511927 12.25938,13.773678 21.27949,30.423075 25.11916,48.352687 1.48678,19.726516 -0.81132,39.846456 -10.63474,57.293736 -15.46487,25.19396 -46.09056,35.13516 -74.21956,36.08295 -10.55145,0.92527 -23.67179,-1.21877 -32.65491,1.46465 17.26301,11.00375 39.34879,17.12707 59.95762,13.4038 16.4561,-2.90678 31.9138,-9.83523 43.7885,-21.94596 21.96223,-18.88159 32.96811,-50.14147 25.2852,-78.338641 -2.00179,-5.870681 -4.62524,-25.828887 4.18383,-12.150304 19.31673,32.372905 13.62954,77.951575 -14.20633,103.715635 -16.63566,17.03674 -40.11598,26.50817 -63.93165,24.27492 -21.52813,1.10571 -40.75824,-10.19477 -58.8883,-20.28155 7.9666,17.59917 25.35735,29.65212 43.50911,34.92954 15.65751,3.59729 32.19473,4.60634 48.02191,0.76869 17.85425,-5.27437 33.50059,-15.78801 45.51519,-30.02944 12.8641,-12.70866 16.59801,-30.73668 19.82605,-47.74574 4.44697,13.27947 2.8401,28.35857 -1.00856,41.49165 -9.3132,24.76902 -28.97488,47.209 -54.66339,55.88363 -23.27507,7.12864 -49.75841,4.60488 -70.69947,-8.17761 -20.30705,-12.321 -37.042,-33.00761 -40.01042,-57.22434 -11.74414,-6.30385 0.93962,18.42974 2.89926,24.58506 9.15647,24.98669 26.83259,49.69701 53.15353,58.1876 22.53915,5.89258 48.48715,5.48674 69.04564,-6.49117 14.79239,-7.35546 24.9979,-21.70804 34.25658,-34.45857 4.72662,12.99228 -8.53519,27.18381 -17.07487,36.97903 -19.30677,19.67985 -47.67642,33.74939 -75.64733,28.07578 -14.92397,-2.07628 -28.71845,-8.26505 -40.04664,-18.16837 -21.97887,-18.56765 -37.00691,-46.08371 -37.30018,-75.00821 -4.28807,-9.08096 -4.93363,17.0171 -4.64072,21.37005 2.22208,14.8231 3.71668,30.43309 11.46876,43.28487 9.20689,18.29548 24.76388,34.4365 44.22946,41.2717 12.68502,6.56137 28.08708,4.26367 42.17939,4.33261 13.31586,-2.78797 25.55028,-8.54233 37.51663,-15.15336 -0.42504,11.59836 -20.20997,21.05924 -31.67353,26.18836 -17.41271,6.4389 -37.20533,8.06802 -54.77745,1.24241 -18.5911,-4.79132 -33.9642,-18.13004 -46.25064,-32.77609 -14.21014,-18.87 -20.54143,-43.54804 -14.87154,-66.89133 3.2017,-10.44535 7.76981,-21.40042 9.54318,-32.33305 -16.95544,17.68073 -28.28849,41.66311 -25.41997,66.58402 1.79596,26.3223 19.14858,48.97146 37.94362,66.48998 12.47336,11.61745 28.71317,18.00186 45.72397,17.92304 -1.05737,9.85536 -26.14024,5.89118 -35.81563,3.27552 -23.29611,-5.19831 -43.47288,-21.57685 -55.90612,-42.20555 -13.02354,-24.21358 -14.33216,-54.16737 -4.78493,-79.80212 7.40997,-15.90285 24.2693,-24.45709 33.7805,-38.77893 -15.24876,0.35265 -29.91673,11.51915 -39.3264,23.64644 -15.76663,19.5779 -18.501672,45.40859 -16.502618,69.60444 1.566388,14.9762 6.854818,30.08879 16.533798,41.5463 9.1349,15.3362 30.26926,18.24751 40.66765,29.32318 -3.01819,0.81785 -6.32079,-0.38111 -9.38658,-0.31425 z M 83.324985,320.68193 C 59.670148,306.31331 42.669029,280.30425 42.622749,252.126 c -0.811368,-17.26786 3.026503,-35.07362 12.517027,-49.39051 10.711273,-18.9373 28.880502,-34.18711 49.268414,-40.85708 15.14973,-4.37194 32.05905,-3.57258 47.21152,0.33547 19.14899,5.30211 -8.89135,-10.53654 -15.74134,-11.12795 -30.30357,-10.28472 -65.212154,0.84852 -85.735187,24.99685 -15.91392,17.32224 -24.445417,41.23262 -22.66258,64.67696 -0.169743,8.47295 8.922545,24.08471 4.31056,28.18609 -9.792557,-13.00786 -15.993646,-28.91787 -15.210762,-45.63014 -1.821665,-25.06859 7.281827,-50.44721 25.756629,-67.7729 21.734817,-22.71225 56.837808,-28.59585 86.3113,-20.41656 12.22719,1.78565 27.90345,23.91617 34.89245,18.52684 -13.86731,-23.13972 -39.05247,-39.135 -66.335501,-38.39235 C 70.565488,112.60015 44.32992,124.9986 27.801693,145.73384 16.279444,159.12465 11.03812,176.458 9.1556719,193.73377 -2.5471434,194.47566 2.3691131,166.90189 5.7120475,157.15375 14.787089,131.55761 35.482167,110.77853 60.144831,99.433849 76.984228,92.511471 97.35301,90.706019 114.60206,97.73369 c 20.92337,7.257 40.05577,22.25936 52.18732,40.85233 8.8305,11.52615 12.91198,37.98058 -9.13035,34.54878 -33.70649,-8.88446 -71.407164,8.97134 -86.652105,40.23636 -7.098792,12.1879 -10.160365,27.65295 -9.38127,42.10717 -1.764607,23.14095 9.014385,44.99323 24.419469,61.60425 3.337725,1.93998 -0.457648,7.06254 -2.720139,3.59935 z"
     sodipodi:nodetypes="cccccccccccccccccccccccccccccccccccccccccccccccccccccccccccccccccccccccccccccccccccccccccccccccccccccccccccccccccc" />
</svg>
