<?xml version="1.0" encoding="UTF-8" standalone="no"?>
<svg
   xmlns:dc="http://purl.org/dc/elements/1.1/"
   xmlns:cc="http://creativecommons.org/ns#"
   xmlns:rdf="http://www.w3.org/1999/02/22-rdf-syntax-ns#"
   xmlns:svg="http://www.w3.org/2000/svg"
   xmlns="http://www.w3.org/2000/svg"
   xmlns:sodipodi="http://sodipodi.sourceforge.net/DTD/sodipodi-0.dtd"
   xmlns:inkscape="http://www.inkscape.org/namespaces/inkscape"
   viewBox="0 0 348 348"
   fill="none"
   version="1.1"
   id="svg831"
   sodipodi:docname="J.svg"
   inkscape:version="1.0.1 (3bc2e813f5, 2020-09-07)">
  <metadata
     id="metadata1359">
    <rdf:RDF>
      <cc:Work
         rdf:about="">
        <dc:format>image/svg+xml</dc:format>
        <dc:type
           rdf:resource="http://purl.org/dc/dcmitype/StillImage" />
        <dc:title></dc:title>
      </cc:Work>
    </rdf:RDF>
  </metadata>
  <defs
     id="defs1357" />
  <sodipodi:namedview
     pagecolor="#ffffff"
     bordercolor="#666666"
     borderopacity="1"
     objecttolerance="10"
     gridtolerance="10"
     guidetolerance="10"
     inkscape:pageopacity="0"
     inkscape:pageshadow="2"
     inkscape:window-width="1920"
     inkscape:window-height="1001"
     id="namedview1355"
     showgrid="false"
     inkscape:zoom="2.3017241"
     inkscape:cx="172.20826"
     inkscape:cy="175.40184"
     inkscape:window-x="-9"
     inkscape:window-y="-9"
     inkscape:window-maximized="1"
     inkscape:current-layer="svg831"
     inkscape:document-rotation="0" />
  <style
     id="style1281"></style>
  <path
     style="fill:none;fill-opacity:0.547244;stroke:#000000;stroke-width:1.73783"
     d=""
     id="path1453" />
  <path
     id="path2926"
     style="fill:#000000;stroke-width:0.684719"
     d="M 99.925839,275.71163 C 85.585046,272.56583 71.067783,269.11085 58.689261,260.7304 38.535061,248.25995 20.657394,229.76946 10.95646,207.73341 5.4003091,195.70341 1.9643326,182.54867 2.6975984,169.11351 1.5125796,153.98477 4.4366433,139.15494 10.447905,125.30499 23.095329,98.072568 46.618786,76.275518 73.980852,64.19866 93.708319,55.931961 116.5406,54.270742 137.71151,58.299017 c 27.39651,5.978157 50.73459,24.558714 68.00331,46.102423 7.42386,9.93385 13.24729,20.49952 17.72414,31.8643 12.10754,0.81365 24.67997,-8.50974 37.12932,-11.07867 12.34076,-5.02955 25.61708,-7.8402 38.61059,-11.06516 14.90928,-0.97299 40.57033,-10.73024 42.79491,5.43712 -3.63386,8.41982 -11.93847,11.49619 -25.14294,15.08177 -16.4489,2.4368 -33.25813,3.63329 -49.13019,8.69677 -13.56961,3.30745 -26.48839,9.10387 -38.36305,16.08667 10.5477,0.45529 20.87688,-2.66905 31.26519,-3.87402 14.35503,-3.34232 29.04363,-5.61551 43.77412,-6.20637 8.09363,1.53254 26.35363,-2.0884 20.2869,13.49948 -6.63285,10.68812 -13.85945,7.12802 -25.16682,9.71802 -17.08994,3.96137 -34.48965,6.34888 -51.72318,9.73559 -13.7168,-0.33003 -24.64213,4.67078 -26.78876,19.36737 -12.38163,25.98894 -32.21431,49.92115 -58.46939,62.86418 -11.27043,6.34685 -24.6263,9.70893 -37.65797,11.2125 -8.29683,0.28543 -16.64779,0.63268 -24.931851,-0.0293 z m 56.165731,-73.06265 c 10.62242,-3.70532 21.04333,-7.54316 30.97794,-12.55912 12.83058,-4.55114 25.66502,-9.95144 39.32808,-12.16354 13.75098,-3.86159 27.79669,-6.60132 41.96896,-8.59342 14.63579,-2.57607 29.5644,-3.45909 44.40021,-4.42519 9.11698,-1.79774 11.88902,-7.9429 0.0411,-5.79756 -14.93256,0.0991 -30.06742,-0.99427 -44.63643,2.73244 -17.62853,3.80816 -35.20136,9.6025 -52.08238,15.72673 -10.69761,4.02927 -21.57044,7.1742 -32.22236,11.36037 -12.07891,2.18915 -23.99488,7.86849 -36.51716,6.68678 -7.14592,-0.60591 -15.5163,-13.93239 -13.22922,0.67824 -0.77112,8.00618 5.22797,7.89428 11.23544,7.2939 3.53844,-0.19072 7.37692,0.38829 10.73582,-0.93963 z m 13.00965,-25.32493 c 10.00477,-3.96669 19.96185,-7.92528 29.57343,-12.76443 9.90987,-3.78873 19.08906,-8.55332 28.95116,-12.29853 11.81312,-5.07928 23.72014,-11.151 36.43559,-13.81498 12.87039,-3.86906 26.27027,-5.8512 39.03683,-9.87609 7.66059,-2.11851 27.99527,-5.58481 27.91188,-10.50127 -15.61767,-1.043 -31.09615,1.66474 -45.81993,6.49993 -10.98526,2.93804 -21.59633,7.04914 -32.30349,10.9792 -15.80985,6.37503 -31.50031,13.36315 -47.40544,19.42568 -9.03882,4.17604 -18.47538,7.85313 -27.98666,11.3082 -9.83632,7.79785 -25.17388,3.00071 -30.03531,-2.32943 -6.05655,17.20519 10.32609,15.30077 21.64194,13.37172 z m -75.435671,-20.6387 c 12.620521,-6.30675 26.814381,-11.51098 41.215151,-9.28295 12.18115,6.80228 7.57198,-15.44474 -3.66925,-7.83396 -5.8635,1.0297 -26.87092,7.81285 -14.25456,-3.25521 10.63302,-6.63944 23.39955,-17.67036 36.63594,-10.85996 6.41386,-8.93124 -4.64335,-12.07119 -12.20194,-8.34171 -17.77755,11.22212 -34.22927,24.73727 -49.251969,39.42124 -1.683863,0.8481 1.423581,2.69982 1.526628,0.15255 z"
     sodipodi:nodetypes="cccccccccccccccccccccccccccccccccccccccccccccccccccccccccc" />
</svg>
