<?xml version="1.0" encoding="UTF-8" standalone="no"?>
<svg
   xmlns:dc="http://purl.org/dc/elements/1.1/"
   xmlns:cc="http://creativecommons.org/ns#"
   xmlns:rdf="http://www.w3.org/1999/02/22-rdf-syntax-ns#"
   xmlns:svg="http://www.w3.org/2000/svg"
   xmlns="http://www.w3.org/2000/svg"
   xmlns:sodipodi="http://sodipodi.sourceforge.net/DTD/sodipodi-0.dtd"
   xmlns:inkscape="http://www.inkscape.org/namespaces/inkscape"
   viewBox="0 0 348 348"
   fill="none"
   version="1.1"
   id="svg831"
   sodipodi:docname="K.svg"
   inkscape:version="1.0.1 (3bc2e813f5, 2020-09-07)">
  <metadata
     id="metadata1359">
    <rdf:RDF>
      <cc:Work
         rdf:about="">
        <dc:format>image/svg+xml</dc:format>
        <dc:type
           rdf:resource="http://purl.org/dc/dcmitype/StillImage" />
        <dc:title></dc:title>
      </cc:Work>
    </rdf:RDF>
  </metadata>
  <defs
     id="defs1357" />
  <sodipodi:namedview
     pagecolor="#ffffff"
     bordercolor="#666666"
     borderopacity="1"
     objecttolerance="10"
     gridtolerance="10"
     guidetolerance="10"
     inkscape:pageopacity="0"
     inkscape:pageshadow="2"
     inkscape:window-width="1920"
     inkscape:window-height="1001"
     id="namedview1355"
     showgrid="false"
     inkscape:zoom="2.3017241"
     inkscape:cx="172.20826"
     inkscape:cy="172.39042"
     inkscape:window-x="-9"
     inkscape:window-y="-9"
     inkscape:window-maximized="1"
     inkscape:current-layer="svg831"
     inkscape:document-rotation="0" />
  <style
     id="style1281"></style>
  <path
     style="fill:none;fill-opacity:0.547244;stroke:#000000;stroke-width:1.73783"
     d=""
     id="path1453" />
  <path
     id="path2943"
     style="fill:#000000;stroke-width:0.743781"
     d="M 105.83683,342.80145 C 61.653361,336.86166 24.083861,302.25141 9.8782596,260.66034 3.8965469,241.50435 4.2193234,220.77958 6.3671942,200.87909 12.307208,170.11654 31.99428,142.47532 57.467697,124.52303 c 20.90363,-15.68774 47.617173,-23.58987 73.899583,-21.64205 45.90195,-0.0779 87.75389,31.99344 106.15488,73.03748 9.8001,23.1854 12.38762,49.64445 6.43673,74.21966 -6.41399,30.61729 -27.27892,56.127 -52.38476,74.07424 -14.01283,8.29519 -28.81776,16.15957 -45.46383,17.82111 -12.9558,2.88475 -27.16126,2.20566 -40.27347,0.76798 z m 32.08886,-13.36661 c 23.09162,-3.00219 45.02869,-13.99684 61.08449,-30.97182 20.24156,-19.88076 31.99479,-47.39833 30.77007,-75.82525 1.3468,-30.86362 -12.84799,-61.54308 -37.32903,-80.5143 -10.43954,-8.60752 -22.20553,-15.26179 -35.29349,-18.36601 -35.61925,-10.45484 -77.920791,-3.56129 -104.336142,23.87992 -30.638112,28.11089 -39.245017,75.63085 -24.671962,114.11334 12.434611,29.73467 37.698221,55.22341 68.755194,64.33709 13.20314,3.38072 27.45535,6.45259 41.02087,3.34703 z m 102.485,-43.94628 c 8.7026,-20.7994 14.49117,-42.96045 14.48739,-65.65779 -2.00273,-27.29711 -9.62421,-54.93697 -28.10312,-75.89107 -20.31793,-25.63867 -50.51098,-43.44297 -82.65334,-47.940854 -21.621,-3.391034 -44.259464,-1.253178 -64.708998,5.838784 -8.373157,1.94129 -19.272712,11.24832 -25.945092,10.2773 15.165943,-17.01025 34.706977,-29.849098 51.33172,-45.497079 22.43329,-18.705065 44.34455,-38.046377 66.9211,-56.565173 9.68281,-1.6331627 -10.08505,15.07586 -13.14848,19.081277 -4.86435,5.220269 -23.15852,23.197209 -19.40064,21.754661 C 162.13029,34.911103 182.90822,15.901348 206.34709,0.71838686 205.65246,13.502286 189.10188,23.93269 180.70503,34.363714 173.35437,42.735927 155.98323,58.255342 157.32489,64.36289 185.2763,43.723833 211.44025,20.591646 238.94871,-0.43231464 245.07406,2.8852627 225.30129,19.689337 221.69186,27.85518 c -11.69544,14.7755 -22.94862,30.309766 -34.55035,45.38771 2.44537,3.202802 19.35408,-13.598337 27.51269,-17.8916 21.45545,-16.258644 42.69674,-32.546111 64.76609,-47.8566439 4.29982,7.2763419 -15.37587,22.4096259 -20.65643,32.3588629 -11.25936,14.885928 -23.06748,29.512269 -34.27121,44.319322 10.09144,-6.0714 24.80801,-17.811218 36.12511,-26.2944 15.07767,-10.437948 28.85333,-22.867629 44.6507,-32.080648 -0.9531,11.732986 -16.976,23.799474 -23.53116,35.614776 -11.53267,15.540393 -23.98516,30.429396 -34.67425,46.530951 26.78498,-18.874604 53.08329,-38.135666 79.91602,-56.841108 8.50636,2.150588 -10.09837,18.697887 -13.0693,25.429779 -13.53507,19.40511 -28.05317,38.515889 -41.49637,58.044189 6.71628,-1.76312 21.75157,-17.97272 31.7034,-25.28452 13.70684,-10.131078 25.06868,-24.579439 40.35122,-31.873812 -5.53023,15.389938 -17.20206,28.243832 -25.30316,42.509432 -10.60219,17.3583 -21.71045,34.36928 -32.57828,51.46861 9.96734,-5.16387 25.97621,-24.95387 38.263,-35.97999 5.0979,-6.34767 26.47804,-25.66161 13.88327,-6.42627 -16.765,25.62414 -34.12348,50.51461 -50.99723,76.0475 9.20387,-5.95215 21.1109,-20.77685 30.99458,-30.60755 4.4706,-5.32813 21.98516,-22.76384 11.7045,-5.36489 -14.08,19.43323 -28.19604,37.59793 -41.99944,57.04965 -15.45074,19.75696 -29.3166,40.95292 -45.3707,60.12113 -0.12986,0.61125 -4.6898,2.03774 -2.65387,-0.7471 z" />
</svg>
