<?xml version="1.0" encoding="UTF-8" standalone="no"?>
<svg
   xmlns:dc="http://purl.org/dc/elements/1.1/"
   xmlns:cc="http://creativecommons.org/ns#"
   xmlns:rdf="http://www.w3.org/1999/02/22-rdf-syntax-ns#"
   xmlns:svg="http://www.w3.org/2000/svg"
   xmlns="http://www.w3.org/2000/svg"
   xmlns:sodipodi="http://sodipodi.sourceforge.net/DTD/sodipodi-0.dtd"
   xmlns:inkscape="http://www.inkscape.org/namespaces/inkscape"
   viewBox="0 0 348 348"
   fill="none"
   version="1.1"
   id="svg831"
   sodipodi:docname="M.svg"
   inkscape:version="1.0.1 (3bc2e813f5, 2020-09-07)">
  <metadata
     id="metadata1359">
    <rdf:RDF>
      <cc:Work
         rdf:about="">
        <dc:format>image/svg+xml</dc:format>
        <dc:type
           rdf:resource="http://purl.org/dc/dcmitype/StillImage" />
        <dc:title></dc:title>
      </cc:Work>
    </rdf:RDF>
  </metadata>
  <defs
     id="defs1357" />
  <sodipodi:namedview
     pagecolor="#ffffff"
     bordercolor="#666666"
     borderopacity="1"
     objecttolerance="10"
     gridtolerance="10"
     guidetolerance="10"
     inkscape:pageopacity="0"
     inkscape:pageshadow="2"
     inkscape:window-width="1920"
     inkscape:window-height="1001"
     id="namedview1355"
     showgrid="false"
     inkscape:zoom="2.3017241"
     inkscape:cx="172.20826"
     inkscape:cy="172.39042"
     inkscape:window-x="-9"
     inkscape:window-y="-9"
     inkscape:window-maximized="1"
     inkscape:current-layer="svg831"
     inkscape:document-rotation="0" />
  <style
     id="style1281"></style>
  <path
     style="fill:none;fill-opacity:0.547244;stroke:#000000;stroke-width:1.73783"
     d=""
     id="path1453" />
  <path
     id="path2977"
     style="fill:#000000;stroke-width:0.731782"
     d="m 154.25164,345.07855 c -15.12263,-2.37389 -30.54808,-6.09674 -44.16813,-12.80835 -13.551267,-5.30675 -26.351652,-11.96741 -37.695083,-21.5194 -5.05516,-8.66497 17.650983,6.26154 23.438454,8.16671 31.739639,11.43582 67.015309,14.14098 99.949449,6.46496 38.03434,-9.68456 70.56017,-37.34606 89.0983,-71.39226 6.21018,-13.94412 10.90702,-28.72622 12.4586,-44.18147 4.28204,-23.14863 -1.41429,-46.72519 -8.28287,-68.74569 -6.79218,-15.20206 -13.45807,-30.62046 -24.67745,-43.542424 -4.08156,-16.506813 14.60009,-34.350922 26.82917,-41.000166 11.65203,-3.053227 25.01432,20.066376 32.2223,32.542582 8.30887,17.639888 14.79351,36.188518 17.79742,55.773578 3.00039,18.28031 2.06471,37.30871 1.01404,55.80667 -4.57132,29.73275 -16.61784,58.42106 -35.66863,81.66567 -19.27204,23.52915 -43.93592,42.97702 -72.18552,53.72487 -25.20792,9.42484 -53.08748,12.30726 -80.13005,9.04472 z M 48.361075,287.47187 C 31.483711,270.53156 19.875971,248.92803 13.208337,226.30252 3.4716311,198.54462 3.2338998,168.06223 7.8417191,139.15353 14.57835,104.57343 32.665203,72.591196 58.329486,48.331764 89.204155,17.619608 132.90778,-0.411799 176.80366,2.1268713 c 23.72897,-0.8255751 46.53762,6.1114299 67.82299,15.5474637 11.36845,5.890056 24.69298,11.211948 31.84805,21.685533 -13.86543,-5.600205 -27.51101,-12.987931 -42.36802,-16.288825 -24.7783,-5.392724 -50.84228,-5.7223 -75.90486,-1.906798 -10.69318,3.132222 -21.71862,5.524609 -31.20904,11.085342 -29.093647,14.157612 -52.76559,39.41785 -66.043285,68.375753 -9.112932,23.47852 -13.223639,49.58169 -9.099468,74.75445 3.891741,28.4101 18.173262,54.03087 35.556552,76.47547 -0.228645,16.05476 -20.672317,28.49614 -31.955221,40.26624 -2.689734,2.316 -4.889332,-4 -7.090283,-4.64963 z m 116.867285,-7.89428 c -18.30332,-0.78458 -33.95341,-9.71198 -48.85246,-19.38961 9.04903,-5.63135 27.67974,7.33995 40.43886,7.24176 28.00633,4.0288 57.2655,-6.76393 75.0999,-28.85832 20.13869,-22.10592 27.64487,-55.7218 16.00015,-83.63566 -2.92086,-13.70499 -18.59033,-22.93479 -16.94312,-37.28723 7.50657,-18.789397 28.97506,-24.488652 36.65423,-2.44087 10.69943,18.8403 16.2339,40.59552 14.65784,62.33773 -0.003,36.49278 -23.29684,70.08979 -54.07183,88.5653 -11.68215,6.41328 -24.93583,11.24192 -38.52434,12.82067 -8.06532,1.19655 -16.33669,1.12875 -24.45923,0.64623 z M 99.54614,244.75149 C 81.937812,226.3747 72.541305,201.4896 70.830001,176.45012 c -0.652067,-23.5024 5.139308,-47.35387 19.207809,-66.41099 19.26829,-28.038267 51.66947,-47.066769 86.05232,-46.579401 20.27152,-0.609242 40.79972,5.529042 56.88266,17.953292 -7.44449,5.060068 -26.39847,-5.1134 -38.70157,-6.38095 -29.87151,-3.401071 -59.89867,11.427239 -77.46576,35.349809 -17.409001,22.23677 -20.295987,54.471 -10.41684,80.6725 1.96932,15.86051 23.82272,24.68992 9.73105,42.0827 -3.6467,5.94856 -9.92887,17.4258 -16.57353,11.61441 z"
     sodipodi:nodetypes="cccccccccccccccccccccccccccccccccccccccccccccccccccc" />
</svg>
