<?xml version="1.0" encoding="UTF-8" standalone="no"?>
<svg
   xmlns:dc="http://purl.org/dc/elements/1.1/"
   xmlns:cc="http://creativecommons.org/ns#"
   xmlns:rdf="http://www.w3.org/1999/02/22-rdf-syntax-ns#"
   xmlns:svg="http://www.w3.org/2000/svg"
   xmlns="http://www.w3.org/2000/svg"
   xmlns:sodipodi="http://sodipodi.sourceforge.net/DTD/sodipodi-0.dtd"
   xmlns:inkscape="http://www.inkscape.org/namespaces/inkscape"
   viewBox="0 0 348 348"
   fill="none"
   version="1.1"
   id="svg831"
   sodipodi:docname="N.svg"
   inkscape:version="1.0.1 (3bc2e813f5, 2020-09-07)">
  <metadata
     id="metadata1359">
    <rdf:RDF>
      <cc:Work
         rdf:about="">
        <dc:format>image/svg+xml</dc:format>
        <dc:type
           rdf:resource="http://purl.org/dc/dcmitype/StillImage" />
        <dc:title></dc:title>
      </cc:Work>
    </rdf:RDF>
  </metadata>
  <defs
     id="defs1357" />
  <sodipodi:namedview
     pagecolor="#ffffff"
     bordercolor="#666666"
     borderopacity="1"
     objecttolerance="10"
     gridtolerance="10"
     guidetolerance="10"
     inkscape:pageopacity="0"
     inkscape:pageshadow="2"
     inkscape:window-width="1920"
     inkscape:window-height="1001"
     id="namedview1355"
     showgrid="false"
     inkscape:zoom="2.3017241"
     inkscape:cx="172.20826"
     inkscape:cy="172.39042"
     inkscape:window-x="-9"
     inkscape:window-y="-9"
     inkscape:window-maximized="1"
     inkscape:current-layer="svg831"
     inkscape:document-rotation="0" />
  <style
     id="style1281"></style>
  <path
     style="fill:none;fill-opacity:0.547244;stroke:#000000;stroke-width:1.73783"
     d=""
     id="path1453" />
  <path
     id="path2994"
     style="fill:#000000;stroke-width:0.729274"
     d="M 137.53886,337.21014 C 96.08589,328.57766 60.939839,299.85264 36.333331,266.07061 26.025227,251.16871 16.803119,235.28764 11.523605,217.98149 2.8548018,197.21963 3.3254801,173.59562 5.5056433,151.46842 7.8624836,138.87363 11.148412,125.9995 16.329023,114.58316 37.466159,68.100062 79.405311,31.769614 127.88259,16.294339 c 23.18977,-5.931347 47.60286,-9.0418555 71.42906,-4.764873 39.43649,4.357384 76.17988,24.994178 102.63414,54.436651 27.45414,29.262684 43.54826,69.252333 41.82021,109.483733 2.29048,41.86622 -18.99515,81.33872 -46.52129,111.58594 -22.20465,25.36342 -51.91095,45.93958 -85.56996,50.65513 -24.67081,0.71105 -49.51985,1.36178 -74.13589,-0.48078 z m 75.629,-22.50423 c 37.84161,-7.22115 68.57986,-35.81123 88.61936,-67.92403 C 320.5584,216.7115 328.71346,179.39819 320.66505,144.59882 311.62843,106.48693 285.1487,74.245206 254.36639,51.116345 235.1031,38.396634 212.47701,30.834114 189.23219,32.526328 163.63221,33.155543 136.43493,29.156794 112.90838,41.546242 90.804876,51.216514 74.222352,69.279873 58.196963,86.784232 39.611734,111.13353 25.270858,140.35827 26.424945,171.66666 c -0.870619,29.23417 10.795078,56.53458 27.322407,80.18686 21.105577,29.82237 50.151268,57.96866 87.379618,63.94272 23.26752,0.45366 46.59822,0.65373 69.8421,-0.46246 l 2.19861,-0.62787 z m -55.48721,-24.70754 c -14.29744,-13.67099 -22.35041,-31.71063 -32.37295,-48.33544 -0.0891,-11.08125 23.04487,-3.15544 32.33145,-5.3397 20.12026,-1.61187 6.91095,28.22998 10.64343,40.8517 -0.98704,9.08111 3.8283,29.90882 -10.60193,12.82344 z m 27.14055,5.09791 c -0.1645,-19.19094 -1.60231,-38.75913 0.68635,-57.74287 13.40326,-0.47256 32.47313,-4.24266 43.31411,1.75189 -9.30191,20.778 -23.35252,39.81475 -39.82525,55.73157 -0.56571,2.98014 -3.92732,2.25263 -4.17521,0.25941 z m -50.0503,-1.75872 c -23.78416,-9.02646 -47.568318,-21.46282 -62.469379,-43.10389 -7.751058,-7.8688 -7.880006,-17.62179 6.173974,-14.01262 16.159935,-2.41609 30.917275,-0.0351 34.229975,18.26448 7.3191,14.15399 18.41676,25.73985 27.54527,38.44046 0.22676,2.86411 -5.01387,0.75908 -5.47984,0.41157 z m 77.30305,-0.55064 c 11.2301,-17.14848 28.06426,-31.87324 33.99253,-52.03822 1.59204,-7.76899 10.33742,-3.44123 15.82368,-4.54129 10.08079,0.15396 34.52174,-3.44588 19.06648,11.94868 -16.81263,20.67134 -39.93551,35.47585 -63.9054,46.19603 -1.48716,-0.10814 -5.22669,1.33654 -4.97729,-1.5652 z M 55.477453,223.62743 c -6.273627,-11.3014 -18.108757,-37.67419 -3.839362,-44.0005 14.353482,2.28175 44.808399,-9.67053 40.401344,15.05596 4.205224,11.48976 11.375355,35.88846 -9.863129,29.85246 -8.861039,-0.31661 -17.975519,0.7073 -26.698853,-0.90792 z m 62.702477,0.42861 c -4.19684,-13.51437 -8.63463,-28.97841 -7.40279,-43.08203 16.11722,-3.48807 33.33174,-0.92126 49.8817,-1.45607 15.42851,1.74385 4.45273,27.97774 7.35441,39.77801 -6.42801,11.19841 -29.25058,2.50753 -42.21651,5.03678 -2.53898,-0.0748 -5.08463,-0.0406 -7.61681,-0.27669 z m 67.32762,-0.66302 c -0.0636,-13.2279 -5.17576,-34.21025 2.46987,-43.60595 17.92722,-0.60627 35.97369,-1.11548 53.85091,0.4121 0.74519,13.69914 1.88599,41.63735 -14.62449,44.24687 -13.8399,-0.34367 -28.09659,1.22907 -41.69629,-1.05302 z m 71.53831,0.65982 c 1.39145,-14.11414 1.42054,-33.08186 7.32804,-44.14111 12.50465,1.97384 37.39782,-7.45676 41.73132,6.13006 -1.05814,13.21395 -6.18443,28.32157 -13.46558,38.49723 -11.86073,-0.12436 -23.7596,0.34573 -35.59378,-0.48618 z M 47.214921,161.77835 c -4.979307,-14.2027 3.878067,-30.33438 11.764671,-41.06211 0,0 35.869619,-4.64897 41.367508,2.64896 0,0 -5.511906,31.56483 -13.057487,39.88303 -9.818845,-0.69664 -30.69657,1.42986 -40.074692,-1.46988 z m 65.171059,0.77198 c -6.09961,-12.85216 3.65461,-29.17253 6.69777,-41.56526 15.89297,-1.01636 31.93738,-1.0533 47.82609,0.0242 0.85864,12.24035 5.08522,32.66796 -2.19214,41.58224 -17.42046,0.57016 -34.92126,0.84266 -52.33172,-0.0412 z m 73.44626,-0.71672 c -0.73483,-12.22177 -5.79972,-33.07754 2.64921,-41.20276 15.40602,-0.37307 30.93074,-0.72262 46.26737,0.85529 -0.056,12.55959 14.15972,34.74942 2.34031,41.25412 -16.61924,0.20325 -33.31608,1.02831 -49.90031,-0.078 z m 77.79643,0.93622 c -5.87397,-12.21491 -7.76455,-27.47819 -10.1827,-40.96396 12.74388,-3.12572 26.48649,-0.72758 39.66275,-1.18838 5.9968,12.12822 13.26754,25.49556 12.50312,39.43989 -9.20287,6.70999 -29.65211,1.67901 -41.98317,2.71245 z M 69.217814,105.40099 C 73.571367,91.434238 87.910379,80.946441 99.615297,72.272197 112.16121,65.158949 126.62603,55.236386 140.37866,54.211457 c -7.7897,15.013841 -21.37486,28.135586 -29.85611,43.433148 -0.52137,10.561035 -9.04711,8.971885 -16.450357,8.752025 -8.262811,-0.25663 -16.790583,0.7357 -24.854379,-0.99564 z m 58.017266,0.50946 c 1.55145,-10.445295 11.51754,-20.392906 17.01639,-29.677775 6.90867,-7.776505 12.42798,-21.804718 23.69913,-23.437943 -0.13874,17.524052 0.9754,35.145254 -0.44222,52.604218 -13.12808,1.83911 -26.98922,0.92288 -40.2733,0.5115 z m 57.60117,-0.58385 c -0.63916,-17.218813 -0.65427,-34.490827 -0.0443,-51.710695 11.51118,2.534418 19.44856,19.526297 28.35918,28.679435 8.8643,7.95579 18.92375,29.14558 -2.42669,24.09025 -8.52844,-0.49843 -17.64864,1.04829 -25.88819,-1.05899 z m 60.19338,-1.30011 c -8.20702,-17.244675 -18.93365,-33.034315 -31.9363,-46.993407 3.68165,-7.748878 23.00273,6.814298 31.11198,10.420566 14.90912,9.704104 28.69866,22.086325 39.16451,36.459671 -6.56728,5.0622 -19.72639,1.52235 -29.16949,2.48331 -3.09371,-0.70049 -8.15961,1.89823 -9.1707,-2.37014 z"
     sodipodi:nodetypes="ccccccccccccscccccccccccscccccccccccccccccccccccccccccccccccccccccccccccccccccccccccccccccccccccccccccccccccccc" />
</svg>
