<?xml version="1.0" encoding="UTF-8" standalone="no"?>
<svg
   xmlns:dc="http://purl.org/dc/elements/1.1/"
   xmlns:cc="http://creativecommons.org/ns#"
   xmlns:rdf="http://www.w3.org/1999/02/22-rdf-syntax-ns#"
   xmlns:svg="http://www.w3.org/2000/svg"
   xmlns="http://www.w3.org/2000/svg"
   xmlns:sodipodi="http://sodipodi.sourceforge.net/DTD/sodipodi-0.dtd"
   xmlns:inkscape="http://www.inkscape.org/namespaces/inkscape"
   viewBox="0 0 348 348"
   fill="none"
   version="1.1"
   id="svg831"
   sodipodi:docname="O.svg"
   inkscape:version="1.0.1 (3bc2e813f5, 2020-09-07)">
  <metadata
     id="metadata1359">
    <rdf:RDF>
      <cc:Work
         rdf:about="">
        <dc:format>image/svg+xml</dc:format>
        <dc:type
           rdf:resource="http://purl.org/dc/dcmitype/StillImage" />
        <dc:title></dc:title>
      </cc:Work>
    </rdf:RDF>
  </metadata>
  <defs
     id="defs1357" />
  <sodipodi:namedview
     pagecolor="#ffffff"
     bordercolor="#666666"
     borderopacity="1"
     objecttolerance="10"
     gridtolerance="10"
     guidetolerance="10"
     inkscape:pageopacity="0"
     inkscape:pageshadow="2"
     inkscape:window-width="1920"
     inkscape:window-height="1001"
     id="namedview1355"
     showgrid="false"
     inkscape:zoom="2.3017241"
     inkscape:cx="172.20826"
     inkscape:cy="172.39042"
     inkscape:window-x="-9"
     inkscape:window-y="-9"
     inkscape:window-maximized="1"
     inkscape:current-layer="svg831"
     inkscape:document-rotation="0" />
  <style
     id="style1281"></style>
  <path
     style="fill:none;fill-opacity:0.547244;stroke:#000000;stroke-width:1.73783"
     d=""
     id="path1453" />
  <path
     id="path3012"
     style="fill:#000000;stroke-width:0.737943"
     d="m 157.92464,345.51988 c -17.78931,-1.44369 -35.4278,-4.88614 -51.89506,-11.48367 C 87.308692,326.46929 70.077622,315.87557 55.739468,301.3317 27.61683,275.25157 9.6576926,238.5676 6.5536471,200.44175 2.4119796,177.99478 5.9128737,155.03972 9.6630985,132.8238 14.689942,117.17127 19.972592,101.27454 28.859465,87.10901 49.925145,53.175035 81.298969,24.875857 119.44532,11.924119 c 43.30085,-14.1671971 93.2858,-11.8256065 132.69697,12.060172 31.60842,18.823644 57.47882,47.250822 73.90038,80.130489 12.239,24.46777 18.89915,52.22812 17.52529,79.93639 1.8044,47.44703 -23.0022,93.15853 -59.7421,122.37306 -20.04604,16.26065 -43.39872,28.73917 -68.55367,34.22899 -18.45203,5.1682 -38.24995,5.83584 -57.34755,4.86666 z m 31.21275,-19.98544 c 25.94506,-4.46406 51.99699,-13.47553 73.01343,-29.86449 16.82366,-7.8112 -0.93132,-13.9754 -8.80382,-19.67262 -25.77585,-17.0292 -50.3369,-36.47175 -79.18146,-48.23091 -11.57495,0.17124 -21.47612,8.99045 -31.23881,13.67378 -23.2855,14.82663 -46.534354,30.08929 -69.366637,46.12177 19.530525,14.03099 41.789627,23.53853 64.224557,31.76054 16.60378,5.25882 33.79844,8.94587 51.35274,6.21193 z M 70.581784,276.11985 C 81.22425,251.72876 91.476907,227.21324 98.792763,201.6504 104.5109,189.55511 108.80363,174.83845 91.212623,170.87029 71.447,159.73719 51.705653,148.02145 31.597409,137.83905 c -3.910995,15.51419 -7.335816,31.84755 -6.819828,48.17301 0.966326,18.29068 8.294851,35.2824 15.598178,51.73296 7.271449,15.03067 15.775625,29.92743 25.860671,42.90964 2.171493,-0.46338 3.974958,-2.33766 4.345354,-4.53481 z m 207.649736,3.34382 c 16.47431,-19.83286 27.79629,-43.48527 35.89798,-67.50897 6.64167,-21.80639 6.23902,-45.35729 0.23765,-67.29994 1.8611,-24.53756 -17.61546,3.79021 -27.20799,6.74058 -15.51971,11.17584 -31.88862,21.21463 -47.3458,32.51316 -0.72012,13.15398 8.82343,25.67243 12.32893,38.58333 8.50757,19.32011 16.23699,39.23188 23.94805,58.66046 z M 132.46236,124.27593 c 7.18388,-19.87155 13.26147,-40.324123 22.57585,-59.01425 5.37064,-6.97453 16.61005,-71.0678702 24.21296,-26.657089 12.34424,25.667908 25.72919,56.826739 35.64846,83.598549 9.52656,9.48487 30.40053,1.55158 44.12479,4.15366 15.71615,-1.09076 34.69367,2.15604 48.44012,-1.7119 C 298.4125,90.452113 269.37424,66.12674 240.22898,48.769655 221.65452,37.996806 201.26457,29.840842 179.51148,28.834503 163.3314,27.185498 146.94894,30.529641 131.97316,36.272415 98.171354,50.861764 66.04781,72.985091 45.539014,103.92531 c -1.72179,5.85316 -17.618958,24.17278 -3.832682,22.45888 30.172518,0.38145 60.347658,-0.23849 90.520218,-0.44788 l 0.13553,-0.9542 z"
     sodipodi:nodetypes="ccccccccccccccccccccccccccccccccccccccccccccccccccc" />
</svg>
