<?xml version="1.0" encoding="UTF-8" standalone="no"?>
<svg
   xmlns:dc="http://purl.org/dc/elements/1.1/"
   xmlns:cc="http://creativecommons.org/ns#"
   xmlns:rdf="http://www.w3.org/1999/02/22-rdf-syntax-ns#"
   xmlns:svg="http://www.w3.org/2000/svg"
   xmlns="http://www.w3.org/2000/svg"
   xmlns:sodipodi="http://sodipodi.sourceforge.net/DTD/sodipodi-0.dtd"
   xmlns:inkscape="http://www.inkscape.org/namespaces/inkscape"
   viewBox="0 0 348 348"
   fill="none"
   version="1.1"
   id="svg831"
   sodipodi:docname="P.svg"
   inkscape:version="1.0.1 (3bc2e813f5, 2020-09-07)">
  <metadata
     id="metadata1359">
    <rdf:RDF>
      <cc:Work
         rdf:about="">
        <dc:format>image/svg+xml</dc:format>
        <dc:type
           rdf:resource="http://purl.org/dc/dcmitype/StillImage" />
        <dc:title></dc:title>
      </cc:Work>
    </rdf:RDF>
  </metadata>
  <defs
     id="defs1357" />
  <sodipodi:namedview
     pagecolor="#ffffff"
     bordercolor="#666666"
     borderopacity="1"
     objecttolerance="10"
     gridtolerance="10"
     guidetolerance="10"
     inkscape:pageopacity="0"
     inkscape:pageshadow="2"
     inkscape:window-width="1920"
     inkscape:window-height="1001"
     id="namedview1355"
     showgrid="false"
     inkscape:zoom="2.3017241"
     inkscape:cx="172.20826"
     inkscape:cy="172.39042"
     inkscape:window-x="-9"
     inkscape:window-y="-9"
     inkscape:window-maximized="1"
     inkscape:current-layer="svg831"
     inkscape:document-rotation="0" />
  <style
     id="style1281"></style>
  <path
     style="fill:none;fill-opacity:0.547244;stroke:#000000;stroke-width:1.73783"
     d=""
     id="path1453" />
  <path
     id="path3029"
     style="fill:#000000;stroke-width:0.738871"
     d="m 166.55151,332.54398 c -13.34354,-2.47589 -32.40716,-0.63259 -42.22661,-6.41153 40.86038,-1.64238 81.85776,-1.24515 122.74771,-0.23739 1.67206,5.24577 -20.88177,4.25673 -28.21774,6.103 -17.19289,2.86707 -34.97898,1.6578 -52.30336,0.54592 z M 87.122853,320.43567 c -7.77537,-0.99916 -17.896504,-10.58721 -3.313381,-8.19912 77.053598,-0.57794 154.129328,-0.94081 231.178068,-0.0224 -0.63756,5.3363 -12.08197,8.74992 -18.28453,8.5654 -69.85942,-0.0664 -139.72603,0.46908 -209.580157,-0.34381 z M 78.21649,303.40476 c -7.926332,0.45888 -21.544988,-3.03607 -5.162237,-2.53851 54.560697,-1.53276 109.106117,-3.47483 163.687977,-3.88434 33.80412,-1.55534 67.74965,-1.67379 101.55708,-0.71261 -2.34706,12.28408 -24.95314,6.07012 -35.51355,7.77004 -74.85562,0.004 -149.71777,0.17466 -224.56927,-0.63458 z M 42.859618,285.07385 c -2.906796,-9.12355 8.878345,-4.64457 13.852391,-5.675 96.080411,0 192.160841,0 288.241261,0 4.4526,8.73905 -4.8564,8.40109 -10.62557,7.75814 -96.79695,0 -193.5939,0 -290.390846,0 -0.359079,-0.69438 -0.718157,-1.38876 -1.077236,-2.08314 z m 3.255901,-14.22662 c 3.526832,-6.26709 21.467069,-5.98019 31.266648,-7.48445 C 65.505258,260.15548 51.453785,260.37392 47.231941,246.06877 32.408731,221.71738 8.2061207,201.68981 3.8679426,172.0886 1.0344611,154.07578 0.6554159,135.10722 3.7852128,117.20846 5.5588005,104.31887 10.5795,92.274987 16.472928,81.039695 32.262745,53.121499 60.819544,34.070679 90.602942,24.118876 111.28155,17.763933 133.56258,12.10863 155.20139,15.816129 c -6.28037,5.560543 -22.96266,5.16549 -31.69029,11.971228 -19.15273,10.074428 -34.819573,25.760847 -43.914329,45.47064 -8.599377,16.93702 -8.599536,36.220233 -6.923238,54.715863 6.757556,31.84585 30.055807,59.56221 61.102007,70.51829 15.91206,4.02288 33.44458,3.50875 49.51035,0.37192 12.94324,-2.20454 32.16355,-8.6264 37.94207,-17.7868 -16.25993,1.17295 -32.60775,8.89994 -48.77204,3.37661 -24.64192,-5.61467 -44.93291,-25.50968 -55.0771,-48.27122 -5.76039,-15.98945 -5.01325,-34.54102 3.0371,-49.578026 6.667,-14.596644 20.19677,-26.159897 33.89303,-34.821991 17.54846,-9.268917 39.22873,-12.268356 58.22574,-4.882649 26.44199,8.760093 43.96502,34.294437 51.52272,59.703236 5.73329,18.35203 4.43378,38.20732 3.26346,57.23396 -3.22265,20.3352 -11.98308,39.08264 -22.39581,56.72678 0.53473,5.3554 25.19833,8.20973 5.47147,10.01426 -8.02984,0.32574 -15.42852,4.79734 -3.10303,4.64207 21.40256,0.34312 44.6295,-3.61393 64.39335,5.81001 -7.20576,8.54808 -31.28396,1.6697 -44.60296,3.98098 -15.74,0.69279 -32.07616,-1.41608 -47.42039,1.7093 -8.78767,6.6502 16.56848,3.97195 21.49404,5.00509 28.7875,0.8158 57.69985,-0.83882 86.39285,-0.77426 8.31049,1.98787 17.81383,11.20124 2.46238,9.27607 -44.7026,0.88091 -89.43129,-0.30618 -134.12775,0.84088 -10.004,3.99819 15.43052,1.52709 20.5762,2.33498 37.29393,0.63047 74.66821,-0.42643 111.91456,1.30316 -13.81239,3.18436 -29.93794,1.35212 -44.62083,2.31308 -71.55111,3.36795 -143.2246,2.26439 -214.815121,4.25772 -7.604161,-0.0679 -15.242209,0.2256 -22.824317,-0.43008 z" />
</svg>
