<?xml version="1.0" encoding="UTF-8" standalone="no"?>
<svg
   xmlns:dc="http://purl.org/dc/elements/1.1/"
   xmlns:cc="http://creativecommons.org/ns#"
   xmlns:rdf="http://www.w3.org/1999/02/22-rdf-syntax-ns#"
   xmlns:svg="http://www.w3.org/2000/svg"
   xmlns="http://www.w3.org/2000/svg"
   xmlns:sodipodi="http://sodipodi.sourceforge.net/DTD/sodipodi-0.dtd"
   xmlns:inkscape="http://www.inkscape.org/namespaces/inkscape"
   viewBox="0 0 348 348"
   fill="none"
   version="1.1"
   id="svg831"
   sodipodi:docname="Q.svg"
   inkscape:version="1.0.1 (3bc2e813f5, 2020-09-07)">
  <metadata
     id="metadata1359">
    <rdf:RDF>
      <cc:Work
         rdf:about="">
        <dc:format>image/svg+xml</dc:format>
        <dc:type
           rdf:resource="http://purl.org/dc/dcmitype/StillImage" />
        <dc:title></dc:title>
      </cc:Work>
    </rdf:RDF>
  </metadata>
  <defs
     id="defs1357" />
  <sodipodi:namedview
     pagecolor="#ffffff"
     bordercolor="#666666"
     borderopacity="1"
     objecttolerance="10"
     gridtolerance="10"
     guidetolerance="10"
     inkscape:pageopacity="0"
     inkscape:pageshadow="2"
     inkscape:window-width="1920"
     inkscape:window-height="1001"
     id="namedview1355"
     showgrid="false"
     inkscape:zoom="2.3017241"
     inkscape:cx="172.20826"
     inkscape:cy="169.55567"
     inkscape:window-x="-9"
     inkscape:window-y="-9"
     inkscape:window-maximized="1"
     inkscape:current-layer="svg831"
     inkscape:document-rotation="0" />
  <style
     id="style1281"></style>
  <path
     style="fill:none;fill-opacity:0.547244;stroke:#000000;stroke-width:1.73783"
     d=""
     id="path1453" />
  <path
     id="path3051"
     style="fill:#000000;stroke-width:0.74696"
     d="m 181.24414,1.6796875 c -3.32857,0 -5.60459,0.382003 -6.55078,1.0976563 -0.79746,0.603177 -1.88299,1.1060376 -2.41406,1.1191406 -1.26388,0.031095 -8.09442,5.1494184 -11.13477,8.3437496 -4.51761,4.746416 -6.05689,11.959436 -3.45117,16.169922 4.32733,6.992411 9.65413,9.989263 18.0293,10.140625 9.57196,0.173002 14.2328,-2.972405 14.91406,-10.0625 0.2619,-2.725485 -0.052,-4.360299 -1.30469,-6.794922 -1.84526,-3.586413 -6.56713,-8.808593 -7.96484,-8.808593 -0.5011,0 -2.69375,1.595443 -4.8711,3.546875 -5.55627,4.979743 -6.77858,6.226402 -8.61914,8.777343 L 166.25977,27.449219 165.41992,25.25 c -0.46182,-1.210129 -0.90783,-3.861437 -0.99023,-5.890625 -0.14677,-3.617684 -0.0786,-3.738531 3.46679,-6.255859 10.81538,-7.6792124 25.56001,-3.062924 28.23438,8.839843 0.89525,3.984523 -0.25617,9.745377 -2.68164,13.419922 -1.85008,2.802813 -7.88144,7.100047 -12.36133,8.806641 -4.0706,1.55067 -18.20759,4.036676 -34.73437,6.107422 -15.76363,1.975126 -32.97825,9.264901 -46.705082,19.779297 -7.494777,5.740801 -16.717124,15.284047 -24.875,25.740234 -1.530352,1.9615 -8.403405,12.280385 -8.955079,13.445315 -0.29183,0.61623 -1.542477,2.80134 -2.78125,4.85547 -3.06869,5.08853 -8.185547,15.83577 -8.185547,17.19336 0,0.60836 -0.323768,1.10742 -0.71875,1.10742 -0.394998,0 -1.099576,1.4278 -1.566406,3.17383 -0.466831,1.74602 -1.107502,3.51103 -1.421875,3.92187 -1.278763,1.67112 -8.24414,23.72656 -8.24414,26.10352 0,1.71989 -1.933621,4.89453 -2.980469,4.89453 -0.359847,0 -0.892046,-0.75533 -1.181641,-1.67969 -1.440732,-4.59869 -5.745196,-12.54381 -7.677734,-14.16992 -1.198166,-1.0082 -3.741993,-2.27178 -5.652344,-2.80664 -3.030114,-0.84838 -4.113526,-0.79936 -8.490234,0.38281 -4.225434,1.14131 -5.606379,1.95854 -8.7519534,5.17969 -2.6502083,2.71386 -4.005417,4.84812 -4.6679687,7.34961 -2.92030025,11.02572 1.7852805,21.24454 12.5722651,27.30468 6.385623,3.58747 12.037092,2.90195 21.59961,-2.62304 4.917285,-2.84108 5.562196,-2.52257 6.763672,3.34375 2.431845,11.87377 5.022096,20.91927 7.126953,24.89258 0.577683,1.09046 1.048828,2.53076 1.048828,3.19921 0,0.66845 0.50484,1.40806 1.121094,1.64454 0.616237,0.23647 1.121093,1.07642 1.121093,1.86718 0,2.43877 9.680085,18.81475 15.742188,26.63086 6.99738,9.02204 17.217087,19.62213 25.597656,26.54883 6.879414,5.68597 19.629384,14.68545 20.810544,14.68945 0.29005,8.6e-4 2.23783,1.00971 4.32813,2.24219 2.0903,1.23249 4.26325,2.24024 4.82812,2.24024 0.56487,0 1.97756,0.49613 3.14063,1.10156 3.93276,2.0472 14.11116,5.618 16.03515,5.625 2.32505,0.009 6.50241,1.59532 6.89454,2.61719 0.23179,0.60403 -0.7716,3.44467 -2.22852,6.3125 -3.58416,7.05507 -5.03729,14.09999 -3.97461,19.26367 0.4438,2.15656 1.28782,4.4011 1.875,4.98828 0.58717,0.58717 1.06836,1.36521 1.06836,1.72851 0,2.13286 7.41075,6.56577 12.69727,7.59375 4.78296,0.93005 7.33163,0.9283 12.375,-0.002 9.09075,-1.67669 14.88844,-7.00962 16.40429,-15.08984 0.97837,-5.21513 -0.0303,-7.46199 -6.05469,-13.48633 -6.80502,-6.80506 -10.85927,-8.74697 -15.13281,-7.24609 -4.96952,1.74532 -9.0986,6.67416 -11.6875,13.95312 -1.57986,4.4419 -1.2304,5.94984 1.64649,7.08789 1.14132,0.45148 2.6687,1.12685 3.39258,1.5 3.86026,1.99006 7.95294,2.88284 9.86914,2.1543 1.09057,-0.41464 2.79431,-0.75391 3.78515,-0.75391 1.09741,0 2.28007,-0.72969 3.02539,-1.86719 1.45974,-2.22786 2.9754,-2.41331 3.49414,-0.42968 0.57794,2.21006 -1.90564,5.57539 -5.79297,7.85351 -3.21552,1.88439 -4.03982,2.03738 -9.60742,1.78321 -7.19993,-0.3287 -10.26717,-1.96114 -13.78711,-7.3379 -2.17619,-3.3242 -2.84201,-6.82011 -2.50976,-13.17968 0.22273,-4.263 9.91058,-12.96485 14.43359,-12.96485 0.59179,0 1.39682,-0.30343 1.78711,-0.67382 0.98927,-0.93885 10.67702,-2.94929 18.26172,-3.78907 8.33887,-0.92329 17.2264,-2.12166 22.7832,-3.07226 2.46497,-0.42168 5.49017,-0.9262 6.72266,-1.12305 1.23247,-0.19686 3.5004,-0.85155 5.04101,-1.45312 1.5406,-0.60157 4.23057,-1.62912 5.97657,-2.28321 11.32371,-4.24206 21.64385,-11.00032 31.25195,-20.46875 4.4545,-4.38974 11.32068,-13.15425 14.0625,-17.94922 0.58138,-1.01673 2.0199,-3.52985 3.19727,-5.58398 3.25435,-5.67777 10.34301,-20.65027 13.25976,-28.00977 0.8955,-2.25955 2.11087,-5.05956 2.70117,-6.22265 0.5903,-1.16306 1.07227,-2.46375 1.07227,-2.88867 0,-0.42492 1.17733,-3.28309 2.61523,-6.35352 1.43789,-3.07043 2.61328,-5.69771 2.61328,-5.83789 0,-0.54859 4.77698,-10.80393 8.16993,-17.53906 4.56548,-9.06253 6.5067,-12.23718 6.99609,-11.44532 0.21458,0.34731 0.33418,4.3258 0.26758,8.83985 -0.10895,7.38531 0.0514,8.48403 1.59765,10.9707 2.9084,4.6774 6.03626,6.07617 13.59375,6.07617 5.54227,0 6.95223,-0.26532 9.42188,-1.77148 1.59719,-0.97404 3.4072,-2.44914 4.02344,-3.27735 3.70693,-4.98189 4.80131,-14.16389 2.5039,-21.02539 -1.77706,-5.30739 -5.9913,-11.33967 -9.52734,-13.64062 -2.66815,-1.73618 -3.82518,-1.99023 -9.03516,-1.99023 -5.75062,0 -6.16848,0.11964 -11.0957,3.21289 -2.81602,1.76788 -5.65708,3.1125 -6.3125,2.98632 -0.79918,-0.15391 -1.49353,-1.7053 -2.11133,-4.70898 -2.38346,-11.58777 -2.44704,-11.78107 -7.82422,-24.27344 -4.04293,-9.39272 -19.33809,-32.19832 -23.2207,-34.62305 -0.74236,-0.46359 -1.34961,-1.223999 -1.34961,-1.689448 0,-0.465448 -4.46612,-5.174827 -9.92383,-10.464844 C 252.97617,78.107653 241.44715,68.760145 234.07031,64.375 c -5.69472,-3.385236 -18.08061,-9.647097 -19.09765,-9.654297 -0.46658,-0.0035 -1.81156,-0.509323 -2.98828,-1.123047 -1.17674,-0.613704 -2.75014,-1.11664 -3.4961,-1.11914 -0.74595,-0.0025 -1.95545,-0.325025 -2.6875,-0.716797 -0.73202,-0.391774 -3.4611,-1.056992 -6.0664,-1.476563 -2.6053,-0.419572 -5.22789,-1.253273 -5.82813,-1.853515 -0.95718,-0.957164 -0.68736,-1.542165 2.19531,-4.75586 5.54256,-6.179023 7.10003,-14.505535 4.33789,-23.189453 C 197.67821,11.805274 194.31602,6.7123061 189.23047,3.5019531 186.90014,2.0308757 185.36383,1.6796875 181.24414,1.6796875 Z M 178.6582,55.109375 c 15.64981,0.231904 32.90323,8.692647 43.09766,22.013672 4.90544,6.409915 7.0457,10.8426 8.95312,18.546875 2.49815,10.090408 0.86168,18.478848 -5.49023,28.138668 -1.60931,2.44739 -2.76606,4.70867 -2.57031,5.02539 0.19575,0.31673 4.4545,0.6095 9.46289,0.6504 2.5042,0.0205 6.97943,0.0956 10.95117,0.19921 8.67295,0.28985 16.68177,2.76102 24.36914,6.58008 3.52085,1.79399 7.01525,3.85065 9.26563,5.5586 5.97978,4.53842 9.31547,8.57574 12.26757,14.85156 0.77298,1.64332 1.81941,3.8284 2.32618,4.85547 2.55173,5.17161 3.53924,21.28811 1.86718,30.49023 -2.06225,11.34943 -10.54032,24.45654 -19.84179,30.67774 -7.9988,5.34993 -13.8016,7.06884 -23.61133,6.99414 -8.50867,-0.0648 -12.94615,-1.02989 -21.84375,-4.75782 -2.82615,-1.18412 -5.57103,-2.15429 -6.10156,-2.15429 -0.74445,0 -1.02104,3.14625 -1.21094,13.7832 -0.35514,11.29546 1.14346,22.33965 -5.81445,32.15625 -0.3164,0.41081 -0.79651,1.67101 -1.06641,2.80078 -0.26988,1.12977 -0.81968,2.05469 -1.22266,2.05469 -0.40301,0 -0.73242,0.38425 -0.73242,0.85547 0,1.05803 -4.84901,7.07442 -7.73828,9.60156 -6.07501,5.31353 -16.18452,9.78408 -24.38086,10.78125 h -0.002 c -11.25613,1.36942 -23.35494,0.6301 -30.8086,-1.88086 -4.66362,-1.57106 -5.42578,-1.9552 -11.16992,-5.63476 -8.07292,-5.17138 -15.15459,-18.03199 -16.81055,-30.5293 -0.65358,-4.93262 -0.78558,-23.05339 -0.21093,-30.1211 l 6.36328,-10.48046 -10.48047,3.80664 c -5.60498,-0.24218 -13.14409,1.13277 -19.621094,0.44336 -6.477006,-0.68941 -9.89191,-1.44318 -11.246094,-1.94141 -1.643323,-0.60462 -5.415334,-3.11286 -5.9375,-3.13086 -2.996824,-0.10348 -11.059567,-5.16347 -14.970703,-9.39453 -5.802581,-6.27724 -9.82568,-14.5679 -10.681641,-22.01172 -1.252988,-10.89649 -1.322689,-13.35833 -0.560547,-19.79297 0.753455,-6.36124 1.453744,-8.61948 4.863281,-15.6875 8.495729,-17.6117 25.664867,-30.26824 41.027344,-30.24414 7.765754,0.0121 15.389844,2.88438 25.208984,9.49219 2.00458,1.34897 4.11646,2.45117 4.69141,2.45117 1.38342,0 1.38466,-4.63478 0.004,-9.01563 -3.21184,-10.1893 -3.56243,-12.02276 -3.23633,-16.92968 0.18469,-2.77867 0.71751,-5.999721 1.18555,-7.156252 0.46805,-1.156515 0.85156,-2.593618 0.85156,-3.19336 0,-1.651147 5.1128,-11.486271 7.73047,-14.871094 4.45368,-5.758929 10.47698,-11.584538 15.72852,-15.21289 6.2114,-4.291561 8.68761,-5.40253 16.67383,-7.472656 3.33409,-0.864239 6.86116,-1.248829 10.47265,-1.195313 z m 35.97657,177.931645 c -0.38773,-0.72384 -1.24333,-2.90697 -1.90039,-4.85352 -1.14675,-3.3972 -5.45277,-13.18043 -7.125,-16.1875 -0.4413,-0.79356 -1.07165,-2.30616 -1.40235,-3.36133 -0.33073,-1.05516 -1.51426,-4.27069 -2.62891,-7.14648 -1.74511,-4.50248 -2.03397,-6.37003 -2.08007,-13.44531 -0.0413,-6.34522 0.27798,-9.15356 1.40234,-12.32618 4.72413,-13.32988 15.41543,-23.99686 28.73828,-28.67382 5.67123,-1.99083 20.83749,-2.08802 25.11328,-0.16016 7.00339,3.15768 8.37272,4.05621 12.64453,8.29297 5.05715,5.01567 7.35916,9.3161 9.39454,17.55469 1.70932,6.91883 1.75043,10.8194 0.18359,17.13085 -2.84659,11.4664 -9.4469,18.98956 -19.72852,22.48243 -4.15935,1.41301 -5.90529,1.58467 -12.66797,1.25195 -9.23858,-0.45451 -12.8775,-1.81155 -18.55273,-6.91406 -5.69468,-5.12001 -7.58984,-9.73067 -7.58984,-18.47266 0,-6.33196 0.22276,-7.47245 2.27343,-11.57617 2.63989,-5.28291 7.66805,-10.67802 12.14454,-13.03125 2.2732,-1.195 4.46933,-1.65568 7.99023,-1.67578 4.18841,-0.0238 5.31234,0.28267 8.18555,2.22265 7.93969,5.36085 11.90648,17.34659 8.76562,26.48828 -1.32218,3.84831 -3.41714,4.60966 -11.91797,4.32227 -6.74433,-0.22802 -7.44279,-0.39788 -9.28711,-2.24219 -1.6086,-1.60859 -2.0572,-2.86645 -2.32031,-6.5039 -0.45206,-6.24951 0.88171,-8.25391 5.49414,-8.25391 4.06132,0 4.82327,1.23443 3.05274,4.94727 -1.38868,2.9121 -1.60299,5.50976 -0.45508,5.50976 1.83602,0 5.83896,-2.27379 9.10547,-5.17383 l 3.52539,-3.13086 -2.61719,-3.9414 c -4.68425,-7.05501 -9.5436,-9.40108 -15.69531,-7.57422 -5.52791,1.6416 -9.58063,5.99506 -11.79492,12.66992 -1.53299,4.62108 -1.53755,6.95748 -0.0215,10.58594 1.62562,3.89068 10.47736,12.47592 14.86328,14.41601 3.74258,1.65553 8.47785,2.04181 10.65039,0.86914 0.71338,-0.38506 2.97727,-1.47759 5.0293,-2.42773 5.0861,-2.35497 13.21485,-10.54447 14.93359,-15.04492 3.33622,-8.73577 -1.41568,-20.97354 -11.87109,-30.57617 -3.96856,-3.64489 -8.15331,-6.05106 -12.63281,-7.26563 -6.52082,-1.76809 -17.43982,1.07334 -24.01172,6.25 -5.6812,4.9329 -11.15353,11.52588 -12.66406,19.13867 -0.18498,1.02707 -0.70107,3.70994 -1.14649,5.96094 -0.92034,4.65116 0.45978,14.11681 2.79883,19.20117 11.53795,25.08009 45.5044,29.62284 66.31836,8.86914 8.6814,-8.65627 11.34234,-16.47941 10.43359,-30.66992 -0.58412,-9.12132 -1.82567,-13.60571 -6.29297,-22.71094 -2.64905,-5.39931 -4.65939,-8.25014 -8.68554,-12.32421 -3.06321,-3.09966 -6.30205,-5.73899 -9.08008,-7.71875 -7.26188,-5.23677 -13.62375,-5.20696 -21.6875,-4.18946 -3.90435,0.52448 -7.79129,1.03105 -8.81836,1.39258 -2.05413,0.72304 -5.84185,2.28728 -8.41797,3.47461 -2.57613,1.18733 -5.67777,2.35664 -6.89258,2.59961 -3.13337,2.17064 -6.74609,2.41495 -10.06054,3.55078 -7.42077,2.58364 -14.86335,3.55813 -25.04883,3.27734 -10.48566,-0.28907 -11.95825,-0.62193 -20.08399,-4.53711 -12.70711,-6.12261 -20.25,-18.92531 -20.25,-34.36523 0,-14.02319 6.75616,-24.506898 19.79297,-30.708984 14.10818,-6.711796 32.83551,-4.323331 42.88867,5.46875 3.60689,3.513229 6.78516,9.076864 6.78516,11.878906 0,0.793894 0.43056,1.801354 0.95703,2.238282 0.71472,0.593155 0.8187,2.177606 0.41211,6.253906 -1.15443,11.57387 -3.18544,16.71562 -8.42773,21.33008 -5.42839,4.77824 -10.35945,6.16406 -21.91992,6.16406 -5.37705,0 -9.96682,-0.31023 -10.20118,-0.68945 -0.23437,-0.37922 -1.39266,-0.90107 -2.57226,-1.16016 -3.18247,-0.69898 -8.26089,-5.41803 -9.86914,-9.16992 -2.20363,-5.14088 -1.91274,-11.87792 0.75976,-17.58203 4.28115,-9.137562 13.08552,-13.774809 22.10352,-11.64258 3.95342,0.934756 5.77183,1.893759 10.22851,5.394531 3.04842,2.394569 4.33594,5.223899 4.33594,9.529299 0,5.6846 -1.95555,7.68406 -9.16211,9.36523 -6.39995,1.493 -8.76367,-0.23523 -8.76367,-6.40429 0,-2.50819 0.2518,-3.03711 1.44922,-3.03711 0.79741,0 1.64499,0.3144 1.88281,0.69921 0.23784,0.38483 1.43388,1.19979 2.6582,1.81055 2.67949,1.3367 2.71187,1.09834 0.84571,-6.24414 l -1.23438,-4.855468 -4.58203,-0.220703 c -3.27898,-0.157537 -4.89456,0.0938 -5.68359,0.882813 -3.7548,1.140275 -4.9373,2.616718 -7.34766,5.921878 l -1.77734,7.2832 c -0.1782,8.17528 1.9813,7.83581 3.05078,9.01758 0.69261,0.76532 1.6263,1.39448 2.07617,1.39648 0.44985,0.003 1.74484,0.48758 2.87695,1.07813 2.56558,1.33832 10.4847,3.39844 13.0625,3.39844 4.08176,0 9.97906,-2.52644 13.19532,-5.65235 4.61427,-4.48466 6.55299,-8.93063 6.59179,-15.11719 0.0512,-8.176624 -2.88715,-13.472263 -10.64843,-19.193356 -10.60849,-7.819866 -26.9745,-7.59895 -36.16211,0.488282 -3.12912,2.754352 -6.01852,7.492868 -6.53321,10.716796 -0.13118,0.821663 -0.57354,1.734214 -0.98437,2.027344 -0.43375,0.309494 -0.74805,4.693994 -0.74805,10.457034 0,13.32182 1.21596,17.10129 7.58203,23.55664 3.43309,3.09365 8.0397,6.51156 12.41211,7.1543 1.73944,0.24055 5.48625,0.7631 8.32813,1.16015 5.60387,0.78298 15.18052,-0.41857 19.48242,-2.44336 1.23248,-0.5801 3.56231,-1.67564 5.17578,-2.43555 3.85713,-1.81656 11.81493,-9.67232 13.86133,-13.68359 0.89157,-1.74762 2.2807,-5.23991 3.08789,-7.76172 3.43187,-10.72156 0.31594,-27.542208 -6.55664,-35.396482 -1.16764,-1.334422 -2.72857,-3.270232 -3.46875,-4.300781 -2.76016,-3.842984 -11.60843,-9.645482 -19.13281,-12.548828 -3.59389,-1.386815 -5.56532,-1.597159 -14.25391,-1.511719 -10.79701,0.106167 -14.7878,1.122833 -22.77344,5.802734 -4.42792,2.594932 -12.34456,11.360168 -14.8125,16.400391 -4.08793,8.348638 -5.19999,13.439681 -5.24219,23.980465 -0.038,9.4911 0.59675,13.78377 3.64844,24.65039 0.57686,2.05413 1.53473,5.75184 2.12891,8.2168 0.59418,2.46497 1.69416,6.83515 2.44336,9.71094 1.55467,5.96744 1.94761,27.01896 0.53906,28.85742 -0.43023,0.56153 -1.3673,2.60661 -2.08398,4.54688 -1.3742,3.72021 -6.48764,10.81799 -9.5,13.1875 -3.23267,2.54282 -10.48718,6.13335 -14.00782,6.93164 -6.13181,1.39035 -16.51575,1.57038 -21.566403,0.375 -9.714148,-2.29913 -19.348645,-9.62729 -23.910156,-18.18555 -6.005385,-11.26726 -4.363112,-25.04194 4.291015,-35.99023 8.993413,-11.37753 15.909506,-14.43625 28.390624,-12.55274 7.14016,1.07752 12.59432,3.9781 17.06641,9.07617 4.63113,5.27935 5.67301,8.66014 5.69531,18.46875 0.0136,6.01888 -0.27101,9.02884 -0.91406,9.67188 -0.51354,0.51353 -0.9336,1.50398 -0.9336,2.19922 0,0.69523 -2.00577,3.12135 -4.45898,5.39257 -4.9419,4.57534 -9.74558,6.48829 -16.28906,6.48829 -6.953533,0 -11.890669,-2.63971 -15.324222,-8.19532 -1.360646,-2.20156 -1.619753,-3.74979 -1.626953,-9.72265 -0.0083,-6.40697 0.182082,-7.39733 1.941406,-10.0918 4.924382,-7.54197 10.477719,-9.04754 18.468749,-5.00391 3.10116,1.56925 3.84375,3.40748 3.84375,9.50782 0,5.38629 -0.45353,5.90315 -5.95703,6.7832 -4.02413,0.6435 -4.54144,-0.14986 -3.98437,-6.11524 0.23667,-2.53444 0.11757,-4.78073 -0.26563,-5.01757 -1.24829,-0.77149 -5.217233,3.05976 -7.990234,7.71484 -1.494633,2.50903 -0.716797,4.87449 -0.716797,5.25586 1.076286,5.3672 7.897831,8.77678 13.230471,8.91016 4.7156,0 7.88924,-1.46181 10.95898,-5.04883 6.99699,-8.17594 6.03982,-21.35347 -2.11523,-29.14063 -3.7508,-3.5816 -8.69098,-5.40039 -14.67188,-5.40039 -5.015826,0 -6.031986,0.261 -9.923826,2.55274 -5.308038,3.12566 -10.43494,8.39811 -13.560546,13.9414 -2.05487,3.64433 -2.351563,4.87072 -2.351563,9.75391 0,3.755 0.360408,6.0624 1.097656,7.03711 0.60317,0.79746 1.106581,1.89472 1.119141,2.43945 0.03699,1.54229 6.422491,9.47551 9.960937,12.375 1.75263,1.43615 5.359578,3.69248 8.015625,5.01367 4.297606,2.13773 5.529436,2.40235 11.179686,2.40235 5.65027,0 6.88013,-0.26462 11.17774,-2.40235 10.08652,-5.01726 19.42225,-14.63612 22.80664,-23.49804 2.71391,-7.10628 -0.21772,-19.65746 -6.48047,-27.74805 -2.20134,-2.84383 -10.43276,-10.83008 -11.16211,-10.83008 -0.30256,0 -0.99423,-0.44053 -1.53711,-0.97851 -1.33622,-1.32415 -5.36697,-3.29896 -10.29688,-5.04493 -5.59805,-1.98251 -16.091635,-1.97968 -22.312496,0.008 -10.072226,3.21769 -20.748436,12.386 -26.144531,22.44922 -4.152834,7.74468 -5.137402,21.29866 -2.242187,30.88281 5.490075,18.17405 20.433356,32.42778 35.169922,33.54687 9.966452,0.75687 22.625112,-2.1339 36.791012,-8.40234 0.82166,-0.36359 3.84687,-1.38496 6.72266,-2.26953 2.8758,-0.88459 5.99577,-1.91078 6.93359,-2.28125 0.93783,-0.37044 4.13066,-1.18026 7.09571,-1.79883 14.48726,-3.0224 26.54708,0.60195 37.44726,11.25586 9.67167,9.45316 13.35089,17.82847 13.42969,30.56836 0.0718,11.61127 -2.3948,17.66519 -9.9707,24.47656 -4.33263,3.89542 -6.6321,5.21175 -13.10547,7.50195 -3.71034,1.31265 -6.12351,1.57902 -14.01953,1.54102 -12.98609,-0.0625 -20.04463,-2.42178 -25.86329,-8.64648 -10.17099,-10.88081 -9.62746,-34.29451 0.99219,-42.72266 6.14135,-4.87402 14.79698,-6.82027 24.81446,-5.58008 14.11832,1.74791 21.14786,8.49043 21.16406,20.30274 0.0127,8.85573 -4.81167,16.16115 -12.91016,19.54492 -3.96385,1.65621 -14.23216,1.49325 -18.15234,-0.28711 -4.83717,-2.19679 -6.58626,-5.72764 -6.53906,-13.20508 0.0433,-6.84277 1.6007,-10.52543 5.13281,-12.13477 2.98327,-1.35927 3.65844,-1.1231 7.74219,2.71094 4.28484,4.02282 5.11215,6.8711 1.99609,6.8711 -1.00282,0 -2.03124,-0.33527 -2.28516,-0.7461 -0.71616,-1.15879 -3.15049,-0.87966 -3.64843,0.41797 -0.24572,0.64032 -0.1,2.74061 0.32226,4.66797 1.41957,6.47974 1.2553,6.28011 4.70117,5.74023 4.27106,-0.66919 12.46477,-3.38963 14.47461,-4.80468 4.12115,-2.90155 3.7415,-10.18199 -0.78711,-15.05664 -7.21544,-7.76677 -16.68426,-10.15447 -25.24804,-6.36719 -3.69933,1.63604 -11.47477,7.11696 -12.77149,9.00195 -0.30182,0.43877 -0.55555,3.33271 -0.56055,6.42969 -0.012,5.92739 1.68584,12.24691 3.96876,14.76953 0.68644,0.75849 1.24804,1.74614 1.24804,2.19531 0,1.13976 5.76242,5.98996 9.25391,7.78907 4.36244,2.2479 10.39742,3.60244 15.99219,3.58984 8.36667,-0.0182 14.42814,-2.89039 20.61132,-9.76758 4.35054,-4.83884 5.91567,-7.87551 7.15625,-13.89258 2.30124,-11.1615 -3.53384,-24.06571 -14.6875,-32.48047 -2.38633,-1.80034 -5.51522,-3.8149 -6.95312,-4.47656 -7.36524,-3.38913 -8.32325,-3.60937 -15.70899,-3.60937 -6.80427,0 -7.87208,0.20265 -12.44921,2.36523 -7.26751,3.43373 -15.72036,12.21889 -20.38282,21.18555 -3.27566,6.29962 -4.09651,9.68291 -4.07031,16.78515 0.0379,10.25342 2.14073,16.1501 8.72461,24.47657 8.26474,10.45225 19.93284,16.71323 34.2793,18.39062 10.42067,1.21838 23.59876,-4.66567 36.09179,-16.11328 13.30295,-13.71573 12.09216,-21.87345 11.54493,-40.39648 z M 22.220703,156.3125 c 5.181725,-0.0131 7.234375,0.91663 7.234375,3.28125 0,0.96096 0.502899,3.17722 1.119141,4.92383 1.25128,3.54651 1.422154,6.58503 0.455078,8.11133 -0.970484,1.53168 -7.020872,2.01568 -8.152344,0.65234 -1.361536,-1.64054 -0.343072,-3.35489 2.564453,-4.31445 2.156777,-0.71182 2.497505,-1.11289 2.091797,-2.46289 -0.628603,-2.09169 -4.788972,-6.46875 -6.148437,-6.46875 -0.579238,0 -2.326676,1.00774 -3.882813,2.24023 -1.556136,1.23249 -3.199883,2.24219 -3.654297,2.24219 -0.454415,0 -0.826172,0.33528 -0.826172,0.74609 0,0.41083 -0.337218,0.74805 -0.748046,0.74805 -1.155669,0 -0.780305,-3.11599 0.673828,-5.60352 1.780181,-3.04528 4.131147,-4.0831 9.273437,-4.0957 z m 299.109377,7.85742 c 2.73878,-0.0446 7.28888,0.68413 10.08203,1.75977 1.6138,0.62146 2.05469,1.27575 2.05469,3.05078 0,1.98564 -0.2494,2.25004 -2.05469,2.18164 -1.12977,-0.0428 -3.56533,-0.51528 -5.41406,-1.05078 -1.84873,-0.53548 -4.24551,-1.16929 -5.32617,-1.40821 -2.48778,-0.54991 -3.31915,-3.15764 -1.34376,-4.21484 0.3782,-0.2024 1.08903,-0.30348 2.00196,-0.31836 z M 8.6171875,167.50586 c 1.8188035,0 4.1751345,5.10758 4.5312505,9.82031 0.214446,2.83794 0.04451,3.27878 -1.341797,3.47656 -1.666389,0.23775 -4.2928642,-1.7844 -3.6562504,-2.81445 0.2039147,-0.32995 -0.1246637,-2.23518 -0.7285156,-4.23437 -1.2727555,-4.21377 -0.8825208,-6.24805 1.1953125,-6.24805 z m 317.1796925,5.2793 c 0.73903,0.0785 1.6827,1.24518 4.75,5.01172 0.42754,0.52502 0.83836,1.87001 0.91406,2.98828 0.11468,1.69243 -0.19723,2.07098 -1.86524,2.26367 -1.47297,0.17018 -2.24393,-0.22586 -2.91211,-1.49414 -0.49996,-0.94899 -1.25655,-1.94933 -1.67968,-2.22461 -1.67408,-1.0891 -1.85202,-5.12417 -0.26953,-6.11914 0.43146,-0.27129 0.72656,-0.46147 1.0625,-0.42578 z m 11.45703,6.05859 c 0.47626,0.0941 0.69531,1.4202 0.69531,4.01172 0,4.05566 -1.22176,7.55611 -3.56836,10.23242 -0.90472,1.03186 -2.34013,1.30588 -6.81836,1.29688 -3.12024,-0.006 -6.03551,-0.2587 -6.47852,-0.56055 -1.09891,-0.7487 -3.30273,-5.34554 -3.30273,-6.88867 0,-1.94552 0.89016,-2.37534 1.9082,-0.92188 0.50776,0.72491 2.45347,2.08035 4.32227,3.01367 2.71384,1.35535 3.66931,1.52492 4.74609,0.83985 1.57342,-1.00104 5.36089,-5.95653 6.89844,-9.02539 0.70139,-1.39992 1.22723,-2.07127 1.59766,-1.99805 z m -323.375004,2.1875 c 0.02118,-0.008 0.04814,-0.008 0.08008,0 0.1533,0.0385 0.433303,0.25319 0.867188,0.61328 0.906941,0.7527 3.517465,1.07414 9.070312,1.11524 5.028318,0.0373 7.795875,0.3431 7.796875,0.86132 0.002,0.96555 -2.728268,3.54009 -4.990234,4.70508 -4.527837,2.33198 -10.980314,-0.68281 -12.578125,-5.87695 -0.284555,-0.92503 -0.394378,-1.36519 -0.246094,-1.41797 z M 169.57227,317.67383 c 1.66066,0.018 3.75051,0.57259 5.89257,1.61328 3.28336,1.59517 4.35008,2.8328 2.44727,2.8418 -0.51355,0.002 -2.1997,0.35712 -3.74805,0.78711 -1.54835,0.42999 -3.9459,1.91272 -5.32812,3.29492 -1.85043,1.85042 -2.73349,2.29386 -3.34766,1.67968 -1.62248,-1.62247 -0.48711,-8.3072 1.64063,-9.66015 0.60541,-0.38495 1.44696,-0.56744 2.44336,-0.55664 z"
     sodipodi:nodetypes="sscsssscssccccsssssssssssssssssssssssssssssscssscsssssscssssscssssssssssssssssssssssssssssssssssscssssscssssssssscsssssccssssssssccssssccssscccsscsssscsscssssssscssssscssssssssssscsssssssscccsssssssssscccssssccssccssssssssssssssssssssssccccccscssscssssssccscscsscsssssssscssssssscsssssccsssssscccsssssscssssssssccsssssscsssssssscsscssssssssssscssscssssssscsscccsssssssssssscssssscssssssssssssssssssccssssssssccccssssscssssssss" />
</svg>
