<?xml version="1.0" encoding="UTF-8" standalone="no"?>
<svg
   xmlns:dc="http://purl.org/dc/elements/1.1/"
   xmlns:cc="http://creativecommons.org/ns#"
   xmlns:rdf="http://www.w3.org/1999/02/22-rdf-syntax-ns#"
   xmlns:svg="http://www.w3.org/2000/svg"
   xmlns="http://www.w3.org/2000/svg"
   xmlns:sodipodi="http://sodipodi.sourceforge.net/DTD/sodipodi-0.dtd"
   xmlns:inkscape="http://www.inkscape.org/namespaces/inkscape"
   viewBox="0 0 348 348"
   fill="none"
   version="1.1"
   id="svg831"
   sodipodi:docname="S.svg"
   inkscape:version="1.0.1 (3bc2e813f5, 2020-09-07)">
  <metadata
     id="metadata1359">
    <rdf:RDF>
      <cc:Work
         rdf:about="">
        <dc:format>image/svg+xml</dc:format>
        <dc:type
           rdf:resource="http://purl.org/dc/dcmitype/StillImage" />
        <dc:title></dc:title>
      </cc:Work>
    </rdf:RDF>
  </metadata>
  <defs
     id="defs1357" />
  <sodipodi:namedview
     pagecolor="#ffffff"
     bordercolor="#666666"
     borderopacity="1"
     objecttolerance="10"
     gridtolerance="10"
     guidetolerance="10"
     inkscape:pageopacity="0"
     inkscape:pageshadow="2"
     inkscape:window-width="1920"
     inkscape:window-height="1001"
     id="namedview1355"
     showgrid="false"
     inkscape:zoom="2.3017241"
     inkscape:cx="172.20826"
     inkscape:cy="169.55567"
     inkscape:window-x="-9"
     inkscape:window-y="-9"
     inkscape:window-maximized="1"
     inkscape:current-layer="svg831"
     inkscape:document-rotation="0" />
  <style
     id="style1281"></style>
  <path
     style="fill:none;fill-opacity:0.547244;stroke:#000000;stroke-width:1.73783"
     d=""
     id="path1453" />
  <path
     id="path3086"
     style="fill:#000000;stroke-width:0.776211"
     d="m 113.31066,317.8807 c -9.72789,-7.70229 -21.197885,-25.98933 -30.254659,-26.50803 -4.664372,9.49609 3.171937,42.06572 -12.128479,23.00724 C 58.221729,301.31147 44.096752,289.2965 32.558305,275.27048 30.775112,247.87318 33.131298,220.16018 31.31348,192.70581 23.649704,186.61848 1.4528277,224.10033 4.8686629,198.25406 4.9067611,182.66222 3.7174714,166.71828 4.7721931,151.28734 15.748388,123.94043 42.914103,108.9913 60.261976,86.452562 61.5187,73.633389 16.291568,88.738475 38.271938,70.071515 50.303865,56.820634 62.609633,43.815353 74.789213,30.696775 101.87068,30.405777 129.13221,31.531734 156.06812,29.996829 153.42539,20.165262 124.41445,0.48959601 149.72931,3.3819695 c 17.72166,0.5859326 36.50399,-4.6941375 53.39843,2.2300473 24.30401,12.3561822 38.92514,36.8549912 58.70242,54.5645362 8.53264,-7.114019 -3.381,-44.004479 11.6436,-26.644888 13.04881,13.234689 27.08582,25.382385 40.5682,38.116169 2.22201,27.9683 0.33658,56.341876 2.94765,84.177276 10.67768,0.49146 27.46097,-33.05993 26.13846,-5.6883 3.12384,36.86158 -13.53629,73.65054 -41.10922,97.83685 -6.2042,6.92577 -27.60773,19.00661 -5.6063,18.12428 9.34506,0.3978 29.54314,-1.36806 13.82592,10.37837 -13.20882,13.29878 -25.10397,28.81154 -41.04196,38.81809 -26.12219,3.31365 -52.73191,1.30137 -78.85788,3.38477 -1.34646,9.93171 23.58461,22.14765 18.17476,27.61894 -22.31928,0.48006 -44.64571,0.24156 -66.96848,0.29988 -9.41142,-9.57242 -18.82283,-19.14486 -28.23425,-28.71729 z m 77.52439,21.2422 c -3.18682,-11.8507 -23.0994,-24.26632 -32.42273,-36.03543 -24.01097,-23.23911 -47.37863,-47.20028 -71.956546,-69.81611 -3.385327,12.07823 -1.177942,25.78167 -1.764123,38.60854 -1.733079,11.79274 12.598965,17.48489 18.306859,25.96909 20.71381,22.18176 47.6786,43.0333 79.67531,41.73237 2.71729,-0.032 5.48198,0.10623 8.16123,-0.45846 z m 77.27389,-31.27718 c 10.73821,-9.84477 23.5408,-20.72703 30.24867,-32.75797 -49.15425,-0.88809 -98.3535,-1.00151 -147.51132,-0.33992 5.70262,13.20693 18.52482,23.01212 29.3292,32.44944 25.59349,2.6982 51.64937,0.88301 77.42488,1.10621 3.49964,-0.13161 7.02709,-0.0359 10.50857,-0.45776 z M 73.045181,228.6141 c -0.413176,-24.71306 0.85883,-49.55672 -0.931218,-74.18833 -11.221241,6.65428 -20.384205,18.26124 -30.387586,27.42758 -4.286253,4.32556 -1.055493,11.79801 -2.059857,17.49749 -0.0027,24.63178 -0.0052,49.26355 -0.0078,73.89534 10.747963,9.80871 20.753982,21.84902 32.455265,29.55617 1.789974,-24.61028 0.518086,-49.49513 0.931203,-74.18825 z m 164.862159,12.03127 c 11.20829,-13.41255 31.54481,-23.6753 26.84739,-44.05914 0.11479,-21.21503 0.0256,-42.43044 0.0148,-63.64565 -18.34837,-17.7548 -35.75623,-36.788635 -56.45134,-51.828933 -22.3166,-0.003 -44.6332,-0.0059 -66.9498,-0.0088 -22.39313,15.340694 -40.18527,36.187203 -59.827108,54.752523 0.41989,26.11426 -1.176909,52.43643 1.158685,78.38073 16.832675,17.19722 33.073893,35.25145 51.107813,51.10645 26.47784,0.52774 52.9657,0.12512 79.44789,0.13988 8.21698,-8.27802 16.4371,-16.56385 24.65212,-24.83701 z m 37.17142,21.0197 c 25.18663,-22.28026 49.3218,-49.06694 58.52415,-82.16055 0.63264,-7.99595 3.6533,-32.44374 -8.14813,-16.30779 -32.40028,32.34033 -64.51223,64.9872 -96.24205,97.98457 14.38939,2.50449 30.97224,1.92431 45.86603,0.48377 z m 11.02147,-76.13061 c 13.04988,-10.63369 25.15041,-22.78471 20.53675,-41.11584 -0.0223,-22.60559 0.40776,-45.248605 -0.66788,-67.827762 -9.68092,-8.25853 -22.71772,-28.417336 -32.33531,-27.105397 -0.43703,48.352656 -0.61631,96.724029 0.121,145.071329 4.49144,0.52782 8.64753,-6.52515 12.3455,-9.02233 z M 38.676539,165.54705 C 64.707077,139.23991 91.082564,113.25158 116.50244,86.354424 101.25336,84.243538 79.088623,79.327943 66.931643,91.520445 48.496404,110.07955 30.134421,128.71191 11.724596,147.29652 c 0.429816,14.10893 -1.416468,28.73964 1.17931,42.41404 9.277789,-6.5317 17.252322,-16.25163 25.772633,-24.16351 z M 260.90721,114.84882 c -0.80304,-18.221799 7.41501,-41.516305 -9.76666,-54.241531 -16.35101,-16.888843 -33.01446,-33.471202 -49.55829,-50.170434 -16.05176,0.26696 -32.12903,-0.02152 -48.15683,0.924279 33.48963,35.00286 68.55446,68.559616 103.03499,102.615176 1.28176,-0.19442 3.65705,6.02716 4.44679,0.87251 z M 193.16367,72.106663 C 191.00932,60.751831 171.62142,48.33656 160.33677,40.161069 137.8161,36.720453 114.70154,39.058549 91.936952,38.568276 70.996665,33.427142 65.532439,58.061624 51.758494,68.197996 52.662224,76.617713 76.8648,70.6277 86.541487,72.572988 122.0807,72.506295 157.63176,72.829906 193.16367,72.106663 Z" />
</svg>
