<?xml version="1.0" encoding="UTF-8" standalone="no"?>
<svg
   xmlns:dc="http://purl.org/dc/elements/1.1/"
   xmlns:cc="http://creativecommons.org/ns#"
   xmlns:rdf="http://www.w3.org/1999/02/22-rdf-syntax-ns#"
   xmlns:svg="http://www.w3.org/2000/svg"
   xmlns="http://www.w3.org/2000/svg"
   xmlns:sodipodi="http://sodipodi.sourceforge.net/DTD/sodipodi-0.dtd"
   xmlns:inkscape="http://www.inkscape.org/namespaces/inkscape"
   viewBox="0 0 348 348"
   fill="none"
   version="1.1"
   id="svg831"
   sodipodi:docname="T.svg"
   inkscape:version="1.0.1 (3bc2e813f5, 2020-09-07)">
  <metadata
     id="metadata1359">
    <rdf:RDF>
      <cc:Work
         rdf:about="">
        <dc:format>image/svg+xml</dc:format>
        <dc:type
           rdf:resource="http://purl.org/dc/dcmitype/StillImage" />
        <dc:title></dc:title>
      </cc:Work>
    </rdf:RDF>
  </metadata>
  <defs
     id="defs1357" />
  <sodipodi:namedview
     pagecolor="#ffffff"
     bordercolor="#666666"
     borderopacity="1"
     objecttolerance="10"
     gridtolerance="10"
     guidetolerance="10"
     inkscape:pageopacity="0"
     inkscape:pageshadow="2"
     inkscape:window-width="1920"
     inkscape:window-height="1001"
     id="namedview1355"
     showgrid="false"
     inkscape:zoom="2.3017241"
     inkscape:cx="172.20826"
     inkscape:cy="169.55567"
     inkscape:window-x="-9"
     inkscape:window-y="-9"
     inkscape:window-maximized="1"
     inkscape:current-layer="svg831"
     inkscape:document-rotation="0" />
  <style
     id="style1281"></style>
  <path
     style="fill:none;fill-opacity:0.547244;stroke:#000000;stroke-width:1.73783"
     d=""
     id="path1453" />
  <path
     id="path3103"
     style="fill:#000000;stroke-width:0.754957"
     d="M 1.3664469,347.02016 C 0.50463428,302.09442 1.000664,257.1475 0.87024235,212.21228 12.85076,193.29067 25.114932,174.50956 36.826363,155.42353 c -3.060146,-9.78054 -17.455182,10.39945 -23.00314,15.6002 -4.3650596,6.6014 -15.7995128,18.30122 -11.9279816,2.15218 C 4.8539175,139.09953 33.904387,115.70685 60.211368,97.897548 88.021525,78.922764 122.40335,68.777704 156.01071,74.523549 c 55.03045,4.589331 106.7606,38.641021 131.16962,88.389641 4.51401,6.16277 10.55404,26.45228 0.98332,9.91883 -16.69431,-23.69468 -40.00929,-42.03967 -65.34503,-55.67939 -26.67414,-10.84055 -57.03712,-15.71408 -85.4106,-7.87766 -8.20059,1.02675 -36.24217,15.57419 -13.88155,15.44079 7.34638,1.79256 25.8608,-0.75434 26.35923,3.56154 -19.35634,7.83729 -40.65624,13.29655 -57.022425,26.86905 11.716605,3.35137 27.632565,-4.56268 41.118645,-1.95494 36.01292,2.74577 73.23289,14.80285 98.59192,41.5588 6.2078,5.73618 15.72944,25.98163 1.74432,11.16629 -18.36644,-18.22268 -44.30187,-25.40063 -69.59494,-25.65269 -7.98429,1.42053 -28.15436,-5.03934 -28.00757,4.94191 8.36092,7.36522 30.25937,10.02199 33.70315,13.79858 -21.88864,1.44827 -44.50745,-2.44475 -65.71545,4.62415 -5.822713,-3.41532 -6.45296,-18.88134 -15.41401,-6.14851 -13.70935,12.88954 -28.11882,25.23298 -39.937335,39.95762 1.355022,17.5625 21.032364,0.1538 31.203424,0.4765 21.617601,-6.29908 43.938161,-11.75698 63.230921,-23.77381 28.88374,2.16837 59.48689,9.32593 80.64438,30.58103 5.22878,4.22023 17.28283,17.43309 3.49443,8.3796 -17.51137,-8.42216 -35.02032,-17.31903 -53.51817,-23.35932 -17.35783,2.56989 13.28295,12.78054 16.51035,18.23279 7.24086,4.69389 25.24419,19.82672 5.03067,13.15792 -39.60153,-7.27934 -82.89436,18.67007 -92.89342,58.07837 6.21242,7.16363 23.64348,-10.18944 33.69891,-12.47889 11.38504,-5.42329 32.85753,-18.59834 40.74081,-8.6511 -21.43894,9.58324 -42.60768,25.77321 -49.73265,49.0634 -42.130237,-0.004 -84.273414,0.61077 -126.3952131,-0.12389 z M 285.85754,344.76695 c -19.77744,-4.33958 -41.86032,-21.35619 -38.57853,-43.82683 3.08343,-19.82266 19.92993,-34.43512 35.78472,-44.97736 15.51701,-10.41258 37.77692,-7.84569 50.01345,6.51871 17.7589,14.94516 17.52587,42.98449 2.97186,60.02243 -11.48388,15.7134 -30.69766,24.73351 -50.1915,22.26305 z m -103.63526,-6.38154 c -23.61542,-6.33319 3.20478,-21.678 14.55032,-24.76806 7.47416,-3.11417 23.25974,-2.68532 9.05672,5.08582 -8.94424,4.0558 -13.23847,23.71226 -23.60704,19.68224 z M 284.94658,226.21 c -6.16362,-13.71398 -22.51294,-25.16034 -20.5444,-41.11809 16.14807,-14.2382 13.99599,17.73409 18.65547,26.76701 -0.40094,2.48882 6.97345,17.18789 1.88893,14.35108 z m 9.71216,-44.02411 c 0.56605,-4.17419 0.56627,4.17435 0,0 z M 235.65288,165.582 c -18.83958,-12.94309 -39.1392,-25.48447 -62.28395,-28.35872 -2.48994,-8.93592 5.98595,-26.31952 16.00564,-18.63644 22.68109,11.86294 45.44652,28.05524 56.75629,51.71194 2.58567,5.98187 -9.56302,-5.17638 -10.47798,-4.71678 z m 81.93078,-12.6507 c -4.03962,-32.66879 -20.25036,-61.640365 -33.92169,-90.965062 3.89717,-8.85705 21.77096,-10.04425 21.66031,4.067975 6.66342,19.473314 19.81424,38.288017 16.14474,59.763377 -1.13237,9.04571 -0.66726,24.35285 -3.40301,29.66637 z M 290.0098,121.13347 C 269.19592,98.517054 244.46192,79.419131 218.04863,63.758043 c -14.5109,-4.421338 4.93794,-37.491651 15.06401,-19.171724 22.64509,19.038343 40.13538,43.507399 55.46544,68.569331 -0.72978,1.81313 6.15586,9.17424 1.43172,7.97782 z M 3.8810326,67.524834 C -1.2559889,48.36515 24.338031,54.901178 34.823624,55.919744 26.055299,62.555843 12.764532,78.187766 4.0892776,76.741688 3.8468738,73.674748 3.8998586,70.597591 3.8810326,67.524834 Z" />
</svg>
