<?xml version="1.0" encoding="UTF-8" standalone="no"?>
<svg
   xmlns:dc="http://purl.org/dc/elements/1.1/"
   xmlns:cc="http://creativecommons.org/ns#"
   xmlns:rdf="http://www.w3.org/1999/02/22-rdf-syntax-ns#"
   xmlns:svg="http://www.w3.org/2000/svg"
   xmlns="http://www.w3.org/2000/svg"
   xmlns:sodipodi="http://sodipodi.sourceforge.net/DTD/sodipodi-0.dtd"
   xmlns:inkscape="http://www.inkscape.org/namespaces/inkscape"
   viewBox="0.0 0.0 348.0 348.0"
   fill="none"
   version="1.1"
   id="svg849"
   sodipodi:docname="Cruel Colour Flash.svg"
   inkscape:version="1.0.1 (3bc2e813f5, 2020-09-07)">
  <metadata
     id="metadata855">
    <rdf:RDF>
      <cc:Work
         rdf:about="">
        <dc:format>image/svg+xml</dc:format>
        <dc:type
           rdf:resource="http://purl.org/dc/dcmitype/StillImage" />
        <dc:title></dc:title>
      </cc:Work>
    </rdf:RDF>
  </metadata>
  <defs
     id="defs853" />
  <sodipodi:namedview
     pagecolor="#ffffff"
     bordercolor="#666666"
     borderopacity="1"
     objecttolerance="10"
     gridtolerance="10"
     guidetolerance="10"
     inkscape:pageopacity="0"
     inkscape:pageshadow="2"
     inkscape:window-width="1920"
     inkscape:window-height="1001"
     id="namedview851"
     showgrid="false"
     inkscape:zoom="2.3017241"
     inkscape:cx="174"
     inkscape:cy="174"
     inkscape:window-x="-9"
     inkscape:window-y="-9"
     inkscape:window-maximized="1"
     inkscape:current-layer="svg849"
     inkscape:document-rotation="0" />
  <rect
     style="fill:#cccccc;stroke:#000000;stroke-width:2.8422"
     id="rect873"
     width="149.63837"
     height="150.0918"
     x="19.135918"
     y="147.25224" />
  <rect
     style="fill:#cccccc;stroke:#000000;stroke-width:2.8422"
     id="rect877"
     width="149.63837"
     height="150.0918"
     x="179.20361"
     y="147.25224" />
  <path
     d="M5.079 5.776h336.913v337.67H5.08z"
     stroke-width="2"
     stroke="#000"
     id="path845" />
  <path
     d="M282.734 40.554c0-8.376 6.966-15.165 15.56-15.165 4.126 0 8.084 1.597 11.001 4.441 2.918 2.844 4.558 6.702 4.558 10.724 0 8.376-6.966 15.165-15.56 15.165-8.593 0-15.559-6.79-15.559-15.165z"
     stroke-width="2"
     stroke="#000"
     id="path847" />
  <path
     style="fill:#000000;stroke-width:0.453449"
     d="M 5.079,174.45923 V 5.776 H 173.53549 341.992 V 174.45923 343.14246 H 173.53549 5.079 Z m 336.00611,0 V 6.6828921 H 173.53549 5.9858921 V 174.45923 342.23554 H 173.53549 341.08511 Z M 17.775566,222.29815 v -75.9528 h 75.952805 75.952809 v 75.9528 75.95281 H 93.728371 17.775566 Z m 150.998714,0 V 147.25224 H 93.955088 19.135917 v 75.04591 75.04589 h 74.819171 74.819192 z m -94.770971,3.73749 v -4.19787 l -2.870486,-4.30429 c -1.578756,-2.36739 -3.234647,-4.86546 -3.679744,-5.55131 l -0.809257,-1.24698 h 1.592744 c 1.501367,0 1.731961,0.21793 4.019831,3.79773 1.334909,2.08875 2.63115,4.14377 2.880546,4.56674 0.37711,0.63953 0.949666,3.6e-4 3.400877,-3.79651 2.753391,-4.26497 3.045839,-4.56557 4.44273,-4.56674 l 1.495312,-0.001 -3.875926,5.62385 -3.875925,5.62386 v 4.12532 4.12529 H 75.36366 74.003309 Z m 12.696591,-5.5513 v -9.74915 h 7.028471 7.028469 v 1.13361 1.13364 h -5.668118 -5.66812 v 2.94741 2.94742 h 5.441404 5.441374 v 1.13364 1.13361 h -5.441374 -5.441404 v 3.40087 3.40088 h 5.894837 5.894861 v 1.13361 1.13363 H 93.955088 86.6999 Z m 20.93299,8.98312 c -1.68075,-0.82819 -2.6237,-2.04349 -3.23249,-4.16624 -0.38355,-1.33735 -0.33783,-1.416 0.82317,-1.416 0.93945,0 1.34608,0.3094 1.72459,1.31218 0.71357,1.89049 2.39936,2.81709 5.16413,2.8385 2.7781,0.0203 4.66542,-1.10753 4.88284,-2.92106 0.21336,-1.78006 -1.12371,-2.74526 -5.37552,-3.88041 -4.87899,-1.30255 -6.78171,-2.84682 -6.78171,-5.50402 0,-5.29734 8.82352,-7.29659 12.7029,-2.87821 1.80828,2.05953 1.8059,3.32437 -0.005,3.32437 -1.05275,0 -1.36035,-0.20272 -1.36035,-0.89643 0,-2.81828 -7.24957,-3.50765 -8.48025,-0.80641 -0.87474,1.91993 -0.005,2.92884 3.40344,3.94363 1.72372,0.51336 3.28527,0.93337 3.4701,0.93337 0.18473,0 1.03902,0.3336 1.89824,0.74132 3.86506,1.83408 3.79591,7.59888 -0.11352,9.45397 -1.9419,0.92148 -6.77821,0.87792 -8.71936,-0.0786 z m 70.66383,-7.16931 v -75.9528 h 75.9528 75.95278 v 75.9528 75.95281 h -75.95278 -75.9528 z m 150.99869,0 v -75.04591 h -75.04589 -75.04591 v 75.04591 75.04589 h 75.04591 75.04589 z m -93.4106,-1.81381 v -9.74915 h 1.2913 c 1.16683,0 1.77859,0.7321 6.3467,7.59528 l 5.05542,7.59527 0.001,-7.59527 0.002,-7.59528 h 1.36033 1.36035 v 9.74915 9.74917 h -1.35643 c -1.25212,0 -1.7578,-0.60144 -6.57501,-7.81999 l -5.21859,-7.81996 v 7.81996 7.81999 h -1.13363 -1.13361 z m 24.25955,9.11413 c -3.61191,-1.59188 -5.46315,-5.30399 -5.10958,-10.24576 0.40886,-5.71416 3.70263,-8.84436 9.22266,-8.76467 2.94341,0.0426 4.82445,0.77586 6.37295,2.48466 4.25876,4.69963 3.12034,13.59211 -2.07968,16.24495 -2.09814,1.07041 -6.2966,1.21067 -8.40635,0.28082 z m 6.84313,-2.1057 c 4.89571,-2.36997 5.03726,-11.25546 0.22249,-13.96154 -4.19471,-2.35758 -8.73727,-0.0334 -9.51184,4.86647 -0.70288,4.44645 0.5594,7.67114 3.61213,9.22777 2.02368,1.0319 3.33487,1.00124 5.6773,-0.13278 z M 48.610152,88.983993 V 49.307152 h 93.637318 93.63734 V 88.983993 128.66081 H 142.24747 48.610152 Z m 50.413893,7.79873 c 2.019845,-0.843922 3.848205,-3.056862 4.487635,-5.431546 0.71164,-2.642883 0.34837,-7.016105 -0.7603,-9.152442 -1.74514,-3.362816 -4.063318,-4.295302 -10.723447,-4.313445 l -3.967682,-0.01014 v 10.04421 10.044206 l 4.707685,-0.266577 c 2.589238,-0.146718 5.404483,-0.557732 6.256109,-0.913582 z m -8.696551,-8.932364 v -7.255188 h 3.753432 c 2.736185,0 4.039546,0.200439 4.809121,0.739421 3.312183,2.31995 3.013933,11.325141 -0.43415,13.108213 -0.792229,0.409671 -2.588883,0.662742 -4.704998,0.662742 h -3.423405 z m 20.178526,0 v -9.749173 l -1.24701,-0.143424 -1.24698,-0.143424 V 87.85046 97.886583 l 1.24698,-0.143424 1.24701,-0.143424 z m 15.31846,9.354148 c 3.25512,-1.386983 4.73331,-4.716351 3.31323,-7.462494 -0.89427,-1.729301 -2.13398,-2.397186 -6.82608,-3.677539 -4.13766,-1.129022 -4.77717,-1.53474 -4.77717,-3.030863 0,-1.889069 1.50094,-2.891898 4.3284,-2.891898 2.0652,0 2.71348,0.198918 3.62759,1.113007 0.61216,0.612163 1.11301,1.428389 1.11301,1.81381 0,0.719959 2.01952,1.020972 2.42002,0.360689 0.39908,-0.657851 -1.10979,-3.524385 -2.32482,-4.41663 -1.85907,-1.365242 -7.0658,-1.505701 -9.07812,-0.244784 -1.72215,1.079026 -3.00192,3.708884 -2.59458,5.331808 0.5836,2.325322 2.6595,3.538549 8.72303,5.098199 2.38292,0.612898 3.30793,1.515077 3.30793,3.226234 0,4.092025 -8.62545,4.029714 -10.05556,-0.07273 -0.33819,-0.97014 -0.75528,-1.32675 -1.55177,-1.32675 -2.79105,0 -0.0203,5.345314 3.28315,6.335499 2.01883,0.604967 5.48537,0.528972 7.09174,-0.155587 z m 9.84798,-3.459311 v -4.081027 h 3.64216 c 6.02237,0 8.60097,-1.783503 8.60097,-5.948862 0,-1.759177 -0.24935,-2.47721 -1.24698,-3.590496 -1.54419,-1.723245 -3.57752,-2.225356 -9.069,-2.239521 l -4.1944,-0.01014 v 9.975889 9.97589 h 1.13361 c 1.12525,0 1.13364,-0.03015 1.13364,-4.081053 z m 0,-9.749148 v -3.400877 h 4.01076 c 3.3097,0 4.14194,0.144945 4.76122,0.829225 0.77024,0.851119 1.00473,3.51027 0.39419,4.470427 -0.60714,0.954886 -2.8008,1.502077 -6.02153,1.502077 h -3.14464 z m 27.66042,12.46985 v -1.360351 h -4.76123 -4.76122 v -8.645643 -8.645668 l -1.24698,0.143425 -1.24698,0.143424 -0.12316,9.283475 c -0.0676,5.105927 -0.0228,9.544045 0.0991,9.862544 0.16446,0.428777 1.75568,0.579043 6.13129,0.579043 h 5.90907 z m 4.86951,-1.927156 1.12828,-3.060789 h 3.9895 3.9895 l 1.24534,3.17416 c 1.1351,2.893191 1.35941,3.174136 2.53404,3.174136 0.70879,0 1.28872,-0.196385 1.28872,-0.436228 0,-0.23997 -1.76442,-4.739765 -3.92096,-9.999633 l -3.92093,-9.563431 -1.35115,0.137089 c -1.31578,0.133542 -1.44466,0.380531 -4.92132,9.430928 -1.9636,5.111579 -3.57018,9.563254 -3.57018,9.892623 0,0.380555 0.43397,0.546558 1.19045,0.455384 1.01641,-0.122392 1.35538,-0.590928 2.31871,-3.204264 z m 1.93222,-4.992607 c 0,-0.894678 3.20089,-8.942576 3.3691,-8.470771 0.12822,0.359371 0.85087,2.350789 1.60607,4.425321 0.75524,2.074533 1.37313,3.859987 1.37313,3.967682 0,0.107695 -1.42837,0.195878 -3.17414,0.195878 -1.74577,0 -3.17416,-0.05321 -3.17416,-0.118085 z m 20.8587,3.518885 0.22679,-4.534486 3.51422,-5.052054 c 1.93284,-2.778629 3.51425,-5.18917 3.51425,-5.356768 0,-0.167498 -0.64029,-0.24073 -1.42286,-0.162683 -1.25669,0.125433 -1.74653,0.656052 -4.19443,4.543 -1.52435,2.420474 -2.87358,4.398816 -2.99827,4.396257 -0.12468,-0.0025 -1.52357,-2.033964 -3.10858,-4.514265 -2.56142,-4.008124 -3.02785,-4.509628 -4.19443,-4.509628 -0.72188,0 -1.31253,0.17586 -1.31253,0.390565 0,0.214883 1.63242,2.806427 3.62762,5.759116 l 3.62759,5.368552 v 4.246877 4.246903 l 1.24698,-0.143425 1.24698,-0.143424 z M 84.432657,93.300936 c 0,-1.000929 -1.455325,-1.841963 -6.702067,-3.873164 -1.815659,-0.702905 -3.142004,-1.426894 -2.947418,-1.608885 0.194611,-0.181941 2.445307,-1.192879 5.001628,-2.246414 4.053382,-1.670512 4.647857,-2.053297 4.647857,-2.992954 0,-0.592626 -0.153053,-1.070031 -0.340087,-1.060909 -0.187009,0.01014 -3.094796,1.186215 -6.461667,2.615795 -5.355704,2.274034 -6.138227,2.740872 -6.254791,3.731487 -0.123659,1.050976 0.29967,1.317679 5.894837,3.7137 3.315456,1.419747 6.283146,2.589846 6.594904,2.60021 0.311732,0.01014 0.566804,-0.385117 0.566804,-0.878866 z M 207.1257,91.598749 c 5.69622,-2.417307 6.11706,-2.679423 5.99315,-3.732502 -0.11656,-0.991071 -0.89835,-1.457504 -6.25481,-3.731842 -3.36688,-1.42958 -6.27461,-2.606698 -6.46167,-2.615795 -0.18701,-0.01014 -0.34009,0.468283 -0.34009,1.060909 0,0.939657 0.59448,1.322442 4.64786,2.992954 2.55632,1.053535 4.80319,2.060545 4.99304,2.237798 0.18979,0.17738 -1.90169,1.22387 -4.64786,2.325779 -4.30078,1.725677 -4.99304,2.146193 -4.99304,3.033016 0,0.566247 0.21083,1.029563 0.46849,1.029563 0.25768,0 3.22537,-1.169946 6.59493,-2.59988 z m 87.81013,-35.547745 c -5.03906,-0.824385 -9.47545,-4.303132 -11.69792,-9.172865 -0.99844,-2.187727 -1.20925,-3.294551 -1.1962,-6.281018 0.0127,-3.125204 0.21134,-4.022264 1.4324,-6.502769 1.56968,-3.188502 4.11962,-5.706789 7.55468,-7.460973 1.92723,-0.984179 2.81071,-1.132367 6.75188,-1.132367 3.94716,0 4.85752,0.153306 7.02847,1.182692 6.8512,3.248939 10.50327,11.109245 8.44741,18.181199 -2.27614,7.829595 -10.00227,12.546934 -18.32072,11.186101 z m 8.35966,-1.822349 c 2.92628,-1.094864 6.58226,-4.226935 7.86192,-6.735313 0.45159,-0.885176 1.06456,-2.847148 1.3622,-4.359944 1.76701,-8.981625 -6.2561,-17.577931 -15.70895,-16.831162 -7.43156,0.587076 -13.27381,6.372926 -13.69005,13.557922 -0.61852,10.676869 9.94113,18.197442 20.17488,14.368497 z"
     id="path871"
     sodipodi:nodetypes="ccccccccccccccccccccccccccccccccccccccsscsssssccccccccccccccccccccccccccccccccccssscssssssscsssccccccccccccccccccccccsscccccccssccccccsssssscsssccccccccccccsscccccccccscsscccccccccccssssssssssssssscssccsssccccsscccssssccccccccccccsccccccsssscssscscscsssssccsscssssssccccccssssscssscsssscsscssssssccsscsssscsss" />
</svg>
