<?xml version="1.0" encoding="UTF-8" standalone="no"?>
<svg
   xmlns:dc="http://purl.org/dc/elements/1.1/"
   xmlns:cc="http://creativecommons.org/ns#"
   xmlns:rdf="http://www.w3.org/1999/02/22-rdf-syntax-ns#"
   xmlns:svg="http://www.w3.org/2000/svg"
   xmlns="http://www.w3.org/2000/svg"
   xmlns:sodipodi="http://sodipodi.sourceforge.net/DTD/sodipodi-0.dtd"
   xmlns:inkscape="http://www.inkscape.org/namespaces/inkscape"
   viewBox="0.0 0.0 348.0 348.0"
   fill="none"
   version="1.1"
   id="svg849"
   sodipodi:docname="Not Murder.svg"
   inkscape:version="1.0.1 (3bc2e813f5, 2020-09-07)">
  <metadata
     id="metadata855">
    <rdf:RDF>
      <cc:Work
         rdf:about="">
        <dc:format>image/svg+xml</dc:format>
        <dc:type
           rdf:resource="http://purl.org/dc/dcmitype/StillImage" />
        <dc:title></dc:title>
      </cc:Work>
    </rdf:RDF>
  </metadata>
  <defs
     id="defs853">
    <clipPath
       clipPathUnits="userSpaceOnUse"
       id="clipPath863">
      <rect
         style="fill:#ffffff;stroke:#000000;stroke-width:2.4189"
         id="rect865"
         width="210.1299"
         height="205.21457"
         x="-394.45435"
         y="-38.093723" />
    </clipPath>
    <clipPath
       clipPathUnits="userSpaceOnUse"
       id="clipPath907">
      <rect
         style="fill:none;stroke:#000000;stroke-width:1.88976;stroke-miterlimit:4;stroke-dasharray:none"
         id="rect909"
         width="116.73883"
         height="30.720745"
         x="-334.2417"
         y="-74.958618" />
    </clipPath>
    <clipPath
       clipPathUnits="userSpaceOnUse"
       id="clipPath915">
      <rect
         style="fill:none;stroke:#000000;stroke-width:1.93624;stroke-miterlimit:4;stroke-dasharray:none"
         id="rect917"
         width="99.488731"
         height="29.445433"
         x="-320.70132"
         y="27.057497" />
    </clipPath>
  </defs>
  <sodipodi:namedview
     pagecolor="#ffffff"
     bordercolor="#666666"
     borderopacity="1"
     objecttolerance="10"
     gridtolerance="10"
     guidetolerance="10"
     inkscape:pageopacity="0"
     inkscape:pageshadow="2"
     inkscape:window-width="1920"
     inkscape:window-height="1001"
     id="namedview851"
     showgrid="false"
     inkscape:zoom="1.6275647"
     inkscape:cx="174"
     inkscape:cy="185.68831"
     inkscape:window-x="-9"
     inkscape:window-y="-9"
     inkscape:window-maximized="1"
     inkscape:current-layer="svg849"
     inkscape:document-rotation="0" />
  <path
     d="M5.079 5.776h336.913v337.67H5.08z"
     stroke-width="2"
     stroke="#000"
     id="path845" />
  <path
     d="m 283.234,40.554 c 0,-8.376 6.966,-15.165 15.56,-15.165 4.126,0 8.084,1.597 11.001,4.441 2.918,2.844 4.558,6.702 4.558,10.724 0,8.376 -6.966,15.165 -15.56,15.165 -8.593,0 -15.559,-6.79 -15.559,-15.165 z"
     stroke-width="2"
     stroke="#000000"
     id="path847" />
  <path
     style="fill:#000000;stroke-width:0.369806"
     d="M 4.2397932,344.33023 C 3.9053414,342.99679 4.2732202,5.9468416 4.6096959,5.4020162 4.818444,5.064026 43.811782,4.96277 173.77593,4.96277 c 92.89225,0 169.15812,0.1010284 169.47975,0.2245835 0.53205,0.2043323 0.58476,15.4913005 0.58476,169.5808865 0,93.14599 -0.10096,169.61967 -0.22443,169.9415 -0.2042,0.53238 -15.49962,0.58515 -169.67935,0.58515 H 4.481741 Z M 341.992,175.12958 V 6.813206 H 174.15405 6.316087 V 175.12958 343.446 H 174.15405 341.992 Z M 107.98004,290.91649 v -21.45571 h 66.54368 66.54371 v 21.45571 21.45571 h -66.54371 -66.54368 z m 130.12987,0 v -18.49631 h -63.58619 -63.58617 v 18.49631 18.4963 h 63.58617 63.58619 z m -106.66017,10.71905 c -0.1287,-0.20843 -0.61117,-1.49843 -1.07221,-2.86693 l -0.83829,-2.48819 -5.02128,-0.10262 c -4.94387,-0.10126 -5.02528,-0.0897 -5.28142,0.73985 -0.14303,0.46341 -0.58361,1.71655 -0.97895,2.7847 -0.70343,1.90058 -0.75052,1.94211 -2.2018,1.94211 -0.81564,0 -1.42753,-0.15245 -1.35977,-0.33902 0.0678,-0.18635 1.95098,-5.09722 4.1849,-10.91282 l 4.06165,-10.57381 1.66849,0.007 1.6685,0.007 4.02432,10.62965 c 2.21339,5.84632 4.10272,10.83774 4.19854,11.09208 0.21626,0.57427 -2.70031,0.65421 -3.05268,0.0837 z m -3.03835,-8.03709 c 0.22908,-0.44698 -3.66001,-10.59899 -3.90709,-10.19895 -0.45197,0.73177 -3.5852,9.41774 -3.5852,9.93892 0,0.43397 0.7077,0.53748 3.67504,0.53748 2.02129,0 3.73905,-0.12493 3.81725,-0.27745 z m 14.68655,8.0702 c -4.15518,-1.26477 -6.52566,-4.62715 -6.91755,-9.81216 -0.37093,-4.90757 1.65279,-9.33041 5.0872,-11.11818 2.81744,-1.46662 7.94151,-1.42186 11.0436,0.0965 1.18456,0.5798 1.3376,0.822 1.44188,2.28206 l 0.11666,1.63341 -0.85605,-0.61434 c -1.93529,-1.38887 -3.19016,-1.848 -5.50361,-2.01363 -4.57918,-0.32786 -7.2897,1.79833 -8.13658,6.38245 -0.43731,2.36714 -0.20898,4.81291 0.63927,6.85091 1.81675,4.36441 7.01678,5.67878 11.79379,2.98107 l 2.01467,-1.13775 v 1.43235 c 0,1.38996 -0.0644,1.4612 -2.17193,2.40768 -1.74907,0.78545 -2.70272,0.96915 -4.89835,0.94353 -1.49953,-0.0182 -3.14339,-0.1586 -3.65303,-0.31383 z m 21.07217,0.0205 c -3.17409,-1.03828 -5.6143,-3.52879 -6.52334,-6.65773 -0.81446,-2.80345 -0.54577,-7.81938 0.53024,-9.89908 1.07062,-2.06931 2.87354,-3.80329 4.87611,-4.6897 2.4138,-1.06845 6.92487,-1.01736 9.52977,0.10785 1.86349,0.80502 1.94083,0.89558 1.94083,2.27257 0,1.58342 -0.18282,1.71794 -1.14789,0.84409 -1.91889,-1.73769 -6.55967,-2.13919 -9.21445,-0.79715 -2.96982,1.50128 -4.27882,4.52865 -3.93855,9.10872 0.23486,3.16087 1.50936,5.65534 3.47703,6.80527 2.58897,1.51301 7.37404,1.08234 9.87874,-0.88912 l 0.94512,-0.74393 v 1.49905 c 0,1.38932 -0.11506,1.55857 -1.57116,2.31266 -1.18029,0.6112 -2.35294,0.84049 -4.7135,0.92159 -1.72829,0.0594 -3.55932,-0.0284 -4.06895,-0.19523 z m 19.47891,-0.18909 c -1.79378,-0.66838 -2.72166,-1.51445 -3.69637,-3.37048 -0.70831,-1.34873 -0.79013,-2.22456 -0.92443,-9.89551 l -0.14735,-8.41583 h 1.49287 1.49289 l 0.11779,8.23086 c 0.10187,7.11026 0.2092,8.39849 0.78933,9.46225 1.72902,3.17063 7.57825,2.97608 9.21704,-0.30659 0.55586,-1.11339 0.64648,-2.42166 0.64696,-9.34063 v -8.04589 h 1.47874 1.47875 v 8.2507 c 0,8.05641 -0.0227,8.29437 -0.92302,10.10419 -1.27557,2.56139 -3.10345,3.56 -6.82233,3.72717 -1.79462,0.0806 -3.2943,-0.0621 -4.20153,-0.40024 z m 20.26486,0.31951 c -0.20329,-0.0746 -1.07672,-0.31769 -1.94086,-0.53995 -1.51606,-0.38994 -1.57118,-0.4555 -1.57118,-1.86955 0,-0.806 0.0621,-1.46544 0.1378,-1.46544 0.0757,0 0.89211,0.33385 1.81402,0.74192 2.19833,0.97306 5.68377,1.32937 7.41413,0.75792 4.07488,-1.3457 3.56268,-6.52557 -0.71516,-7.23268 -3.51029,-0.58023 -6.37166,-1.67125 -7.31012,-2.78725 -1.58555,-1.88552 -1.75896,-5.0997 -0.38814,-7.1932 1.15723,-1.76729 3.2763,-2.55226 6.81083,-2.52296 1.72829,0.0137 3.84938,0.21776 4.71352,0.45215 1.49881,0.40646 1.57116,0.49097 1.57116,1.83469 v 1.4086 l -1.94085,-0.67093 c -2.3868,-0.82511 -5.85275,-0.88978 -7.30871,-0.1363 -1.28135,0.66303 -1.84106,1.59079 -1.84106,3.05174 0,1.695 1.28023,2.56023 5.08543,3.43693 5.83315,1.3439 7.32001,3.00648 7.15345,7.99872 -0.0503,1.50357 -1.59331,3.35157 -3.53592,4.23457 -1.09127,0.49599 -2.34119,0.67338 -4.63639,0.658 -1.72829,-0.0114 -3.30871,-0.0821 -3.51202,-0.157 z m 16.45106,-11.08851 v -10.91282 h 6.83922 6.83921 v 1.29476 1.29473 h -5.36046 -5.36047 v 3.32934 3.32932 h 5.17562 5.17561 v 1.10979 1.10977 h -5.17561 -5.17562 v 4.06919 4.06919 h 5.54529 5.54531 v 1.10979 1.10977 h -7.02405 -7.02405 z M 57.79418,175.59151 57.887411,93.930303 H 174.5237 291.16 l 0.0932,81.661207 0.0932,81.66121 H 174.52365 57.70088 Z m 230.50163,0 -0.0932,-78.701779 H 174.52377 60.844973 l -0.09323,78.701779 -0.09323,78.70181 H 174.52386 288.3892 Z M 67.684135,225.80898 v -21.4557 h 106.839585 106.8396 v 21.4557 21.45574 H 174.52372 67.684135 Z M 278.22098,225.62399 V 207.1277 H 174.52372 70.826478 l -0.09619,18.12638 c -0.05298,9.9695 -0.01592,18.33475 0.08118,18.58944 0.14144,0.36957 21.095026,0.44425 103.793502,0.36991 l 103.61617,-0.0931 z m -183.91936,0.18499 v -13.31733 h 2.957493 c 2.908217,0 2.957497,0.0159 2.957497,0.92482 0,0.84946 -0.13553,0.92482 -1.663576,0.92482 h -1.663596 v 11.28273 11.28276 h 1.663596 c 1.601976,0 1.663576,0.0412 1.663576,1.10976 v 1.10979 H 97.259113 94.30162 Z m 154.52924,12.20756 c 0,-1.06867 0.0616,-1.10976 1.66357,-1.10976 h 1.66359 v -11.28276 -11.28273 h -1.66359 c -1.52802,0 -1.66357,-0.0753 -1.66357,-0.92482 0,-0.9094 0.0493,-0.92482 2.95749,-0.92482 h 2.95749 v 13.31733 13.31735 h -2.95749 -2.95749 z m -98.15195,-2.76267 c -0.2033,-0.0862 -1.07672,-0.33872 -1.94086,-0.56098 -1.50779,-0.38782 -1.57116,-0.4618 -1.57116,-1.83403 v -1.4299 l 1.94086,0.76177 c 2.51073,0.98546 6.63112,1.07902 8.27786,0.18795 0.63877,-0.34562 1.32785,-1.10615 1.53125,-1.69004 0.886,-2.54321 -0.65674,-4.60834 -3.92467,-5.25362 -5.24729,-1.03613 -7.12584,-2.20572 -7.84697,-4.88549 -0.7233,-2.6879 0.55263,-5.61898 2.94246,-6.75935 1.74036,-0.83046 5.65439,-1.05415 8.35466,-0.47749 2.2158,0.47319 2.21825,0.47519 2.33579,1.91018 0.10324,1.26149 0.0357,1.40412 -0.55452,1.17064 -1.57757,-0.62394 -5.49579,-1.2543 -6.55151,-1.054 -2.97896,0.56519 -4.42567,2.42971 -3.54188,4.56478 0.58736,1.41894 0.94956,1.60377 5.01321,2.55842 4.13774,0.97204 5.54061,1.80149 6.45462,3.81631 0.89834,1.98022 0.90028,3.73411 0.007,5.70451 -1.0396,2.29132 -2.97607,3.18041 -7.22858,3.31887 -1.82995,0.0596 -3.49353,0.0378 -3.69686,-0.0485 z m -34.56574,-11.1507 v -10.95395 l 5.28201,0.13675 c 5.05875,0.13084 5.38297,0.18659 7.67099,1.31547 3.92158,1.93499 5.35805,4.88843 5.09134,10.46776 -0.12461,2.60633 -0.33618,3.48569 -1.23643,5.1391 -1.95744,3.59499 -5.1768,4.84891 -12.44935,4.84891 h -4.35856 z m 11.36108,7.56367 c 2.53709,-1.30648 3.61125,-3.54403 3.61125,-7.52253 0,-3.76216 -1.08283,-6.18855 -3.2682,-7.32339 -1.46486,-0.76067 -7.50771,-1.64085 -8.54108,-1.24404 -0.49681,0.19068 -0.57524,1.34896 -0.57524,8.49416 0,4.55031 0.12484,8.40273 0.27727,8.56089 0.15258,0.15814 1.73636,0.20661 3.51972,0.10763 2.45086,-0.13607 3.66576,-0.39788 4.97628,-1.07275 z m 11.55951,-7.52253 V 213.2315 h 1.47875 1.47874 v 10.91281 10.91283 h -1.47874 -1.47875 z m 28.09623,-0.0364 V 213.1588 l 4.89835,0.12879 c 4.36868,0.11491 5.04923,0.22253 6.29364,0.99681 1.88574,1.17316 2.63726,2.7082 2.6539,5.4207 0.0273,4.44001 -2.00519,6.17997 -7.56121,6.47328 l -3.51204,0.18544 -0.10414,4.34664 -0.10415,4.34663 h -1.28219 -1.28216 z m 8.70186,-0.68565 c 1.44776,-0.60531 2.01906,-1.72431 2.01906,-3.95467 0,-2.15912 -1.43838,-3.49599 -4.12255,-3.83157 -3.86975,-0.48382 -3.81006,-0.53957 -3.93233,3.67282 -0.0587,2.0201 -0.0227,3.89286 0.081,4.16165 0.25894,0.67526 4.30292,0.64247 5.95499,-0.0482 z m 9.41282,0.72194 v -10.91282 h 1.28776 1.28776 l 0.0987,9.71056 0.0985,9.71056 5.26805,0.10262 5.26803,0.10262 v 1.09962 1.09962 h -6.65436 -6.65437 z m 14.97166,10.17502 c 0.1287,-0.4058 1.95632,-5.27496 4.06126,-10.82035 l 3.82728,-10.08252 h 1.73871 1.73868 l 4.01879,10.54288 c 2.21036,5.7986 4.02008,10.66776 4.02167,10.82035 0,0.15268 -0.65139,0.27744 -1.45098,0.27744 -1.18511,0 -1.50133,-0.15381 -1.71073,-0.83232 -0.14122,-0.45779 -0.58036,-1.70629 -0.97569,-2.77446 l -0.71881,-1.94211 h -4.93765 -4.93764 l -0.71884,1.94211 c -0.3953,1.06817 -0.83438,2.31667 -0.97566,2.77446 -0.21034,0.68158 -0.52471,0.83232 -1.73566,0.83232 -1.30913,0 -1.45191,-0.0846 -1.24473,-0.7378 z m 13.49425,-7.58837 c 0,-0.39638 -3.44526,-9.6308 -3.70023,-9.91789 -0.14781,-0.16634 -1.02389,1.74793 -1.94677,4.25416 -0.92286,2.50622 -1.7944,4.8481 -1.93672,5.20416 -0.23672,0.59213 0.0757,0.64738 3.66244,0.64738 2.15672,0 3.92128,-0.0844 3.92128,-0.18772 z m 11.82998,3.21352 v -5.11265 l -3.65713,-5.40122 c -2.01142,-2.97066 -3.76799,-5.58075 -3.90352,-5.80017 -0.1619,-0.26208 0.30007,-0.39651 1.34659,-0.39187 l 1.59298,0.007 2.91613,4.43203 c 1.60383,2.43761 2.97302,4.43202 3.04258,4.43202 0.0696,0 1.46397,-1.9976 3.09861,-4.4391 2.96637,-4.43055 2.97494,-4.43913 4.44352,-4.43913 0.80932,0 1.47147,0.0974 1.47147,0.21639 0,0.11901 -1.6636,2.66097 -3.69687,5.64865 l -3.69686,5.43219 v 5.26417 5.26417 h -1.47875 -1.47875 V 229.9442 Z M 67.684135,175.49892 v -21.45571 h 106.839585 106.8396 v 21.45571 21.45571 H 174.52372 67.684135 Z m 210.721675,0 v -18.4963 H 174.52372 70.641651 v 18.4963 18.49631 H 174.52372 278.40581 Z m -184.10419,0 v -13.31734 h 2.957493 c 2.908217,0 2.957497,0.0159 2.957497,0.92482 0,0.84946 -0.13553,0.92482 -1.663576,0.92482 h -1.663596 v 11.4677 11.46771 h 1.663596 c 1.528026,0 1.663576,0.0753 1.663576,0.92482 0,0.90939 -0.0494,0.92482 -2.957497,0.92482 H 94.30162 Z m 154.52924,12.39253 c 0,-0.84946 0.13552,-0.92482 1.66357,-0.92482 h 1.66359 v -11.46771 -11.4677 h -1.66359 c -1.52802,0 -1.66357,-0.0753 -1.66357,-0.92482 0,-0.9094 0.0493,-0.92482 2.95749,-0.92482 h 2.95749 v 13.31734 13.31735 h -2.95749 c -2.90822,0 -2.95749,-0.0159 -2.95749,-0.92482 z m -96.67321,-2.6299 c -0.40665,-0.0874 -1.69593,-0.34484 -2.86506,-0.57218 l -2.1257,-0.41331 v -1.42916 c 0,-0.78604 0.0416,-1.427 0.0923,-1.42439 0.0509,0.002 1.147,0.33556 2.4359,0.73985 3.231,1.01347 6.24827,0.97602 7.83526,-0.0972 1.61216,-1.09026 2.02511,-2.6089 1.17956,-4.33796 -0.75858,-1.55127 -1.59881,-1.99481 -5.20369,-2.74688 -4.86047,-1.01404 -6.53516,-2.59234 -6.48734,-6.11391 0.0548,-4.04068 2.48103,-5.92224 7.65519,-5.93681 1.58742,-0.005 3.62533,0.17817 4.52868,0.40573 1.58052,0.39825 1.64244,0.46651 1.64244,1.81085 v 1.39699 l -2.25104,-0.70106 c -2.65156,-0.82579 -4.71066,-0.89171 -6.35604,-0.20342 -1.62546,0.67989 -2.26171,1.55174 -2.26171,3.09923 0,1.89437 1.2151,2.76788 4.97484,3.57634 3.66621,0.78834 4.73672,1.28631 6.00344,2.79271 2.46078,2.92634 1.40221,7.77416 -2.04605,9.37004 -1.24523,0.57632 -5.44744,1.06471 -6.75109,0.78466 z m -36.04448,-11.24233 v -11.09779 l 2.49538,0.002 c 7.02244,0.009 11.46966,1.24695 13.60747,3.78923 1.90756,2.26848 2.59111,7.80873 1.44141,11.68271 -0.70086,2.36159 -2.24086,4.17691 -4.40825,5.19634 -1.75938,0.82755 -6.57696,1.5163 -10.64063,1.52123 l -2.49538,0.002 z m 10.38665,7.9409 c 3.31487,-1.17029 4.49109,-3.2314 4.53168,-7.9409 0.0232,-2.68331 -0.10711,-3.38777 -0.88832,-4.8044 -1.39566,-2.53088 -3.28615,-3.40983 -7.80204,-3.62742 l -3.64016,-0.17544 v 8.55775 8.55777 h 3.09584 c 1.83721,0 3.74926,-0.23069 4.703,-0.5674 z m 12.53394,-7.9409 v -11.09779 h 1.47875 1.47874 v 11.09779 11.09779 h -1.47874 -1.47875 z m 28.09623,-0.0537 v -11.1516 l 4.53008,0.19568 c 4.99024,0.21571 6.71658,0.71778 7.97596,2.31986 1.82561,2.32242 1.91182,6.274 0.18169,8.33141 -1.46627,1.74369 -2.82704,2.25247 -6.63194,2.47961 l -3.46802,0.20706 v 4.38477 4.38477 h -1.29392 -1.2939 z m 9.6403,-1.39745 c 0.83522,-0.83576 1.08062,-1.41833 1.08062,-2.56539 0,-3.35394 -1.44839,-4.49165 -5.71826,-4.49165 h -2.41484 v 4.0692 4.06917 h 2.98591 c 2.80735,0 3.05059,-0.0646 4.06657,-1.08133 z m 8.47438,1.45126 v -11.09779 h 1.2939 1.2939 v 9.80306 9.80304 h 5.36046 5.36046 v 1.29473 1.29476 h -6.65436 -6.65436 z m 14.78749,10.8164 c 0,-0.15473 1.41878,-4.02512 3.15283,-8.60078 1.73402,-4.57568 3.57853,-9.44304 4.09887,-10.81639 l 0.94603,-2.49702 h 1.59172 c 1.17324,0 1.65816,0.1702 1.84442,0.64738 0.13894,0.35606 2.00178,5.2239 4.1396,10.81742 2.13783,5.59351 3.96485,10.29621 4.06009,10.45041 0.0953,0.15427 -0.57161,0.28038 -1.48189,0.28038 h -1.65504 l -0.98494,-2.95943 -0.98491,-2.95941 h -4.91909 -4.91909 l -1.02955,2.95941 -1.02956,2.95943 h -1.41475 c -0.7781,0 -1.41474,-0.12652 -1.41474,-0.2814 z m 13.67842,-8.16683 c 0,-0.34407 -3.58071,-10.05518 -3.7818,-10.25635 -0.0966,-0.0967 -2.58011,6.33901 -3.89879,10.10378 -0.12302,0.35105 0.78237,0.46241 3.75931,0.46241 2.15672,0 3.92128,-0.13948 3.92128,-0.30984 z m 11.82998,3.23247 v -5.21573 l -3.87743,-5.69709 -3.87741,-5.69707 h 1.60492 1.60491 l 2.95355,4.45014 2.95353,4.45012 2.92341,-4.44304 2.92341,-4.44307 1.59299,-0.007 c 1.17094,-0.005 1.52263,0.11536 1.32737,0.45531 -0.14599,0.25434 -1.81955,2.74301 -3.7187,5.53039 l -3.45305,5.06801 v 5.38241 5.38242 h -1.47875 -1.47875 v -5.21573 z M 67.684135,125.55902 v -21.45574 h 106.839585 106.8396 v 21.45574 21.45571 H 174.52372 67.684135 Z M 278.22098,125.37403 V 106.87771 H 174.52372 70.826478 l -0.09619,18.12638 c -0.05298,9.9695 -0.01592,18.33477 0.08118,18.58944 0.14144,0.36959 21.095026,0.44427 103.793502,0.36993 l 103.61617,-0.0931 z m -183.91936,0.18499 v -13.31736 h 2.957493 c 2.908217,0 2.957497,0.0159 2.957497,0.92482 0,0.84946 -0.13553,0.9248 -1.663576,0.9248 h -1.663596 v 11.28277 11.28274 h 1.663596 c 1.601976,0 1.663576,0.0412 1.663576,1.10979 v 1.10976 H 97.259113 94.30162 Z m 154.52924,12.20756 c 0,-1.06868 0.0616,-1.10979 1.66357,-1.10979 h 1.66359 v -11.28274 -11.28277 h -1.66359 c -1.52802,0 -1.66357,-0.0753 -1.66357,-0.9248 0,-0.90941 0.0493,-0.92482 2.95749,-0.92482 h 2.95749 v 13.31736 13.31732 h -2.95749 -2.95749 z m -98.15195,-2.7627 c -0.2033,-0.0862 -1.07672,-0.33872 -1.94086,-0.56098 -1.50779,-0.3878 -1.57116,-0.46177 -1.57116,-1.83401 v -1.42991 l 1.94086,0.76178 c 2.51073,0.98546 6.63112,1.07903 8.27786,0.18795 0.63877,-0.34563 1.32785,-1.10617 1.53125,-1.69006 0.886,-2.54321 -0.65674,-4.60833 -3.92467,-5.25362 -5.23278,-1.03324 -7.12618,-2.20696 -7.84011,-4.86002 -0.74253,-2.75935 0.47376,-5.45538 3.10876,-6.89087 0.88916,-0.48439 2.01437,-0.62148 4.85433,-0.59145 4.75129,0.0503 5.73013,0.41993 5.73013,2.16424 0,1.49201 0.009,1.48937 -2.21812,0.71296 -2.0369,-0.71034 -5.13663,-0.77799 -6.66288,-0.1454 -2.2194,0.91988 -2.81189,4.16442 -0.976,5.34465 0.43982,0.28274 2.28277,0.86313 4.09544,1.28977 4.06034,0.95563 5.63777,1.8895 6.53648,3.86963 0.9177,2.022 0.87842,3.79075 -0.12802,5.76183 -1.19235,2.33526 -2.87548,3.09852 -7.10633,3.22253 -1.83553,0.0537 -3.5037,0.0273 -3.70703,-0.0592 z m -34.56574,-11.15067 v -10.95397 l 5.26804,0.15063 c 5.76407,0.16497 7.83445,0.74747 10.01541,2.81833 2.14702,2.03863 2.64638,3.5531 2.64638,8.02608 0,3.82524 -0.0662,4.18874 -1.10403,6.06389 -1.99241,3.59991 -5.20376,4.84893 -12.46724,4.84893 h -4.35856 z m 11.36108,7.56364 c 2.53709,-1.30648 3.61125,-3.54401 3.61125,-7.5225 0,-3.76221 -1.08283,-6.18857 -3.2682,-7.32341 -1.46486,-0.7607 -7.50771,-1.64085 -8.54108,-1.24406 -0.49681,0.19068 -0.57524,1.34898 -0.57524,8.4942 0,4.55031 0.12484,8.4027 0.27727,8.56086 0.15258,0.15814 1.73636,0.20661 3.51972,0.10763 2.45086,-0.13607 3.66576,-0.39788 4.97628,-1.07275 z m 11.55951,-7.5225 v -10.91284 h 1.47875 1.47874 v 10.91284 10.91282 h -1.47874 -1.47875 z m 28.09623,-0.0364 v -10.94913 l 4.89835,0.12879 c 4.36868,0.11491 5.04923,0.22254 6.29364,0.99684 1.88574,1.17316 2.63726,2.7082 2.6539,5.4207 0.0273,4.44 -2.00519,6.17997 -7.56121,6.47327 l -3.51204,0.18545 -0.10414,4.34663 -0.10415,4.34663 h -1.28219 -1.28216 z m 8.70186,-0.68568 c 1.44776,-0.60531 2.01906,-1.72429 2.01906,-3.95465 0,-2.31044 -1.41182,-3.50143 -4.54912,-3.83763 -3.64865,-0.391 -3.58398,-0.4632 -3.58398,4.00187 0,2.10878 0.11096,3.94517 0.24645,4.08078 0.45535,0.45565 4.57033,0.25203 5.86759,-0.29037 z m 9.41282,0.72197 V 112.9814 h 1.28776 1.28776 l 0.0987,9.71056 0.0985,9.71057 5.26805,0.10263 5.26803,0.10262 v 1.09961 1.09964 h -6.65436 -6.65437 z m 14.97166,10.175 c 0.1287,-0.4058 1.95632,-5.27494 4.06126,-10.82034 l 3.82728,-10.08252 h 1.73871 1.73868 l 4.01879,10.54289 c 2.21036,5.7986 4.02008,10.66774 4.02167,10.82033 0,0.15268 -0.65139,0.27747 -1.45098,0.27747 -1.18511,0 -1.50133,-0.15382 -1.71073,-0.83235 -0.14122,-0.45779 -0.58036,-1.70629 -0.97569,-2.77444 l -0.71881,-1.94211 h -4.93765 -4.93764 l -0.71884,1.94211 c -0.3953,1.06815 -0.83438,2.31665 -0.97566,2.77444 -0.21034,0.6816 -0.52471,0.83235 -1.73566,0.83235 -1.30913,0 -1.45191,-0.0847 -1.24473,-0.73783 z m 13.49425,-7.58835 c 0,-0.39638 -3.44526,-9.63084 -3.70023,-9.91791 -0.14781,-0.16633 -1.02389,1.74791 -1.94677,4.25414 -0.92286,2.50627 -1.7944,4.84815 -1.93672,5.20418 -0.23672,0.59216 0.0757,0.64738 3.66244,0.64738 2.15672,0 3.92128,-0.0844 3.92128,-0.18772 z m 11.82998,3.2079 v -5.11827 l -3.62375,-5.33215 c -1.99304,-2.93269 -3.74962,-5.54023 -3.90352,-5.79455 -0.20693,-0.34206 0.13485,-0.46057 1.31321,-0.45533 l 1.59298,0.007 2.91613,4.43203 c 1.60383,2.43761 2.97302,4.43204 3.04258,4.43204 0.0696,0 1.46397,-1.99761 3.09861,-4.43911 2.96637,-4.43055 2.97494,-4.43911 4.44352,-4.43911 0.80932,0 1.47147,0.0974 1.47147,0.21639 0,0.11901 -1.6636,2.66096 -3.69687,5.64865 l -3.69686,5.4322 v 5.26417 5.26418 h -1.47875 -1.47875 v -5.11825 z M 17.776384,225.6239 v -16.46169 h 16.451083 16.451061 v 16.46169 16.46172 H 34.227467 17.776384 Z m 29.944651,0 V 212.12162 H 34.227467 20.733877 v 13.50228 13.50232 h 13.49359 13.493568 z m 250.647895,0 v -16.46169 h 16.45106 16.45109 v 16.46169 16.46172 h -16.45109 -16.45106 z m 29.94465,0 v -13.50228 h -13.49359 -13.49356 v 13.50228 13.50232 h 13.49356 13.49359 z M 17.776384,175.68448 v -16.46172 h 16.451083 16.451061 v 16.46172 16.46172 H 34.227467 17.776384 Z m 29.944651,0 V 162.18217 H 34.227467 20.733877 v 13.50231 13.5023 h 13.49359 13.493568 z m 250.647895,0 v -16.46172 h 16.45106 16.45109 v 16.46172 16.46172 h -16.45109 -16.45106 z m 29.94465,0 v -13.50231 h -13.49359 -13.49356 v 13.50231 13.5023 h 13.49356 13.49359 z M 17.776384,125.37453 V 108.9128 h 16.451083 16.451061 v 16.46173 16.46169 H 34.227467 17.776384 Z m 29.944651,0 V 111.8722 H 34.227467 20.733877 v 13.50233 13.50229 h 13.49359 13.493568 z m 250.647895,0 V 108.9128 h 16.45106 16.45109 v 16.46173 16.46169 h -16.45109 -16.45106 z m 29.94465,0 V 111.8722 h -13.49359 -13.49356 v 13.50233 13.50229 h 13.49356 13.49359 z M 296.36527,56.713383 c -3.24021,-0.472581 -6.40784,-2.116705 -9.03602,-4.690041 -6.24978,-6.119388 -6.42124,-15.706304 -0.39485,-22.082428 4.08571,-4.322811 9.62158,-6.078954 15.36286,-4.873507 3.58829,0.75339 6.21399,2.168107 8.63699,4.653611 2.5304,2.595635 3.95035,5.380697 4.40698,8.643666 0.77305,5.52423 -0.87495,10.150901 -5.0483,14.173016 -3.56438,3.435172 -8.61759,4.950189 -13.92766,4.175683 z m 6.96318,-2.369436 c 3.8248,-1.161008 7.04798,-3.88757 8.9593,-7.578748 0.96222,-1.858309 1.0535,-2.371097 1.0535,-5.918811 0,-3.559659 -0.0903,-4.062503 -1.08051,-6.018086 -4.47517,-8.837782 -16.29459,-10.837212 -23.51137,-3.977335 -7.76272,7.378876 -4.4386,20.187712 6.10752,23.533915 2.032,0.644739 6.28041,0.624215 8.47156,-0.04096 z"
     id="path866"
     sodipodi:nodetypes="ssssssscsccccccccccccccccccccccccccccsccssssscccssccsssssssssscssscscsscsscsssssssssscssscccsscccsssccccscsccssssssssscsscsssssscssccccccccccccccccccccccccccccccccccccccccccccccccccccccccccsccccssscccssccccsscccssscccccscsscssssssssssssscsccccccsssccssssscssscccccccccccscsscccccccsssccccccccccccccccsscccscssscccsssssssssssccssccsssssscccccccccccccccccccccccccccssscccsssccsscccssscccsscscscsssssssscsssssscccccssscccsssscccsssccccccccccccsssccccccssscccsscccccccccccccssscssssscccccccssssssscccccccccccssccccccccccccccccccccccsccccssscccssccccsscccssscccccscsscsssssssscsssssscccccssssccssssscssscccccccccccscssccccccsssssscccccccccccccsscccscssscccsssssssssssccssccsssssscccccccccccccccccccccccccccccccccccccccccccccccccccccccccccccccccccccccccccccccccccccccccccccccccccccccccccccccccccssssssssssssssss" />
</svg>
