<?xml version="1.0" encoding="UTF-8" standalone="no"?>
<svg
   xmlns:dc="http://purl.org/dc/elements/1.1/"
   xmlns:cc="http://creativecommons.org/ns#"
   xmlns:rdf="http://www.w3.org/1999/02/22-rdf-syntax-ns#"
   xmlns:svg="http://www.w3.org/2000/svg"
   xmlns="http://www.w3.org/2000/svg"
   xmlns:sodipodi="http://sodipodi.sourceforge.net/DTD/sodipodi-0.dtd"
   xmlns:inkscape="http://www.inkscape.org/namespaces/inkscape"
   viewBox="0.0 0.0 348.0 348.0"
   fill="none"
   version="1.1"
   id="svg849"
   sodipodi:docname="Not Crazy Talk.svg"
   inkscape:version="1.0.1 (3bc2e813f5, 2020-09-07)">
  <metadata
     id="metadata855">
    <rdf:RDF>
      <cc:Work
         rdf:about="">
        <dc:format>image/svg+xml</dc:format>
        <dc:type
           rdf:resource="http://purl.org/dc/dcmitype/StillImage" />
        <dc:title></dc:title>
      </cc:Work>
    </rdf:RDF>
  </metadata>
  <defs
     id="defs853" />
  <sodipodi:namedview
     pagecolor="#ffffff"
     bordercolor="#666666"
     borderopacity="1"
     objecttolerance="10"
     gridtolerance="10"
     guidetolerance="10"
     inkscape:pageopacity="0"
     inkscape:pageshadow="2"
     inkscape:window-width="1920"
     inkscape:window-height="1001"
     id="namedview851"
     showgrid="false"
     inkscape:zoom="2.3017241"
     inkscape:cx="174"
     inkscape:cy="174"
     inkscape:window-x="-9"
     inkscape:window-y="-9"
     inkscape:window-maximized="1"
     inkscape:current-layer="svg849" />
  <path
     d="M5.079 5.776h336.913v337.67H5.08z"
     stroke-width="2"
     stroke="#000"
     id="path845" />
  <path
     d="M282.734 40.554c0-8.376 6.966-15.165 15.56-15.165 4.126 0 8.084 1.597 11.001 4.441 2.918 2.844 4.558 6.702 4.558 10.724 0 8.376-6.966 15.165-15.56 15.165-8.593 0-15.559-6.79-15.559-15.165z"
     stroke-width="2"
     stroke="#000"
     id="path847" />
  <rect
     style="fill:none;stroke:#000000;stroke-width:2.4189"
     id="rect857"
     width="221.57303"
     height="313.67792"
     x="15.64045"
     y="18.681648" />
  <rect
     style="fill:#000000;stroke:#000000;stroke-width:1.88095"
     id="rect859"
     width="12.499904"
     height="12.499904"
     x="36.76189"
     y="36.589001" />
  <rect
     style="fill:#000000;stroke:#000000;stroke-width:1.88095"
     id="rect861"
     width="12.499904"
     height="12.499904"
     x="71.866028"
     y="36.589001" />
  <rect
     style="fill:#000000;stroke:#000000;stroke-width:1.88095"
     id="rect863"
     width="12.499904"
     height="12.499904"
     x="106.97017"
     y="36.589001" />
  <circle
     style="fill:none;stroke:#000000;stroke-width:2.68521"
     id="path865"
     cx="289.08615"
     cy="172.29939"
     r="27.490479" />
  <path
     id="path867"
     style="fill:#ffffff;stroke:#000000;stroke-width:2.68521"
     d="m 282.48736,170.8527 v 41.27086 a 13.986384,13.986384 0 0 0 -7.43028,12.35417 13.986384,13.986384 0 0 0 13.98679,13.98678 13.986384,13.986384 0 0 0 13.98678,-13.98678 13.986384,13.986384 0 0 0 -7.28501,-12.27611 V 170.8527 Z" />
</svg>
