<?xml version="1.0" encoding="UTF-8" standalone="no"?>
<svg
   xmlns:dc="http://purl.org/dc/elements/1.1/"
   xmlns:cc="http://creativecommons.org/ns#"
   xmlns:rdf="http://www.w3.org/1999/02/22-rdf-syntax-ns#"
   xmlns:svg="http://www.w3.org/2000/svg"
   xmlns="http://www.w3.org/2000/svg"
   xmlns:sodipodi="http://sodipodi.sourceforge.net/DTD/sodipodi-0.dtd"
   xmlns:inkscape="http://www.inkscape.org/namespaces/inkscape"
   viewBox="0.0 0.0 348.0 348.0"
   fill="none"
   version="1.1"
   id="svg849"
   sodipodi:docname="Not Connection Check.svg"
   inkscape:version="1.0.1 (3bc2e813f5, 2020-09-07)">
  <metadata
     id="metadata855">
    <rdf:RDF>
      <cc:Work
         rdf:about="">
        <dc:format>image/svg+xml</dc:format>
        <dc:type
           rdf:resource="http://purl.org/dc/dcmitype/StillImage" />
        <dc:title></dc:title>
      </cc:Work>
    </rdf:RDF>
  </metadata>
  <defs
     id="defs853">
    <clipPath
       clipPathUnits="userSpaceOnUse"
       id="clipPath863">
      <rect
         style="fill:#ffffff;stroke:#000000;stroke-width:2.4189"
         id="rect865"
         width="210.1299"
         height="205.21457"
         x="-394.45435"
         y="-38.093723" />
    </clipPath>
    <clipPath
       clipPathUnits="userSpaceOnUse"
       id="clipPath907">
      <rect
         style="fill:none;stroke:#000000;stroke-width:1.88976;stroke-miterlimit:4;stroke-dasharray:none"
         id="rect909"
         width="116.73883"
         height="30.720745"
         x="-334.2417"
         y="-74.958618" />
    </clipPath>
    <clipPath
       clipPathUnits="userSpaceOnUse"
       id="clipPath915">
      <rect
         style="fill:none;stroke:#000000;stroke-width:1.93624;stroke-miterlimit:4;stroke-dasharray:none"
         id="rect917"
         width="99.488731"
         height="29.445433"
         x="-320.70132"
         y="27.057497" />
    </clipPath>
  </defs>
  <sodipodi:namedview
     pagecolor="#ffffff"
     bordercolor="#666666"
     borderopacity="1"
     objecttolerance="10"
     gridtolerance="10"
     guidetolerance="10"
     inkscape:pageopacity="0"
     inkscape:pageshadow="2"
     inkscape:window-width="1920"
     inkscape:window-height="1001"
     id="namedview851"
     showgrid="false"
     inkscape:zoom="0.81378236"
     inkscape:cx="174"
     inkscape:cy="168.87866"
     inkscape:window-x="-9"
     inkscape:window-y="-9"
     inkscape:window-maximized="1"
     inkscape:current-layer="svg849"
     inkscape:document-rotation="0" />
  <path
     d="M5.079 5.776h336.913v337.67H5.08z"
     stroke-width="2"
     stroke="#000"
     id="path845" />
  <path
     d="M282.734 40.554c0-8.376 6.966-15.165 15.56-15.165 4.126 0 8.084 1.597 11.001 4.441 2.918 2.844 4.558 6.702 4.558 10.724 0 8.376-6.966 15.165-15.56 15.165-8.593 0-15.559-6.79-15.559-15.165z"
     stroke-width="2"
     stroke="#000"
     id="path847" />
  <rect
     style="fill:none;stroke:#000000;stroke-width:2.4189"
     id="rect867"
     width="181.86681"
     height="47.924362"
     x="46.69553"
     y="45.466702" />
  <rect
     style="fill:none;stroke:#000000;stroke-width:1.88976378;stroke-miterlimit:4;stroke-dasharray:none"
     id="rect869"
     width="142.16411"
     height="72.500954"
     x="24.499081"
     y="125.65415" />
  <rect
     style="fill:none;stroke:#000000;stroke-width:1.88976378;stroke-miterlimit:4;stroke-dasharray:none"
     id="rect877"
     width="41.697231"
     height="72.500954"
     x="74.732521"
     y="125.65415" />
  <rect
     style="fill:none;stroke:#000000;stroke-width:1.88976378;stroke-miterlimit:4;stroke-dasharray:none"
     id="rect879"
     width="142.16411"
     height="72.500954"
     x="186.49908"
     y="125.65415" />
  <rect
     style="fill:none;stroke:#000000;stroke-width:1.88976378;stroke-miterlimit:4;stroke-dasharray:none"
     id="rect881"
     width="41.697231"
     height="72.500954"
     x="236.73251"
     y="125.65415" />
  <rect
     style="fill:none;stroke:#000000;stroke-width:1.88976378;stroke-miterlimit:4;stroke-dasharray:none"
     id="rect883"
     width="142.16411"
     height="72.500954"
     x="24.499081"
     y="239.65414" />
  <rect
     style="fill:none;stroke:#000000;stroke-width:1.88976378;stroke-miterlimit:4;stroke-dasharray:none"
     id="rect885"
     width="41.697231"
     height="72.500954"
     x="74.732521"
     y="239.65414" />
  <rect
     style="fill:none;stroke:#000000;stroke-width:1.88976378;stroke-miterlimit:4;stroke-dasharray:none"
     id="rect887"
     width="142.16411"
     height="72.500954"
     x="186.49908"
     y="239.65414" />
  <rect
     style="fill:none;stroke:#000000;stroke-width:1.88976378;stroke-miterlimit:4;stroke-dasharray:none"
     id="rect889"
     width="41.697231"
     height="72.500954"
     x="236.73251"
     y="239.65414" />
  <path
     style="fill:#000000"
     d="m -307.69335,47.575972 c -2.63815,-1.53658 -2.49639,-11.45008 0.18426,-12.88472 4.02688,-2.15512 11.06574,-0.56488 11.06574,2.5 0,1.93297 -1.90488,1.86088 -4.13401,-0.15646 -2.95004,-2.66975 -4.86599,-1.04703 -4.86599,4.12128 0,5.06497 2.2946,7.18518 4.50485,4.16248 1.50194,-2.05403 4.49515,-2.18565 4.49515,-0.19766 0,3.06511 -7.42185,4.68478 -11.25,2.45508 z m 15.25,-6.4199 c 0,-6.74228 0.20697,-7.6074 1.75,-7.31477 1.05548,0.20016 1.87558,1.41987 2.06642,3.07332 0.24826,2.15091 0.84064,2.74145 2.75,2.74145 2.05021,0 2.43358,-0.48415 2.43358,-3.07332 0,-2.3887 0.38984,-2.99825 1.75,-2.73631 1.46712,0.28254 1.75,1.4641 1.75,7.30963 0,5.84553 -0.28288,7.02709 -1.75,7.30963 -1.36016,0.26194 -1.75,-0.34761 -1.75,-2.73631 0,-1.69032 -0.45,-3.14082 -1,-3.22332 -2.98824,-0.44824 -3.52465,-0.0943 -3.99788,2.63779 -0.30723,1.77368 -1.22553,3.12414 -2.25983,3.32332 -1.53374,0.29538 -1.74229,-0.57975 -1.74229,-7.31111 z m 17,0 v -7.5 h 5.5 c 3.025,0 5.5,0.45 5.5,1 0,0.55 -1.575,1 -3.5,1 -2.83333,0 -3.5,0.38095 -3.5,2 0,1.55556 0.66667,2 3,2 1.65,0 3,0.45 3,1 0,0.55 -1.35,1 -3,1 -2.53333,0 -3,0.38889 -3,2.5 0,2.19048 0.43333,2.5 3.5,2.5 1.925,0 3.5,0.45 3.5,1 0,0.55 -2.475,1 -5.5,1 h -5.5 z m 16.22251,5.9433 c -2.96468,-2.07654 -3.09103,-8.57478 -0.22251,-11.4433 3.25365,-3.25365 12,-2.13472 12,1.53518 0,1.98799 -2.99321,1.85637 -4.49515,-0.19766 -2.21025,-3.0227 -4.50485,-0.90249 -4.50485,4.16248 0,5.06497 2.2946,7.18518 4.50485,4.16248 1.50194,-2.05403 4.49515,-2.18565 4.49515,-0.19766 0,3.404 -7.85771,4.724 -11.77749,1.97848 z m 15.77749,-5.9433 c 0,-6 0.3,-7.5 1.5,-7.5 0.825,0 1.5,0.825 1.5,1.83333 0,3.05897 1.1349,3.23094 4.21551,0.63879 2.95711,-2.48825 5.78449,-3.25125 5.78449,-1.56101 0,0.5011 -1.41413,2.10102 -3.14251,3.55535 l -3.14252,2.64425 3.14252,3.24225 c 1.72838,1.78324 3.14251,3.55833 3.14251,3.94465 0,1.51585 -2.52368,0.57485 -5.11402,-1.90685 -2.9021,-2.78038 -4.88598,-2.50905 -4.88598,0.66826 0,1.06754 -0.675,1.94098 -1.5,1.94098 -1.2,0 -1.5,-1.5 -1.5,-7.5 z"
     id="path911"
     clip-path="url(#clipPath915)"
     sodipodi:nodetypes="sssssssssssssssssssssccsssssssssssccsssssssssssssscssssss"
     transform="matrix(1.6520285,0,0,1.6520285,586.4902,1.4188362)" />
  <g
     aria-label="#"
     id="text921"
     style="font-size:40px;line-height:1.25;font-family:Stencil;-inkscape-font-specification:Stencil;fill:#000000"
     transform="matrix(1.5251759,0,0,1.5251759,253.14403,24.83438)">
    <path
       d="m -136.34956,76.561546 h 3.45703 l -1.40625,6.386719 h 3.4375 l -0.60547,2.675781 h -3.4375 l -1.81641,8.28125 h 3.45703 l -0.60546,2.675782 h -3.45704 l -1.46484,6.640622 h -3.47656 l 1.48437,-6.640622 h -4.29687 l 0.60547,-2.675782 h 4.29687 l 1.79688,-8.28125 h -4.27735 l 0.60547,-2.675781 h 4.27735 z m 8.33984,0 h 3.45703 l -1.40625,6.386719 h 4.27735 l -0.60547,2.675781 h -4.27735 l -1.8164,8.28125 h 4.27734 l -0.60547,2.675782 h -4.27734 l -1.48438,6.640622 h -3.53515 z"
       id="path923" />
  </g>
  <g
     aria-label="#"
     id="g928"
     style="font-size:40px;line-height:1.25;font-family:Stencil;-inkscape-font-specification:Stencil;fill:#000000"
     transform="matrix(1.5251759,0,0,1.5251759,345.14403,24.83438)">
    <path
       d="m -136.34956,76.561546 h 3.45703 l -1.40625,6.386719 h 3.4375 l -0.60547,2.675781 h -3.4375 l -1.81641,8.28125 h 3.45703 l -0.60546,2.675782 h -3.45704 l -1.46484,6.640622 h -3.47656 l 1.48437,-6.640622 h -4.29687 l 0.60547,-2.675782 h 4.29687 l 1.79688,-8.28125 h -4.27735 l 0.60547,-2.675781 h 4.27735 z m 8.33984,0 h 3.45703 l -1.40625,6.386719 h 4.27735 l -0.60547,2.675781 h -4.27735 l -1.8164,8.28125 h 4.27734 l -0.60547,2.675782 h -4.27734 l -1.48438,6.640622 h -3.53515 z"
       id="path926" />
  </g>
  <g
     aria-label="#"
     id="g932"
     style="font-size:40px;line-height:1.25;font-family:Stencil;-inkscape-font-specification:Stencil;fill:#000000"
     transform="matrix(1.5251759,0,0,1.5251759,415.14403,24.83438)">
    <path
       d="m -136.34956,76.561546 h 3.45703 l -1.40625,6.386719 h 3.4375 l -0.60547,2.675781 h -3.4375 l -1.81641,8.28125 h 3.45703 l -0.60546,2.675782 h -3.45704 l -1.46484,6.640622 h -3.47656 l 1.48437,-6.640622 h -4.29687 l 0.60547,-2.675782 h 4.29687 l 1.79688,-8.28125 h -4.27735 l 0.60547,-2.675781 h 4.27735 z m 8.33984,0 h 3.45703 l -1.40625,6.386719 h 4.27735 l -0.60547,2.675781 h -4.27735 l -1.8164,8.28125 h 4.27734 l -0.60547,2.675782 h -4.27734 l -1.48438,6.640622 h -3.53515 z"
       id="path930" />
  </g>
  <g
     aria-label="#"
     id="g936"
     style="font-size:40px;line-height:1.25;font-family:Stencil;-inkscape-font-specification:Stencil;fill:#000000"
     transform="matrix(1.5251759,0,0,1.5251759,507.14403,24.83438)">
    <path
       d="m -136.34956,76.561546 h 3.45703 l -1.40625,6.386719 h 3.4375 l -0.60547,2.675781 h -3.4375 l -1.81641,8.28125 h 3.45703 l -0.60546,2.675782 h -3.45704 l -1.46484,6.640622 h -3.47656 l 1.48437,-6.640622 h -4.29687 l 0.60547,-2.675782 h 4.29687 l 1.79688,-8.28125 h -4.27735 l 0.60547,-2.675781 h 4.27735 z m 8.33984,0 h 3.45703 l -1.40625,6.386719 h 4.27735 l -0.60547,2.675781 h -4.27735 l -1.8164,8.28125 h 4.27734 l -0.60547,2.675782 h -4.27734 l -1.48438,6.640622 h -3.53515 z"
       id="path934" />
  </g>
  <g
     aria-label="#"
     id="g940"
     style="font-size:40px;line-height:1.25;font-family:Stencil;-inkscape-font-specification:Stencil;fill:#000000"
     transform="matrix(1.5251759,0,0,1.5251759,253.14403,138.83438)">
    <path
       d="m -136.34956,76.561546 h 3.45703 l -1.40625,6.386719 h 3.4375 l -0.60547,2.675781 h -3.4375 l -1.81641,8.28125 h 3.45703 l -0.60546,2.675782 h -3.45704 l -1.46484,6.640622 h -3.47656 l 1.48437,-6.640622 h -4.29687 l 0.60547,-2.675782 h 4.29687 l 1.79688,-8.28125 h -4.27735 l 0.60547,-2.675781 h 4.27735 z m 8.33984,0 h 3.45703 l -1.40625,6.386719 h 4.27735 l -0.60547,2.675781 h -4.27735 l -1.8164,8.28125 h 4.27734 l -0.60547,2.675782 h -4.27734 l -1.48438,6.640622 h -3.53515 z"
       id="path938" />
  </g>
  <g
     aria-label="#"
     id="g944"
     style="font-size:40px;line-height:1.25;font-family:Stencil;-inkscape-font-specification:Stencil;fill:#000000"
     transform="matrix(1.5251759,0,0,1.5251759,345.14403,138.83438)">
    <path
       d="m -136.34956,76.561546 h 3.45703 l -1.40625,6.386719 h 3.4375 l -0.60547,2.675781 h -3.4375 l -1.81641,8.28125 h 3.45703 l -0.60546,2.675782 h -3.45704 l -1.46484,6.640622 h -3.47656 l 1.48437,-6.640622 h -4.29687 l 0.60547,-2.675782 h 4.29687 l 1.79688,-8.28125 h -4.27735 l 0.60547,-2.675781 h 4.27735 z m 8.33984,0 h 3.45703 l -1.40625,6.386719 h 4.27735 l -0.60547,2.675781 h -4.27735 l -1.8164,8.28125 h 4.27734 l -0.60547,2.675782 h -4.27734 l -1.48438,6.640622 h -3.53515 z"
       id="path942" />
  </g>
  <g
     aria-label="#"
     id="g948"
     style="font-size:40px;line-height:1.25;font-family:Stencil;-inkscape-font-specification:Stencil;fill:#000000"
     transform="matrix(1.5251759,0,0,1.5251759,415.14403,138.83438)">
    <path
       d="m -136.34956,76.561546 h 3.45703 l -1.40625,6.386719 h 3.4375 l -0.60547,2.675781 h -3.4375 l -1.81641,8.28125 h 3.45703 l -0.60546,2.675782 h -3.45704 l -1.46484,6.640622 h -3.47656 l 1.48437,-6.640622 h -4.29687 l 0.60547,-2.675782 h 4.29687 l 1.79688,-8.28125 h -4.27735 l 0.60547,-2.675781 h 4.27735 z m 8.33984,0 h 3.45703 l -1.40625,6.386719 h 4.27735 l -0.60547,2.675781 h -4.27735 l -1.8164,8.28125 h 4.27734 l -0.60547,2.675782 h -4.27734 l -1.48438,6.640622 h -3.53515 z"
       id="path946" />
  </g>
  <g
     aria-label="#"
     id="g952"
     style="font-size:40px;line-height:1.25;font-family:Stencil;-inkscape-font-specification:Stencil;fill:#000000"
     transform="matrix(1.5251759,0,0,1.5251759,507.14403,138.83438)">
    <path
       d="m -136.34956,76.561546 h 3.45703 l -1.40625,6.386719 h 3.4375 l -0.60547,2.675781 h -3.4375 l -1.81641,8.28125 h 3.45703 l -0.60546,2.675782 h -3.45704 l -1.46484,6.640622 h -3.47656 l 1.48437,-6.640622 h -4.29687 l 0.60547,-2.675782 h 4.29687 l 1.79688,-8.28125 h -4.27735 l 0.60547,-2.675781 h 4.27735 z m 8.33984,0 h 3.45703 l -1.40625,6.386719 h 4.27735 l -0.60547,2.675781 h -4.27735 l -1.8164,8.28125 h 4.27734 l -0.60547,2.675782 h -4.27734 l -1.48438,6.640622 h -3.53515 z"
       id="path950" />
  </g>
</svg>
