<?xml version="1.0" encoding="UTF-8" standalone="no"?>
<svg
   xmlns:dc="http://purl.org/dc/elements/1.1/"
   xmlns:cc="http://creativecommons.org/ns#"
   xmlns:rdf="http://www.w3.org/1999/02/22-rdf-syntax-ns#"
   xmlns:svg="http://www.w3.org/2000/svg"
   xmlns="http://www.w3.org/2000/svg"
   xmlns:sodipodi="http://sodipodi.sourceforge.net/DTD/sodipodi-0.dtd"
   xmlns:inkscape="http://www.inkscape.org/namespaces/inkscape"
   viewBox="0.0 0.0 348.0 348.0"
   fill="none"
   version="1.1"
   id="svg849"
   sodipodi:docname="Not Coordinates.svg"
   inkscape:version="1.0.1 (3bc2e813f5, 2020-09-07)">
  <metadata
     id="metadata855">
    <rdf:RDF>
      <cc:Work
         rdf:about="">
        <dc:format>image/svg+xml</dc:format>
        <dc:type
           rdf:resource="http://purl.org/dc/dcmitype/StillImage" />
        <dc:title></dc:title>
      </cc:Work>
    </rdf:RDF>
  </metadata>
  <defs
     id="defs853" />
  <sodipodi:namedview
     pagecolor="#ffffff"
     bordercolor="#666666"
     borderopacity="1"
     objecttolerance="10"
     gridtolerance="10"
     guidetolerance="10"
     inkscape:pageopacity="0"
     inkscape:pageshadow="2"
     inkscape:window-width="1920"
     inkscape:window-height="1001"
     id="namedview851"
     showgrid="false"
     inkscape:zoom="2.3017241"
     inkscape:cx="174"
     inkscape:cy="173.09614"
     inkscape:window-x="-9"
     inkscape:window-y="-9"
     inkscape:window-maximized="1"
     inkscape:current-layer="svg849"
     inkscape:document-rotation="0" />
  <path
     d="M5.079 5.776h336.913v337.67H5.08z"
     stroke-width="2"
     stroke="#000"
     id="path845" />
  <path
     style="fill:#000000;stroke-width:0.367012"
     d="M 5.079,174.60128 V 5.776 H 173.53787 341.99672 V 174.60189 343.42778 H 173.53787 5.079 Z m 335.08264,0 V 7.6110607 H 173.53787 6.9140638 V 174.60189 341.59272 H 173.53787 340.16164 Z M 172.98733,321.4145 c -0.40371,-0.17215 -10.27177,-9.86792 -21.929,-21.54614 -16.56526,-16.59509 -21.19499,-21.43119 -21.19499,-22.13979 0,-1.32502 42.7134,-44.03762 44.03847,-44.03762 0.7104,0 5.54791,4.64305 22.27387,21.37851 14.95312,14.96165 21.44187,21.69307 21.61803,22.42653 0.23911,0.99553 -0.83113,2.13089 -21.36329,22.66305 -11.88825,11.88824 -21.86117,21.60453 -22.16203,21.59173 -0.30087,-0.0123 -0.87735,-0.16412 -1.28106,-0.33627 z m 20.00263,-24.78129 18.89896,-18.9016 -18.99203,-18.99203 -18.99201,-18.99202 -18.99203,18.99202 -18.99202,18.99203 18.89893,18.9016 c 10.39442,10.39587 18.98272,18.90161 19.08512,18.90161 0.10235,0 8.69069,-8.50574 19.08508,-18.90161 z m -117.92003,3.8851 C 55.531048,289.24315 39.221911,279.7259 38.827416,279.36888 c -0.959598,-0.86842 -0.909357,-2.4313 0.10852,-3.37545 0.454178,-0.42129 16.763302,-9.96721 36.242513,-21.21315 24.018846,-13.86682 35.759941,-20.45207 36.483201,-20.4624 0.68002,-0.009 1.31175,0.28764 1.74332,0.82062 0.64889,0.80135 0.67682,2.55772 0.67682,42.553 0,46.20576 0.15199,43.36032 -2.31464,43.33782 -0.86886,-0.008 -10.35962,-5.31255 -36.69722,-20.51101 z m 33.87368,-23.01153 V 240.9468 l -0.82577,0.52507 c -0.45418,0.28879 -14.65758,8.51407 -31.563103,18.27837 -16.905523,9.7643 -30.73732,17.85722 -30.73732,17.98425 0,0.25124 62.399913,36.31708 62.850933,36.32651 0.15137,0.003 0.27526,-16.44623 0.27526,-36.55422 z m 125.51377,42.79461 c -0.73266,-0.73266 -0.73784,-1.07624 -0.64227,-42.74394 0.0894,-38.99138 0.1412,-42.05015 0.72115,-42.63007 0.34362,-0.34361 1.08683,-0.61788 1.65154,-0.6095 1.05069,0.0156 71.02927,40.13881 72.686,41.67555 1.05916,0.98245 1.05916,2.50248 0,3.45405 -1.69449,1.52237 -71.7446,41.59252 -72.71149,41.59252 -0.53149,0 -1.29868,-0.33237 -1.70493,-0.73861 z m 36.22089,-24.28603 c 17.2227,-9.92828 31.31405,-18.15578 31.31405,-18.28335 0,-0.12764 -13.8318,-8.21922 -30.73732,-17.98147 -16.90553,-9.76222 -31.10893,-17.98672 -31.56311,-18.27664 l -0.82576,-0.5271 v 36.55998 c 0,20.10799 0.11206,36.55999 0.24905,36.55999 0.13704,0 14.34036,-8.12314 31.56309,-18.05141 z M 36.155057,202.44058 c -3.242088,-0.62078 -5.971397,-2.83253 -7.460708,-6.04596 l -0.871128,-1.87959 0.09704,-48.76817 0.09704,-48.768179 1.313949,-2.018573 c 1.502682,-2.308508 3.53049,-3.854882 6.048934,-4.612824 2.630532,-0.791684 274.418756,-0.7917 277.049306,-3e-5 2.59234,0.780185 4.32685,2.09318 5.9292,4.488273 l 1.43377,2.143154 0.0971,48.768179 0.0971,48.76817 -0.87114,1.87959 c -1.55042,3.34526 -4.19504,5.40938 -7.77963,6.07204 -2.7399,0.50649 -272.532773,0.48093 -275.180697,-0.026 z m 275.605133,-6.32643 c 2.52487,-1.5286 2.34355,2.32053 2.34355,-49.75534 0,-51.891557 0.16504,-48.354264 -2.32826,-49.895212 l -1.24501,-0.769456 -136.66892,0.0031 c -133.264171,0.0015 -136.695071,0.01958 -137.718112,0.69414 -0.57705,0.380435 -1.360451,1.163842 -1.740892,1.740892 -0.668537,1.014027 -0.691794,2.627946 -0.694131,48.167006 -0.0026,46.54856 0.0065,47.13224 0.73485,48.31075 0.687651,1.11265 1.717403,1.74368 3.483377,2.13466 0.403714,0.0894 61.924222,0.13997 136.712238,0.11238 132.53052,-0.0489 136.00723,-0.0677 137.1213,-0.74219 z M 295.07638,57.101728 c -6.54659,-0.770443 -12.38701,-6.208925 -13.6557,-12.715972 -1.71839,-8.813751 4.42973,-17.426694 13.41491,-18.792947 7.13189,-1.084472 14.54415,2.637905 17.54346,8.81019 2.78454,5.730438 1.54457,13.411901 -2.87918,17.835648 -4.00851,4.008505 -8.58201,5.550532 -14.42349,4.863081 z m 7.04419,-2.464274 c 8.65467,-2.855206 12.50056,-13.069154 7.75707,-20.601464 -2.06761,-3.283212 -6.39524,-6.050524 -10.28819,-6.578802 -4.62871,-0.628134 -9.06061,0.827647 -12.26015,4.027188 -7.64261,7.642603 -4.44339,20.000152 6.03823,23.32375 2.21937,0.703728 6.34646,0.623263 8.75304,-0.170672 z"
     id="path1766"
     sodipodi:nodetypes="ccccccccccccccccccssssssscsscccccssssssscsscsscssssssssssssssssscssssscccsssscccsssscsscccscsssccssssssssssss" />
</svg>
