<?xml version="1.0" encoding="UTF-8" standalone="no"?>
<svg
   xmlns:dc="http://purl.org/dc/elements/1.1/"
   xmlns:cc="http://creativecommons.org/ns#"
   xmlns:rdf="http://www.w3.org/1999/02/22-rdf-syntax-ns#"
   xmlns:svg="http://www.w3.org/2000/svg"
   xmlns="http://www.w3.org/2000/svg"
   xmlns:sodipodi="http://sodipodi.sourceforge.net/DTD/sodipodi-0.dtd"
   xmlns:inkscape="http://www.inkscape.org/namespaces/inkscape"
   viewBox="0 0 348 348"
   fill="none"
   version="1.1"
   id="svg831"
   sodipodi:docname="Not X01.svg"
   inkscape:version="1.0.1 (3bc2e813f5, 2020-09-07)">
  <metadata
     id="metadata1359">
    <rdf:RDF>
      <cc:Work
         rdf:about="">
        <dc:format>image/svg+xml</dc:format>
        <dc:type
           rdf:resource="http://purl.org/dc/dcmitype/StillImage" />
        <dc:title></dc:title>
      </cc:Work>
    </rdf:RDF>
  </metadata>
  <defs
     id="defs1357" />
  <sodipodi:namedview
     pagecolor="#ffffff"
     bordercolor="#666666"
     borderopacity="1"
     objecttolerance="10"
     gridtolerance="10"
     guidetolerance="10"
     inkscape:pageopacity="0"
     inkscape:pageshadow="2"
     inkscape:window-width="1920"
     inkscape:window-height="1001"
     id="namedview1355"
     showgrid="false"
     inkscape:zoom="2.3017241"
     inkscape:cx="172.20826"
     inkscape:cy="174.0621"
     inkscape:window-x="-9"
     inkscape:window-y="-9"
     inkscape:window-maximized="1"
     inkscape:current-layer="svg831" />
  <style
     id="style1281"></style>
  <path
     d="M5.079 5.776h336.913v337.67H5.08z"
     stroke-width="2"
     stroke="#000"
     id="path827" />
  <path
     d="M282.734 40.554c0-8.376 6.966-15.165 15.56-15.165 4.126 0 8.084 1.597 11.001 4.441 2.918 2.844 4.558 6.702 4.558 10.724 0 8.376-6.966 15.165-15.56 15.165-8.593 0-15.559-6.79-15.559-15.165z"
     stroke-width="2"
     stroke="#000"
     id="path829" />
  <path
     id="path1386"
     style="fill:#000000;fill-opacity:1;stroke:none;stroke-width:3.98461;stroke-miterlimit:4;stroke-dasharray:none;stroke-opacity:1"
     d="m 159.88083,78.5 c -60.944758,10e-7 -110.372272,49.42561 -110.372273,110.37038 0,60.94475 49.427515,110.37227 110.372273,110.37227 50.11099,-1e-5 92.4257,-33.41994 105.88926,-79.17912 2.00787,-6.47889 3.33032,-12.98942 3.85832,-19.453 0.40822,-3.85826 0.6228,-7.77389 0.6228,-11.74015 0,-60.94476 -49.42562,-110.370374 -110.37038,-110.37038 z m -32.85458,7.25334 4.24377,12.573719 a 94.737671,94.737671 0 0 1 58.42356,0.212663 l 4.26086,-12.628784 c 21.80506,7.209726 40.54056,21.149022 53.75066,39.361712 l -10.75089,7.81348 a 94.737671,94.737671 0 0 1 17.93587,55.69311 l 13.41678,0.14999 c -0.0125,23.52666 -7.51507,45.29597 -20.25049,63.05848 l -11.0547,-8.03373 a 94.737671,94.737671 0 0 1 -0.20316,0.28481 94.737671,94.737671 0 0 1 -46.59226,34.15716 l 4.15642,13.30285 c -10.83199,3.62964 -22.42603,5.59949 -34.48184,5.5995 -11.17938,0 -21.96226,-1.69235 -32.10836,-4.8324 l 4.35959,-13.41297 a 94.737671,94.737671 0 0 1 -27.66522,-13.8535 94.737671,94.737671 0 0 1 -20.52391,-20.36821 l -11.40787,8.29196 c -11.8888,-16.13656 -19.410858,-35.68631 -20.829614,-56.91212 -0.04849,-2.29237 -0.0022,-4.57713 0.155699,-6.8489 l 13.557289,-0.1538 a 94.737671,94.737671 0 0 1 18.068788,-56.30832 l -11.105963,-8.07171 c 0.129364,-0.17647 0.256948,-0.35411 0.387352,-0.52976 5.077088,-6.53856 10.575534,-12.45663 16.414951,-17.64156 9.851239,-8.478101 21.242648,-15.216015 33.699548,-19.735922 1.37311,-0.42807 2.75293,-0.820499 4.14314,-1.167748 z m -43.539028,47.1467 24.621478,17.88461 A 64.521156,64.521156 0 0 1 141.1,127.45814 l -9.82998,-29.131081 a 94.737671,94.737671 0 0 0 -47.76191,34.540711 94.737671,94.737671 0 0 0 -0.02089,0.0323 z m 57.612778,-5.4419 4.09567,12.12941 a 51.72357,51.72357 0 0 1 30.54567,0.3038 l 4.09187,-12.12751 A 64.521156,64.521156 0 0 0 141.1,127.45814 Z m 38.73321,0.3057 a 64.521156,64.521156 0 0 1 18.07069,9.192 64.521156,64.521156 0 0 1 14.20287,14.18199 l 24.84744,-18.0517 a 94.737671,94.737671 0 0 0 -21.11443,-21.1771 94.737671,94.737671 0 0 0 -0.0873,-0.0589 94.737671,94.737671 0 0 0 -26.05885,-13.310448 z m 32.27356,23.37399 -10.35215,7.51916 a 51.72357,51.72357 0 0 1 9.94011,29.63425 l 12.80348,0.14242 a 64.521156,64.521156 0 0 0 -12.39144,-37.29583 z m 12.39144,37.29583 a 64.521156,64.521156 0 0 1 -11.77244,37.88065 l 24.2759,17.63967 a 94.737671,94.737671 0 0 0 17.88841,-55.17474 z m -11.77244,37.88065 -10.35594,-7.52486 a 51.72357,51.72357 0 0 1 -0.54685,0.76711 51.72357,51.72357 0 0 1 -24.30059,18.25486 l 3.82225,12.22625 a 64.521156,64.521156 0 0 0 30.83239,-22.95815 64.521156,64.521156 0 0 0 0.54874,-0.76521 z m -31.38113,23.72336 a 64.521156,64.521156 0 0 1 -40.06425,0.86774 l -9.14833,28.14752 a 94.737671,94.737671 0 0 0 58.07419,-0.65698 z m -40.06425,0.86774 3.95516,-12.17307 a 51.72357,51.72357 0 0 1 -15.66114,-7.73184 51.72357,51.72357 0 0 1 -11.23508,-11.16293 l -10.35025,7.52297 a 64.521156,64.521156 0 0 0 14.06616,13.99211 64.521156,64.521156 0 0 0 19.22515,9.55276 z M 107.98908,227.36054 A 64.521156,64.521156 0 0 1 95.460929,188.87038 l -30.042495,0.33798 a 94.737671,94.737671 0 0 0 18.524496,55.62286 z m -12.528151,-38.49016 12.795881,-0.14241 a 51.72357,51.72357 0 0 1 9.87555,-29.97604 51.72357,51.72357 0 0 1 0.33229,-0.44811 l -10.35595,-7.51917 a 64.521156,64.521156 0 0 0 -0.32849,0.44621 64.521156,64.521156 0 0 0 -12.319281,37.63952 z m 23.003721,-30.56656 24.75439,17.98334 c -2.62182,3.37597 -4.24658,7.5504 -4.45834,12.09713 l -30.50389,0.34368 a 51.72357,51.72357 0 0 0 10.08252,31.1096 l 24.52844,-17.82384 c 2.83882,3.86886 6.93476,6.74286 11.69268,8.02424 l -9.3249,28.69437 a 51.72357,51.72357 0 0 0 32.28684,-0.92092 l -8.98123,-28.74752 c 3.89073,-1.6702 7.18146,-4.46166 9.48062,-7.96538 l 24.34805,17.69093 a 51.72357,51.72357 0 0 0 9.3249,-30.49821 l -30.23806,-0.34177 c -0.28599,-4.28343 -1.83075,-8.21669 -4.27416,-11.44585 l 24.57211,-17.84663 a 51.72357,51.72357 0 0 0 -11.37559,-11.34901 51.72357,51.72357 0 0 0 -0.14051,-0.10253 51.72357,51.72357 0 0 1 -0.002,-0.002 51.72357,51.72357 0 0 0 -14.49339,-7.3122 h -0.002 l -9.75783,28.92031 c -1.86587,-0.53215 -3.82846,-0.83546 -5.86343,-0.83546 -1.77045,1e-5 -3.48245,0.24098 -5.12861,0.64748 l -9.7958,-29.03613 a 51.72357,51.72357 0 0 0 -26.73102,18.71627 z m 41.65543,12.00029 c 3.54228,0 6.84373,0.97984 9.68378,2.65639 l 1.68991,1.12408 c 4.67011,3.4757 7.70525,9.02259 7.70525,15.30227 0,8.47847 -5.51116,15.64076 -13.14905,18.13145 l -10.29329,0.42911 c -4.55486,-1.06384 -8.46907,-3.74938 -11.11545,-7.42423 l -3.39882,-12.16737 -0.15,0.002 c 0.22471,-4.22203 1.79436,-8.08167 4.31972,-11.13444 l 9.17491,-6.10078 c 1.75124,-0.52864 3.60746,-0.81837 5.53304,-0.81837 z m -0.36647,8.94895 a 10.131422,10.131422 0 0 0 -10.13379,10.13379 10.131422,10.131422 0 0 0 10.13379,10.12999 10.131422,10.131422 0 0 0 10.12999,-10.12999 10.131422,10.131422 0 0 0 -10.12999,-10.13379 z" />
</svg>
