<?xml version="1.0" encoding="UTF-8" standalone="no"?>
<svg
   xmlns:dc="http://purl.org/dc/elements/1.1/"
   xmlns:cc="http://creativecommons.org/ns#"
   xmlns:rdf="http://www.w3.org/1999/02/22-rdf-syntax-ns#"
   xmlns:svg="http://www.w3.org/2000/svg"
   xmlns="http://www.w3.org/2000/svg"
   xmlns:sodipodi="http://sodipodi.sourceforge.net/DTD/sodipodi-0.dtd"
   xmlns:inkscape="http://www.inkscape.org/namespaces/inkscape"
   viewBox="0 0 348 348"
   fill="none"
   version="1.1"
   id="svg831"
   sodipodi:docname="Not Emoji Math.svg"
   inkscape:version="1.0.1 (3bc2e813f5, 2020-09-07)">
  <metadata
     id="metadata1359">
    <rdf:RDF>
      <cc:Work
         rdf:about="">
        <dc:format>image/svg+xml</dc:format>
        <dc:type
           rdf:resource="http://purl.org/dc/dcmitype/StillImage" />
        <dc:title></dc:title>
      </cc:Work>
    </rdf:RDF>
  </metadata>
  <defs
     id="defs1357" />
  <sodipodi:namedview
     pagecolor="#ffffff"
     bordercolor="#666666"
     borderopacity="1"
     objecttolerance="10"
     gridtolerance="10"
     guidetolerance="10"
     inkscape:pageopacity="0"
     inkscape:pageshadow="2"
     inkscape:window-width="1920"
     inkscape:window-height="1001"
     id="namedview1355"
     showgrid="false"
     inkscape:zoom="2.3017241"
     inkscape:cx="172.20826"
     inkscape:cy="174.0621"
     inkscape:window-x="-9"
     inkscape:window-y="-9"
     inkscape:window-maximized="1"
     inkscape:current-layer="svg831"
     inkscape:document-rotation="0" />
  <style
     id="style1281"></style>
  <path
     d="M5.079 5.776h336.913v337.67H5.08z"
     stroke-width="2"
     stroke="#000"
     id="path827" />
  <path
     style="fill:#000000;stroke-width:0.360646"
     d="m 47.781555,273.01507 v -26.50979 h 26.690108 26.690117 l -0.0924,26.41729 -0.0924,26.4173 -26.597619,0.0924 -26.59761,0.0924 z m 51.93296,-0.18266 V 247.58722 H 74.469329 49.224134 v 25.24519 25.2452 h 25.245195 25.245186 z m -30.406711,13.81312 c -0.36257,-0.58908 0.776827,-6.60779 1.874869,-9.90375 1.648704,-4.94881 3.418736,-8.31517 7.128114,-13.55664 l 0.574265,-0.81146 h -6.715926 -6.715942 v -1.62289 -1.62291 h 9.016145 9.01613 v 1.31911 c 0,0.97732 -0.363332,1.79495 -1.402281,3.15565 -4.465683,5.84862 -7.557261,12.79108 -8.687245,19.50818 l -0.60669,3.60645 -1.651816,0.1086 c -0.908487,0.0598 -1.731819,-0.0215 -1.829623,-0.18032 z m 43.029316,-13.6328 v -26.50745 h 26.68778 26.68778 v 26.50745 26.50746 H 139.0249 112.33712 Z m 51.93296,-0.18032 V 247.58722 H 139.0249 113.77969 v 25.24519 25.2452 h 25.24521 25.24518 z m -28.65046,13.9096 c -5.5629,-2.06739 -7.7452,-8.87901 -4.15477,-12.96827 0.58581,-0.6672 1.55812,-1.41731 2.16072,-1.66691 l 1.0956,-0.45381 -1.27036,-0.86322 c -3.22108,-2.18879 -3.34883,-7.25284 -0.25529,-10.11982 1.45137,-1.34509 3.15034,-1.90275 5.797,-1.90275 2.91083,0 5.05365,0.96057 6.66718,2.98875 0.889,1.11746 1.11293,1.77941 1.23143,3.64021 0.17222,2.70468 -0.44177,4.16933 -2.24264,5.34984 l -1.20583,0.79044 1.56107,0.99 c 2.12263,1.34613 3.16309,3.42319 3.14381,6.27594 -0.0224,3.32169 -1.63012,5.92209 -4.61458,7.46393 -1.87025,0.96623 -5.93582,1.21061 -7.91334,0.47567 z m 5.67089,-2.86342 c 3.35943,-1.43144 4.3451,-5.71773 2.00035,-8.6986 -1.58145,-2.01051 -4.91348,-2.57884 -7.14476,-1.21864 -1.57628,0.9609 -2.06059,1.5883 -2.53894,3.28897 -1.24487,4.42587 3.41589,8.44661 7.68335,6.62827 z m 0.43637,-14.5036 c 1.59733,-1.04662 2.17965,-4.24678 1.06291,-5.84119 -1.34979,-1.92705 -4.69045,-2.49526 -6.46481,-1.09956 -2.83476,2.22983 -2.19628,6.48145 1.12842,7.5141 1.25531,0.38989 3.20198,0.12867 4.27348,-0.57335 z m 36.24774,3.63774 v -26.50745 h 26.50745 26.50747 v 26.50745 26.50746 h -26.50747 -26.50745 z m 51.57232,-0.18032 V 247.58722 H 204.48207 179.4172 v 25.24519 25.2452 h 25.06487 25.06487 z m -29.03196,13.88829 c -1.81049,-0.63489 -3.94479,-2.97688 -4.42036,-4.85052 -0.19958,-0.78623 -0.2739,-1.51846 -0.16518,-1.62717 0.10876,-0.10876 0.86833,-0.19768 1.68802,-0.19768 1.36123,0 1.52795,0.10394 1.92438,1.20027 0.74646,2.06429 2.01107,2.94716 4.22155,2.94716 1.36968,0 2.22294,-0.21357 2.94627,-0.73742 1.48535,-1.0757 2.95539,-4.25523 3.24049,-7.00885 l 0.24195,-2.3366 -1.23212,1.03882 c -1.73978,1.46685 -3.24584,2.01145 -5.56263,2.01145 -5.04127,0 -8.40333,-4.14743 -8.03349,-9.91016 0.2109,-3.28626 1.43567,-5.55111 3.90066,-7.21313 1.37418,-0.92654 2.0182,-1.1052 4.37952,-1.21494 2.48915,-0.1156 2.95738,-0.0258 4.6416,0.89086 3.63216,1.97687 5.06592,4.94003 5.31485,10.98431 0.28354,6.88444 -0.90077,11.41882 -3.68995,14.1276 -2.31145,2.24487 -6.17653,3.02483 -9.39556,1.896 z m 6.17575,-13.18867 c 2.78976,-1.3505 3.86327,-5.48061 2.31246,-8.89686 -1.86055,-4.09861 -7.17449,-3.9545 -9.29966,0.2522 -2.18493,4.325 0.27079,9.15737 4.75485,9.35662 0.38366,0.0171 1.38823,-0.30334 2.23235,-0.71196 z m 37.28205,-0.5193 v -26.50745 h 26.50745 26.50745 v 26.50745 26.50746 h -26.50745 -26.50745 z m 51.84526,-0.0902 -0.0926,-25.15503 -25.15502,-0.0926 -25.15503,-0.0926 v 25.24765 25.24764 h 25.24764 25.24764 z m -34.53428,4.424 v -1.62899 h 9.39753 9.39752 l -0.11093,1.53274 -0.11094,1.53275 -9.28662,0.0963 -9.28664,0.0963 z m 0,-8.66159 v -1.6229 h 9.37678 9.37679 v 1.6229 1.62291 h -9.37679 -9.37678 z M 47.781555,209.54142 v -26.50977 h 26.690108 26.690117 l -0.0924,26.41729 -0.0924,26.41729 -26.597619,0.0924 -26.59761,0.0924 z m 51.93296,-0.18264 V 184.11359 H 74.469329 49.224134 v 25.24519 25.2452 h 25.245195 25.245186 z m -23.08131,10.09808 v -3.24581 h -5.950659 -5.950644 l 0.0093,-1.71307 c 0.0093,-1.63231 0.303742,-2.1296 6.256113,-10.54888 l 6.246855,-8.83583 1.497767,-0.11094 1.497751,-0.11093 v 9.03689 9.03687 h 1.983548 1.983548 v 1.6229 1.62291 h -1.983548 -1.983548 v 3.24581 3.24582 H 78.436406 76.63317 v -3.24582 z m 0,-12.5144 c 0,-3.33802 -0.136763,-5.87007 -0.30676,-5.68017 -0.336929,0.37629 -7.344041,10.52701 -7.767431,11.25214 -0.204273,0.34983 0.67056,0.4508 3.905483,0.4508 h 4.168708 z m 35.703915,2.59665 v -26.50746 h 26.68778 26.68778 v 26.50746 26.50745 H 139.0249 112.33712 Z m 51.93296,-0.18033 V 184.11359 H 139.0249 113.77969 v 25.24519 25.2452 h 25.24521 25.24518 z m -29.57294,13.31359 c -2.68003,-1.21502 -4.23354,-3.13891 -4.85335,-6.01052 l -0.253,-1.1721 h 1.96713 c 1.89482,0 1.97504,0.0395 2.18235,1.07613 0.1184,0.59187 0.77536,1.68734 1.45996,2.43436 1.1744,1.28149 1.36705,1.35823 3.40986,1.35823 2.52961,0 3.7421,-0.70686 5.00711,-2.91908 1.07501,-1.87997 1.10837,-5.01443 0.075,-7.04015 -0.84255,-1.65152 -2.92468,-2.82263 -5.04178,-2.83576 -1.4034,-0.009 -3.93108,1.12413 -4.40742,1.97531 -0.32888,0.58768 -2.6383,0.74179 -3.44545,0.22995 -0.38163,-0.24202 -0.22412,-1.62806 0.81145,-7.14123 0.70675,-3.76251 1.285,-6.95186 1.285,-7.08743 0,-0.13552 3.16465,-0.24648 7.03258,-0.24648 h 7.0326 v 1.62291 1.6229 h -5.54067 -5.54065 l -0.61112,3.15565 c -0.33612,1.7356 -0.68822,3.42193 -0.78245,3.74738 -0.14656,0.50619 0.052,0.48014 1.37323,-0.18033 2.32529,-1.1623 5.74917,-1.04944 7.98929,0.26336 4.26245,2.49796 5.70299,8.11524 3.29237,12.83825 -1.69423,3.31942 -4.59229,5.0444 -8.47485,5.0444 -1.58881,0 -2.86717,-0.23709 -3.96711,-0.73575 z m 43.27748,-13.13326 v -26.50746 h 26.50745 26.50747 v 26.50746 26.50745 h -26.50747 -26.50745 z m 51.57232,-0.18033 V 184.11359 H 204.48207 179.4172 v 25.24519 25.2452 h 25.06487 25.06487 z m -27.57695,13.97369 c -1.984,-0.52379 -4.92169,-3.51752 -5.7525,-5.86222 -0.84394,-2.38173 -1.16996,-9.33047 -0.59359,-12.65173 1.09566,-6.31368 4.34146,-9.56219 9.5844,-9.59245 3.967,-0.0229 6.7772,1.94416 7.73541,5.41452 0.19505,0.70642 0.31846,1.3133 0.27424,1.34863 -0.0442,0.0353 -0.83613,0.17384 -1.75985,0.30782 -1.67419,0.24283 -1.68077,0.23961 -2.09778,-1.02392 -0.65625,-1.98848 -2.23318,-3.09435 -4.4124,-3.09435 -1.66437,0 -1.95663,0.13365 -3.35854,1.53553 -1.70356,1.70356 -2.69731,4.30379 -2.69731,7.05776 v 1.61011 l 0.85207,-0.91939 c 1.50691,-1.626 3.07897,-2.23157 5.81987,-2.2419 2.22003,-0.008 2.71885,0.12167 4.13563,1.07828 2.41058,1.6276 3.74846,4.03243 3.91861,7.0437 0.40947,7.24663 -4.87432,11.77803 -11.64826,9.98961 z m 5.55529,-3.45125 c 1.75774,-1.29782 2.33781,-2.48265 2.46464,-5.03412 0.0901,-1.81086 -0.0439,-2.73985 -0.52983,-3.6779 -1.99209,-3.84493 -7.35429,-3.84643 -9.38694,-0.003 -1.84973,3.4979 -0.16469,8.2325 3.32698,9.3482 1.38321,0.44197 3.00605,0.19275 4.12515,-0.63354 z m 36.4475,-10.34211 v -26.50746 h 26.50745 26.50745 v 26.50746 26.50745 h -26.50745 -26.50745 z m 51.93297,-0.18033 v -25.24519 h -25.24521 -25.24518 v 25.24519 25.2452 h 25.24518 25.24521 z m -30.65488,0 v -1.80322 h 5.40967 5.4097 v 1.80322 1.80323 h -5.4097 -5.40967 z M 47.781555,146.42612 v -26.50745 h 26.687774 26.687781 v 26.50745 26.50745 H 74.469329 47.781555 Z m 51.93296,-0.18033 V 121.0006 H 74.469329 49.224134 v 25.24519 25.2452 h 25.245195 25.245186 z m -23.802607,3.38214 v -10.68302 l -0.811446,0.58008 c -1.461529,1.04482 -5.199193,3.11435 -5.624668,3.11435 -0.252428,0 -0.416155,-0.63484 -0.416155,-1.61365 0,-1.39555 0.133962,-1.68297 0.991774,-2.1266 2.154229,-1.11418 5.528763,-3.89346 6.396656,-5.26828 0.735596,-1.16525 1.127168,-1.4502 1.992884,-1.4502 h 1.07741 v 14.06518 14.06518 h -1.80322 -1.803235 z m 36.425212,-3.20181 v -26.50745 h 26.68778 26.68778 v 26.50745 26.50745 H 139.0249 112.33712 Z m 51.93296,-0.18033 V 121.0006 H 139.0249 113.77969 v 25.24519 25.2452 h 25.24521 25.24518 z m -34.4785,12.89705 c 0.41026,-2.0513 2.48204,-4.98252 5.26009,-7.44216 7.62306,-6.7493 9.41926,-8.90737 9.48998,-11.40177 0.0484,-1.70683 -0.77031,-3.3352 -2.08546,-4.14801 -1.49621,-0.9247 -4.51762,-0.97571 -5.99799,-0.10129 -1.06937,0.63169 -2.48234,3.03374 -2.48234,4.21996 0,0.56886 -0.21009,0.6171 -1.71307,0.39336 -0.94219,-0.14019 -1.76095,-0.30122 -1.81946,-0.35772 -0.0585,-0.0565 0.0834,-0.85621 0.31522,-1.77714 0.98687,-3.91927 3.95591,-6.06909 8.45257,-6.12038 4.74129,-0.0541 7.98958,2.1426 8.80742,5.95603 0.87824,4.09512 -0.88916,7.18122 -7.3401,12.81675 -2.39712,2.09409 -4.73531,4.27482 -5.19597,4.84605 l -0.8376,1.03857 h 6.8784 6.87841 v 1.62291 1.62291 h -9.42187 -9.42186 z m 48.18304,-12.71672 v -26.50745 h 26.50745 26.50747 v 26.50745 26.50745 h -26.50747 -26.50745 z m 51.57232,-0.18033 V 121.0006 H 204.48207 179.4172 v 25.24519 25.2452 h 25.06487 25.06487 z m -28.83567,13.87913 c -2.19048,-0.9892 -3.67675,-2.38433 -4.55933,-4.2798 -1.1493,-2.46829 -1.10905,-2.96901 0.26069,-3.24295 2.0132,-0.40264 2.314,-0.28248 2.8213,1.12702 1.09992,3.05612 2.90954,4.30283 5.69199,3.92146 3.01329,-0.41302 4.84909,-2.52 4.89583,-5.61905 0.0499,-3.31371 -2.75465,-5.75393 -6.08809,-5.29704 -1.55528,0.21317 -1.59514,0.19372 -1.57043,-0.76615 0.0406,-1.57857 0.43316,-2.06391 1.77611,-2.19603 3.70927,-0.36493 5.70838,-3.5276 4.14309,-6.55453 -1.03052,-1.9928 -4.07369,-2.76506 -6.31956,-1.60367 -1.05022,0.54308 -2.51016,2.85187 -2.51016,3.96961 0,0.3793 -0.21812,0.51822 -0.63112,0.40194 -0.34712,-0.0977 -1.15858,-0.28386 -1.80323,-0.41361 -1.33624,-0.26893 -1.37968,-0.42624 -0.61998,-2.24447 1.45218,-3.47556 4.00089,-5.14704 7.84831,-5.14704 4.57724,0 7.83133,2.72678 8.10459,6.79126 0.11809,1.75666 -0.002,2.25656 -0.85344,3.55003 -0.54498,0.828 -1.36145,1.70378 -1.81438,1.94617 -0.81037,0.43369 -0.80029,0.45219 0.63333,1.16149 5.23444,2.58979 4.46394,11.0895 -1.27281,14.04111 -1.95905,1.00796 -6.362,1.25388 -8.13271,0.45425 z m 43.26151,-13.6988 v -26.50745 h 26.50745 26.50745 v 26.50745 26.50745 h -26.50745 -26.50745 z m 51.84526,-0.0902 -0.0926,-25.15504 -25.15502,-0.0926 -25.15503,-0.0926 v 25.24766 25.24764 h 25.24764 25.24764 z m -27.86232,14.08631 c -1.69528,-0.35523 -3.61572,-2.14401 -4.78233,-4.45445 -2.45255,-4.85724 -2.45769,-14.27884 -0.0109,-19.08363 1.61973,-3.18004 3.41076,-4.43551 6.61904,-4.6398 4.31106,-0.27451 7.13782,1.62077 8.84416,5.92986 0.75293,1.90141 0.84141,2.71805 0.85501,7.89123 0.0173,6.58329 -0.45645,8.81338 -2.42748,11.42654 -1.9987,2.64984 -5.32435,3.72095 -9.098,2.93025 z m 4.88603,-3.44849 c 1.68347,-1.13448 2.4069,-2.55395 2.89688,-5.68407 0.4702,-3.00381 0.24374,-9.80229 -0.4004,-12.02039 -0.22145,-0.76256 -0.94632,-1.97976 -1.61083,-2.70485 -1.11782,-1.21974 -1.36088,-1.31837 -3.24905,-1.31837 -1.84425,0 -2.141,0.11218 -3.0807,1.16382 -0.57193,0.6401 -1.27819,2.01957 -1.56945,3.06549 -1.24233,4.46129 -1.01186,11.90132 0.47262,15.25726 1.26079,2.85023 4.16202,3.84426 6.54093,2.24111 z M 30.831218,59.87115 V 24.708201 H 144.25426 257.6773 V 59.87115 95.03411 H 144.25426 30.831218 Z M 62.207369,76.64119 V 75.198596 H 60.223821 58.24028 V 60.051478 44.904361 h 1.983541 1.983548 v -1.262259 -1.262266 h -3.606448 -3.606456 v 17.85197 17.851963 h 3.606456 3.606448 z M 233.51406,60.231806 v -17.85197 h -3.60646 -3.60645 v 1.262266 1.262259 h 1.98354 1.98355 v 15.147117 15.147118 h -1.98355 -1.98354 v 1.442594 1.442579 h 3.60645 3.60646 z m -112.03474,9.0622 c 4.54401,-2.231199 6.02408,-7.944569 2.94189,-11.35618 -1.63326,-1.807825 -3.6351,-2.738421 -8.3165,-3.86604 -5.80933,-1.399325 -7.23305,-2.248782 -7.6044,-4.537129 -0.23077,-1.422073 0.72352,-2.86196 2.51622,-3.796617 1.58003,-0.823768 6.15268,-0.831268 7.6902,-0.01245 1.41076,0.751155 2.63237,2.263811 2.89706,3.587286 0.15827,0.791344 0.39882,1.000316 1.14698,0.996427 1.98339,-0.01089 2.57965,-0.363053 2.34733,-1.388652 -0.5012,-2.212607 -1.66042,-4.000766 -3.29584,-5.084011 -2.13333,-1.413071 -3.94102,-1.889766 -7.11893,-1.877303 -5.71645,0.0224 -9.55912,3.016016 -9.55912,7.44694 0,4.099969 2.18898,6.035004 8.73224,7.719183 7.03634,1.811092 8.65088,2.852577 8.65088,5.580418 0,2.776479 -2.7919,4.668182 -6.87733,4.659921 -3.97642,-0.0078 -7.22594,-1.984497 -8.00214,-4.867135 -0.35565,-1.320768 -0.41981,-1.36508 -1.97658,-1.36508 -1.40225,0 -1.60901,0.09895 -1.60901,0.769608 0,1.856961 0.94268,3.804272 2.69261,5.562199 2.36652,2.37733 4.46747,3.048481 9.20869,2.941777 2.95083,-0.06644 3.71879,-0.220812 5.53575,-1.112978 z M 82.310354,69.105479 C 84.56707,68.096263 86.512421,66.051428 87.621479,63.52271 88.68319,61.101956 88.964418,59.445582 88.94542,55.725266 88.915236,49.826978 86.747003,45.489844 82.878754,43.5904 80.815201,42.577139 80.660281,42.558064 73.477555,42.43297 l -7.303074,-0.127117 v 13.954501 13.954509 l 7.122746,-0.13194 c 6.532875,-0.121049 7.2793,-0.201971 9.013127,-0.977351 z M 69.780936,56.238089 V 45.572446 l 5.167266,0.116848 c 4.866544,0.110002 5.249869,0.171491 6.58671,1.057246 0.841568,0.557602 1.857909,1.732209 2.496448,2.885173 1.034421,1.867774 1.077006,2.122925 1.077006,6.452747 0,4.211838 -0.06659,4.643755 -1.014039,6.57308 -1.718283,3.499129 -3.453059,4.246285 -9.859144,4.246285 h -4.454247 z m 28.851641,0.02661 V 42.379836 h -1.80322 -1.803235 v 13.884859 13.884867 h 1.803235 1.80322 z M 134.69714,64.61545 V 59.081347 L 140.197,58.86391 c 6.02606,-0.238238 8.05164,-0.723568 9.77778,-2.342741 3.17702,-2.980115 3.19776,-9.144056 0.0406,-12.071503 -1.74335,-1.616551 -4.3331,-2.069846 -11.82561,-2.069846 h -6.73845 v 13.884875 13.884851 h 1.62291 1.6229 z m 0.2705,-9.093224 c -0.14875,-0.153567 -0.2705,-2.443237 -0.2705,-5.087963 v -4.808617 h 5.56234 c 5.39488,0 5.59433,0.02692 6.62517,0.894313 1.42922,1.202613 2.00957,2.734921 1.78623,4.716306 -0.19999,1.77428 -0.93067,2.805091 -2.61255,3.685588 -1.17641,0.615885 -10.58265,1.125052 -11.09069,0.600357 z m 39.76117,13.004417 v -1.622907 h -7.03259 -7.03259 V 54.641788 42.37982 h -1.6229 -1.6229 v 13.884875 13.884851 h 8.65549 8.65549 z m 6.67195,-2.436609 1.44258,-4.055004 6,-0.09864 5.99999,-0.09864 1.48339,3.827641 c 0.81588,2.105203 1.48341,3.975389 1.48341,4.155966 0,0.180561 0.96475,0.328309 2.14388,0.328309 h 2.14387 l -3.06684,-7.483402 C 197.34428,58.550393 194.7972,52.304378 193.37087,48.78622 l -2.59332,-6.396649 -1.98669,-0.0047 -1.98668,-0.0047 -5.22623,13.570973 c -2.87442,7.464031 -5.28034,13.712224 -5.34645,13.884867 -0.0661,0.172626 0.74534,0.312859 1.80322,0.311614 l 1.92345,-0.0016 1.44259,-4.055004 z m 2.70483,-7.283843 c 0,-0.08977 0.74042,-2.153296 1.64539,-4.585455 0.90496,-2.432144 1.92768,-5.452602 2.2727,-6.712099 l 0.62732,-2.290013 2.4157,6.615058 c 1.32862,3.638289 2.41568,6.732247 2.41568,6.875468 0,0.143297 -2.10976,0.260394 -4.6884,0.260394 -2.57861,0 -4.68839,-0.07344 -4.68839,-0.163353 z m 29.57296,5.568142 v -5.775216 l 4.4387,-6.396564 c 2.44128,-3.518127 4.96458,-7.167462 5.60732,-8.10965 l 1.16863,-1.713079 -2.09103,0.0031 -2.09104,0.0031 -3.45672,5.316842 c -1.90119,2.924258 -3.76195,5.844283 -4.13501,6.488937 -0.37307,0.644654 -0.76505,1.169753 -0.87103,1.166906 -0.10596,-0.0031 -0.6171,-0.773747 -1.13578,-1.713072 -0.51868,-0.939324 -2.35119,-3.858214 -4.07224,-6.486432 l -3.1292,-4.778549 h -2.17018 c -1.61074,0 -2.10038,0.112958 -1.89942,0.438093 0.1489,0.240962 2.59286,3.90129 5.43098,8.134055 l 5.1602,7.696295 v 5.750805 5.750805 h 1.62291 1.62291 z m 81.34471,-7.952006 c -2.64054,-0.441766 -6.65489,-2.572408 -8.62293,-4.576665 -3.09005,-3.14689 -4.55976,-6.673668 -4.55976,-10.941744 0,-9.750606 9.04855,-17.198471 18.87241,-15.533882 12.84767,2.176961 17.91969,17.275457 8.88022,26.4348 -2.35318,2.384362 -4.9132,3.778272 -8.2305,4.481412 -2.63353,0.558193 -3.68193,0.580707 -6.33944,0.136141 z m 8.15086,-2.846728 c 5.27715,-1.97443 8.96862,-7.247388 8.95678,-12.793974 -0.0215,-10.071447 -11.37067,-16.653909 -20.70677,-12.009812 -2.13981,1.064419 -5.00721,3.972978 -6.15689,6.245284 -1.84881,3.654112 -1.6677,8.863364 0.43918,12.633002 1.65048,2.952995 5.74601,5.894071 9.24544,6.639283 2.21547,0.471794 5.91097,0.150921 8.22226,-0.713783 z"
     id="path857"
     sodipodi:nodetypes="ccccccccccccccccccssscccccccssscsssccccccccccccccccccssscsssssscssssssssssssssccccccccccccccccccsssssssscsssssssssssssscccccccccccccccccccccccccccccccccccccccccccccccccccccccccccscccccccccccccccccsssscsccccccccccccccccccsscsssssscssssscccccssssssssccccccccccccccccccssssssssssscscssscsccscccccccccccccccccccccccccccccccccccccccccccccccccssscssccccccccccccccccccccccccsssssscsccssscccccccsccccccccccccccccccssssssssssssssssscsssscccccccccccccccccccscssssccsssssssssccccccccccccccccccccccccccccccccccccccccccccsssscscsssssscssssscccscsccccscccccssscscccccccccccccssssccccccsscsssssscccccccccccccccccssscsscccssccccssscssssccsscccsscsscsscccccccsssssssscsssssc" />
</svg>
