<?xml version="1.0" encoding="UTF-8" standalone="no"?>
<svg
   xmlns:dc="http://purl.org/dc/elements/1.1/"
   xmlns:cc="http://creativecommons.org/ns#"
   xmlns:rdf="http://www.w3.org/1999/02/22-rdf-syntax-ns#"
   xmlns:svg="http://www.w3.org/2000/svg"
   xmlns="http://www.w3.org/2000/svg"
   xmlns:sodipodi="http://sodipodi.sourceforge.net/DTD/sodipodi-0.dtd"
   xmlns:inkscape="http://www.inkscape.org/namespaces/inkscape"
   viewBox="0 0 348 348"
   fill="none"
   version="1.1"
   id="svg831"
   sodipodi:docname="Not Symbolic Coordinates.svg"
   inkscape:version="1.0.1 (3bc2e813f5, 2020-09-07)">
  <g
     aria-label="SUBMIT"
     id="text963"
     style="font-style:normal;font-variant:normal;font-weight:normal;font-stretch:normal;font-size:40px;line-height:1.25;font-family:Arial;-inkscape-font-specification:Arial;fill:#000000"
     transform="matrix(1.0233812,0,0,1.0233812,-3.75737,-4.0826137)">
    <path
       d="m 66.089012,302.57608 3.574219,-0.3125 q 0.253906,2.14844 1.171875,3.53516 0.9375,1.36718 2.890625,2.22656 1.953125,0.83984 4.394531,0.83984 2.167969,0 3.828125,-0.64453 1.660156,-0.64453 2.460938,-1.75781 0.820312,-1.13281 0.820312,-2.46094 0,-1.34765 -0.78125,-2.34375 -0.78125,-1.01562 -2.578125,-1.69922 -1.152344,-0.44922 -5.097656,-1.38672 -3.945313,-0.95703 -5.527344,-1.79687 -2.050781,-1.07422 -3.066406,-2.65625 -0.996094,-1.60156 -0.996094,-3.57422 0,-2.16797 1.230469,-4.04297 1.230469,-1.89453 3.59375,-2.87109 2.363281,-0.97656 5.253906,-0.97656 3.183594,0 5.605469,1.03515 2.441406,1.01563 3.75,3.00781 1.308594,1.99219 1.40625,4.51172 l -3.632813,0.27344 q -0.292968,-2.71484 -1.992187,-4.10156 -1.679688,-1.38672 -4.980469,-1.38672 -3.4375,0 -5.019531,1.26953 -1.5625,1.25 -1.5625,3.02734 0,1.54297 1.113281,2.53907 1.09375,0.99609 5.703125,2.05078 4.628906,1.03515 6.347656,1.8164 2.5,1.15235 3.691407,2.92969 1.191406,1.75781 1.191406,4.0625 0,2.28516 -1.308594,4.31641 -1.308594,2.01172 -3.769531,3.14453 -2.441406,1.11328 -5.507813,1.11328 -3.886718,0 -6.523437,-1.13281 -2.617188,-1.13281 -4.121094,-3.39844 -1.484375,-2.28516 -1.5625,-5.15625 z"
       id="path965" />
    <path
       d="m 112.84682,283.14249 h 3.78907 v 16.54297 q 0,4.3164 -0.97657,6.85546 -0.97656,2.53907 -3.53515,4.14063 -2.53906,1.58203 -6.67969,1.58203 -4.02344,0 -6.58203,-1.38672 -2.558594,-1.38672 -3.652344,-4.0039 -1.09375,-2.63672 -1.09375,-7.1875 v -16.54297 h 3.789062 v 16.52343 q 0,3.73047 0.683594,5.50782 0.703125,1.75781 2.382808,2.71484 1.69922,0.95703 4.14063,0.95703 4.17969,0 5.95703,-1.89453 1.77734,-1.89453 1.77734,-7.28516 z"
       id="path967" />
    <path
       d="m 122.78823,311.7753 v -28.63281 h 10.74219 q 3.28125,0 5.2539,0.8789 1.99219,0.85938 3.10547,2.67578 1.13282,1.79688 1.13282,3.76954 0,1.83593 -0.9961,3.45703 -0.99609,1.62109 -3.00781,2.61718 2.59766,0.76172 3.98437,2.59766 1.40625,1.83594 1.40625,4.33594 0,2.01172 -0.85937,3.75 -0.83984,1.71875 -2.08984,2.65625 -1.25,0.9375 -3.14454,1.42578 -1.875,0.46875 -4.60937,0.46875 z m 3.78906,-16.60156 h 6.19141 q 2.51953,0 3.61328,-0.33203 1.44531,-0.42969 2.16797,-1.42579 0.74219,-0.99609 0.74219,-2.5 0,-1.42578 -0.6836,-2.5 -0.68359,-1.09375 -1.95312,-1.48437 -1.26953,-0.41016 -4.35547,-0.41016 h -5.72266 z m 0,13.22265 h 7.12891 q 1.83594,0 2.57812,-0.13672 1.3086,-0.23437 2.1875,-0.78125 0.87891,-0.54687 1.44532,-1.58203 0.5664,-1.05468 0.5664,-2.42187 0,-1.60156 -0.82031,-2.77344 -0.82031,-1.19141 -2.28516,-1.66016 -1.44531,-0.48828 -4.17968,-0.48828 h -6.6211 z"
       id="path969" />
    <path
       d="m 149.50698,311.7753 v -28.63281 h 5.70313 l 6.77734,20.27343 q 0.9375,2.83204 1.36719,4.23829 0.48828,-1.5625 1.52343,-4.58985 l 6.85547,-19.92187 h 5.09766 v 28.63281 h -3.65234 v -23.96484 l -8.32032,23.96484 h -3.41797 l -8.28125,-24.375 v 24.375 z"
       id="path971" />
    <path
       d="m 183.58901,311.7753 v -28.63281 h 3.78906 v 28.63281 z"
       id="path973" />
    <path
       d="m 201.34292,311.7753 v -25.25391 h -9.4336 v -3.3789 h 22.69532 v 3.3789 h -9.47266 v 25.25391 z"
       id="path975" />
  </g>
  <metadata
     id="metadata1359">
    <rdf:RDF>
      <cc:Work
         rdf:about="">
        <dc:format>image/svg+xml</dc:format>
        <dc:type
           rdf:resource="http://purl.org/dc/dcmitype/StillImage" />
        <dc:title></dc:title>
      </cc:Work>
    </rdf:RDF>
  </metadata>
  <defs
     id="defs1357">
    <rect
       x="-21.722847"
       y="34.322098"
       width="272.4045"
       height="59.086143"
       id="rect942" />
  </defs>
  <sodipodi:namedview
     pagecolor="#ffffff"
     bordercolor="#666666"
     borderopacity="1"
     objecttolerance="10"
     gridtolerance="10"
     guidetolerance="10"
     inkscape:pageopacity="0"
     inkscape:pageshadow="2"
     inkscape:window-width="1920"
     inkscape:window-height="1001"
     id="namedview1355"
     showgrid="false"
     inkscape:zoom="2.3017241"
     inkscape:cx="172.20826"
     inkscape:cy="175.80486"
     inkscape:window-x="-9"
     inkscape:window-y="-9"
     inkscape:window-maximized="1"
     inkscape:current-layer="svg831"
     inkscape:document-rotation="0" />
  <style
     id="style1281"></style>
  <path
     d="M 1.4403831,1.8284361 H 346.23081 V 347.39356 H 1.4414065 Z"
     stroke-width="2.04676"
     stroke="#000000"
     id="path827" />
  <path
     style="fill:#000000;stroke-width:0.369078"
     d="m 298.16389,53.658935 c -2.70228,-0.452095 -6.81049,-2.632554 -8.82455,-4.683673 -3.16229,-3.220468 -4.66637,-6.829707 -4.66637,-11.197575 0,-9.978587 9.26012,-17.600592 19.31367,-15.897083 13.14807,2.227861 18.33868,17.679378 9.08785,27.052877 -2.4082,2.440111 -5.02807,3.866613 -8.42294,4.586193 -2.6951,0.571244 -3.76802,0.594285 -6.48766,0.139324 z m 8.34144,-2.913288 c 5.40053,-2.020595 9.17831,-7.416841 9.1662,-13.093113 -0.022,-10.306929 -11.63653,-17.043297 -21.19092,-12.290615 -2.18984,1.089306 -5.12429,4.065871 -6.30085,6.391306 -1.89204,3.739549 -1.70669,9.0706 0.44945,12.928377 1.68907,3.022039 5.88036,6.031881 9.46161,6.794517 2.26727,0.482825 6.04918,0.15445 8.41451,-0.730472 z"
     id="path857"
     sodipodi:nodetypes="sssssssscsssssc" />
  <path
     style="fill:none;fill-opacity:0.547244;stroke:#000000;stroke-width:1.73783"
     d=""
     id="path1453" />
  <text
     xml:space="preserve"
     id="text940"
     style="line-height:1.25;font-family:'Eras Demi ITC';font-size:40px;-inkscape-font-specification:'Eras Demi ITC';white-space:pre;shape-inside:url(#rect942);" />
  <path
     id="rect919"
     style="fill:#000000;fill-opacity:1;stroke:none;stroke-width:4.09352"
     d="M 18.472656,20.371094 V 80.394531 H 270.57031 V 20.371094 Z m 43.107422,2.990234 c 0.545551,8.73e-4 1.136345,0.02836 1.921875,0.08398 1.11332,0.07885 2.234968,0.191646 2.492188,0.251954 0.25723,0.06031 0.731204,0.137536 1.052734,0.169922 0.32153,0.03238 0.716183,0.104971 0.876953,0.162109 0.16077,0.05714 0.463568,0.138124 0.673828,0.179687 0.21027,0.04156 0.842877,0.223449 1.404297,0.404297 4.1722,1.343994 7.516438,3.379386 10.554688,6.423828 0.80697,0.808619 1.636505,1.665485 1.841797,1.904297 0.55167,0.641771 1.815582,2.432465 1.757812,2.490235 -0.0274,0.02744 -0.433481,-0.31899 -0.900391,-0.769532 -0.46691,-0.450546 -1.227203,-1.097169 -1.689453,-1.4375 -0.86278,-0.63522 -2.143837,-1.476562 -2.248047,-1.476562 -0.0322,0 -0.25427,-0.122522 -0.49414,-0.271485 -0.57281,-0.355712 -2.703757,-1.292128 -3.591797,-1.578124 -1.37647,-0.443295 -2.224286,-0.655982 -3.634766,-0.910157 -1.31399,-0.236786 -5.678532,-0.275132 -6.888672,-0.06055 -3.02228,0.535942 -4.6017,1.018284 -6.78125,2.066407 -3.81844,1.83625 -7.392195,5.2091 -9.634765,9.09375 -0.32776,0.567754 -0.595703,1.054253 -0.595703,1.082031 0,0.0278 -0.102916,0.274269 -0.228516,0.546875 -1.51016,3.277417 -2.169742,7.384484 -1.826172,11.369141 0.0887,1.028902 0.220579,2.133543 0.292969,2.455078 0.0724,0.321531 0.186216,0.848385 0.253906,1.169922 0.13138,0.624042 0.410396,1.601963 0.566406,1.986328 0.0522,0.128614 0.239286,0.60259 0.416016,1.052734 0.53207,1.3552 1.638728,3.314605 2.642578,4.677734 2.58004,3.002858 5.127068,5.458553 8.460938,7.003907 1.48689,0.71183 2.966327,1.20926 4.679687,1.576171 3.01974,0.646667 6.700485,0.650895 9.578125,0.0098 0.62026,-0.138212 2.411373,-0.65674 2.814453,-0.814453 1.70301,-0.296354 3.11091,-1.596704 4.5625,-2.222656 0.0936,0 1.232456,-0.830965 2.103516,-1.535157 0.84434,-0.682591 2.459482,-2.302962 3.013672,-3.023437 0.4037,-0.524839 0.408264,-0.288237 0.0078,0.433594 -0.31967,0.576009 -1.428907,2.267063 -1.554687,2.371093 -0.0389,0.03217 -0.340555,0.400367 -0.671875,0.81836 -2.3283,2.93731 -6.759664,6.175309 -10.558594,7.714844 -0.35368,0.143335 -0.748343,0.302955 -0.876953,0.355468 -1.30429,0.532551 -3.932488,1.283204 -4.492188,1.283204 -0.18963,0 -0.483473,0.05298 -0.652343,0.117187 -0.48636,0.184915 -3.836018,0.435643 -5.085938,0.380859 -1.40201,-0.06145 -3.657581,-0.267799 -4.18164,-0.382812 -0.30453,-0.06683 -0.817142,-0.173341 -1.138672,-0.238281 -3.85142,-0.777874 -7.808752,-2.706919 -11.107422,-5.41211 -1.39533,-1.355744 -2.843027,-2.541345 -4.091797,-4.050781 -0.23643,-0.28938 -0.535366,-0.6529 -0.666016,-0.806641 -0.87507,-1.54933 -3.373674,-4.922061 -3.746093,-6.457031 -0.0337,-0.15309 -0.221856,-0.724877 -0.416016,-1.271484 -0.54386,-1.531123 -0.766657,-2.412796 -1.123047,-4.44336 -0.14894,-0.848629 -0.38922,-3.720398 -0.40625,-4.853515 -0.009,-0.574573 0.319219,-4.381014 0.386719,-4.490235 0.0343,-0.05544 0.08987,-0.304082 0.123047,-0.552734 0.082,-0.614787 0.298222,-1.673058 0.414062,-2.029297 0.0523,-0.16077 0.183596,-0.608303 0.291016,-0.994141 0.10743,-0.38584 0.316537,-1.018454 0.466797,-1.404296 0.77182,-1.496777 1.223655,-2.893184 2.009765,-4.267578 0.30851,-0.535407 1.700747,-2.582069 1.998047,-2.9375 3.2665,-3.90516 6.194897,-6.333286 9.841797,-8.16211 1.84133,-0.923378 3.298067,-1.441038 5.966797,-2.117187 0.72062,-0.182577 2.586548,-0.44424 4.173828,-0.585938 0.598355,-0.05342 1.381339,0.400812 1.642578,-0.07813 z m 146.423832,2.246094 c 0.77514,0.228973 -0.82992,3.459378 -1.03907,4.408203 -0.88347,2.31638 -1.75632,4.660133 -2.58593,6.998047 -1.64674,4.791178 -1.83878,10.242835 0,15.021484 1.12654,2.752164 2.80555,5.353748 4.99804,7.449219 3.35393,3.505347 7.90727,5.80018 12.72852,6.291016 3.03539,0.561271 6.14327,-0.238638 9.06445,-1.007813 4.30077,-1.542646 8.07818,-4.669862 10.7207,-8.390625 1.55363,-2.260506 2.64115,-4.748296 3.24219,-7.414062 0.34666,-2.40463 0.74817,-4.869977 0.15625,-7.291016 -0.59562,-2.575758 -1.468,-5.015038 -2.61718,-7.376953 -0.98356,-2.677271 -2.40448,-5.45203 -1.98438,-8.410156 1.99524,0.568474 3.59506,2.635634 5.09766,4.134765 2.89542,3.190789 4.96767,7.062346 6.17187,11.142578 1.55841,4.980805 1.42996,10.404651 0.29492,15.470703 -0.71565,2.352078 -1.43446,4.687482 -2.70312,6.826172 -2.17721,3.983974 -5.47626,7.2996 -9.11524,9.994141 -5.37127,3.635825 -12.00851,5.208013 -18.47265,4.691406 -6.4971,-0.515491 -12.63041,-3.398295 -17.25782,-7.986328 -3.94506,-3.64306 -6.94666,-8.357352 -8.29492,-13.542969 -1.01097,-3.706015 -1.30558,-7.660413 -0.64843,-11.464843 0.41159,-2.502295 1.15907,-5.055991 2.36914,-7.263672 1.87611,-4.590596 5.15165,-8.629412 8.91211,-11.892578 0.47882,-0.331726 0.78401,-0.439559 0.96289,-0.386719 z m -81.33399,1.353516 c 1.6506,-0.126257 -0.5787,3.299159 -0.68164,4.457031 -0.87418,2.293662 -1.70661,4.576884 -2.53906,6.878906 -1.04381,2.930496 -1.3606,6.033806 -1.15234,9.136719 0.20431,5.48174 3.29108,10.501074 7.33984,14.0625 3.08769,2.755512 7.00056,4.549229 11.10937,4.974609 3.12956,0.564294 6.30081,-0.192028 9.29493,-1.029297 3.87096,-1.489819 7.36884,-4.205241 9.86914,-7.605468 1.20249,-1.476777 2.1819,-3.280224 2.79101,-5.09961 0.97627,-2.213286 1.06542,-4.698703 1.40821,-7.085937 -0.32264,-2.983764 -1.06072,-5.902206 -2.35547,-8.605469 -1.14234,-3.128752 -2.94059,-6.230101 -2.64258,-9.679688 2.48017,0.424314 4.3724,3.538684 6.25,5.341797 2.71071,3.489288 4.59348,7.630244 5.49219,11.931641 0.72178,3.737429 0.65103,7.652089 -0.004,11.402344 -0.42953,2.163433 -1.10299,4.279447 -1.97266,6.265625 -2.81501,6.05087 -7.82718,11.082488 -13.86523,13.955078 -3.71868,1.688369 -7.77361,2.426855 -11.86719,2.417969 -0.9746,0.0077 -1.96178,0.08609 -2.92773,-0.07617 -3.31866,-0.367212 -6.54395,-1.269565 -9.49414,-2.771485 -6.19856,-3.274264 -11.35746,-8.76288 -14.10157,-15.263672 -0.69076,-2.163216 -1.53668,-4.332899 -1.65234,-6.65039 -0.76267,-3.868986 -0.15316,-7.872752 0.94531,-11.59961 0.80201,-1.928057 1.48946,-3.987511 2.6211,-5.753906 2.0578,-3.65234 4.81347,-7.010237 8.13476,-9.603515 z m 5.73438,4.060546 c 0.91502,1.408192 -1.30534,4.024991 -1.49805,5.876954 -0.73004,2.66109 -1.51407,5.498324 -0.85156,8.261718 0.50805,5.360397 5.12412,9.936133 10.41992,10.634766 2.55237,0.749013 5.29693,0.140524 7.7207,-0.708984 4.9566,-1.975423 8.75853,-7.086363 8.48047,-12.544922 0.0614,-3.853208 -3.17579,-6.877538 -3.00976,-10.714844 1.46443,-0.946218 3.39821,2.713346 4.63281,3.835937 2.49595,3.333236 3.33366,7.573023 2.96875,11.669922 0.0215,2.31219 -0.75833,4.551583 -1.7168,6.59375 -2.67565,5.14953 -7.73681,9.38445 -13.57812,10.208985 -2.06207,0.07 -4.13463,0.156691 -6.19532,0.03516 -3.31265,-0.74943 -6.46896,-2.268953 -8.92578,-4.666016 -3.11714,-2.759036 -5.31729,-6.595558 -5.90234,-10.701172 -0.41198,-2.584718 -0.29707,-5.327891 0.49219,-7.822265 1.0991,-3.951386 3.56996,-7.588997 6.96289,-9.958985 z m -64.173831,0.519532 c 0.825641,0.02409 1.883401,0.167598 2.761719,0.388672 0.368798,0.09283 0.805173,0.167968 0.970703,0.167968 0.63559,0 0.134933,0.202451 -0.847657,0.341797 -3.35006,0.47509 -5.464543,1.093653 -7.751953,2.267578 -0.61091,0.31353 -1.360415,0.749412 -1.666015,0.96875 -0.30561,0.219334 -0.578422,0.398438 -0.607422,0.398438 -0.029,0 -0.328556,0.249225 -0.666016,0.554687 -2.15197,1.947876 -3.3536,3.70064 -4.11914,6.009766 C 55.660877,44.5806 55.496467,45.674314 55.498047,48 c 0.002,2.83539 0.361378,4.58661 1.392578,6.78125 1.90829,4.061345 5.89833,7.437364 10.15625,8.591797 2.04786,0.555224 4.835104,0.698526 6.740234,0.347656 3.43684,-0.632968 6.49552,-2.369933 9.21875,-5.232422 1.23,-1.292905 2.100537,-2.554002 2.904297,-4.210937 0.72043,-1.485134 0.998137,-2.543627 1.154297,-4.40625 0.0381,-0.454259 0.113159,-0.854794 0.167969,-0.888672 0.0548,-0.03387 0.104805,0.03406 0.109375,0.15039 0.005,0.116333 0.05112,0.684914 0.103515,1.263672 0.1086,1.200637 -0.03977,3.659776 -0.287109,4.75586 -0.56168,2.077392 -1.12329,4.106254 -2.306641,5.998047 -0.878738,1.356056 -2.236328,3.06293 -3.011718,3.783203 -0.16152,0.150038 -0.557378,0.522196 -0.878906,0.826172 -2.39258,2.261927 -5.507895,3.864694 -8.865235,4.5625 -1.29044,0.268209 -4.273371,0.395756 -5.925781,0.253906 -3.60732,-0.309665 -7.1122,-1.755344 -10.13086,-4.179688 -1.62619,-1.30602 -3.669291,-3.588888 -4.326171,-4.833984 -0.11889,-0.225344 -0.325545,-0.567117 -0.458985,-0.759766 -0.2226,-0.32137 -0.546335,-0.978542 -0.921875,-1.871093 -0.0812,-0.192921 -0.213962,-0.508251 -0.294922,-0.701172 -0.717,-1.708681 -1.282763,-4.934023 -1.283203,-7.308594 -1.6e-4,-1.414384 0.268818,-3.746907 0.580078,-5.027344 0.68004,-2.797504 1.791687,-5.016334 3.691407,-7.367187 0.81211,-1.004976 2.777168,-2.843053 3.423828,-3.203125 0.10562,-0.05881 0.21784,-0.143077 0.25,-0.1875 2.54962,-1.905537 6.023734,-3.160323 9.177734,-3.439453 0.45015,-0.03414 1.180414,-0.09584 1.621094,-0.138672 0.208835,-0.0203 0.457208,-0.02561 0.732422,-0.01758 z m 155.994141,0.621093 c 0.6153,0.0031 1.23398,0.06036 1.85156,0.173829 4.7043,0.847247 8.76944,4.558121 10.36133,9.044921 1.41709,4.498098 -0.53627,9.579239 -4.23438,12.398438 -2.64817,2.166796 -6.28835,3.275227 -9.68945,2.732422 -5.21268,-0.638472 -9.95814,-5.116441 -10.20508,-10.486328 -0.31689,-2.562768 0.16939,-5.262054 1.43164,-7.501953 2.05927,-3.79806 6.17726,-6.382732 10.48438,-6.361329 z m -87.27344,2.095703 c -0.42972,2.254086 -1.434,4.495137 -1.64648,6.859376 0.0481,2.822487 1.54936,5.744401 4.42578,6.544921 3.49186,1.25503 8.23173,0.496834 10.14258,-2.988281 1.03477,-1.989346 1.22991,-4.472035 0.31836,-6.550781 -0.27917,-1.266281 -2.20945,-5.448557 0.53906,-3.21875 1.93869,1.88015 3.05109,4.523936 3.26758,7.197265 0.21377,2.621497 -0.58079,5.346064 -2.38086,7.279297 -2.06008,2.369555 -5.10513,4.02087 -8.34766,3.865235 -0.732,0.01236 -1.46671,0.02142 -2.19531,-0.0625 -3.54199,-0.588031 -6.76124,-3.15048 -8.13281,-6.445313 -1.07235,-2.11653 -0.97736,-4.786886 -0.49805,-7.082031 0.72389,-2.165117 2.21208,-4.822553 4.50781,-5.398438 z m -73.113279,3.6875 c 0.0681,0 -0.08335,0.24923 -0.337891,0.554688 -0.89453,1.073651 -2.123047,3.222536 -2.123047,3.712891 0,0.104669 -0.05171,0.283362 -0.113281,0.398437 -0.17495,0.32689 -0.344279,1.612744 -0.34961,2.640625 -0.0138,2.657377 0.922594,4.753037 3.089844,6.908203 1.39125,1.383495 2.874405,2.256043 4.796875,2.820313 1.04277,0.306068 3.885888,0.276668 5.085938,-0.05273 1.52929,-0.419787 2.355378,-0.807108 3.449219,-1.613281 1.39189,-1.025824 2.39846,-2.241439 3.09375,-3.736328 0.347538,-0.747217 0.443907,-1.10326 0.742187,-2.757813 0.23855,-1.323216 0.239324,-1.388286 0.04492,-2.773437 -0.10947,-0.779979 -0.244951,-1.536702 -0.300781,-1.683594 -0.0558,-0.146892 -0.195887,-0.552666 -0.310547,-0.90039 -0.24215,-0.734361 -0.854583,-2.022673 -1.289063,-2.710938 -0.42447,-0.672405 -0.235785,-0.73272 0.328125,-0.105469 0.56245,0.62564 1.72461,2.17218 1.72461,2.294922 0,0.04751 0.101109,0.19537 0.224609,0.328125 0.52289,0.562043 1.950423,3.688999 2.033203,4.455078 0.0212,0.19583 0.08278,0.431056 0.138672,0.521485 0.20694,0.334838 0.211914,2.590787 0.0078,3.625 -0.45294,2.291478 -0.850213,3.178103 -2.476563,5.542968 -0.41495,0.603401 -2.040341,2.175978 -2.931641,2.835938 -0.4628,0.342674 -0.865131,0.623047 -0.894531,0.623047 -0.0294,0 -0.363137,0.176374 -0.742187,0.390625 -0.80878,0.457151 -2.092658,0.918105 -3.273438,1.177734 -1.14753,0.252311 -3.321509,0.230502 -4.537109,-0.04688 -1.27398,-0.290687 -1.940986,-0.526796 -3.041016,-1.078125 -3.05024,-1.528758 -5.984945,-4.706844 -6.890625,-7.458984 -0.11639,-0.353687 -0.260922,-0.769123 -0.320312,-0.923828 -0.0594,-0.154701 -0.183301,-0.706047 -0.275391,-1.226563 -0.65871,-3.723153 0.749543,-7.35749 4.126953,-10.648437 0.49669,-0.483978 0.970111,-0.88086 1.050781,-0.88086 0.0807,0 0.146485,-0.05288 0.146485,-0.117187 0,-0.06431 0.05487,-0.115235 0.123047,-0.115235 z m 9.396484,0.04102 c 0.316562,0.0054 0.859449,0.291877 1.167969,0.449219 0.40046,0.2043 1.694772,1.411433 2.152344,2.005859 0.502439,0.652704 1.321867,2.131228 1.585937,2.863282 0.40266,1.116261 0.428816,2.649692 0.06445,3.728515 -0.7272,2.153337 -2.923447,4.382626 -5.029297,5.105469 -0.69283,0.237817 -1.09861,0.30306 -1.86914,0.296875 -0.54177,-0.0045 -1.09014,-0.05004 -1.21875,-0.101563 -0.12862,-0.05152 -0.681916,-0.267535 -1.228516,-0.478515 -1.62317,-0.626524 -3.228072,-1.80583 -3.701172,-2.720703 -0.23307,-0.450711 -0.625,-1.804793 -0.625,-2.158204 0,-0.326875 0.192329,-0.344414 0.292969,-0.02734 0.15852,0.499453 1.612559,1.778038 2.480469,2.18164 2.22747,1.035833 4.353507,0.897246 6.054687,-0.396484 1.62943,-1.239161 2.513672,-2.892466 2.513672,-4.697266 0,-0.811211 -0.372219,-2.075437 -0.886719,-3.009765 -0.4779,-0.867844 -1.43589,-2.124054 -1.875,-2.458985 -0.21602,-0.164768 -0.361395,-0.35075 -0.322265,-0.414062 0.02562,-0.04146 0.168232,0.03659 0.21875,-0.06445 0.03789,-0.07578 0.119088,-0.105328 0.224609,-0.103516 z m -3.132813,2.291016 c 0.99131,0.04789 2.023822,0.5022 2.919922,1.351562 0.46877,0.444321 0.983999,1.681 0.980469,2.351563 -0.007,1.242244 -1.17387,2.780971 -2.6875,3.544922 -0.44594,0.225068 -1.233892,0.338556 -1.857422,0.267578 -0.43771,-0.04983 -1.195874,-0.486903 -1.652343,-0.953125 -1.153322,-1.177946 -1.568297,-2.346489 -1.285157,-3.621094 0.20386,-0.917702 0.406475,-1.330173 0.910157,-1.861328 0.730898,-0.770767 1.680565,-1.127966 2.671874,-1.080078 z"
     sodipodi:nodetypes="cccccccsssscsscsssssscsssccssssccssccsscscsssssssccccssccccscccssscsccccccccccccccccccccccscccccccccccccccccccccccccccccccccccccccccssssssscsccssssssccccscssssscccsssccsssccccccscccccccccccccscsccssssssscssssccscssssssssssssssscsscscssssssssssssssscssssss" />
  <rect
     style="fill:#000000;fill-opacity:1;stroke:none;stroke-width:4.09352"
     id="rect921"
     width="82.253784"
     height="81.364563"
     x="18.028769"
     y="139.97267" />
  <rect
     style="fill:#000000;fill-opacity:1;stroke:none;stroke-width:4.09352"
     id="rect923"
     width="83.587631"
     height="82.698402"
     x="179.86865"
     y="139.08344" />
  <circle
     style="fill:none;fill-opacity:1;stroke:#000000;stroke-width:4.09352"
     id="path925"
     cx="305.6947"
     cy="135.97112"
     r="25.34306" />
  <circle
     style="fill:none;fill-opacity:1;stroke:#000000;stroke-width:4.09352"
     id="circle929"
     cx="305.6947"
     cy="215.79486"
     r="25.34306" />
  <circle
     style="fill:none;fill-opacity:1;stroke:#000000;stroke-width:4.09352"
     id="circle931"
     cx="305.6947"
     cy="295.61859"
     r="25.34306" />
  <circle
     style="fill:none;fill-opacity:1;stroke:#000000;stroke-width:4.09352"
     id="path933"
     cx="139.8533"
     cy="165.31572"
     r="9.336916" />
  <circle
     style="fill:none;fill-opacity:1;stroke:#000000;stroke-width:4.09352"
     id="circle935"
     cx="123.4792"
     cy="196.01715"
     r="9.336916" />
  <circle
     style="fill:none;fill-opacity:1;stroke:#000000;stroke-width:4.09352"
     id="circle937"
     cx="156.2274"
     cy="196.01715"
     r="9.336916" />
  <rect
     style="fill:none;fill-opacity:1;stroke:#000000;stroke-width:4.09352"
     id="rect939"
     width="32.901516"
     height="31.567669"
     x="42.927208"
     y="99.068077" />
  <rect
     style="fill:none;fill-opacity:1;stroke:#000000;stroke-width:4.09352"
     id="rect941"
     width="32.901516"
     height="31.567669"
     x="42.927208"
     y="230.06087" />
  <rect
     style="fill:none;fill-opacity:1;stroke:#000000;stroke-width:4.09352"
     id="rect943"
     width="32.901516"
     height="31.567669"
     x="204.62146"
     y="99.068077" />
  <rect
     style="fill:none;fill-opacity:1;stroke:#000000;stroke-width:4.09352"
     id="rect945"
     width="32.901516"
     height="31.567669"
     x="204.62146"
     y="230.06087" />
  <rect
     style="fill:none;fill-opacity:1;stroke:#000000;stroke-width:4.09352"
     id="rect947"
     width="202.29985"
     height="42.683048"
     x="38.925674"
     y="279.58179" />
  <path
     style="fill:none;fill-opacity:1;stroke:#000000;stroke-width:4.09352"
     d="m 53.597973,121.29883 6.095357,-10.55747 5.937677,10.28436"
     id="path953" />
  <path
     style="fill:none;fill-opacity:1;stroke:#000000;stroke-width:4.09352"
     d="m 215.2922,121.29883 6.09536,-10.55747 5.93768,10.28436"
     id="path955" />
  <path
     style="fill:none;fill-opacity:1;stroke:#000000;stroke-width:4.09352"
     d="m 53.597973,238.66401 6.095357,10.55747 5.937677,-10.28436"
     id="path957" />
  <path
     style="fill:none;fill-opacity:1;stroke:#000000;stroke-width:4.09352"
     d="m 215.2922,238.66401 6.09536,10.55747 5.93768,-10.28436"
     id="path959" />
  <g
     aria-label="#"
     id="text980"
     style="font-size:73.6204px;line-height:1.25;font-family:'Eras Demi ITC';-inkscape-font-specification:'Eras Demi ITC';fill:#ffffff;stroke-width:1.84051">
    <path
       d="m 46.067775,190.5662 -8.303864,0.0719 q 0.683002,-2.98364 1.222214,-6.32675 l 8.303863,0.0719 1.078424,-6.03917 -1.869268,0.0359 -3.199324,0.036 -3.271219,0.0359 q 0.611107,-2.48037 1.258161,-6.32675 l 8.231969,0.0719 2.660112,-14.9901 q 1.258161,0.0719 3.415009,0.0719 2.26469,0 3.415008,-0.0719 -0.575159,2.98364 -2.803902,15.02604 h 7.51302 l 2.660112,-15.02604 q 1.258161,0.0719 3.415009,0.0719 2.26469,0 3.415008,-0.0719 -0.754896,3.81044 -2.767954,14.9901 7.620862,-0.0719 8.231968,-0.0719 -0.898686,4.06206 -1.222213,6.32675 l -8.231969,-0.10784 -1.078424,6.03917 8.267916,-0.0719 q -0.575159,2.33658 -1.258161,6.32675 l -8.196021,-0.0719 -2.767954,15.70904 q -1.258161,-0.0719 -3.450956,-0.0719 -2.264691,0 -3.379062,0.0719 l 2.947692,-15.74499 -3.846378,-0.0359 -3.666641,0.0359 -2.803902,15.74499 q -1.258161,-0.0719 -3.450956,-0.0719 -2.26469,0 -3.379062,0.0719 z m 8.986865,-12.22214 -1.150319,6.07512 h 7.548967 l 1.114371,-6.07512 -3.810431,-0.036 z"
       style="stroke-width:1.84051"
       id="path989" />
  </g>
  <g
     aria-label="#"
     id="text984"
     style="font-size:73.6204px;line-height:1.25;font-family:'Eras Demi ITC';-inkscape-font-specification:'Eras Demi ITC';fill:#ffffff;stroke-width:1.84051"
     transform="translate(-2)">
    <path
       d="m 210.06777,190.5662 -8.30386,0.0719 q 0.683,-2.98364 1.22221,-6.32675 l 8.30386,0.0719 1.07843,-6.03917 -1.86927,0.0359 -3.19932,0.036 -3.27122,0.0359 q 0.6111,-2.48037 1.25816,-6.32675 l 8.23197,0.0719 2.66011,-14.9901 q 1.25816,0.0719 3.41501,0.0719 2.26469,0 3.41501,-0.0719 -0.57516,2.98364 -2.80391,15.02604 h 7.51302 l 2.66012,-15.02604 q 1.25816,0.0719 3.415,0.0719 2.26469,0 3.41501,-0.0719 -0.75489,3.81044 -2.76795,14.9901 7.62086,-0.0719 8.23197,-0.0719 -0.89869,4.06206 -1.22222,6.32675 l -8.23196,-0.10784 -1.07843,6.03917 8.26792,-0.0719 q -0.57516,2.33658 -1.25816,6.32675 l -8.19602,-0.0719 -2.76796,15.70904 q -1.25816,-0.0719 -3.45096,-0.0719 -2.26469,0 -3.37906,0.0719 l 2.9477,-15.74499 -3.84638,-0.0359 -3.66664,0.0359 -2.80391,15.74499 q -1.25816,-0.0719 -3.45095,-0.0719 -2.26469,0 -3.37906,0.0719 z m 8.98687,-12.22214 -1.15032,6.07512 h 7.54896 l 1.11438,-6.07512 -3.81044,-0.036 z"
       style="stroke-width:1.84051"
       id="path986" />
  </g>
</svg>
