<?xml version="1.0" encoding="UTF-8" standalone="no"?>
<svg
   xmlns:dc="http://purl.org/dc/elements/1.1/"
   xmlns:cc="http://creativecommons.org/ns#"
   xmlns:rdf="http://www.w3.org/1999/02/22-rdf-syntax-ns#"
   xmlns:svg="http://www.w3.org/2000/svg"
   xmlns="http://www.w3.org/2000/svg"
   xmlns:sodipodi="http://sodipodi.sourceforge.net/DTD/sodipodi-0.dtd"
   xmlns:inkscape="http://www.inkscape.org/namespaces/inkscape"
   viewBox="0 0 348 348"
   fill="none"
   version="1.1"
   id="svg831"
   sodipodi:docname="Not Word Search.svg"
   inkscape:version="1.0.1 (3bc2e813f5, 2020-09-07)">
  <metadata
     id="metadata1359">
    <rdf:RDF>
      <cc:Work
         rdf:about="">
        <dc:format>image/svg+xml</dc:format>
        <dc:type
           rdf:resource="http://purl.org/dc/dcmitype/StillImage" />
        <dc:title></dc:title>
      </cc:Work>
    </rdf:RDF>
  </metadata>
  <defs
     id="defs1357">
    <rect
       x="-21.722847"
       y="34.322098"
       width="272.4045"
       height="59.086143"
       id="rect942" />
  </defs>
  <sodipodi:namedview
     pagecolor="#ffffff"
     bordercolor="#666666"
     borderopacity="1"
     objecttolerance="10"
     gridtolerance="10"
     guidetolerance="10"
     inkscape:pageopacity="0"
     inkscape:pageshadow="2"
     inkscape:window-width="1920"
     inkscape:window-height="1001"
     id="namedview1355"
     showgrid="false"
     inkscape:zoom="2.3017241"
     inkscape:cx="172.20826"
     inkscape:cy="199.66324"
     inkscape:window-x="-9"
     inkscape:window-y="-9"
     inkscape:window-maximized="1"
     inkscape:current-layer="svg831"
     inkscape:document-rotation="0" />
  <style
     id="style1281"></style>
  <path
     d="M5.079 5.776h336.913v337.67H5.08z"
     stroke-width="2"
     stroke="#000"
     id="path827" />
  <path
     style="fill:#000000;stroke-width:0.360646"
     d="m 295.02326,56.422327 c -2.64054,-0.441766 -6.65489,-2.572408 -8.62293,-4.576665 -3.09005,-3.14689 -4.55976,-6.673668 -4.55976,-10.941744 0,-9.750606 9.04855,-17.198471 18.87241,-15.533882 12.84767,2.176961 17.91969,17.275457 8.88022,26.4348 -2.35318,2.384362 -4.9132,3.778272 -8.2305,4.481412 -2.63353,0.558193 -3.68193,0.580707 -6.33944,0.136141 z m 8.15086,-2.846728 c 5.27715,-1.97443 8.96862,-7.247388 8.95678,-12.793974 -0.0215,-10.071447 -11.37067,-16.653909 -20.70677,-12.009812 -2.13981,1.064419 -5.00721,3.972978 -6.15689,6.245284 -1.84881,3.654112 -1.6677,8.863364 0.43918,12.633002 1.65048,2.952995 5.74601,5.894071 9.24544,6.639283 2.21547,0.471794 5.91097,0.150921 8.22226,-0.713783 z"
     id="path857"
     sodipodi:nodetypes="sssssssscsssssc" />
  <path
     style="fill:none;fill-opacity:0.547244;stroke:#000000;stroke-width:1.73783"
     d=""
     id="path1453" />
  <rect
     style="fill:none;fill-opacity:0.547244;stroke:#000000;stroke-width:4;stroke-miterlimit:4;stroke-dasharray:none"
     id="rect864"
     width="252.69231"
     height="252.69231"
     x="19.541523"
     y="73.980324"
     ry="24.612888" />
  <rect
     style="fill:none;fill-opacity:0.547244;stroke:#000000;stroke-width:4;stroke-miterlimit:4;stroke-dasharray:none"
     id="rect866"
     width="217.41385"
     height="36.098904"
     x="36.770546"
     y="23.934109"
     ry="18.049452" />
  <rect
     style="fill:none;fill-opacity:0.547244;stroke:#000000;stroke-width:4;stroke-miterlimit:4;stroke-dasharray:none"
     id="rect868"
     width="217.41385"
     height="36.098904"
     x="89.158279"
     y="-324.33115"
     ry="18.049452"
     transform="rotate(90)" />
  <rect
     style="fill:none;fill-opacity:0.547244;stroke:#000000;stroke-width:4;stroke-miterlimit:4;stroke-dasharray:none"
     id="rect870"
     width="236.4402"
     height="236.4402"
     x="27.667574"
     y="82.106377"
     ry="16.947495" />
  <rect
     style="fill:none;fill-opacity:0.547244;stroke:#000000;stroke-width:4;stroke-miterlimit:4;stroke-dasharray:none"
     id="rect872"
     width="220.20549"
     height="220.20549"
     x="35.784931"
     y="90.223732"
     ry="11.439259" />
  <rect
     style="fill:none;fill-opacity:0.547244;stroke:#000000;stroke-width:3.76878;stroke-miterlimit:4;stroke-dasharray:none"
     id="rect874"
     width="203.86072"
     height="20.910034"
     x="43.547112"
     y="31.528542"
     ry="10.455017"
     rx="10.822271" />
  <path
     style="fill:none;fill-opacity:0.547244;stroke:#000000;stroke-width:3.86782;stroke-miterlimit:4;stroke-dasharray:none"
     d="m 73.15991,41.273409 v 42.57678"
     id="path876" />
  <path
     style="fill:none;fill-opacity:0.547244;stroke:#000000;stroke-width:3.86782;stroke-miterlimit:4;stroke-dasharray:none"
     d="m 217.16835,41.273409 v 42.57678"
     id="path878" />
  <path
     style="fill:none;fill-opacity:0.547244;stroke:#000000;stroke-width:3.86782;stroke-miterlimit:4;stroke-dasharray:none"
     d="m 109.16202,41.273409 v 42.57678"
     id="path880" />
  <path
     style="fill:none;fill-opacity:0.547244;stroke:#000000;stroke-width:3.86782;stroke-miterlimit:4;stroke-dasharray:none"
     d="m 145.16413,41.273409 v 42.57678"
     id="path882" />
  <path
     style="fill:none;fill-opacity:0.547244;stroke:#000000;stroke-width:3.86782;stroke-miterlimit:4;stroke-dasharray:none"
     d="m 181.16623,41.273409 v 42.57678"
     id="path884" />
  <path
     style="fill:none;fill-opacity:0.547244;stroke:#000000;stroke-width:3.87694;stroke-miterlimit:4;stroke-dasharray:none"
     d="M 306.78651,126.87819 H 264.20973"
     id="path898" />
  <path
     style="fill:none;fill-opacity:0.547244;stroke:#000000;stroke-width:3.87694;stroke-miterlimit:4;stroke-dasharray:none"
     d="M 306.78651,270.20449 H 264.20973"
     id="path900" />
  <path
     style="fill:none;fill-opacity:0.547244;stroke:#000000;stroke-width:3.87694;stroke-miterlimit:4;stroke-dasharray:none"
     d="M 306.78651,162.70976 H 264.20973"
     id="path902" />
  <path
     style="fill:none;fill-opacity:0.547244;stroke:#000000;stroke-width:3.87694;stroke-miterlimit:4;stroke-dasharray:none"
     d="M 306.78651,198.54134 H 264.20973"
     id="path904" />
  <path
     style="fill:none;fill-opacity:0.547244;stroke:#000000;stroke-width:3.87694;stroke-miterlimit:4;stroke-dasharray:none"
     d="M 306.78651,234.37291 H 264.20973"
     id="path906" />
  <rect
     style="fill:none;fill-opacity:0.547244;stroke:#000000;stroke-width:3.76878;stroke-miterlimit:4;stroke-dasharray:none"
     id="rect912"
     width="203.86072"
     height="20.910034"
     x="95.588783"
     y="-316.68155"
     ry="10.455017"
     rx="10.822271"
     transform="rotate(90)" />
  <g
     aria-label="SBNPLY
VTKDJH
KJCQXR
QDBTSF
PXZCHV
LRYFNZ"
     transform="scale(1.0412612,0.96037386)"
     id="text928"
     style="font-size:44.1471px;line-height:0;font-family:'Eras Demi ITC';-inkscape-font-specification:'Eras Demi ITC';fill:#000000;stroke-width:1.10368">
    <path
       d="m 48.060345,128.1878 q -0.17245,-3.27655 -0.452681,-5.34594 4.225016,1.9185 7.674008,1.9185 1.379596,0 2.565188,-0.40957 1.207147,-0.43112 1.767608,-1.18559 0.582017,-0.77602 0.582017,-1.72449 0,-0.73291 -0.258674,-1.31493 -0.388012,-0.79758 -1.293372,-1.65983 -1.25026,-1.18559 -4.462134,-3.90167 -1.53049,-1.31493 -2.112507,-1.87539 -1.293372,-1.2287 -1.983171,-2.19873 -0.689798,-0.99159 -0.991585,-1.96162 -0.301787,-0.97003 -0.301787,-2.06939 0,-2.02629 1.120923,-3.79389 1.142478,-1.78917 3.384323,-2.780754 2.263401,-1.013141 5.690837,-1.013141 3.082537,0 6.941097,0.754467 0.107781,2.241848 0.431124,5.130378 -3.362768,-1.29337 -6.208186,-1.29337 -2.112508,0 -3.470548,0.97002 -1.336485,0.94848 -1.336485,2.22029 0,0.3449 0.08622,0.73291 0.08623,0.36646 0.258674,0.73291 0.17245,0.3449 0.603574,0.92692 0.45268,0.56046 1.293372,1.33649 0.862248,0.75446 1.465822,1.2287 l 2.996312,2.41429 q 1.013141,0.8407 1.81072,1.63827 0.79758,0.79758 1.358041,1.5305 0.582017,0.73291 0.90536,1.40115 0.323343,0.66824 0.474237,1.3796 0.17245,0.68979 0.17245,1.46582 0,1.81072 -0.840692,3.42743 -0.840692,1.59516 -2.414295,2.62986 -1.573602,1.0347 -3.448992,1.42271 -1.875389,0.40957 -3.966341,0.40957 -1.379597,0 -3.211874,-0.23712 -1.832277,-0.23712 -4.828588,-0.90536 z"
       style="line-height:0.85;text-align:center;letter-spacing:4.42786px;text-anchor:middle;stroke-width:1.10368"
       id="path946" />
    <path
       d="m 75.919794,128.81293 q 0.409568,-4.56992 0.560462,-7.48 0.150893,-2.91009 0.388011,-9.93741 0.237119,-7.02732 0.237119,-9.65718 0,-0.79758 -0.02156,-2.349626 2.716082,0.04311 4.505246,0.04311 1.810721,0 4.462134,-0.06467 2.651412,-0.06467 4.375908,-0.06467 2.414295,0 3.621442,0.215562 1.228704,0.194006 2.177176,0.603569 0.948473,0.40957 1.595159,1.01315 0.646686,0.58201 1.099366,1.40115 0.474237,0.79758 0.689799,1.74605 0.237118,0.92692 0.237118,1.89695 0,1.20714 -0.301787,2.30651 -0.28023,1.07781 -0.840692,1.96161 -0.538905,0.86225 -1.271815,1.48738 -0.732911,0.60358 -1.401153,0.94848 -0.668243,0.34489 -1.789165,0.73291 1.013141,0.21556 1.616715,0.43112 0.603574,0.19401 1.293372,0.62513 0.689798,0.40957 1.293372,1.07781 0.62513,0.64669 0.991585,1.3796 0.366456,0.73291 0.560461,1.63827 0.21556,0.8838 0.21556,1.85383 0,2.0694 -0.905358,3.79389 -0.883804,1.7245 -2.457407,2.73764 -1.573602,0.99159 -3.535217,1.33648 -1.940058,0.32335 -8.277581,0.32335 l -5.2166,-0.0216 z m 7.048878,-17.22341 h 3.470548 q 2.220289,0 2.974756,-0.10778 0.776023,-0.10778 1.616715,-0.40957 0.840692,-0.32334 1.422709,-0.97002 0.582018,-0.66825 0.840692,-1.44427 0.280231,-0.79758 0.280231,-1.61672 0,-0.79757 -0.301787,-1.50893 -0.280231,-0.71135 -0.883804,-1.16403 -0.603574,-0.47424 -1.465822,-0.66825 -0.840692,-0.21556 -2.478963,-0.21556 h -5.173488 z m -0.517349,12.99839 h 4.893258 q 1.487378,0 2.306513,-0.10778 0.840692,-0.12934 1.595159,-0.43112 0.754467,-0.30179 1.185591,-0.64669 0.431124,-0.3449 0.754467,-0.8838 0.344899,-0.53891 0.538905,-1.20715 0.194006,-0.6898 0.194006,-1.42271 0,-0.99158 -0.344899,-1.74605 -0.3449,-0.75447 -1.034698,-1.29337 -0.668242,-0.56047 -1.573603,-0.79758 -0.90536,-0.25868 -2.759193,-0.25868 h -5.432163 z"
       style="line-height:0.85;text-align:center;letter-spacing:4.42786px;text-anchor:middle;stroke-width:1.10368"
       id="path948" />
    <path
       d="m 109.16829,128.81293 q 0.40957,-3.85856 0.62513,-8.6656 l 0.4958,-10.56253 q 0.25867,-5.73395 0.25867,-10.196086 2.50052,0.04311 4.24657,0.04311 1.29337,0 3.77234,-0.04311 2.43585,4.246576 6.72553,11.079886 4.28968,6.83332 6.91954,11.31701 l 0.79758,-20.00416 q 0.0216,-0.71135 0.0216,-2.392736 2.02628,0.04311 3.06098,0.04311 0.40956,0 3.01787,-0.04311 l -0.53891,7.911126 -0.66824,13.53729 -0.25868,7.9758 q -2.24184,-0.0431 -3.81544,-0.0431 -1.25026,0 -4.05257,0.0431 -1.07781,-1.9185 -1.63827,-2.84542 -0.88381,-1.42271 -3.77234,-5.86329 -1.89694,-2.93164 -4.74236,-7.50156 -2.09095,-3.36276 -3.57833,-5.86328 -0.17245,3.4921 -0.5389,12.95527 -0.1509,3.85856 -0.23712,9.11828 -2.02629,-0.0431 -2.93165,-0.0431 -0.71135,0 -3.16876,0.0431 z"
       style="line-height:0.85;text-align:center;letter-spacing:4.42786px;text-anchor:middle;stroke-width:1.10368"
       id="path950" />
    <path
       d="m 148.36631,128.81293 0.38801,-5.10882 0.53891,-11.31701 0.25867,-8.21291 q 0.0216,-1.12092 0.0216,-2.2634 0,-0.84069 -0.0216,-2.522076 2.75919,0.04311 4.48369,0.04311 1.3796,0 3.837,-0.06467 2.45741,-0.06467 3.90168,-0.06467 2.97475,0 4.3759,0.431124 1.48738,0.474237 2.6083,1.487377 1.12093,1.01314 1.70294,2.43585 0.64669,1.59516 0.64669,3.42744 0,2.78075 -1.40115,5.0657 -1.3796,2.26341 -3.83701,3.38433 -2.4574,1.12092 -5.45372,1.12092 -1.46582,0 -3.12564,-0.30179 -0.47424,-2.24184 -1.07781,-4.20346 1.33648,0.28023 2.65141,0.28023 1.78916,0 3.10409,-0.5389 1.31493,-0.53891 2.09095,-1.74605 0.77603,-1.22871 0.77603,-2.7592 0,-0.90536 -0.32335,-1.65982 -0.32334,-0.75447 -0.94847,-1.20715 -0.60357,-0.45268 -1.35804,-0.60357 -0.73291,-0.17245 -2.11251,-0.17245 -1.20715,0 -2.43585,0.0431 -1.2287,0.0431 -2.17718,0.0431 -0.25867,4.22502 -0.38801,8.08358 l -0.25867,8.23446 q -0.12934,4.37591 -0.12934,6.42375 0,0.77603 0.0216,2.24185 l -3.12565,-0.0431 q -0.60357,0 -3.23343,0.0431 z"
       style="line-height:0.85;text-align:center;letter-spacing:4.42786px;text-anchor:middle;stroke-width:1.10368"
       id="path952" />
    <path
       d="m 178.59693,128.81293 q 0.64669,-6.48842 1.0347,-14.44266 0.38801,-7.97579 0.45268,-14.981556 2.19873,0.04311 3.66455,0.04311 0.99159,0 3.16877,-0.04311 -0.28024,3.880116 -0.51735,8.838046 l -0.43113,8.64403 q -0.194,3.70767 -0.28023,7.37222 l 3.70767,0.0431 q 5.2166,0 6.85487,-0.0216 1.63827,-0.0431 3.23343,-0.12934 -0.19401,2.11251 -0.3449,4.6777 -5.66928,-0.0431 -9.70029,-0.0431 l -6.7902,0.0216 z"
       style="line-height:0.85;text-align:center;letter-spacing:4.42786px;text-anchor:middle;stroke-width:1.10368"
       id="path954" />
    <path
       d="m 212.85857,128.81293 q 0.25868,-2.39274 0.51735,-6.2513 0.28023,-3.85856 0.32334,-6.14352 l -9.65717,-17.029396 q 2.43585,0.04311 3.79389,0.04311 1.29337,0 3.44899,-0.04311 0.97003,2.241846 2.82386,5.690836 1.85383,3.42744 3.19032,6.29441 l 6.40219,-10.34698 q 0.32334,-0.5389 0.94847,-1.638266 2.09096,0.04311 3.70767,0.04311 0.84069,0 3.47055,-0.04311 l -11.76969,17.482076 -0.25867,5.45372 q -0.12934,2.4143 -0.19401,6.48842 -2.30651,-0.0431 -3.36276,-0.0431 -1.07781,0 -3.38433,0.0431 z"
       style="line-height:0.85;text-align:center;letter-spacing:4.42786px;text-anchor:middle;stroke-width:1.10368"
       id="path956" />
    <path
       d="m 50.506973,166.33796 -0.819135,-2.71608 q -0.17245,-0.5389 -1.42271,-4.11723 l -4.181902,-11.89903 -3.837004,-10.69187 q 2.220288,0.0431 3.68611,0.0431 0.905361,0 3.168762,-0.0431 l 0.668242,2.39274 q 0.215562,0.73291 0.62513,1.98317 l 5.2166,15.80069 q 0.474237,1.53049 1.228704,4.03101 l 1.164034,-2.62985 q 0.431124,-0.97003 1.789165,-3.7939 l 6.790203,-14.18398 q 0.301787,-0.62513 0.603574,-1.31492 0.301787,-0.71136 0.948473,-2.28496 2.349625,0.0431 3.578329,0.0431 0.732911,0 3.384323,-0.0431 l -1.853833,3.44899 -11.791242,23.2807 -1.250259,2.69452 q -2.802306,-0.0431 -3.750779,-0.0431 -0.840692,0 -3.944785,0.0431 z"
       style="line-height:0.85;text-align:center;letter-spacing:4.42786px;text-anchor:middle;stroke-width:1.10368"
       id="path958" />
    <path
       d="m 84.509939,166.33796 0.474236,-6.29441 0.474237,-9.37695 0.301786,-9.22605 h -1.508934 l -1.401153,0.0216 -1.336484,0.0215 -4.979482,0.1509 q 0.172449,-3.1041 0.194005,-4.72081 6.208186,0.0431 12.998389,0.0431 l 7.738676,-0.0216 4.138795,-0.0216 q -0.21557,3.03942 -0.21557,4.67769 -3.901669,-0.194 -7.479998,-0.194 h -1.659827 l -0.258675,3.94478 -0.625129,15.17557 -0.04311,2.54363 q -0.02156,1.5736 -0.02156,3.27654 l -3.276543,-0.0431 q -0.538905,0 -3.51366,0.0431 z"
       style="line-height:0.85;text-align:center;letter-spacing:4.42786px;text-anchor:middle;stroke-width:1.10368"
       id="path960" />
    <path
       d="m 108.10126,166.33796 q 0.36646,-4.22501 0.53891,-7.28599 0.25867,-4.37591 0.58201,-12.37326 0.21557,-5.47528 0.21557,-7.76023 v -2.00473 q 2.67297,0.0431 3.51366,0.0431 0.56046,0 3.31965,-0.0431 l -0.66824,11.64035 -0.58202,13.94686 -0.0647,3.837 -3.34121,-0.0431 q -0.60357,0 -3.51366,0.0431 z m 7.8249,-15.56357 4.89326,-6.01418 4.46213,-5.66929 q 0.47424,-0.62513 1.59516,-2.17717 l 3.88012,0.0431 q 0.23712,0 3.70767,-0.0431 l -9.91586,11.6619 -1.68138,2.09095 1.35804,1.94006 q 0.30179,0.40957 4.26813,5.60461 l 6.27285,8.12669 -3.837,-0.0431 q -1.01314,0 -4.20346,0.0431 l -1.3796,-2.15562 q -0.38801,-0.62513 -1.37959,-2.04784 l -5.86329,-8.3638 z"
       style="line-height:0.85;text-align:center;letter-spacing:4.42786px;text-anchor:middle;stroke-width:1.10368"
       id="path962" />
    <path
       d="m 142.1689,166.33796 0.58202,-7.50156 0.43112,-9.37694 0.28023,-9.33384 q 0.0216,-0.60357 0.0216,-3.21187 2.39274,0.0431 4.50524,0.0431 1.57361,0 4.13879,-0.0647 2.58675,-0.0647 4.46214,-0.0647 2.54363,0 4.69925,0.30179 2.17718,0.30179 3.79389,1.14248 1.61672,0.81913 2.80231,2.06939 1.18559,1.25026 1.94006,2.78075 0.75446,1.50894 1.14247,3.38433 0.40957,1.85383 0.40957,3.79389 0,3.70767 -1.29337,7.07043 -1.27182,3.34121 -3.81545,5.53995 -2.54363,2.17717 -5.64772,2.8023 -3.08254,0.62513 -7.00577,0.62513 l -7.32911,-0.0431 q -0.68979,0 -4.11723,0.0431 z m 6.61775,-4.59147 q 1.76761,0.0862 3.49211,0.0862 1.96161,0 3.62144,-0.19401 1.68138,-0.19401 2.88853,-0.60357 1.20715,-0.43113 2.41429,-1.48738 1.22871,-1.05625 2.00473,-2.43585 0.77602,-1.40115 1.18559,-3.10409 0.40957,-1.70294 0.40957,-3.47055 0,-3.23343 -1.09937,-5.30283 -1.09936,-2.09095 -2.91008,-2.99631 -1.78917,-0.92692 -5.53995,-0.92692 -2.43585,0 -5.58305,0.0862 z"
       style="line-height:0.85;text-align:center;letter-spacing:4.42786px;text-anchor:middle;stroke-width:1.10368"
       id="path964" />
    <path
       d="m 176.797,165.86373 q -0.12934,-2.47897 -0.38801,-5.15194 2.34962,0.77603 3.68611,1.05626 1.35804,0.28023 2.6083,0.28023 1.01314,0 1.96161,-0.28023 0.84069,-0.23712 1.48738,-0.62513 0.47423,-0.32335 0.79758,-0.71136 0.47423,-0.56046 0.77602,-1.29337 0.30179,-0.77602 0.47424,-2.11251 0.23712,-1.7676 0.40956,-5.86328 0.12934,-3.21188 0.23712,-7.19977 0.0862,-3.34122 0.0862,-7.04888 2.56519,0.0431 3.2981,0.0431 0.86224,0 3.44899,-0.0431 l -0.58202,9.24761 q -0.17245,3.34121 -0.36645,9.16138 -0.12934,3.9879 -0.43113,5.45372 -0.21556,1.12092 -0.66824,1.98317 -0.40957,0.77603 -1.01314,1.3796 -0.71136,0.6898 -1.7245,1.2287 -1.31493,0.71136 -2.8023,1.05626 -1.65983,0.40956 -3.59989,0.40956 -3.2981,0 -7.69556,-0.97002 z"
       style="line-height:0.85;text-align:center;letter-spacing:4.42786px;text-anchor:middle;stroke-width:1.10368"
       id="path966" />
    <path
       d="m 204.93668,166.33796 0.49579,-7.73867 q 0.40957,-6.33753 0.58202,-11.74813 0.17245,-5.43217 0.17245,-7.56623 l -0.0216,-2.37118 q 2.54363,0.0431 3.59989,0.0431 0.79758,0 3.25498,-0.0431 l -0.56046,9.72184 -0.0647,2.24185 14.70133,-0.0216 0.25868,-5.82017 q 0.0862,-2.99631 0.0862,-3.94479 v -2.17717 l 3.59989,0.0431 q 0.47423,0 3.23343,-0.0431 l -0.71136,11.74813 -0.32334,8.7087 -0.0862,5.10882 q -0.0431,3.14721 -0.0431,3.85856 l -3.36276,-0.0431 q -0.62513,0 -3.57833,0.0431 0.56046,-6.1004 0.71135,-12.82594 h -14.72288 l -0.30179,7.93268 -0.0862,4.89326 -3.53522,-0.0431 q -0.58202,0 -3.2981,0.0431 z"
       style="line-height:0.85;text-align:center;letter-spacing:4.42786px;text-anchor:middle;stroke-width:1.10368"
       id="path968" />
    <path
       d="m 43.598211,203.863 q 0.366455,-4.22502 0.538905,-7.286 0.258674,-4.37591 0.582017,-12.37326 0.215562,-5.47527 0.215562,-7.76023 v -2.00473 q 2.672969,0.0431 3.513661,0.0431 0.560461,0 3.319655,-0.0431 l -0.668242,11.64035 -0.582018,13.94686 -0.06467,3.83701 -3.341211,-0.0431 q -0.603574,0 -3.513661,0.0431 z m 7.824901,-15.56358 4.893257,-6.01418 4.462134,-5.66928 q 0.474236,-0.62513 1.595159,-2.17718 l 3.880116,0.0431 q 0.237118,0 3.707666,-0.0431 l -9.915852,11.66191 -1.681384,2.09095 1.358041,1.94006 q 0.301787,0.40956 4.268128,5.60461 l 6.272854,8.12669 -3.837004,-0.0431 q -1.013141,0 -4.203459,0.0431 l -1.379597,-2.15562 q -0.388011,-0.62513 -1.379596,-2.04784 l -5.863287,-8.36381 z"
       style="line-height:0.85;text-align:center;letter-spacing:4.42786px;text-anchor:middle;stroke-width:1.10368"
       id="path970" />
    <path
       d="m 74.540196,203.38876 q -0.129337,-2.47896 -0.388012,-5.15193 2.349626,0.77602 3.686111,1.05625 1.35804,0.28023 2.6083,0.28023 1.013141,0 1.961614,-0.28023 0.840692,-0.23712 1.487378,-0.62513 0.474236,-0.32334 0.797579,-0.71135 0.474237,-0.56046 0.776024,-1.29337 0.301786,-0.77603 0.474236,-2.11251 0.237118,-1.76761 0.409568,-5.86329 0.129337,-3.21187 0.237118,-7.19977 0.08622,-3.34121 0.08622,-7.04888 2.565188,0.0431 3.298098,0.0431 0.862248,0 3.448992,-0.0431 l -0.582017,9.24761 q -0.17245,3.34121 -0.366455,9.16139 -0.129338,3.9879 -0.431124,5.45372 -0.215562,1.12092 -0.668243,1.98317 -0.409567,0.77602 -1.013141,1.37959 -0.711355,0.6898 -1.724496,1.22871 -1.314928,0.71135 -2.802306,1.05625 -1.659828,0.40957 -3.599886,0.40957 -3.298098,0 -7.695563,-0.97003 z"
       style="line-height:0.85;text-align:center;letter-spacing:4.42786px;text-anchor:middle;stroke-width:1.10368"
       id="path972" />
    <path
       d="m 126.71504,198.47395 q -0.47423,2.52207 -0.81913,5.13037 -2.45741,0.43113 -4.50525,0.60358 -2.04784,0.17245 -3.51366,0.17245 -3.23343,0 -6.18663,-0.90536 -2.93164,-0.90537 -5.30282,-2.84542 -2.34963,-1.96162 -3.40588,-4.74237 -1.05626,-2.78075 -1.05626,-6.07885 0,-3.57833 1.27182,-6.61775 1.27181,-3.03942 3.643,-5.13038 2.39273,-2.09095 5.64772,-3.10409 3.25499,-1.0347 6.7902,-1.0347 3.49211,0 7.6309,0.79758 0.0647,1.91851 0.12934,2.71609 l 0.15089,2.30651 q -2.43585,-0.64669 -4.05257,-0.88381 -1.61671,-0.23711 -3.08253,-0.23711 -2.30652,0 -4.44058,0.71135 -2.11251,0.6898 -3.75078,2.22029 -1.61672,1.53049 -2.50052,3.70767 -0.86225,2.15562 -0.86225,4.50524 0,2.80231 1.07781,5.0226 1.07781,2.22029 3.44899,3.59988 2.39274,1.3796 5.9064,1.3796 3.25499,0 7.78179,-1.29337 z"
       style="line-height:0.85;text-align:center;letter-spacing:4.42786px;text-anchor:middle;stroke-width:1.10368"
       id="path974" />
    <path
       d="m 168.8878,198.23683 q -0.28023,1.29337 -0.51734,2.58674 l -0.40957,2.34963 q -3.77234,0.56046 -8.12669,0.8838 -4.3328,0.32335 -7.39378,0.32335 -3.57833,0 -6.72553,-0.77603 -3.12565,-0.79758 -5.62617,-2.75919 -2.50052,-1.96162 -3.79389,-4.72081 -1.29337,-2.75919 -1.29337,-6.38063 0,-3.59989 1.25026,-6.57465 1.27181,-2.97475 3.70766,-5.10882 2.43585,-2.13406 5.64773,-3.12564 3.23343,-1.01315 6.83331,-1.01315 3.25499,0 6.27286,0.94848 3.01787,0.92691 5.19504,2.91008 2.17718,1.96162 3.34121,4.72081 1.16404,2.7592 1.16404,5.73395 0,1.50894 -0.30179,2.9532 -0.30179,1.44427 -0.86225,2.75919 -0.56046,1.31493 -1.27181,2.28496 -0.71136,0.97003 -1.46582,1.68139 -0.73291,0.71135 -1.78917,1.5736 2.0694,-0.23712 2.9532,-0.40957 0.88381,-0.19401 3.21187,-0.84069 z m -16.74916,-19.70237 q -3.12565,0 -5.66928,1.46582 -2.52208,1.44427 -3.81545,4.07412 -1.29337,2.60831 -1.29337,5.49684 0,3.23343 1.31492,5.49683 1.31493,2.2634 3.62145,3.44899 2.32807,1.16403 5.08726,1.16403 2.97476,0 5.45372,-1.35804 2.50052,-1.35804 3.75078,-3.90167 1.27181,-2.56519 1.27181,-5.71239 0,-2.28496 -0.66824,-4.16035 -0.66824,-1.89694 -1.94006,-3.23343 -1.25026,-1.35804 -3.1472,-2.06939 -1.89695,-0.71136 -3.96634,-0.71136 z"
       style="line-height:0.85;text-align:center;letter-spacing:4.42786px;text-anchor:middle;stroke-width:1.10368"
       id="path976" />
    <path
       d="m 173.42344,203.863 1.59516,-2.00473 q 0.75447,-0.92692 2.56519,-3.2981 l 5.82017,-7.65245 1.83228,-2.54363 -2.62985,-4.24657 -6.35908,-9.67874 q 2.1125,0.0431 4.05256,0.0431 1.55205,0 3.55678,-0.0431 1.37959,2.54363 3.12564,5.28127 1.76761,2.73764 2.71609,4.48369 1.18559,-1.81072 3.36276,-4.76392 2.17718,-2.97475 3.40588,-5.00104 1.76761,0.0431 3.57833,0.0431 1.16404,0 3.57833,-0.0431 -1.70294,2.30652 -4.82859,6.35908 -3.10409,4.03101 -5.9064,7.93268 2.93165,4.85015 9.74341,15.13246 -2.52208,-0.0431 -3.66456,-0.0431 -1.85383,0 -3.9879,0.0431 -1.20714,-2.28496 -3.25498,-5.5615 -2.04784,-3.27655 -3.23343,-5.3675 -1.20715,1.83228 -3.59989,5.04415 -2.37118,3.21188 -4.16034,5.88485 -2.34963,-0.0431 -3.57833,-0.0431 -1.35804,0 -3.72923,0.0431 z"
       style="line-height:0.85;text-align:center;letter-spacing:4.42786px;text-anchor:middle;stroke-width:1.10368"
       id="path978" />
    <path
       d="m 210.09938,203.863 q 0.64669,-6.42375 0.97003,-14.766 0.32334,-8.34225 0.32334,-14.65822 2.58675,0.0431 4.3328,0.0431 1.87539,0 3.66455,-0.0647 1.81072,-0.0647 3.81545,-0.0647 2.50052,0 4.46213,0.28023 1.98317,0.28023 3.51366,1.29337 1.53049,1.01314 2.2634,2.45741 0.75447,1.44426 0.75447,3.36277 0,1.20714 -0.28023,2.30651 -0.28023,1.07781 -0.84069,2.04784 -0.53891,0.94847 -1.29337,1.68138 -0.75447,0.71136 -1.50894,1.14248 -0.73291,0.40957 -1.68138,0.71135 -0.94847,0.30179 -2.54363,0.73292 l 1.46582,2.84541 q 0.71135,1.35804 2.69452,4.87171 l 2.17718,3.81544 q 0.17245,0.30179 1.0347,1.96162 -2.62986,-0.0431 -3.47055,-0.0431 -1.0347,0 -3.643,0.0431 l -2.39274,-5.73395 q -0.62513,-1.31493 -1.50893,-3.1041 l -2.6083,-5.23815 q -0.38801,-0.73291 -1.07781,-2.19873 1.44427,0.25867 2.62986,0.25867 1.85383,0 3.38432,-0.60357 1.53049,-0.60358 2.34963,-1.85384 0.81913,-1.27181 0.81913,-2.75919 0,-0.90536 -0.36645,-1.68138 -0.3449,-0.77603 -1.1856,-1.31493 -0.84069,-0.53891 -2.00472,-0.6898 -1.16404,-0.15089 -2.32807,-0.15089 -0.64669,0 -1.76761,0.0216 -1.12092,0.0216 -2.75919,0.0216 l -0.38802,8.8596 -0.40956,16.16715 -3.34121,-0.0431 q -0.79758,0 -3.25499,0.0431 z"
       style="line-height:0.85;text-align:center;letter-spacing:4.42786px;text-anchor:middle;stroke-width:1.10368"
       id="path980" />
    <path
       d="m 76.503751,235.76186 q -0.280231,1.29338 -0.517349,2.58675 l -0.409568,2.34962 q -3.772335,0.56046 -8.126687,0.88381 -4.332796,0.32334 -7.393777,0.32334 -3.578329,0 -6.725534,-0.77602 -3.12565,-0.79758 -5.626169,-2.7592 -2.500519,-1.96161 -3.793891,-4.7208 -1.293372,-2.7592 -1.293372,-6.38064 0,-3.59989 1.25026,-6.57464 1.271815,-2.97476 3.707666,-5.10882 2.435851,-2.13406 5.647725,-3.12565 3.23343,-1.01314 6.833315,-1.01314 3.254986,0 6.272854,0.94847 3.017868,0.92692 5.195045,2.91009 2.177176,1.96161 3.341211,4.72081 1.164035,2.75919 1.164035,5.73395 0,1.50893 -0.301787,2.9532 -0.301787,1.44426 -0.862248,2.75919 -0.560461,1.31493 -1.271816,2.28496 -0.711355,0.97003 -1.465822,1.68138 -0.73291,0.71135 -1.789164,1.5736 2.069395,-0.23712 2.953199,-0.40956 0.883804,-0.19401 3.211874,-0.8407 z M 59.754583,216.0595 q -3.125649,0 -5.66928,1.46582 -2.522076,1.44426 -3.815448,4.07412 -1.293372,2.6083 -1.293372,5.49683 0,3.23343 1.314928,5.49683 1.314928,2.2634 3.621442,3.44899 2.32807,1.16404 5.087263,1.16404 2.974756,0 5.453719,-1.35804 2.500519,-1.35804 3.750779,-3.90167 1.271816,-2.56519 1.271816,-5.7124 0,-2.28495 -0.668243,-4.16034 -0.668242,-1.89695 -1.940058,-3.23343 -1.250259,-1.35804 -3.147205,-2.0694 -1.896946,-0.71135 -3.966341,-0.71135 z"
       style="line-height:0.85;text-align:center;letter-spacing:4.42786px;text-anchor:middle;stroke-width:1.10368"
       id="path982" />
    <path
       d="m 85.070404,241.38803 0.582017,-7.50156 0.431124,-9.37694 0.280231,-9.33384 q 0.02156,-0.60357 0.02156,-3.21187 2.392738,0.0431 4.505246,0.0431 1.573602,0 4.13879,-0.0647 2.586744,-0.0647 4.462134,-0.0647 2.543628,0 4.699248,0.30179 2.17718,0.30179 3.79389,1.14248 1.61672,0.81913 2.80231,2.06939 1.18559,1.25026 1.94006,2.78075 0.75447,1.50894 1.14248,3.38433 0.40957,1.85383 0.40957,3.79389 0,3.70767 -1.29338,7.07043 -1.27181,3.34121 -3.81544,5.53995 -2.54364,2.17717 -5.64773,2.8023 -3.08254,0.62513 -7.005764,0.62513 l -7.329108,-0.0431 q -0.689798,0 -4.117234,0.0431 z m 6.617753,-4.59147 q 1.767609,0.0862 3.492105,0.0862 1.961614,0 3.621441,-0.19401 1.681387,-0.19401 2.888527,-0.60357 1.20715,-0.43113 2.4143,-1.48738 1.2287,-1.05626 2.00473,-2.43585 0.77602,-1.40116 1.18559,-3.10409 0.40956,-1.70294 0.40956,-3.47055 0,-3.23343 -1.09936,-5.30283 -1.09937,-2.09095 -2.91009,-2.99631 -1.78916,-0.92692 -5.539943,-0.92692 -2.43585,0 -5.583056,0.0862 z"
       style="line-height:0.85;text-align:center;letter-spacing:4.42786px;text-anchor:middle;stroke-width:1.10368"
       id="path984" />
    <path
       d="m 122.8457,241.38803 q 0.40957,-4.56991 0.56046,-7.48 0.1509,-2.91009 0.38801,-9.93741 0.23712,-7.02732 0.23712,-9.65718 0,-0.79758 -0.0216,-2.34962 2.71608,0.0431 4.50524,0.0431 1.81072,0 4.46214,-0.0647 2.65141,-0.0647 4.3759,-0.0647 2.4143,0 3.62145,0.21557 1.2287,0.194 2.17717,0.60357 0.94848,0.40957 1.59516,1.01314 0.64669,0.58202 1.09937,1.40115 0.47423,0.79758 0.6898,1.74606 0.23711,0.92691 0.23711,1.89694 0,1.20715 -0.30178,2.30651 -0.28023,1.07781 -0.84069,1.96162 -0.53891,0.86225 -1.27182,1.48738 -0.73291,0.60357 -1.40115,0.94847 -0.66825,0.3449 -1.78917,0.73291 1.01314,0.21556 1.61672,0.43112 0.60357,0.19401 1.29337,0.62513 0.6898,0.40957 1.29337,1.07781 0.62513,0.64669 0.99159,1.3796 0.36645,0.73291 0.56046,1.63827 0.21556,0.88381 0.21556,1.85384 0,2.06939 -0.90536,3.79389 -0.8838,1.72449 -2.45741,2.73763 -1.5736,0.99159 -3.53521,1.33649 -1.94006,0.32334 -8.27759,0.32334 l -5.2166,-0.0215 z m 7.04888,-17.2234 h 3.47055 q 2.22029,0 2.97475,-0.10778 0.77603,-0.10778 1.61672,-0.40957 0.84069,-0.32334 1.42271,-0.97003 0.58202,-0.66824 0.84069,-1.44427 0.28023,-0.79758 0.28023,-1.61671 0,-0.79758 -0.30179,-1.50893 -0.28023,-0.71136 -0.8838,-1.16404 -0.60357,-0.47424 -1.46582,-0.66824 -0.84069,-0.21556 -2.47897,-0.21556 h -5.17348 z m -0.51735,12.99839 h 4.89326 q 1.48738,0 2.30651,-0.10778 0.84069,-0.12934 1.59516,-0.43113 0.75447,-0.30179 1.18559,-0.64668 0.43113,-0.3449 0.75447,-0.88381 0.3449,-0.5389 0.5389,-1.20715 0.19401,-0.68979 0.19401,-1.42271 0,-0.99158 -0.3449,-1.74605 -0.3449,-0.75446 -1.0347,-1.29337 -0.66824,-0.56046 -1.5736,-0.79758 -0.90536,-0.25867 -2.75919,-0.25867 h -5.43217 z"
       style="line-height:0.85;text-align:center;letter-spacing:4.42786px;text-anchor:middle;stroke-width:1.10368"
       id="path986" />
    <path
       d="m 162.36706,241.38803 0.47424,-6.29441 0.47424,-9.37695 0.30178,-9.22605 h -1.50893 l -1.40116,0.0216 -1.33648,0.0215 -4.97948,0.1509 q 0.17245,-3.1041 0.194,-4.72081 6.20819,0.0431 12.99839,0.0431 l 7.73868,-0.0216 4.13879,-0.0215 q -0.21556,3.03942 -0.21556,4.67769 -3.90167,-0.194 -7.48,-0.194 h -1.65983 l -0.25868,3.94478 -0.62513,15.17557 -0.0431,2.54363 q -0.0215,1.5736 -0.0215,3.27654 l -3.27655,-0.0431 q -0.5389,0 -3.51366,0.0431 z"
       style="line-height:0.85;text-align:center;letter-spacing:4.42786px;text-anchor:middle;stroke-width:1.10368"
       id="path988" />
    <path
       d="m 185.20391,240.7629 q -0.17244,-3.27654 -0.45268,-5.34594 4.22502,1.91851 7.67401,1.91851 1.3796,0 2.56519,-0.40957 1.20715,-0.43113 1.76761,-1.18559 0.58202,-0.77603 0.58202,-1.7245 0,-0.73291 -0.25868,-1.31493 -0.38801,-0.79758 -1.29337,-1.65982 -1.25026,-1.1856 -4.46213,-3.90168 -1.53049,-1.31493 -2.11251,-1.87539 -1.29337,-1.2287 -1.98317,-2.19873 -0.6898,-0.99158 -0.99159,-1.96161 -0.30178,-0.97003 -0.30178,-2.0694 0,-2.02628 1.12092,-3.79389 1.14248,-1.78916 3.38432,-2.78075 2.2634,-1.01314 5.69084,-1.01314 3.08254,0 6.9411,0.75447 0.10778,2.24184 0.43112,5.13037 -3.36277,-1.29337 -6.20819,-1.29337 -2.1125,0 -3.47054,0.97003 -1.33649,0.94847 -1.33649,2.22029 0,0.3449 0.0862,0.73291 0.0862,0.36645 0.25867,0.73291 0.17245,0.3449 0.60357,0.92692 0.45268,0.56046 1.29338,1.33648 0.86224,0.75447 1.46582,1.2287 l 2.99631,2.4143 q 1.01314,0.84069 1.81072,1.63827 0.79758,0.79758 1.35804,1.53049 0.58202,0.73291 0.90536,1.40115 0.32334,0.66824 0.47424,1.3796 0.17245,0.6898 0.17245,1.46582 0,1.81072 -0.84069,3.42744 -0.8407,1.59516 -2.4143,2.62985 -1.5736,1.0347 -3.44899,1.42271 -1.87539,0.40957 -3.96634,0.40957 -1.3796,0 -3.21188,-0.23712 -1.83227,-0.23712 -4.82859,-0.90536 z"
       style="line-height:0.85;text-align:center;letter-spacing:4.42786px;text-anchor:middle;stroke-width:1.10368"
       id="path990" />
    <path
       d="m 213.06337,241.38803 q 0.38801,-4.22501 0.51735,-6.7902 0.23712,-4.28969 0.49579,-12.28704 0.19401,-5.90639 0.19401,-8.34225 v -2.00472 q 6.18663,0.0431 10.82121,0.0431 l 6.03573,-0.0216 3.59989,-0.0215 q -0.23712,3.21187 -0.25867,4.65614 l -3.08254,-0.10778 -1.25026,-0.0216 h -1.68138 -3.27655 l -4.46213,0.0216 -0.25867,7.73867 3.66455,0.0647 q 4.1819,0 5.36749,-0.0216 l 2.93165,-0.0431 q -0.1509,2.50052 -0.19401,4.56992 -3.75078,-0.0862 -5.97107,-0.0862 -2.8023,0 -6.05729,0.0862 l -0.23712,9.52784 -0.0216,1.94006 v 1.09936 l -3.2981,-0.0431 q -0.25868,0 -3.57833,0.0431 z"
       style="line-height:0.85;text-align:center;letter-spacing:4.42786px;text-anchor:middle;stroke-width:1.10368"
       id="path992" />
    <path
       d="m 41.809046,278.91307 0.388012,-5.10882 0.538905,-11.31701 0.258674,-8.21291 q 0.02156,-1.12092 0.02156,-2.2634 0,-0.84069 -0.02156,-2.52208 2.759194,0.0431 4.48369,0.0431 1.379597,0 3.837004,-0.0647 2.457407,-0.0647 3.901672,-0.0647 2.974756,0 4.375909,0.43112 1.487378,0.47424 2.6083,1.48738 1.120922,1.01314 1.70294,2.43585 0.646686,1.59516 0.646686,3.42744 0,2.78075 -1.401153,5.0657 -1.379597,2.2634 -3.837004,3.38433 -2.457407,1.12092 -5.453719,1.12092 -1.465821,0 -3.125649,-0.30179 -0.474236,-2.24184 -1.07781,-4.20346 1.336485,0.28023 2.651413,0.28023 1.789165,0 3.104093,-0.5389 1.314928,-0.53891 2.090951,-1.74605 0.776024,-1.22871 0.776024,-2.7592 0,-0.90536 -0.323343,-1.65982 -0.323343,-0.75447 -0.948473,-1.20715 -0.603574,-0.45268 -1.358041,-0.60358 -0.732911,-0.17244 -2.112508,-0.17244 -1.207147,0 -2.43585,0.0431 -1.228704,0.0431 -2.177176,0.0431 -0.258675,4.22502 -0.388012,8.08358 l -0.258674,8.23446 q -0.129338,4.37591 -0.129338,6.42375 0,0.77602 0.02156,2.24185 l -3.12565,-0.0431 q -0.603573,0 -3.23343,0.0431 z"
       style="line-height:0.85;text-align:center;letter-spacing:4.42786px;text-anchor:middle;stroke-width:1.10368"
       id="path994" />
    <path
       d="m 68.181119,278.91307 1.595159,-2.00473 q 0.754467,-0.92692 2.565188,-3.2981 l 5.820174,-7.65245 1.832277,-2.54363 -2.629856,-4.24657 -6.359079,-9.67874 q 2.112507,0.0431 4.052565,0.0431 1.552047,0 3.556773,-0.0431 1.379597,2.54363 3.12565,5.28127 1.767608,2.73764 2.716081,4.48369 1.185591,-1.81072 3.362767,-4.76392 2.177176,-2.97475 3.40588,-5.00104 1.767608,0.0431 3.578329,0.0431 1.164035,0 3.578329,-0.0431 -1.70294,2.30652 -4.828589,6.35908 -3.104092,4.03101 -5.906399,7.93268 2.931644,4.85015 9.743403,15.13246 -2.522075,-0.0431 -3.664554,-0.0431 -1.853833,0 -3.987897,0.0431 -1.207147,-2.28496 -3.254986,-5.5615 -2.047839,-3.27655 -3.23343,-5.3675 -1.207148,1.83228 -3.599886,5.04415 -2.371182,3.21188 -4.160347,5.88485 -2.349625,-0.0431 -3.578329,-0.0431 -1.358041,0 -3.729223,0.0431 z"
       style="line-height:0.85;text-align:center;letter-spacing:4.42786px;text-anchor:middle;stroke-width:1.10368"
       id="path996" />
    <path
       d="m 103.32656,278.91307 q 0.19401,-2.93165 0.21556,-4.8717 l 1.01315,-1.12093 q 0.0647,-0.0647 1.83227,-2.19873 l 10.56254,-12.65349 3.34121,-4.13879 -1.42271,-0.0216 h -0.5389 l -1.87539,-0.0215 h -3.27654 q -4.05257,0 -7.91113,0.23712 0.12934,-1.68139 0.12934,-3.62145 0,-0.36645 -0.0216,-1.01314 5.62617,0.0431 11.94214,0.0431 l 7.19977,-0.0216 3.92323,-0.0216 q -0.17245,2.34963 -0.21557,4.80704 l -1.46582,1.61671 q -0.43112,0.47424 -0.84069,0.99159 l -7.69556,9.42006 -6.74709,8.06201 1.72449,0.0216 q 7.286,0 9.37695,-0.0431 2.09095,-0.0431 4.56991,-0.19401 -0.17245,3.01787 -0.21556,4.74237 -6.18663,-0.0431 -11.33856,-0.0431 l -7.95424,0.0216 z"
       style="line-height:0.85;text-align:center;letter-spacing:4.42786px;text-anchor:middle;stroke-width:1.10368"
       id="path998" />
    <path
       d="m 160.73957,273.52402 q -0.47424,2.52207 -0.81914,5.13037 -2.45741,0.43113 -4.50525,0.60358 -2.04784,0.17245 -3.51366,0.17245 -3.23343,0 -6.18663,-0.90537 -2.93164,-0.90536 -5.30282,-2.84541 -2.34963,-1.96162 -3.40588,-4.74237 -1.05626,-2.78075 -1.05626,-6.07885 0,-3.57833 1.27182,-6.61775 1.27182,-3.03942 3.643,-5.13038 2.39274,-2.09095 5.64772,-3.10409 3.25499,-1.0347 6.79021,-1.0347 3.4921,0 7.63089,0.79758 0.0647,1.91851 0.12934,2.71608 l 0.15089,2.30652 q -2.43585,-0.64669 -4.05256,-0.88381 -1.61672,-0.23711 -3.08254,-0.23711 -2.30651,0 -4.44058,0.71135 -2.11251,0.6898 -3.75078,2.22029 -1.61671,1.53049 -2.50052,3.70767 -0.86224,2.15562 -0.86224,4.50524 0,2.80231 1.07781,5.0226 1.07781,2.22028 3.44899,3.59988 2.39274,1.3796 5.9064,1.3796 3.25498,0 7.78179,-1.29337 z"
       style="line-height:0.85;text-align:center;letter-spacing:4.42786px;text-anchor:middle;stroke-width:1.10368"
       id="path1000" />
    <path
       d="m 169.78045,278.91307 0.49579,-7.73868 q 0.40957,-6.33752 0.58202,-11.74813 0.17245,-5.43216 0.17245,-7.56623 l -0.0216,-2.37118 q 2.54364,0.0431 3.59989,0.0431 0.79758,0 3.25499,-0.0431 l -0.56046,9.72185 -0.0647,2.24184 14.70133,-0.0215 0.25867,-5.82018 q 0.0862,-2.99631 0.0862,-3.94478 v -2.17718 l 3.59989,0.0431 q 0.47424,0 3.23343,-0.0431 l -0.71135,11.74813 -0.32335,8.70871 -0.0862,5.10882 q -0.0431,3.1472 -0.0431,3.85856 l -3.36277,-0.0431 q -0.62513,0 -3.57833,0.0431 0.56046,-6.10041 0.71135,-12.82594 h -14.72288 l -0.30179,7.93268 -0.0862,4.89326 -3.53522,-0.0431 q -0.58202,0 -3.2981,0.0431 z"
       style="line-height:0.85;text-align:center;letter-spacing:4.42786px;text-anchor:middle;stroke-width:1.10368"
       id="path1002" />
    <path
       d="m 216.52312,278.91307 -0.81913,-2.71608 q -0.17245,-0.53891 -1.42271,-4.11724 l -4.1819,-11.89902 -3.83701,-10.69188 q 2.22029,0.0431 3.68611,0.0431 0.90536,0 3.16876,-0.0431 l 0.66825,2.39274 q 0.21556,0.73291 0.62513,1.98317 l 5.2166,15.8007 q 0.47423,1.53049 1.2287,4.03101 l 1.16403,-2.62986 q 0.43113,-0.97003 1.78917,-3.79389 l 6.7902,-14.18398 q 0.30179,-0.62513 0.60358,-1.31493 0.30178,-0.71135 0.94847,-2.28496 2.34962,0.0431 3.57833,0.0431 0.73291,0 3.38432,-0.0431 l -1.85383,3.44899 -11.79124,23.2807 -1.25026,2.69453 q -2.80231,-0.0431 -3.75078,-0.0431 -0.84069,0 -3.94479,0.0431 z"
       style="line-height:0.85;text-align:center;letter-spacing:4.42786px;text-anchor:middle;stroke-width:1.10368"
       id="path1004" />
    <path
       d="m 49.412026,316.4381 q 0.646686,-6.48842 1.034698,-14.44265 0.388012,-7.9758 0.45268,-14.98156 2.198733,0.0431 3.664554,0.0431 0.991586,0 3.168762,-0.0431 -0.280231,3.88011 -0.517349,8.83804 l -0.431124,8.64404 q -0.194006,3.70766 -0.280231,7.37222 l 3.707667,0.0431 q 5.2166,0 6.854872,-0.0216 1.638271,-0.0431 3.23343,-0.12933 -0.194006,2.1125 -0.3449,4.67769 -5.66928,-0.0431 -9.70029,-0.0431 l -6.790203,0.0216 z"
       style="line-height:0.85;text-align:center;letter-spacing:4.42786px;text-anchor:middle;stroke-width:1.10368"
       id="path1006" />
    <path
       d="m 77.659488,316.4381 q 0.646686,-6.42375 0.970029,-14.766 0.323343,-8.34225 0.323343,-14.65821 2.586744,0.0431 4.332797,0.0431 1.875389,0 3.664554,-0.0647 1.81072,-0.0647 3.815447,-0.0647 2.500519,0 4.462134,0.28023 1.98317,0.28023 3.51366,1.29338 1.530488,1.01314 2.263398,2.4574 0.75447,1.44427 0.75447,3.36277 0,1.20715 -0.28023,2.30651 -0.28023,1.07781 -0.84069,2.04784 -0.53891,0.94847 -1.293374,1.68139 -0.754467,0.71135 -1.508934,1.14247 -0.732911,0.40957 -1.681384,0.71136 -0.948473,0.30179 -2.543631,0.73291 l 1.465821,2.84542 q 0.711355,1.35804 2.694525,4.8717 l 2.177177,3.81545 q 0.17245,0.30178 1.0347,1.96161 -2.629859,-0.0431 -3.470551,-0.0431 -1.034698,0 -3.642998,0.0431 l -2.392738,-5.73395 q -0.62513,-1.31493 -1.508934,-3.10409 l -2.608301,-5.23816 q -0.388011,-0.73291 -1.07781,-2.19873 1.444266,0.25867 2.629857,0.25867 1.853833,0 3.384323,-0.60357 1.530491,-0.60357 2.349626,-1.85383 0.819136,-1.27182 0.819136,-2.7592 0,-0.90536 -0.366456,-1.68138 -0.344899,-0.77602 -1.185591,-1.31493 -0.840691,-0.5389 -2.004726,-0.6898 -1.164035,-0.15089 -2.32807,-0.15089 -0.646686,0 -1.767608,0.0216 -1.120923,0.0216 -2.759194,0.0216 l -0.388012,8.8596 -0.409567,16.16715 -3.341211,-0.0431 q -0.79758,0 -3.254987,0.0431 z"
       style="line-height:0.85;text-align:center;letter-spacing:4.42786px;text-anchor:middle;stroke-width:1.10368"
       id="path1008" />
    <path
       d="m 115.95214,316.4381 q 0.25867,-2.39274 0.51735,-6.2513 0.28023,-3.85856 0.32334,-6.14351 l -9.65718,-17.0294 q 2.43585,0.0431 3.79389,0.0431 1.29338,0 3.449,-0.0431 0.97003,2.24184 2.82386,5.69083 1.85383,3.42744 3.19032,6.29442 l 6.40219,-10.34698 q 0.32334,-0.53891 0.94847,-1.63827 2.09095,0.0431 3.70767,0.0431 0.84069,0 3.47055,-0.0431 l -11.76969,17.48208 -0.25867,5.45371 q -0.12934,2.4143 -0.19401,6.48842 -2.30651,-0.0431 -3.36277,-0.0431 -1.07781,0 -3.38432,0.0431 z"
       style="line-height:0.85;text-align:center;letter-spacing:4.42786px;text-anchor:middle;stroke-width:1.10368"
       id="path1010" />
    <path
       d="m 140.34104,316.4381 q 0.38801,-4.22501 0.51735,-6.7902 0.23712,-4.28969 0.49579,-12.28704 0.19401,-5.9064 0.19401,-8.34225 v -2.00472 q 6.18663,0.0431 10.82121,0.0431 l 6.03574,-0.0216 3.59988,-0.0215 q -0.23712,3.21187 -0.25867,4.65614 l -3.08254,-0.10778 -1.25026,-0.0216 h -1.68138 -3.27654 l -4.46214,0.0216 -0.25867,7.73867 3.66455,0.0647 q 4.1819,0 5.3675,-0.0216 l 2.93164,-0.0431 q -0.15089,2.50052 -0.19401,4.56992 -3.75078,-0.0862 -5.97106,-0.0862 -2.80231,0 -6.0573,0.0862 l -0.23712,9.52784 -0.0216,1.94006 v 1.09936 l -3.2981,-0.0431 q -0.25867,0 -3.57833,0.0431 z"
       style="line-height:0.85;text-align:center;letter-spacing:4.42786px;text-anchor:middle;stroke-width:1.10368"
       id="path1012" />
    <path
       d="m 169.9681,316.4381 q 0.40957,-3.85856 0.62513,-8.66559 l 0.49579,-10.56254 q 0.25868,-5.73395 0.25868,-10.19608 2.50052,0.0431 4.24657,0.0431 1.29337,0 3.77234,-0.0431 2.43585,4.24657 6.72553,11.07988 4.28968,6.83332 6.91954,11.31701 l 0.79758,-20.00415 q 0.0216,-0.71136 0.0216,-2.39274 2.02628,0.0431 3.06098,0.0431 0.40956,0 3.01786,-0.0431 l -0.5389,7.91112 -0.66824,13.5373 -0.25868,7.97579 q -2.24184,-0.0431 -3.81545,-0.0431 -1.25025,0 -4.05256,0.0431 -1.07781,-1.9185 -1.63827,-2.84542 -0.88381,-1.42271 -3.77234,-5.86328 -1.89694,-2.93165 -4.74236,-7.50156 -2.09095,-3.36277 -3.57833,-5.86329 -0.17245,3.49211 -0.53891,12.95528 -0.15089,3.85856 -0.23711,9.11827 -2.02629,-0.0431 -2.93165,-0.0431 -0.71135,0 -3.16876,0.0431 z"
       style="line-height:0.85;text-align:center;letter-spacing:4.42786px;text-anchor:middle;stroke-width:1.10368"
       id="path1014" />
    <path
       d="m 207.54939,316.4381 q 0.19401,-2.93164 0.21556,-4.8717 l 1.01314,-1.12092 q 0.0647,-0.0647 1.83228,-2.19873 l 10.56254,-12.65349 3.34121,-4.1388 -1.42271,-0.0215 h -0.5389 l -1.87539,-0.0216 h -3.27655 q -4.05256,0 -7.91112,0.23712 0.12934,-1.68138 0.12934,-3.62144 0,-0.36646 -0.0216,-1.01314 5.62617,0.0431 11.94214,0.0431 l 7.19977,-0.0216 3.92322,-0.0215 q -0.17245,2.34962 -0.21556,4.80703 l -1.46582,1.61672 q -0.43112,0.47423 -0.84069,0.99158 l -7.69556,9.42006 -6.7471,8.06202 1.7245,0.0216 q 7.286,0 9.37695,-0.0431 2.09095,-0.0431 4.56991,-0.194 -0.17245,3.01787 -0.21556,4.74236 -6.18663,-0.0431 -11.33856,-0.0431 l -7.95424,0.0216 z"
       style="line-height:0.85;text-align:center;letter-spacing:4.42786px;text-anchor:middle;stroke-width:1.10368"
       id="path1016" />
  </g>
  <text
     xml:space="preserve"
     id="text940"
     style="line-height:1.25;font-family:'Eras Demi ITC';font-size:40px;-inkscape-font-specification:'Eras Demi ITC';white-space:pre;shape-inside:url(#rect942);" />
</svg>
