<?xml version="1.0" encoding="UTF-8" standalone="no"?>
<svg
   xmlns:dc="http://purl.org/dc/elements/1.1/"
   xmlns:cc="http://creativecommons.org/ns#"
   xmlns:rdf="http://www.w3.org/1999/02/22-rdf-syntax-ns#"
   xmlns:svg="http://www.w3.org/2000/svg"
   xmlns="http://www.w3.org/2000/svg"
   xmlns:sodipodi="http://sodipodi.sourceforge.net/DTD/sodipodi-0.dtd"
   xmlns:inkscape="http://www.inkscape.org/namespaces/inkscape"
   viewBox="0.0 0.0 348.0 348.0"
   fill="none"
   version="1.1"
   id="svg849"
   sodipodi:docname="Not Morsematics.svg"
   inkscape:version="1.0.1 (3bc2e813f5, 2020-09-07)">
  <metadata
     id="metadata855">
    <rdf:RDF>
      <cc:Work
         rdf:about="">
        <dc:format>image/svg+xml</dc:format>
        <dc:type
           rdf:resource="http://purl.org/dc/dcmitype/StillImage" />
        <dc:title />
      </cc:Work>
    </rdf:RDF>
  </metadata>
  <defs
     id="defs853">
    <clipPath
       clipPathUnits="userSpaceOnUse"
       id="clipPath863">
      <rect
         style="fill:#ffffff;stroke:#000000;stroke-width:2.4189"
         id="rect865"
         width="210.1299"
         height="205.21457"
         x="-394.45435"
         y="-38.093723" />
    </clipPath>
    <clipPath
       clipPathUnits="userSpaceOnUse"
       id="clipPath907">
      <rect
         style="fill:none;stroke:#000000;stroke-width:1.88976;stroke-miterlimit:4;stroke-dasharray:none"
         id="rect909"
         width="116.73883"
         height="30.720745"
         x="-334.2417"
         y="-74.958618" />
    </clipPath>
    <clipPath
       clipPathUnits="userSpaceOnUse"
       id="clipPath915">
      <rect
         style="fill:none;stroke:#000000;stroke-width:1.93624;stroke-miterlimit:4;stroke-dasharray:none"
         id="rect917"
         width="99.488731"
         height="29.445433"
         x="-320.70132"
         y="27.057497" />
    </clipPath>
  </defs>
  <sodipodi:namedview
     pagecolor="#ffffff"
     bordercolor="#666666"
     borderopacity="1"
     objecttolerance="10"
     gridtolerance="10"
     guidetolerance="10"
     inkscape:pageopacity="0"
     inkscape:pageshadow="2"
     inkscape:window-width="1920"
     inkscape:window-height="1001"
     id="namedview851"
     showgrid="false"
     inkscape:zoom="1.6275647"
     inkscape:cx="174"
     inkscape:cy="206.97238"
     inkscape:window-x="-9"
     inkscape:window-y="-9"
     inkscape:window-maximized="1"
     inkscape:current-layer="svg849"
     inkscape:document-rotation="0" />
  <path
     d="M5.079 5.776h336.913v337.67H5.08z"
     stroke-width="2"
     stroke="#000"
     id="path845" />
  <path
     d="M282.734 40.554c0-8.376 6.966-15.165 15.56-15.165 4.126 0 8.084 1.597 11.001 4.441 2.918 2.844 4.558 6.702 4.558 10.724 0 8.376-6.966 15.165-15.56 15.165-8.593 0-15.559-6.79-15.559-15.165z"
     stroke-width="2"
     stroke="#000"
     id="path847" />
  <path
     id="path909"
     style="fill:#000000;stroke:#000000;stroke-width:0.980148;stroke-miterlimit:4;stroke-dasharray:none"
     d="M 173.62695 5.6015625 C 167.70905 6.1161635 166.8915 6.3428644 164.25781 6.5234375 L 169.01953 6.5234375 L 169.01953 16.660156 L 169.01953 26.796875 L 163.0293 26.796875 L 157.03906 26.796875 L 157.03906 16.660156 L 157.03906 6.8085938 C 155.2501 6.8632001 153.84793 6.9126532 151.05078 6.984375 L 151.05078 16.660156 C 151.05078 25.992478 150.97635 26.344891 148.97656 26.628906 C 146.97733 26.912843 146.9043 27.268604 146.9043 36.564453 C 146.9043 44.283611 147.1784 46.311623 148.28516 46.736328 C 149.9045 47.357722 150.05209 48.544674 148.70312 50.101562 C 146.34696 52.820895 138.60938 64.144545 138.60938 64.873047 C 138.60938 65.316851 136.14048 65.393179 133.12305 65.042969 C 123.96835 63.980452 116.42606 67.760651 112.78906 75.234375 C 111.03827 78.832144 110.9668 81.045542 110.9668 130.99805 L 110.9668 183.01562 L 113.03906 186.8125 C 116.65512 193.43583 122.99837 197.26953 130.3418 197.26953 C 136.45049 197.26953 141.92763 194.05967 146.06445 188.05469 L 148.28516 184.83008 L 148.57422 135.07031 C 148.73263 107.70237 148.5976 83.128895 148.27539 80.462891 C 147.89463 77.312672 146.90643 74.684178 145.45312 72.957031 C 144.22322 71.495364 143.2168 69.817948 143.2168 69.228516 C 143.2168 68.239486 146.62322 63.091338 154.875 51.605469 L 158.13477 47.068359 L 163.57617 47.068359 L 169.01953 47.068359 L 169.01953 56.283203 C 169.01953 64.443567 168.83431 65.498853 167.40625 65.501953 C 165.29443 65.506464 159.7797 68.82711 157.70508 71.34375 C 153.23158 76.770494 153.25109 76.503301 153.24609 130.62695 C 153.24215 167.50433 153.54426 182.48713 154.3457 185.16211 C 155.82934 190.11403 161.02823 194.951 166.71484 196.66992 C 172.53659 198.42969 171.61563 198.41632 176.95703 196.83008 C 182.63168 195.14489 186.80697 191.5173 189.23633 186.16211 C 191.02694 182.21495 191.09563 180.21285 191.11523 131.12305 L 191.13477 80.179688 L 188.84375 75.660156 C 186.38402 70.806107 182.08772 66.950761 178.00391 65.931641 L 175.46875 65.298828 L 175.46875 56.183594 L 175.46875 47.068359 L 181.04297 47.068359 C 185.96766 47.068359 186.8748 47.364262 188.8457 49.603516 C 190.0724 50.997252 191.08947 52.428474 191.10547 52.785156 C 191.12149 53.141839 193.40786 56.458423 196.18555 60.15625 C 200.7442 66.224978 202.45201 70.094258 200.58008 70.111328 C 200.19997 70.11479 198.85101 71.638696 197.58398 73.498047 L 195.28125 76.878906 L 194.99414 127.16797 C 194.83583 154.82705 194.96427 179.60574 195.28125 182.23047 C 196.07702 188.81971 201.40011 194.60131 208.63281 196.73242 C 213.34024 198.11952 214.04554 198.11294 218.76953 196.63477 C 224.14771 194.95189 226.33591 193.26838 229.92188 188.05469 L 232.14062 184.83008 L 232.14062 131.38477 L 232.14062 77.9375 L 229.86133 74.251953 C 228.60819 72.224698 226.74236 69.84384 225.71484 68.960938 C 222.84848 66.497994 214.62507 64.338274 210.66211 65.007812 C 207.36664 65.564576 207.08445 65.399822 204.05859 61.166016 C 195.81762 49.635166 194.58411 47.608679 195.60156 47.269531 C 196.33574 47.024804 196.60199 43.733111 196.4668 36.625 L 196.27148 26.335938 L 195.97656 36.242188 L 195.67969 46.146484 L 191.56445 46.146484 L 187.44922 46.146484 L 187.44922 36.470703 L 187.44922 26.796875 L 181.45898 26.796875 L 175.46875 26.796875 L 175.46875 16.660156 L 175.46875 6.5234375 L 181.45898 6.5234375 L 187.44922 6.5234375 L 187.44922 16.660156 L 187.44922 26.796875 L 190.67383 26.796875 L 193.89844 26.796875 L 193.89844 16.660156 L 193.89844 6.5234375 C 187.44809 6.5234375 169.01957 6.5230428 173.62695 5.6015625 z M 157.03906 6.8085938 C 160.32451 6.7083088 162.90957 6.6158768 164.25781 6.5234375 L 163.0293 6.5234375 L 157.03906 6.5234375 L 157.03906 6.8085938 z M 111.88672 82.083984 L 129.39453 82.083984 L 146.9043 82.083984 L 146.9043 105.58203 L 146.9043 129.08008 L 129.39453 129.08008 L 111.88672 129.08008 L 111.88672 105.58203 L 111.88672 82.083984 z M 154.27539 82.083984 L 171.7832 82.083984 L 189.29102 82.083984 L 189.29102 105.58203 L 189.29102 129.08008 L 171.7832 129.08008 L 154.27539 129.08008 L 154.27539 105.58203 L 154.27539 82.083984 z M 195.74219 82.083984 L 213.71094 82.083984 L 231.67969 82.083984 L 231.67969 105.58203 L 231.67969 129.08008 L 213.71094 129.08008 L 195.74219 129.08008 L 195.74219 105.58203 L 195.74219 82.083984 z M 112.86523 82.861328 L 112.86523 105.59375 L 112.86523 128.32812 L 129.45508 128.32812 L 146.04492 128.32812 L 146.04492 105.59375 L 146.04492 82.861328 L 129.45508 82.861328 L 112.86523 82.861328 z M 155.25977 82.861328 L 155.25977 105.59375 L 155.25977 128.32812 L 171.84961 128.32812 L 188.43945 128.32812 L 188.43945 105.59375 L 188.43945 82.861328 L 171.84961 82.861328 L 155.25977 82.861328 z M 196.42578 82.861328 L 196.42578 105.59375 L 196.42578 128.32812 L 213.62891 128.32812 L 230.83398 128.32812 L 230.83398 105.59375 L 230.83398 82.861328 L 213.62891 82.861328 L 196.42578 82.861328 z M 195.74219 130.88281 L 213.48047 131.13281 L 231.21875 131.38477 L 231.46484 155.57227 L 231.71094 179.76172 L 213.72656 179.76172 L 195.74219 179.76172 L 195.74219 155.32227 L 195.74219 130.88281 z M 111.88672 130.92383 L 129.39453 130.92383 L 146.9043 130.92383 L 146.9043 155.3418 L 146.9043 179.76172 L 129.39453 179.76172 L 111.88672 179.76172 L 111.88672 155.3418 L 111.88672 130.92383 z M 154.27539 130.92383 L 171.7832 130.92383 L 189.29102 130.92383 L 189.29102 155.3418 L 189.29102 179.76172 L 171.7832 179.76172 L 154.27539 179.76172 L 154.27539 155.3418 L 154.27539 130.92383 z M 112.86523 131.39844 L 112.86523 155.05469 L 112.86523 178.70898 L 129.45508 178.70898 L 146.04492 178.70898 L 146.04492 155.05469 L 146.04492 131.39844 L 129.45508 131.39844 L 112.86523 131.39844 z M 155.25977 131.39844 L 155.25977 155.05469 L 155.25977 178.70898 L 171.84961 178.70898 L 188.43945 178.70898 L 188.43945 155.05469 L 188.43945 131.39844 L 171.84961 131.39844 L 155.25977 131.39844 z M 196.42578 131.70703 L 196.42578 155.20703 L 196.42578 178.70898 L 213.71094 178.70898 L 230.99805 178.70898 L 230.7168 155.67383 C 230.56219 143.00459 230.31478 132.51986 230.16797 132.37305 C 230.02115 132.22624 222.36993 132.01595 213.16406 131.90625 L 196.42578 131.70703 z " />
  <rect
     style="fill:none;stroke:#000000;stroke-width:1.709;stroke-miterlimit:4;stroke-dasharray:none"
     id="rect926"
     width="223.03261"
     height="110.59468"
     x="25.191011"
     y="212.58755" />
  <rect
     style="fill:none;stroke:#000000;stroke-width:1.93889764;stroke-miterlimit:4;stroke-dasharray:none"
     id="rect928"
     width="59.961117"
     height="109.92872"
     x="264.9386"
     y="212.88249" />
  <rect
     style="fill:none;stroke:#000000;stroke-width:1.709;stroke-miterlimit:4;stroke-dasharray:none"
     id="rect930"
     width="20.890106"
     height="81.717178"
     x="43.322552"
     y="226.10468" />
  <path
     style="fill:none;stroke:#000000;stroke-width:1.709;stroke-miterlimit:4;stroke-dasharray:none"
     d="m 78.344202,267.11372 h 18.432447 v 22.11894 H 136.0992 v 18.43245 H 78.344202 Z"
     id="path932" />
  <rect
     style="fill:none;stroke:#000000;stroke-width:1.709;stroke-miterlimit:4;stroke-dasharray:none"
     id="rect934"
     width="38.093723"
     height="38.708138"
     x="135.82352"
     y="226.10468" />
  <path
     style="fill:none;stroke:#000000;stroke-width:1.709;stroke-miterlimit:4;stroke-dasharray:none"
     d="m 232.0992,267.11372 h -18.43245 v 22.11894 H 174.3442 v 18.43245 h 57.755 z"
     id="path936" />
</svg>
