<?xml version="1.0" encoding="UTF-8" standalone="no"?>
<svg
   xmlns:dc="http://purl.org/dc/elements/1.1/"
   xmlns:cc="http://creativecommons.org/ns#"
   xmlns:rdf="http://www.w3.org/1999/02/22-rdf-syntax-ns#"
   xmlns:svg="http://www.w3.org/2000/svg"
   xmlns="http://www.w3.org/2000/svg"
   xmlns:sodipodi="http://sodipodi.sourceforge.net/DTD/sodipodi-0.dtd"
   xmlns:inkscape="http://www.inkscape.org/namespaces/inkscape"
   viewBox="0 0 348 348"
   fill="none"
   version="1.1"
   id="svg831"
   sodipodi:docname="Simpleton't.svg"
   inkscape:version="1.0.1 (3bc2e813f5, 2020-09-07)">
  <metadata
     id="metadata1359">
    <rdf:RDF>
      <cc:Work
         rdf:about="">
        <dc:format>image/svg+xml</dc:format>
        <dc:type
           rdf:resource="http://purl.org/dc/dcmitype/StillImage" />
        <dc:title></dc:title>
      </cc:Work>
    </rdf:RDF>
  </metadata>
  <defs
     id="defs1357" />
  <sodipodi:namedview
     pagecolor="#ffffff"
     bordercolor="#666666"
     borderopacity="1"
     objecttolerance="10"
     gridtolerance="10"
     guidetolerance="10"
     inkscape:pageopacity="0"
     inkscape:pageshadow="2"
     inkscape:window-width="1920"
     inkscape:window-height="1001"
     id="namedview1355"
     showgrid="false"
     inkscape:zoom="2.3017241"
     inkscape:cx="172.20826"
     inkscape:cy="174.0621"
     inkscape:window-x="-9"
     inkscape:window-y="-9"
     inkscape:window-maximized="1"
     inkscape:current-layer="svg831"
     inkscape:document-rotation="0" />
  <style
     id="style1281"></style>
  <path
     d="M5.079 5.776h336.913v337.67H5.08z"
     stroke-width="2"
     stroke="#000"
     id="path827" />
  <path
     style="fill:#000000;stroke-width:0.360646"
     d="m 295.02326,56.422327 c -2.64054,-0.441766 -6.65489,-2.572408 -8.62293,-4.576665 -3.09005,-3.14689 -4.55976,-6.673668 -4.55976,-10.941744 0,-9.750606 9.04855,-17.198471 18.87241,-15.533882 12.84767,2.176961 17.91969,17.275457 8.88022,26.4348 -2.35318,2.384362 -4.9132,3.778272 -8.2305,4.481412 -2.63353,0.558193 -3.68193,0.580707 -6.33944,0.136141 z m 8.15086,-2.846728 c 5.27715,-1.97443 8.96862,-7.247388 8.95678,-12.793974 -0.0215,-10.071447 -11.37067,-16.653909 -20.70677,-12.009812 -2.13981,1.064419 -5.00721,3.972978 -6.15689,6.245284 -1.84881,3.654112 -1.6677,8.863364 0.43918,12.633002 1.65048,2.952995 5.74601,5.894071 9.24544,6.639283 2.21547,0.471794 5.91097,0.150921 8.22226,-0.713783 z"
     id="path857"
     sodipodi:nodetypes="sssssssscsssssc" />
  <path
     style="fill:#000000;stroke-width:1.63603"
     d="m 65.270816,205.01656 c -0.560031,-0.90618 0.132682,-2.08927 1.53949,-2.62909 1.991608,-0.76425 2.55774,-3.58623 2.55774,-12.7495 0,-6.4724 -0.819309,-12.5873 -1.820691,-13.58869 -3.438825,-3.43882 0.287418,-5.7918 7.826401,-4.94205 8.156701,0.91938 13.638717,4.96712 13.601629,10.04298 -0.03828,5.22946 -2.157159,7.52946 -9.136684,9.91744 -6.976598,2.38699 -9.103391,7.07088 -4.823497,10.62287 1.393147,1.15622 2.533002,2.74828 2.533002,3.53791 0,1.99888 -11.028688,1.80855 -12.27739,-0.21187 z m 16.501282,-19.62084 c 1.379486,0 2.320237,-1.64572 2.320237,-4.0589 0,-2.93989 -1.101981,-4.3355 -3.997104,-5.06212 -5.150949,-1.29281 -7.455121,0.20768 -7.455121,4.85482 0,4.54441 1.543793,6.2877 4.547433,5.1351 1.245381,-0.4779 3.308418,-0.8689 4.584555,-0.8689 z m 20.316592,20.13304 c -4.985988,-1.78194 -6.544132,-6.07794 -6.544132,-18.04302 0,-9.14485 -0.583031,-12.23263 -2.444656,-12.947 -4.029093,-1.5461 -1.030884,-3.8673 4.995265,-3.8673 6.445903,0 6.590183,0.28504 2.953703,5.83502 -3.332687,5.08632 -2.082649,19.25937 2.10698,23.88885 2.50572,2.76879 3.0682,2.83462 5.2843,0.61854 3.36794,-3.36796 4.022,-23.68713 0.80222,-24.92268 -1.23507,-0.47394 -2.24558,-1.88726 -2.24558,-3.14073 0,-1.56815 2.04119,-2.279 6.54412,-2.279 6.93559,0 8.16403,1.52702 4.00517,4.97856 -1.81246,1.50421 -2.45982,4.7214 -2.2624,11.24355 0.37905,12.52294 0.32297,12.79676 -3.3788,16.49853 -3.30049,3.3005 -5.32608,3.7414 -9.81619,2.13668 z m 21.95212,-0.36432 c -0.37604,-0.37492 -0.6837,-3.50383 -0.6837,-6.95314 0,-6.89831 2.395,-8.37532 4.20033,-2.59038 2.09839,6.72398 9.62837,8.37215 14.36047,3.14325 4.9291,-5.4466 3.99285,-6.6011 -7.40318,-9.12877 -8.70266,-1.93027 -12.68386,-11.03077 -6.91876,-15.81538 3.18893,-2.64659 15.75903,-3.23583 17.41351,-0.81629 1.73618,2.53902 1.52708,10.75597 -0.27371,10.75597 -0.83918,0 -1.96787,-1.39294 -2.50822,-3.09543 -1.73551,-5.46806 -12.32631,-5.66715 -12.32631,-0.23171 0,3.23964 3.08313,4.96316 8.87842,4.96316 10.99127,0 12.1525,18.79987 1.22991,19.91201 -5.81873,0.59245 -15.31633,0.50723 -15.96876,-0.14332 z m 27.93973,-0.1479 c -0.56005,-0.90616 0.13268,-2.08926 1.53948,-2.62909 3.73212,-1.43215 3.73212,-26.0072 0,-27.43935 -3.87654,-1.48756 -1.14149,-4.27666 4.19376,-4.27666 4.81434,0 8.68207,3.37743 5.19776,4.53887 -1.05913,0.35304 -1.92569,2.70336 -1.92569,5.22294 0,3.69599 0.8674,4.74684 4.48976,5.4393 5.89415,1.12673 6.96246,0.28566 6.96246,-5.48148 0,-3.29878 -0.81442,-4.81154 -2.59038,-4.81154 -4.42408,0 -1.50692,-4.0596 3.32486,-4.62699 4.90417,-0.57589 9.9407,2.78506 6.21866,4.14981 -1.4016,0.51393 -2.04504,4.84111 -2.04504,13.75313 0,10.35517 0.5277,13.20575 2.59123,13.9976 3.6,1.38146 -0.26746,3.75239 -6.17575,3.78602 -5.07702,0.029 -7.66073,-2.80133 -3.88132,-4.25163 1.62424,-0.62327 2.55774,-3.00748 2.55774,-6.53257 0,-5.72105 -2.493,-7.00295 -8.86437,-4.55803 -3.32149,1.27457 -3.42457,9.78802 -0.13382,11.05081 1.34973,0.51794 2.45405,1.70103 2.45405,2.62908 0,2.17641 -12.5707,2.21237 -13.91343,0.0398 z m 46.63405,-0.69266 c 0,-1.28715 1.65648,-2.57552 3.68107,-2.86306 3.40644,-0.48378 3.7167,-1.46825 4.15878,-13.19492 0.4658,-12.35707 0.38446,-12.66214 -3.27207,-12.27024 -2.42106,0.25949 -3.74977,-0.4677 -3.74977,-2.05216 0,-1.86767 2.44331,-2.57044 10.2252,-2.94113 8.15092,-0.38826 10.22521,0.003 10.22521,1.93126 0,1.33007 -1.65649,2.65359 -3.68108,2.94113 -3.40664,0.48381 -3.71669,1.46804 -4.15889,13.20204 -0.47542,12.6151 -0.4568,12.67925 3.68107,12.67925 2.60611,0 4.1589,0.91625 4.1589,2.45404 0,1.92969 -2.27228,2.45405 -10.63421,2.45405 -8.13214,0 -10.63421,-0.55062 -10.63421,-2.34026 z m 31.49362,1.295 c -3.02765,-1.2783 -2.48243,-3.50352 1.14011,-4.65327 2.90465,-0.92191 3.10337,-2.12023 2.25666,-13.60751 -0.51067,-6.92812 -1.17602,-12.87158 -1.47856,-13.20771 -1.69227,-1.88006 -5.59929,1.93527 -5.59929,5.46788 0,5.49368 -2.66681,5.31215 -3.73085,-0.25397 -1.50528,-7.87439 -0.21329,-8.69286 13.72209,-8.69286 12.61796,0 12.91882,0.0935 13.15862,4.09008 0.13497,2.24954 0.31902,4.94899 0.40901,5.99878 0.0899,1.04978 -0.76242,2.21739 -1.89422,2.59464 -1.2431,0.41437 -2.46375,-1.34365 -3.08309,-4.44034 -0.70967,-3.54839 -1.83878,-4.96685 -3.66827,-4.60832 -2.1682,0.4249 -2.5875,2.56978 -2.3339,11.93882 0.17002,6.28149 0.35406,11.97303 0.40901,12.64789 0.055,0.67487 1.20418,1.22702 2.55391,1.22702 1.34973,0 2.45405,1.10432 2.45405,2.45405 0,1.34973 -1.28838,2.46412 -2.86306,2.47638 -1.57468,0.0114 -4.33549,0.3395 -6.13512,0.72712 -1.79963,0.38761 -4.19233,0.31622 -5.3171,-0.15869 z m 25.25624,-0.0114 c -2.31584,-2.31589 -1.00539,-5.48758 2.26725,-5.48758 2.28713,0 3.21973,0.88845 2.86306,2.72748 -0.58398,3.01108 -3.37677,4.51358 -5.13031,2.76005 z m -0.0748,-14.89476 c -2.23311,-13.51021 -0.17074,-23.08852 4.0603,-18.85748 3.01876,3.01876 1.47639,24.9926 -1.75425,24.9926 -0.7106,0 -1.74832,-2.7608 -2.30605,-6.13512 z"
     id="path1992" />
  <circle
     style="fill:none;fill-opacity:0.547244;stroke:#000000;stroke-width:4.23222;stroke-miterlimit:4;stroke-dasharray:none"
     id="path1994"
     cx="162.48689"
     cy="188.98877"
     r="124.57304" />
</svg>
