<?xml version="1.0" encoding="UTF-8" standalone="no"?>
<svg
   xmlns:dc="http://purl.org/dc/elements/1.1/"
   xmlns:cc="http://creativecommons.org/ns#"
   xmlns:rdf="http://www.w3.org/1999/02/22-rdf-syntax-ns#"
   xmlns:svg="http://www.w3.org/2000/svg"
   xmlns="http://www.w3.org/2000/svg"
   xmlns:sodipodi="http://sodipodi.sourceforge.net/DTD/sodipodi-0.dtd"
   xmlns:inkscape="http://www.inkscape.org/namespaces/inkscape"
   width="130mm"
   height="100mm"
   viewBox="0 0 130 100"
   version="1.1"
   id="svg8"
   inkscape:export-filename="C:\Users\lrush\Documents\KTANE Mods\Not Modded Modules\Assets\!Sem\Flag Materials\IAlba.png"
   inkscape:export-xdpi="96"
   inkscape:export-ydpi="96"
   inkscape:version="1.0.1 (3bc2e813f5, 2020-09-07)"
   sodipodi:docname="Albania.svg">
  <style
     id="style833"></style>
  <defs
     id="defs2" />
  <sodipodi:namedview
     id="base"
     pagecolor="#ffffff"
     bordercolor="#666666"
     borderopacity="1.0"
     inkscape:pageopacity="0.0"
     inkscape:pageshadow="2"
     inkscape:zoom="1.979899"
     inkscape:cx="255.43329"
     inkscape:cy="192.22956"
     inkscape:document-units="mm"
     inkscape:current-layer="layer1"
     inkscape:document-rotation="0"
     showgrid="true"
     inkscape:snap-global="true"
     inkscape:window-width="1920"
     inkscape:window-height="1001"
     inkscape:window-x="-9"
     inkscape:window-y="-9"
     inkscape:window-maximized="1">
    <inkscape:grid
       type="xygrid"
       id="grid835"
       units="mm"
       spacingx="130"
       spacingy="99.999999" />
  </sodipodi:namedview>
  <metadata
     id="metadata5">
    <rdf:RDF>
      <cc:Work
         rdf:about="">
        <dc:format>image/svg+xml</dc:format>
        <dc:type
           rdf:resource="http://purl.org/dc/dcmitype/StillImage" />
        <dc:title></dc:title>
      </cc:Work>
    </rdf:RDF>
  </metadata>
  <g
     inkscape:label="Layer 1"
     inkscape:groupmode="layer"
     id="layer1">
    <g
       id="g931">
      <path
         style="fill:#fc0000;stroke-width:0.642416"
         d="M 0,50 V 0 h 65 65 v 50 50 H 65 0 Z m 67.188637,28.361573 c 1.533393,-2.165033 1.572919,-2.396833 0.650551,-3.815 -0.540126,-0.830453 -0.972029,-2.11816 -0.959784,-2.86158 0.02012,-1.220653 0.157362,-1.173966 1.416115,0.481674 1.413719,1.859473 3.126407,2.381406 3.824247,1.16542 0.210816,-0.367354 -0.291894,-0.944374 -1.117134,-1.282267 -1.451592,-0.594347 -2.651251,-2.547893 -1.99719,-3.25226 0.176163,-0.18972 0.831443,0.15322 1.456174,0.76208 1.250507,1.218753 3.540308,1.474207 4.122405,0.459907 0.204255,-0.35592 -0.315943,-0.8329 -1.156003,-1.05996 -1.663319,-0.44958 -3.899183,-2.72568 -3.305523,-3.365007 0.202875,-0.218485 0.96205,0.05019 1.687041,0.597063 1.502311,1.133197 3.714274,0.77425 3.714274,-0.60273 0,-0.572004 -0.677932,-0.922246 -1.785111,-0.922246 -2.234514,0 -6.262509,-4.50358 -6.262509,-7.001921 0,-2.472922 2.253055,-2.216579 3.588316,0.408263 2.047599,4.025156 2.982708,4.97008 4.009912,4.052002 0.680432,-0.608151 1.627755,-0.663058 3.523916,-0.204247 2.778707,0.67236 3.871462,1.348983 2.445319,1.514112 -1.906345,0.220729 -2.141725,0.284995 -2.888891,0.788756 -0.425595,0.286948 -0.77381,0.804019 -0.77381,1.149046 0,0.863867 2.307903,0.793245 2.812526,-0.08606 1.161946,-2.024684 4.496774,-1.796562 6.163665,0.42163 0.340476,0.453084 1.222749,1.016408 1.960598,1.251828 1.132257,0.36126 1.288721,0.210447 1.002882,-0.966679 -0.214277,-0.882409 -1.048141,-1.565891 -2.270128,-1.860723 -1.722575,-0.415609 -1.563244,-0.502052 1.473315,-0.799338 3.001625,-0.293865 3.25338,-0.426978 2.126236,-1.124228 -0.849005,-0.525193 -2.043365,-0.605127 -3.555159,-0.237934 -2.769533,0.67268 -2.44743,-0.171886 0.68141,-1.786664 1.995872,-1.03006 2.115205,-1.212046 0.9152,-1.395717 -0.768021,-0.117552 -2.277817,0.524629 -3.404762,1.448189 -1.872093,1.534226 -2.245954,1.604714 -4.956262,0.934453 -2.498712,-0.617932 -2.818549,-0.872314 -2.166667,-1.723269 0.468446,-0.611512 0.524909,-1.085897 0.145718,-1.22434 -2.759974,-1.007675 -5.114782,-2.907566 -6.017261,-4.854809 -1.417699,-3.058933 -0.798206,-3.519133 1.142459,-0.848683 2.073289,2.852961 3.940783,2.986122 1.988059,0.141758 -1.033822,-1.505886 -1.199813,-2.194518 -0.667216,-2.768083 0.532598,-0.573565 0.899736,-0.282187 1.475797,1.171243 C 77.216601,53.551074 79.22309,56 80.274573,56 c 1.30879,0 0.953247,-1.36246 -0.726954,-2.785773 -1.491552,-1.263504 -2.150181,-3.880894 -0.976579,-3.880894 0.314074,0 1.776574,1.461767 3.25,3.248371 3.610131,4.37746 5.092602,5.16752 7.07353,3.769723 C 90.780882,55.020395 90.3039,54 87.795401,54 c -2.137571,0 -6.700163,-4.313253 -6.700163,-6.334007 0,-0.903384 0.438911,-0.695411 1.999022,0.947216 2.924573,3.079264 6.721564,3.721327 7.170212,1.212468 0.169582,-0.948293 -0.252831,-1.15901 -2.323409,-1.15901 -2.017897,0 -2.998784,-0.461989 -4.840915,-2.280037 -2.39153,-2.360264 -2.366929,-4.043656 0.03516,-2.405417 3.349747,2.284557 4.959035,2.883192 5.946856,2.212157 1.838082,-1.248618 1.11319,-2.508894 -1.673447,-2.909401 -1.802741,-0.259098 -3.202278,-0.988416 -4.333333,-2.258158 -1.371482,-1.53965 -1.448925,-1.785172 -0.432516,-1.37121 3.973951,1.618506 5.977604,1.860357 6.928517,0.836302 1.464283,-1.576919 0.493436,-2.363888 -2.47213,-2.003914 -2.282558,0.277068 -2.952764,0.05844 -4.497876,-1.467253 -1.803496,-1.780828 -1.805291,-1.790073 -0.268035,-1.380339 4.467221,1.190676 5.613449,1.192964 6.823526,0.01362 0.673239,-0.65615 1.22408,-1.596504 1.22408,-2.089676 0,-1.041323 -1.603376,-1.211534 -2.166666,-0.230008 C 87.678252,34.267367 83.3553,34.167249 82.457143,33.2 c -1.219078,-1.312853 -0.890172,-1.533333 2.287387,-1.533333 2.111144,0 3.425488,-0.385202 4.333333,-1.269992 2.433495,-2.371688 1.162237,-4.166813 -1.446182,-2.04214 -1.365352,1.112141 -5.917395,1.336156 -5.917395,0.291208 0,-0.717768 0.45742,-0.944866 3.20229,-1.589866 2.466384,-0.579561 5.464376,-3.568828 5.464376,-5.448473 0,-1.927713 -1.538432,-2.161069 -2.429272,-0.368482 -0.997658,2.007536 -3.763271,3.582887 -6.659052,3.793132 -3.923828,0.284885 -6.625648,2.187254 -7.006914,4.933614 -0.379476,2.733477 -1.938814,4.011214 -3.352873,2.747377 -1.524714,-1.36274 -1.166527,-3.312664 1.04624,-5.695647 1.378099,-1.484106 2.913479,-2.35182 4.797619,-2.711359 2.465685,-0.47051 2.60044,-0.582606 1.2233,-1.01761 -1.357002,-0.428644 -1.266194,-0.49704 0.737273,-0.555309 1.256692,-0.03655 2.468515,-0.386413 2.692944,-0.777474 0.611093,-1.064829 -0.246115,-1.651347 -1.088156,-0.744535 -0.402894,0.433889 -1.303609,0.758985 -2.001585,0.722436 -1.079551,-0.05653 -1.037951,-0.142377 0.278572,-0.574902 1.448181,-0.475779 1.468071,-0.539246 0.309523,-0.987783 -0.680952,-0.263635 -1.853831,-0.743075 -2.606394,-1.065423 -1.455425,-0.623407 -7.607891,0.604998 -7.607891,1.518995 0,0.279895 0.348214,0.51557 0.773809,0.523723 0.425595,0.0082 0.07738,0.601482 -0.773809,1.31851 -1.053291,0.887274 -1.251021,1.315966 -0.619048,1.342133 0.67176,0.02781 0.586158,0.262385 -0.309524,0.848157 -0.680952,0.44534 -1.327634,1.25971 -1.437075,1.80971 -0.490924,2.467222 -2.206354,2.467222 -2.697278,0 -0.109441,-0.55 -0.756123,-1.36437 -1.437075,-1.80971 -0.89568,-0.585772 -0.981284,-0.820343 -0.309524,-0.848157 0.631973,-0.02617 0.434243,-0.454859 -0.619048,-1.342133 -0.85119,-0.717028 -1.199404,-1.310356 -0.773809,-1.31851 0.425595,-0.0082 0.773809,-0.243828 0.773809,-0.523723 0,-0.913997 -6.152465,-2.142402 -7.60789,-1.518995 -0.752565,0.322348 -1.925443,0.801788 -2.606395,1.065423 -1.158546,0.448537 -1.138658,0.512004 0.309523,0.987783 1.316523,0.432525 1.358121,0.518372 0.278572,0.574902 -0.697976,0.03655 -1.598691,-0.288547 -2.001587,-0.722436 -0.84204,-0.906812 -1.699247,-0.320294 -1.088154,0.744535 0.224426,0.391061 1.43625,0.740925 2.692942,0.777474 2.003468,0.05827 2.094276,0.126665 0.737275,0.555309 -1.377139,0.435004 -1.242385,0.5471 1.223298,1.01761 1.884143,0.359539 3.419521,1.227253 4.797619,2.711359 2.21277,2.382983 2.570954,4.332907 1.04624,5.695647 -1.414057,1.263837 -2.973394,-0.0139 -3.352871,-2.747377 -0.381266,-2.74636 -3.083085,-4.648729 -7.006913,-4.933614 -2.89578,-0.210245 -5.661395,-1.785596 -6.659053,-3.793132 -0.890838,-1.792587 -2.429272,-1.559231 -2.429272,0.368482 0,1.879645 2.997994,4.868912 5.464378,5.448473 2.74487,0.645 3.202288,0.872098 3.202288,1.589866 0,1.044948 -4.552042,0.820933 -5.917395,-0.291208 -2.608423,-2.124673 -3.879678,-0.329548 -1.446184,2.04214 0.907849,0.88479 2.222191,1.269992 4.333334,1.269992 3.177559,0 3.506466,0.22048 2.287388,1.533333 -0.89816,0.967249 -5.221111,1.067367 -5.757143,0.133333 -0.563287,-0.981526 -2.166666,-0.811315 -2.166666,0.230008 0,0.493172 0.55084,1.433526 1.22409,2.089676 1.210077,1.179344 2.356308,1.177056 6.823529,-0.01362 1.537255,-0.409734 1.535459,-0.400489 -0.268036,1.380339 -1.545113,1.525693 -2.21532,1.744321 -4.497876,1.467253 -2.965566,-0.359974 -3.93641,0.426995 -2.472127,2.003914 0.950908,1.024055 2.954567,0.782204 6.928515,-0.836302 1.016408,-0.413962 0.938964,-0.16844 -0.432516,1.37121 -1.131055,1.269742 -2.530591,1.99906 -4.333334,2.258158 -2.786634,0.400507 -3.511528,1.660783 -1.673449,2.909401 0.987824,0.671035 2.597112,0.0724 5.94686,-2.212157 2.40208,-1.638239 2.426677,0.04515 0.03515,2.405417 -1.842135,1.818048 -2.823017,2.280037 -4.840916,2.280037 -2.070576,0 -2.492991,0.210717 -2.323411,1.15901 0.44865,2.508859 4.245637,1.866796 7.170215,-1.212468 1.56011,-1.642627 1.99902,-1.8506 1.99902,-0.947216 0,2.020754 -4.562592,6.334007 -6.70016,6.334007 -2.508502,0 -2.985485,1.020395 -1.099173,2.351427 1.980928,1.397797 3.463402,0.607737 7.073529,-3.769723 1.473426,-1.786604 2.935926,-3.248371 3.25,-3.248371 1.322784,0 0.420357,2.69703 -1.421979,4.249786 -1.719464,1.449196 -1.843753,1.741442 -0.905515,2.129172 1.390373,0.574578 3.335998,-1.28709 4.511467,-4.31679 0.680902,-1.754984 1.062905,-2.113832 1.616073,-1.518112 0.553169,0.59572 0.399101,1.25396 -0.651787,2.7847 -1.960369,2.855506 -0.08392,2.70448 2.013908,-0.162089 1.395581,-1.906986 1.586445,-1.997663 1.592487,-0.756573 0.01011,2.076401 -2.184402,4.71857 -4.645673,5.593347 -2.243957,0.797539 -2.688655,1.564005 -1.403647,2.419274 0.455731,0.303323 -0.453628,0.832989 -2.301868,1.340748 -2.89522,0.795391 -3.159425,0.753739 -5.045369,-0.795393 -2.2713,-1.865666 -5.339407,-2.390749 -3.708824,-0.634736 0.510715,0.55 1.332217,1 1.825562,1 0.493344,0 1.221681,0.421324 1.618527,0.936275 0.608703,0.789861 0.360662,0.848624 -1.58615,0.375771 -1.543496,-0.374892 -2.731071,-0.298598 -3.586214,0.230392 -1.127146,0.69725 -0.875392,0.830363 2.126234,1.124228 3.036562,0.297286 3.19589,0.383729 1.473313,0.799338 -1.221988,0.294832 -2.055852,0.978314 -2.270125,1.860723 -0.285837,1.177126 -0.129376,1.327939 1.002879,0.966679 0.737854,-0.23542 1.620124,-0.798744 1.9606,-1.251828 1.666893,-2.218192 5.001722,-2.446314 6.163665,-0.42163 0.504625,0.879308 2.812526,0.94993 2.812526,0.08606 0,-0.345027 -0.348215,-0.862098 -0.77381,-1.149046 -0.747167,-0.503761 -0.982547,-0.568027 -2.888889,-0.788756 -1.426148,-0.165129 -0.333388,-0.841752 2.445319,-1.514112 1.896159,-0.458811 2.84348,-0.403904 3.523916,0.204247 1.027202,0.918078 1.962311,-0.02685 4.00991,-4.052002 1.335258,-2.624842 3.588316,-2.881185 3.588316,-0.408263 0,2.498341 -4.027997,7.001921 -6.26251,7.001921 -1.107176,0 -1.78511,0.350242 -1.78511,0.922246 0,1.37698 2.211966,1.735927 3.714271,0.60273 0.724996,-0.54687 1.484167,-0.815548 1.687046,-0.597063 0.593661,0.639327 -1.642206,2.915427 -3.305527,3.365007 -0.840058,0.22706 -1.360259,0.70404 -1.156002,1.05996 0.582096,1.0143 2.871897,0.758846 4.122406,-0.459907 0.62473,-0.60886 1.280008,-0.9518 1.456173,-0.76208 0.65406,0.704367 -0.545595,2.657913 -1.997189,3.25226 -0.825242,0.337893 -1.327952,0.914913 -1.117132,1.282267 0.697841,1.215986 2.410525,0.694053 3.824247,-1.16542 1.258751,-1.65564 1.396007,-1.702327 1.416113,-0.481674 0.01226,0.74342 -0.419658,2.031127 -0.959784,2.86158 -0.922371,1.418167 -0.882843,1.649967 0.650551,3.815 0.897929,1.2678 1.882815,2.305094 2.188637,2.305094 0.305822,0 1.290708,-1.037294 2.188637,-2.305094 z M 55.095238,21.333333 c 0,-0.366666 0.278572,-0.666666 0.619048,-0.666666 0.340476,0 0.619047,0.3 0.619047,0.666666 C 56.333333,21.7 56.054762,22 55.714286,22 55.37381,22 55.095238,21.7 55.095238,21.333333 Z m 18.571429,0 c 0,-0.366666 0.278571,-0.666666 0.619047,-0.666666 0.340476,0 0.619048,0.3 0.619048,0.666666 C 74.904762,21.7 74.62619,22 74.285714,22 73.945238,22 73.666667,21.7 73.666667,21.333333 Z"
         id="path935" />
      <path
         style="fill:#0b0000;stroke-width:0.642416"
         d="m 62.811363,78.361573 c -1.533394,-2.165033 -1.572922,-2.396833 -0.650551,-3.815 0.540126,-0.830453 0.972029,-2.11816 0.959784,-2.86158 -0.02012,-1.220653 -0.157362,-1.173966 -1.416113,0.481674 -1.413722,1.859473 -3.126406,2.381406 -3.824247,1.16542 -0.21082,-0.367354 0.29189,-0.944374 1.117132,-1.282267 1.451594,-0.594347 2.651249,-2.547893 1.997189,-3.25226 -0.176165,-0.18972 -0.831443,0.15322 -1.456173,0.76208 -1.250509,1.218753 -3.54031,1.474207 -4.122406,0.459907 -0.204257,-0.35592 0.315944,-0.8329 1.156002,-1.05996 1.663321,-0.44958 3.899188,-2.72568 3.305527,-3.365007 -0.202879,-0.218485 -0.96205,0.05019 -1.687046,0.597063 -1.502305,1.133197 -3.714271,0.77425 -3.714271,-0.60273 0,-0.572004 0.677934,-0.922246 1.78511,-0.922246 2.234513,0 6.26251,-4.50358 6.26251,-7.001921 0,-2.472922 -2.253058,-2.216579 -3.588316,0.408263 -2.047599,4.025156 -2.982708,4.97008 -4.00991,4.052002 -0.680436,-0.608151 -1.627757,-0.663058 -3.523916,-0.204247 -2.778707,0.67236 -3.871467,1.348983 -2.445319,1.514112 1.906342,0.220729 2.141722,0.284995 2.888889,0.788756 0.425595,0.286948 0.77381,0.804019 0.77381,1.149046 0,0.863867 -2.307901,0.793245 -2.812526,-0.08606 -1.161943,-2.024684 -4.496772,-1.796562 -6.163665,0.42163 -0.340476,0.453084 -1.222746,1.016408 -1.9606,1.251828 -1.132255,0.36126 -1.288716,0.210447 -1.002879,-0.966679 0.214273,-0.882409 1.048137,-1.565891 2.270125,-1.860723 1.722577,-0.415609 1.563249,-0.502052 -1.473313,-0.799338 -3.001626,-0.293865 -3.25338,-0.426978 -2.126234,-1.124228 0.855143,-0.52899 2.042718,-0.605284 3.586214,-0.230392 1.946812,0.472853 2.194853,0.41409 1.58615,-0.375771 -0.396846,-0.514951 -1.125183,-0.936275 -1.618527,-0.936275 -0.493345,0 -1.314847,-0.45 -1.825562,-1 -1.630583,-1.756013 1.437524,-1.23093 3.708824,0.634736 1.885944,1.549132 2.150149,1.590784 5.045369,0.795393 1.84824,-0.507759 2.757599,-1.037425 2.301868,-1.340748 -1.285008,-0.855269 -0.84031,-1.621735 1.403647,-2.419274 2.461271,-0.874777 4.655781,-3.516946 4.645673,-5.593347 -0.0061,-1.24109 -0.196906,-1.150413 -1.592487,0.756573 -2.097828,2.866569 -3.974277,3.017595 -2.013908,0.162089 1.050888,-1.53074 1.204956,-2.18898 0.651787,-2.7847 -0.553168,-0.59572 -0.935171,-0.236872 -1.616073,1.518112 -1.175469,3.0297 -3.121094,4.891368 -4.511467,4.31679 -0.938238,-0.38773 -0.813949,-0.679976 0.905515,-2.129172 1.842336,-1.552756 2.744763,-4.249786 1.421979,-4.249786 -0.314074,0 -1.776574,1.461767 -3.25,3.248371 -3.610127,4.37746 -5.092601,5.16752 -7.073529,3.769723 C 39.219117,55.020395 39.6961,54 42.204602,54 c 2.137568,0 6.70016,-4.313253 6.70016,-6.334007 0,-0.903384 -0.43891,-0.695411 -1.99902,0.947216 -2.924578,3.079264 -6.721565,3.721327 -7.170215,1.212468 -0.16958,-0.948293 0.252835,-1.15901 2.323411,-1.15901 2.017899,0 2.998781,-0.461989 4.840913,-2.280037 2.39153,-2.360264 2.366933,-4.043656 -0.03515,-2.405417 -3.349748,2.284557 -4.959036,2.883192 -5.94686,2.212157 -1.838079,-1.248618 -1.113185,-2.508894 1.673449,-2.909401 1.802743,-0.259098 3.202279,-0.988416 4.333334,-2.258158 1.37148,-1.53965 1.448924,-1.785172 0.432516,-1.37121 -3.973949,1.618506 -5.977607,1.860357 -6.928515,0.836302 -1.464283,-1.576919 -0.493439,-2.363888 2.472127,-2.003914 2.282556,0.277068 2.952763,0.05844 4.497876,-1.467253 1.803498,-1.780828 1.805294,-1.790073 0.268039,-1.380339 -4.467221,1.190676 -5.613452,1.192964 -6.823529,0.01362 -0.67325,-0.65615 -1.22409,-1.596504 -1.22409,-2.089676 0,-1.041323 1.603379,-1.211534 2.166666,-0.230008 0.536032,0.934034 4.858983,0.833916 5.757143,-0.133333 1.219078,-1.312853 0.890171,-1.533333 -2.287388,-1.533333 -2.111143,0 -3.425485,-0.385202 -4.333334,-1.269992 -2.433494,-2.371688 -1.162239,-4.166813 1.446184,-2.04214 1.365353,1.112141 5.917395,1.336156 5.917395,0.291208 0,-0.717768 -0.457418,-0.944866 -3.202288,-1.589866 -2.466384,-0.579561 -5.464378,-3.568828 -5.464378,-5.448473 0,-1.927713 1.538434,-2.161069 2.429272,-0.368482 0.997658,2.007536 3.763273,3.582887 6.659053,3.793132 3.923828,0.284885 6.625647,2.187254 7.006913,4.933614 0.379477,2.733477 1.938814,4.011214 3.352871,2.747377 1.524714,-1.36274 1.16653,-3.312664 -1.04624,-5.695647 -1.378098,-1.484106 -2.913476,-2.35182 -4.797619,-2.711359 C 50.757615,23.835529 50.622861,23.723433 52,23.288429 c 1.357001,-0.428644 1.266193,-0.49704 -0.737275,-0.555309 -1.256692,-0.03655 -2.468516,-0.386413 -2.692942,-0.777474 -0.611093,-1.064829 0.246114,-1.651347 1.088154,-0.744535 0.402896,0.433889 1.303611,0.758985 2.001587,0.722436 1.079549,-0.05653 1.037951,-0.142377 -0.278572,-0.574902 -1.448181,-0.475779 -1.468069,-0.539246 -0.309523,-0.987783 0.680952,-0.263635 1.85383,-0.743075 2.606395,-1.065423 1.455425,-0.623407 7.60789,0.604998 7.60789,1.518995 0,0.279895 -0.348214,0.51557 -0.773809,0.523723 -0.425595,0.0082 -0.07738,0.601482 0.773809,1.31851 1.053291,0.887274 1.251021,1.315966 0.619048,1.342133 -0.67176,0.02781 -0.586156,0.262385 0.309524,0.848157 0.680952,0.44534 1.327634,1.25971 1.437075,1.80971 0.490924,2.467222 2.206354,2.467222 2.697278,0 0.109441,-0.55 0.756123,-1.36437 1.437075,-1.80971 0.895682,-0.585772 0.981284,-0.820343 0.309524,-0.848157 -0.631973,-0.02617 -0.434243,-0.454859 0.619048,-1.342133 0.85119,-0.717028 1.199404,-1.310356 0.773809,-1.31851 -0.425595,-0.0082 -0.773809,-0.243828 -0.773809,-0.523723 0,-0.913997 6.152466,-2.142402 7.607891,-1.518995 0.752563,0.322348 1.925442,0.801788 2.606394,1.065423 1.158548,0.448537 1.138658,0.512004 -0.309523,0.987783 -1.316523,0.432525 -1.358123,0.518372 -0.278572,0.574902 0.697976,0.03655 1.598691,-0.288547 2.001585,-0.722436 0.842041,-0.906812 1.699249,-0.320294 1.088156,0.744535 -0.224429,0.391061 -1.436252,0.740925 -2.692944,0.777474 -2.003467,0.05827 -2.094275,0.126665 -0.737273,0.555309 1.37714,0.435004 1.242385,0.5471 -1.2233,1.01761 -1.88414,0.359539 -3.41952,1.227253 -4.797619,2.711359 -2.212767,2.382983 -2.570954,4.332907 -1.04624,5.695647 1.414059,1.263837 2.973397,-0.0139 3.352873,-2.747377 0.381266,-2.74636 3.083086,-4.648729 7.006914,-4.933614 2.895781,-0.210245 5.661394,-1.785596 6.659052,-3.793132 0.89084,-1.792587 2.429272,-1.559231 2.429272,0.368482 0,1.879645 -2.997992,4.868912 -5.464376,5.448473 -2.74487,0.645 -3.20229,0.872098 -3.20229,1.589866 0,1.044948 4.552043,0.820933 5.917395,-0.291208 2.608419,-2.124673 3.879677,-0.329548 1.446182,2.04214 -0.907845,0.88479 -2.222189,1.269992 -4.333333,1.269992 -3.177559,0 -3.506465,0.22048 -2.287387,1.533333 0.898157,0.967249 5.221109,1.067367 5.757143,0.133333 0.56329,-0.981526 2.166666,-0.811315 2.166666,0.230008 0,0.493172 -0.550841,1.433526 -1.224092,2.089676 -1.210077,1.179344 -2.356306,1.177056 -6.823527,-0.01362 -1.537256,-0.409734 -1.535461,-0.400489 0.268036,1.380339 1.545111,1.525693 2.215317,1.744321 4.497876,1.467253 2.965566,-0.359974 3.936412,0.426995 2.472129,2.003914 -0.950913,1.024055 -2.954565,0.782204 -6.928517,-0.836302 -1.016408,-0.413962 -0.938965,-0.16844 0.432516,1.37121 1.131056,1.269742 2.530593,1.99906 4.333334,2.258158 2.786636,0.400507 3.511529,1.660783 1.673446,2.909401 -0.98782,0.671035 -2.597109,0.0724 -5.946856,-2.212157 -2.402078,-1.638239 -2.426679,0.04515 -0.03516,2.405417 1.842144,1.818048 2.823031,2.280037 4.840928,2.280037 2.070578,0 2.492991,0.210717 2.323409,1.15901 -0.448648,2.508859 -4.245639,1.866796 -7.170212,-1.212468 -1.560111,-1.642627 -1.999022,-1.8506 -1.999022,-0.947216 0,2.020754 4.562592,6.334007 6.700163,6.334007 2.508499,0 2.985481,1.020395 1.099169,2.351427 -1.980928,1.397797 -3.463399,0.607737 -7.07353,-3.769723 -1.473426,-1.786604 -2.935926,-3.248371 -3.25,-3.248371 -1.173602,0 -0.514973,2.61739 0.976579,3.880894 C 81.22782,54.63754 81.583363,56 80.274573,56 c -1.051483,0 -3.057972,-2.448926 -4.043211,-4.934751 -0.576061,-1.45343 -0.943199,-1.744808 -1.475797,-1.171243 -0.532597,0.573565 -0.366606,1.262197 0.667216,2.768083 1.952724,2.844364 0.08523,2.711203 -1.988059,-0.141758 -1.940665,-2.67045 -2.560158,-2.21025 -1.142459,0.848683 0.902479,1.947243 3.257287,3.847134 6.017261,4.854809 0.379191,0.138443 0.322728,0.612828 -0.145718,1.22434 -0.651882,0.850955 -0.332045,1.105337 2.166667,1.723269 2.710308,0.670261 3.084169,0.599773 4.956262,-0.934453 1.126945,-0.92356 2.636741,-1.565741 3.404762,-1.448189 1.200005,0.183671 1.080672,0.365657 -0.9152,1.395717 -3.12884,1.614778 -3.450943,2.459344 -0.68141,1.786664 1.511794,-0.367193 2.706154,-0.287259 3.555159,0.237934 1.127144,0.69725 0.875389,0.830363 -2.126236,1.124228 -3.036559,0.297286 -3.19589,0.383729 -1.473315,0.799338 1.221987,0.294832 2.055851,0.978314 2.270128,1.860723 0.285839,1.177126 0.129375,1.327939 -1.002882,0.966679 -0.737849,-0.23542 -1.620122,-0.798744 -1.960598,-1.251828 -1.666891,-2.218192 -5.001719,-2.446314 -6.163665,-0.42163 -0.504623,0.879308 -2.812526,0.94993 -2.812526,0.08606 0,-0.345027 0.348215,-0.862098 0.77381,-1.149046 0.747166,-0.503761 0.982546,-0.568027 2.888891,-0.788756 1.426143,-0.165129 0.333388,-0.841752 -2.445319,-1.514112 -1.896161,-0.458811 -2.843484,-0.403904 -3.523916,0.204247 -1.027204,0.918078 -1.962313,-0.02685 -4.009912,-4.052002 -1.335261,-2.624842 -3.588316,-2.881185 -3.588316,-0.408263 0,2.498341 4.027995,7.001921 6.262509,7.001921 1.107179,0 1.785111,0.350242 1.785111,0.922246 0,1.37698 -2.211963,1.735927 -3.714274,0.60273 -0.724991,-0.54687 -1.484166,-0.815548 -1.687041,-0.597063 -0.59366,0.639327 1.642204,2.915427 3.305523,3.365007 0.84006,0.22706 1.360258,0.70404 1.156003,1.05996 -0.582097,1.0143 -2.871898,0.758846 -4.122405,-0.459907 -0.624731,-0.60886 -1.280011,-0.9518 -1.456174,-0.76208 -0.654061,0.704367 0.545598,2.657913 1.99719,3.25226 0.82524,0.337893 1.32795,0.914913 1.117134,1.282267 -0.69784,1.215986 -2.410528,0.694053 -3.824247,-1.16542 -1.258753,-1.65564 -1.396009,-1.702327 -1.416115,-0.481674 -0.01226,0.74342 0.419658,2.031127 0.959784,2.86158 0.922368,1.418167 0.882842,1.649967 -0.650551,3.815 -0.897929,1.2678 -1.882815,2.305094 -2.188637,2.305094 -0.305822,0 -1.290708,-1.037294 -2.188637,-2.305094 z m -6.47803,-57.02824 c 0,-0.366666 -0.278571,-0.666666 -0.619047,-0.666666 -0.340476,0 -0.619048,0.3 -0.619048,0.666666 C 55.095238,21.7 55.37381,22 55.714286,22 c 0.340476,0 0.619047,-0.3 0.619047,-0.666667 z m 18.571429,0 c 0,-0.366666 -0.278572,-0.666666 -0.619048,-0.666666 -0.340476,0 -0.619047,0.3 -0.619047,0.666666 C 73.666667,21.7 73.945238,22 74.285714,22 c 0.340476,0 0.619048,-0.3 0.619048,-0.666667 z"
         id="path933" />
    </g>
  </g>
</svg>
