<?xml version="1.0" encoding="UTF-8" standalone="no"?>
<svg
   xmlns:dc="http://purl.org/dc/elements/1.1/"
   xmlns:cc="http://creativecommons.org/ns#"
   xmlns:rdf="http://www.w3.org/1999/02/22-rdf-syntax-ns#"
   xmlns:svg="http://www.w3.org/2000/svg"
   xmlns="http://www.w3.org/2000/svg"
   xmlns:sodipodi="http://sodipodi.sourceforge.net/DTD/sodipodi-0.dtd"
   xmlns:inkscape="http://www.inkscape.org/namespaces/inkscape"
   width="100mm"
   height="100mm"
   viewBox="0 0 100 100"
   version="1.1"
   id="svg8"
   inkscape:export-filename="C:\Users\lrush\Documents\KTANE Mods\Not Modded Modules\Assets\!CF\DisCF\hlCMD.png"
   inkscape:export-xdpi="96"
   inkscape:export-ydpi="96"
   inkscape:version="1.0.1 (3bc2e813f5, 2020-09-07)"
   sodipodi:docname="SymCmd.svg">
  <style
     id="style833"></style>
  <defs
     id="defs2" />
  <sodipodi:namedview
     id="base"
     pagecolor="#ffffff"
     bordercolor="#666666"
     borderopacity="1.0"
     inkscape:pageopacity="0.0"
     inkscape:pageshadow="2"
     inkscape:zoom="1.4"
     inkscape:cx="198.45759"
     inkscape:cy="188.97498"
     inkscape:document-units="mm"
     inkscape:current-layer="layer1"
     inkscape:document-rotation="0"
     showgrid="true"
     inkscape:window-width="1920"
     inkscape:window-height="1001"
     inkscape:window-x="-9"
     inkscape:window-y="-9"
     inkscape:window-maximized="1"
     inkscape:snap-global="true">
    <inkscape:grid
       type="xygrid"
       id="grid835"
       units="mm"
       spacingx="5"
       spacingy="5" />
  </sodipodi:namedview>
  <metadata
     id="metadata5">
    <rdf:RDF>
      <cc:Work
         rdf:about="">
        <dc:format>image/svg+xml</dc:format>
        <dc:type
           rdf:resource="http://purl.org/dc/dcmitype/StillImage" />
        <dc:title></dc:title>
      </cc:Work>
    </rdf:RDF>
  </metadata>
  <g
     inkscape:label="Layer 1"
     inkscape:groupmode="layer"
     id="layer1">
    <path
       id="path1217"
       style="fill:#000000;stroke:none;stroke-width:3.99999"
       d="M 103.9375,37.794922 C 67.407769,37.794453 37.794453,67.407769 37.794922,103.9375 c 0.0021,36.01789 28.823137,65.41286 64.833988,66.125 v 0.39453 h 48.55273 v 47.93555 h -48.55273 v 0.39258 c -36.012368,0.71217 -64.834043,30.10949 -64.833988,66.1289 6.07e-4,36.52897 29.613607,66.1411 66.142578,66.14063 35.53516,-0.001 64.71882,-28.08114 66.08984,-63.58985 h 0.0508 v -50.17382 h 47.93555 v 49.60156 h -0.43359 c 1.07026,35.74268 30.35458,64.16275 66.11328,64.16211 36.52821,-6.1e-4 66.14001,-29.61242 66.14062,-66.14063 4.7e-4,-36.52897 -29.61165,-66.14197 -66.14062,-66.14258 -0.743,-1.5e-4 -1.48594,0.0122 -2.22852,0.0371 v -0.41601 h -44.55273 v -47.93555 h 44.55273 v -0.41601 c 0.74258,0.0249 1.48552,0.0373 2.22852,0.0371 36.5282,-6.1e-4 66.14001,-29.61242 66.14062,-66.14062 4.7e-4,-36.528966 -29.61165,-66.141965 -66.14062,-66.142578 -35.7587,-6.39e-4 -65.04302,28.419431 -66.11328,64.162108 h 0.43359 v 49.60352 H 170.07812 V 99.386719 h -0.1582 C 167.52861,64.706859 138.69971,37.796303 103.9375,37.794922 Z m -0.22852,18.898437 c 0.0762,-1.84e-4 0.15235,-1.84e-4 0.22852,0 25.32209,-2.98e-4 46.14165,19.963835 47.20312,45.263671 h 0.041 v 49.60352 h -47.95508 v -0.38477 C 77.414671,150.78734 56.693612,129.75231 56.693359,103.9375 56.693027,77.934253 77.706037,56.819109 103.70898,56.693359 Z m 179.75391,0 h 0.002 c 0.0762,-1.84e-4 0.15235,-1.84e-4 0.22852,0 26.09223,-2.7e-5 47.24417,21.151912 47.24414,47.244141 3e-5,26.09223 -21.15191,47.24417 -47.24414,47.24414 -14.39972,-0.49975 -30.11726,0.37891 -46.78125,0.37891 V 99.386719 h -0.24023 c 2.33463,-24.127677 22.55094,-42.573577 46.79101,-42.69336 z M 170.07812,170.45703 h 47.93555 v 47.93555 h -47.93555 z m -66.85156,66.83399 h 47.95508 v 49.60156 h -0.043 c -1.06043,25.29985 -21.87911,45.26483 -47.20117,45.26562 -26.09223,3e-5 -47.244168,-21.15191 -47.244141,-47.24414 2.53e-4,-25.81481 20.721312,-46.84984 46.533201,-47.23828 z m 133.68555,0 c 16.31152,-0.0322 32.52279,0.49906 46.55078,0.3789 h 0.002 c 0.0762,-1.8e-4 0.15235,-1.8e-4 0.22852,0 26.09223,-3e-5 47.24417,21.15191 47.24414,47.24414 3e-5,26.09223 -21.15191,47.24417 -47.24414,47.24414 -25.1013,3.2e-4 -45.82055,-19.62867 -47.17578,-44.69336 h 0.39453 z"
       transform="scale(0.26458333)"
       sodipodi:nodetypes="ccccccccccccccccsccccccccccsccccccccccccccccsscsccccscccccccccccccccscscccc" />
  </g>
</svg>
