<?xml version="1.0" encoding="UTF-8" standalone="no"?>
<svg
   xmlns:dc="http://purl.org/dc/elements/1.1/"
   xmlns:cc="http://creativecommons.org/ns#"
   xmlns:rdf="http://www.w3.org/1999/02/22-rdf-syntax-ns#"
   xmlns:svg="http://www.w3.org/2000/svg"
   xmlns="http://www.w3.org/2000/svg"
   xmlns:sodipodi="http://sodipodi.sourceforge.net/DTD/sodipodi-0.dtd"
   xmlns:inkscape="http://www.inkscape.org/namespaces/inkscape"
   width="100mm"
   height="100mm"
   viewBox="0 0 100 100"
   version="1.1"
   id="svg8"
   inkscape:export-filename="C:\Users\lrush\Documents\KTANE Mods\Not Modded Modules\Assets\!CF\DisCF\hlCHN.png"
   inkscape:export-xdpi="96"
   inkscape:export-ydpi="96"
   inkscape:version="1.0.1 (3bc2e813f5, 2020-09-07)"
   sodipodi:docname="SymChn.svg">
  <style
     id="style833"></style>
  <defs
     id="defs2" />
  <sodipodi:namedview
     id="base"
     pagecolor="#ffffff"
     bordercolor="#666666"
     borderopacity="1.0"
     inkscape:pageopacity="0.0"
     inkscape:pageshadow="2"
     inkscape:zoom="1.4"
     inkscape:cx="198.45759"
     inkscape:cy="188.97498"
     inkscape:document-units="mm"
     inkscape:current-layer="layer1"
     inkscape:document-rotation="0"
     showgrid="true"
     inkscape:window-width="1920"
     inkscape:window-height="1001"
     inkscape:window-x="-9"
     inkscape:window-y="-9"
     inkscape:window-maximized="1"
     inkscape:snap-global="true">
    <inkscape:grid
       type="xygrid"
       id="grid835"
       units="mm"
       spacingx="5"
       spacingy="5" />
  </sodipodi:namedview>
  <metadata
     id="metadata5">
    <rdf:RDF>
      <cc:Work
         rdf:about="">
        <dc:format>image/svg+xml</dc:format>
        <dc:type
           rdf:resource="http://purl.org/dc/dcmitype/StillImage" />
        <dc:title></dc:title>
      </cc:Work>
    </rdf:RDF>
  </metadata>
  <g
     inkscape:label="Layer 1"
     inkscape:groupmode="layer"
     id="layer1">
    <path
       id="path1359"
       style="fill:#000000;stroke:none;stroke-width:0.798369"
       d="M 77.523174,15 A 18.859147,18.859147 0 0 0 50.907718,13.281353 l -17.000287,14.937931 0.03062,0.03486 a 18.859147,18.859147 0 0 0 -1.022471,0.83668 18.859147,18.859147 0 0 0 -1.718647,26.615456 18.859147,18.859147 0 0 0 24.668024,3.216546 l -3.636641,-4.138727 a 14.245291,14.245291 0 0 1 -15.364623,-4.057138 14.245291,14.245291 0 0 1 1.298462,-20.104065 14.245291,14.245291 0 0 1 0.771989,-0.632147 l -0.02288,-0.02607 12.841068,-11.283281 a 14.245291,14.245291 0 0 1 20.10409,1.297905 14.245291,14.245291 0 0 1 0.701565,17.941374 l 3.246541,3.69477 A 18.859147,18.859147 0 0 0 77.523174,15 Z" />
    <path
       id="path1376"
       style="fill:#000000;stroke:none;stroke-width:0.798369"
       d="m 23.174135,84.575331 a 18.859147,18.859147 0 0 0 26.615457,1.718647 l 17.000286,-14.937931 -0.03062,-0.03485 A 18.859147,18.859147 0 0 0 67.781729,70.484522 18.859147,18.859147 0 0 0 69.500375,43.869066 18.859147,18.859147 0 0 0 44.83235,40.652519 l 3.63664,4.138721 a 14.245291,14.245291 0 0 1 15.364623,4.057136 14.245291,14.245291 0 0 1 -1.298462,20.104066 14.245291,14.245291 0 0 1 -0.771983,0.632154 l 0.02289,0.02606 -12.841069,11.283279 A 14.245291,14.245291 0 0 1 28.8409,79.596023 14.245291,14.245291 0 0 1 28.139334,61.654649 l -3.246548,-3.694771 a 18.859147,18.859147 0 0 0 -1.718651,26.615453 z" />
  </g>
</svg>
