<?xml version="1.0" encoding="UTF-8" standalone="no"?>
<svg
   xmlns:dc="http://purl.org/dc/elements/1.1/"
   xmlns:cc="http://creativecommons.org/ns#"
   xmlns:rdf="http://www.w3.org/1999/02/22-rdf-syntax-ns#"
   xmlns:svg="http://www.w3.org/2000/svg"
   xmlns="http://www.w3.org/2000/svg"
   xmlns:sodipodi="http://sodipodi.sourceforge.net/DTD/sodipodi-0.dtd"
   xmlns:inkscape="http://www.inkscape.org/namespaces/inkscape"
   width="100mm"
   height="100mm"
   viewBox="0 0 100 100"
   version="1.1"
   id="svg8"
   inkscape:export-filename="C:\Users\lrush\Documents\KTANE Mods\Not Modded Modules\Assets\!CF\DisCF\hlGLB.png"
   inkscape:export-xdpi="96"
   inkscape:export-ydpi="96"
   inkscape:version="1.0.1 (3bc2e813f5, 2020-09-07)"
   sodipodi:docname="SymGlb.svg">
  <style
     id="style833"></style>
  <defs
     id="defs2" />
  <sodipodi:namedview
     id="base"
     pagecolor="#ffffff"
     bordercolor="#666666"
     borderopacity="1.0"
     inkscape:pageopacity="0.0"
     inkscape:pageshadow="2"
     inkscape:zoom="1.4"
     inkscape:cx="198.45759"
     inkscape:cy="188.97498"
     inkscape:document-units="mm"
     inkscape:current-layer="layer1"
     inkscape:document-rotation="0"
     showgrid="true"
     inkscape:window-width="1920"
     inkscape:window-height="1001"
     inkscape:window-x="-9"
     inkscape:window-y="-9"
     inkscape:window-maximized="1"
     inkscape:snap-global="true">
    <inkscape:grid
       type="xygrid"
       id="grid835"
       units="mm"
       spacingx="5"
       spacingy="5" />
  </sodipodi:namedview>
  <metadata
     id="metadata5">
    <rdf:RDF>
      <cc:Work
         rdf:about="">
        <dc:format>image/svg+xml</dc:format>
        <dc:type
           rdf:resource="http://purl.org/dc/dcmitype/StillImage" />
        <dc:title></dc:title>
      </cc:Work>
    </rdf:RDF>
  </metadata>
  <g
     inkscape:label="Layer 1"
     inkscape:groupmode="layer"
     id="layer1">
    <path
       id="path1275"
       style="fill:#000000;stroke:none;stroke-width:3.99999"
       d="M 188.30273 18.898438 A 170.07874 170.07874 0 0 0 18.898438 188.97656 A 170.07874 170.07874 0 0 0 188.97656 359.05469 A 170.07874 170.07874 0 0 0 359.05469 188.97656 A 170.07874 170.07874 0 0 0 188.97656 18.898438 A 170.07874 170.07874 0 0 0 188.30273 18.898438 z M 188.97656 37.794922 A 151.1811 151.1811 0 0 1 340.1582 188.97656 A 151.1811 151.1811 0 0 1 188.97656 340.1582 A 151.1811 151.1811 0 0 1 37.794922 188.97656 A 151.1811 151.1811 0 0 1 188.97656 37.794922 z "
       transform="scale(0.26458333)" />
    <rect
       style="fill:#000000;stroke:none;stroke-width:1.05833"
       id="rect1282"
       width="90"
       height="5"
       x="5"
       y="47.645836" />
    <path
       id="path1312"
       style="fill:#000000;stroke:none;stroke-width:4.60879"
       d="M 188.85352 18.898438 A 75.264344 170.07874 0 0 0 113.71289 188.97656 A 75.264344 170.07874 0 0 0 188.97656 359.05469 A 75.264344 170.07874 0 0 0 264.24023 188.97656 A 75.264344 170.07874 0 0 0 188.97656 18.898438 A 75.264344 170.07874 0 0 0 188.85352 18.898438 z M 188.97656 37.794922 A 56.692913 151.1811 0 0 1 245.66992 188.97656 A 56.692913 151.1811 0 0 1 188.97656 340.1582 A 56.692913 151.1811 0 0 1 132.2832 188.97656 A 56.692913 151.1811 0 0 1 188.97656 37.794922 z "
       transform="scale(0.26458333)" />
  </g>
</svg>
