<?xml version="1.0" encoding="UTF-8" standalone="no"?>
<svg
   xmlns:dc="http://purl.org/dc/elements/1.1/"
   xmlns:cc="http://creativecommons.org/ns#"
   xmlns:rdf="http://www.w3.org/1999/02/22-rdf-syntax-ns#"
   xmlns:svg="http://www.w3.org/2000/svg"
   xmlns="http://www.w3.org/2000/svg"
   xmlns:sodipodi="http://sodipodi.sourceforge.net/DTD/sodipodi-0.dtd"
   xmlns:inkscape="http://www.inkscape.org/namespaces/inkscape"
   width="100mm"
   height="100mm"
   viewBox="0 0 100 100"
   version="1.1"
   id="svg8"
   inkscape:export-filename="C:\Users\lrush\Documents\KTANE Mods\Not Modded Modules\Assets\!CF\DisCF\hlSHD.png"
   inkscape:export-xdpi="96"
   inkscape:export-ydpi="96"
   inkscape:version="1.0.1 (3bc2e813f5, 2020-09-07)"
   sodipodi:docname="SymShd.svg">
  <style
     id="style833"></style>
  <defs
     id="defs2" />
  <sodipodi:namedview
     id="base"
     pagecolor="#ffffff"
     bordercolor="#666666"
     borderopacity="1.0"
     inkscape:pageopacity="0.0"
     inkscape:pageshadow="2"
     inkscape:zoom="1.4"
     inkscape:cx="198.45759"
     inkscape:cy="188.97498"
     inkscape:document-units="mm"
     inkscape:current-layer="layer1"
     inkscape:document-rotation="0"
     showgrid="true"
     inkscape:window-width="1920"
     inkscape:window-height="1001"
     inkscape:window-x="-9"
     inkscape:window-y="-9"
     inkscape:window-maximized="1"
     inkscape:snap-global="true">
    <inkscape:grid
       type="xygrid"
       id="grid835"
       units="mm"
       spacingx="5"
       spacingy="5" />
  </sodipodi:namedview>
  <metadata
     id="metadata5">
    <rdf:RDF>
      <cc:Work
         rdf:about="">
        <dc:format>image/svg+xml</dc:format>
        <dc:type
           rdf:resource="http://purl.org/dc/dcmitype/StillImage" />
        <dc:title></dc:title>
      </cc:Work>
    </rdf:RDF>
  </metadata>
  <g
     inkscape:label="Layer 1"
     inkscape:groupmode="layer"
     id="layer1">
    <path
       id="path1351"
       style="fill:#000000;stroke:none;stroke-width:3.99999"
       d="M 188.97656 18.898438 C 151.18129 37.796075 132.28444 75.590895 82.076172 78.712891 C 56.693889 75.590895 37.794922 82.010615 37.794922 128.97656 C 38.073874 177.98058 56.693098 321.25941 188.97656 359.05469 C 321.26003 321.25941 340.1582 170.07892 340.1582 128.97656 C 340.1582 82.010615 321.25924 75.590895 295.87695 78.712891 C 245.66868 75.590895 226.77184 37.796075 188.97656 18.898438 z M 188.97656 56.693359 C 218.37289 71.391523 233.07022 100.78663 272.12109 103.21484 C 291.86287 100.78663 306.5625 105.78148 306.5625 142.31055 C 306.5625 174.27905 291.8637 291.86344 188.97656 321.25977 C 86.089424 291.86344 71.607589 180.42478 71.390625 142.31055 C 71.390625 105.78148 86.088302 100.78663 105.83008 103.21484 C 144.88095 100.78663 159.58024 71.391523 188.97656 56.693359 z "
       transform="scale(0.26458333)" />
  </g>
</svg>
