<?xml version="1.0" encoding="UTF-8" standalone="no"?>
<svg
   xmlns:dc="http://purl.org/dc/elements/1.1/"
   xmlns:cc="http://creativecommons.org/ns#"
   xmlns:rdf="http://www.w3.org/1999/02/22-rdf-syntax-ns#"
   xmlns:svg="http://www.w3.org/2000/svg"
   xmlns="http://www.w3.org/2000/svg"
   xmlns:sodipodi="http://sodipodi.sourceforge.net/DTD/sodipodi-0.dtd"
   xmlns:inkscape="http://www.inkscape.org/namespaces/inkscape"
   width="100mm"
   height="100mm"
   viewBox="0 0 100 100"
   version="1.1"
   id="svg8"
   inkscape:export-filename="C:\Users\lrush\Documents\KTANE Mods\Not Modded Modules\Assets\!CF\DisCF\HLHex.png"
   inkscape:export-xdpi="96"
   inkscape:export-ydpi="96"
   inkscape:version="1.0.1 (3bc2e813f5, 2020-09-07)"
   sodipodi:docname="TexHex.svg">
  <style
     id="style833"></style>
  <defs
     id="defs2" />
  <sodipodi:namedview
     id="base"
     pagecolor="#ffffff"
     bordercolor="#666666"
     borderopacity="1.0"
     inkscape:pageopacity="0.0"
     inkscape:pageshadow="2"
     inkscape:zoom="1.4"
     inkscape:cx="198.45759"
     inkscape:cy="188.97498"
     inkscape:document-units="mm"
     inkscape:current-layer="layer1"
     inkscape:document-rotation="0"
     showgrid="true"
     inkscape:window-width="1920"
     inkscape:window-height="1001"
     inkscape:window-x="-9"
     inkscape:window-y="-9"
     inkscape:window-maximized="1">
    <inkscape:grid
       type="xygrid"
       id="grid835"
       units="mm"
       spacingx="5"
       spacingy="5" />
  </sodipodi:namedview>
  <metadata
     id="metadata5">
    <rdf:RDF>
      <cc:Work
         rdf:about="">
        <dc:format>image/svg+xml</dc:format>
        <dc:type
           rdf:resource="http://purl.org/dc/dcmitype/StillImage" />
        <dc:title></dc:title>
      </cc:Work>
    </rdf:RDF>
  </metadata>
  <g
     inkscape:label="Layer 1"
     inkscape:groupmode="layer"
     id="layer1">
    <rect
       style="fill:#ffffff;stroke:#000000;stroke-width:1.05833"
       id="rect837"
       width="100"
       height="100"
       x="0"
       y="0" />
    <path
       id="path1065"
       style="fill:#000000;stroke:#000000;stroke-width:3.99999"
       d="M 0 0 L 0 31.048828 L 0.9375 31.589844 L 33.669922 12.693359 L 33.669922 0 L 0 0 z M 61.869141 0 L 61.869141 13.794922 L 94.599609 32.693359 L 127.33203 13.794922 L 127.33203 0 L 61.869141 0 z M 154.20508 0 L 154.20508 12.693359 L 186.9375 31.589844 L 219.66992 12.693359 L 219.66992 0 L 154.20508 0 z M 247.86914 0 L 247.86914 13.794922 L 280.59961 32.693359 L 313.33203 13.794922 L 313.33203 0 L 247.86914 0 z M 341.86914 0 L 341.86914 13.794922 L 374.59961 32.693359 L 377.95312 30.757812 L 377.95312 0 L 341.86914 0 z M 48.488281 34.693359 L 15.755859 53.589844 L 15.755859 91.386719 L 48.488281 110.2832 L 81.220703 91.386719 L 81.220703 53.589844 L 48.488281 34.693359 z M 140.48828 34.693359 L 107.75586 53.589844 L 107.75586 91.386719 L 140.48828 110.2832 L 173.2207 91.386719 L 173.2207 53.589844 L 140.48828 34.693359 z M 234.48828 34.693359 L 201.75586 53.589844 L 201.75586 91.386719 L 234.48828 110.2832 L 267.2207 91.386719 L 267.2207 53.589844 L 234.48828 34.693359 z M 328.39648 35.589844 L 295.66406 54.488281 L 295.66406 92.283203 L 328.39648 111.18164 L 361.12695 92.283203 L 361.12695 54.488281 L 328.39648 35.589844 z M 2.2832031 113.18164 L 0 114.5 L 0 187.45312 L 2.2832031 188.77148 L 35.015625 169.87305 L 35.015625 132.07812 L 2.2832031 113.18164 z M 188.2832 113.18164 L 155.55273 132.07812 L 155.55273 169.87305 L 188.2832 188.77148 L 221.01562 169.87305 L 221.01562 132.07812 L 188.2832 113.18164 z M 95.945312 114.2832 L 63.214844 133.18164 L 63.214844 170.97656 L 95.945312 189.87305 L 128.67773 170.97656 L 128.67773 133.18164 L 95.945312 114.2832 z M 281.94531 114.2832 L 249.21484 133.18164 L 249.21484 170.97656 L 281.94531 189.87305 L 314.67773 170.97656 L 314.67773 133.18164 L 281.94531 114.2832 z M 375.94531 114.2832 L 343.21484 133.18164 L 343.21484 170.97656 L 375.94531 189.87305 L 377.95312 188.71484 L 377.95312 115.44336 L 375.94531 114.2832 z M 49.912109 192.77148 L 17.181641 211.66992 L 17.181641 249.46484 L 49.912109 268.36133 L 82.644531 249.46484 L 82.644531 211.66992 L 49.912109 192.77148 z M 141.91211 192.77148 L 109.18164 211.66992 L 109.18164 249.46484 L 141.91211 268.36133 L 174.64453 249.46484 L 174.64453 211.66992 L 141.91211 192.77148 z M 235.91211 192.77148 L 203.18164 211.66992 L 203.18164 249.46484 L 235.91211 268.36133 L 268.64453 249.46484 L 268.64453 211.66992 L 235.91211 192.77148 z M 329.74219 192.77148 L 297.00977 211.66992 L 297.00977 249.46484 L 329.74219 268.36133 L 362.47266 249.46484 L 362.47266 211.66992 L 329.74219 192.77148 z M 2.2832031 269.18164 L 0 270.5 L 0 343.45312 L 2.2832031 344.77148 L 35.015625 325.87305 L 35.015625 288.07812 L 2.2832031 269.18164 z M 188.2832 269.18164 L 155.55273 288.07812 L 155.55273 325.87305 L 188.2832 344.77148 L 221.01562 325.87305 L 221.01562 288.07812 L 188.2832 269.18164 z M 95.945312 270.2832 L 63.214844 289.18164 L 63.214844 326.97656 L 95.945312 345.87305 L 128.67773 326.97656 L 128.67773 289.18164 L 95.945312 270.2832 z M 281.94531 270.2832 L 249.21484 289.18164 L 249.21484 326.97656 L 281.94531 345.87305 L 314.67773 326.97656 L 314.67773 289.18164 L 281.94531 270.2832 z M 375.94531 270.2832 L 343.21484 289.18164 L 343.21484 326.97656 L 375.94531 345.87305 L 377.95312 344.71484 L 377.95312 271.44336 L 375.94531 270.2832 z M 49.912109 348.77148 L 17.181641 367.66992 L 17.181641 377.95312 L 82.644531 377.95312 L 82.644531 367.66992 L 49.912109 348.77148 z M 141.91211 348.77148 L 109.18164 367.66992 L 109.18164 377.95312 L 174.64453 377.95312 L 174.64453 367.66992 L 141.91211 348.77148 z M 235.91211 348.77148 L 203.18164 367.66992 L 203.18164 377.95312 L 268.64453 377.95312 L 268.64453 367.66992 L 235.91211 348.77148 z M 329.74219 348.77148 L 297.00977 367.66992 L 297.00977 377.95312 L 362.47266 377.95312 L 362.47266 367.66992 L 329.74219 348.77148 z "
       transform="scale(0.26458333)" />
  </g>
</svg>
