<?xml version="1.0" encoding="UTF-8" standalone="no"?>
<svg
   xmlns:dc="http://purl.org/dc/elements/1.1/"
   xmlns:cc="http://creativecommons.org/ns#"
   xmlns:rdf="http://www.w3.org/1999/02/22-rdf-syntax-ns#"
   xmlns:svg="http://www.w3.org/2000/svg"
   xmlns="http://www.w3.org/2000/svg"
   xmlns:sodipodi="http://sodipodi.sourceforge.net/DTD/sodipodi-0.dtd"
   xmlns:inkscape="http://www.inkscape.org/namespaces/inkscape"
   width="100mm"
   height="100mm"
   viewBox="0 0 100 100"
   version="1.1"
   id="svg8"
   inkscape:export-filename="C:\Users\lrush\Documents\KTANE Mods\Not Modded Modules\Assets\!CF\DisCF\HLTri.png"
   inkscape:export-xdpi="96"
   inkscape:export-ydpi="96"
   inkscape:version="1.0.1 (3bc2e813f5, 2020-09-07)"
   sodipodi:docname="TexTri.svg">
  <style
     id="style833"></style>
  <defs
     id="defs2" />
  <sodipodi:namedview
     id="base"
     pagecolor="#ffffff"
     bordercolor="#666666"
     borderopacity="1.0"
     inkscape:pageopacity="0.0"
     inkscape:pageshadow="2"
     inkscape:zoom="1.4"
     inkscape:cx="198.45759"
     inkscape:cy="188.97498"
     inkscape:document-units="mm"
     inkscape:current-layer="layer1"
     inkscape:document-rotation="0"
     showgrid="true"
     inkscape:window-width="1920"
     inkscape:window-height="1001"
     inkscape:window-x="-9"
     inkscape:window-y="-9"
     inkscape:window-maximized="1"
     inkscape:snap-global="false">
    <inkscape:grid
       type="xygrid"
       id="grid835"
       units="mm"
       spacingx="5"
       spacingy="5" />
  </sodipodi:namedview>
  <metadata
     id="metadata5">
    <rdf:RDF>
      <cc:Work
         rdf:about="">
        <dc:format>image/svg+xml</dc:format>
        <dc:type
           rdf:resource="http://purl.org/dc/dcmitype/StillImage" />
        <dc:title></dc:title>
      </cc:Work>
    </rdf:RDF>
  </metadata>
  <g
     inkscape:label="Layer 1"
     inkscape:groupmode="layer"
     id="layer1">
    <rect
       style="fill:#ffffff;stroke:#000000;stroke-width:1.05833"
       id="rect837"
       width="100"
       height="100"
       x="0"
       y="0" />
    <path
       id="path1108"
       style="fill:#000000;stroke:#000000;stroke-width:3.5994"
       inkscape:transform-center-y="-3.3744446"
       d="M 43.4375 0 L 3.5351562 69.115234 L 91.896484 69.115234 L 51.992188 0 L 43.4375 0 z M 138.70898 0 L 98.804688 69.115234 L 187.16602 69.115234 L 147.26367 0 L 138.70898 0 z M 232.29297 0 L 192.39062 69.115234 L 280.75195 69.115234 L 240.84766 0 L 232.29297 0 z M 325.76367 0 L 285.86133 69.115234 L 374.22266 69.115234 L 334.31836 0 L 325.76367 0 z M 95.832031 74.738281 L 51.652344 151.25977 L 140.01367 151.25977 L 95.832031 74.738281 z M 284.6875 74.738281 L 240.50781 151.25977 L 328.86914 151.25977 L 284.6875 74.738281 z M 0.53710938 75.451172 L 0 76.380859 L 0 151.97461 L 44.71875 151.97461 L 0.53710938 75.451172 z M 189.4043 75.451172 L 145.22266 151.97461 L 233.58398 151.97461 L 189.4043 75.451172 z M 377.4043 75.451172 L 333.22266 151.97461 L 377.95312 151.97461 L 377.95312 76.402344 L 377.4043 75.451172 z M 48.416016 156.16406 L 4.2363281 232.68555 L 92.595703 232.68555 L 48.416016 156.16406 z M 142 156.16406 L 97.820312 232.68555 L 186.18164 232.68555 L 142 156.16406 z M 237.27148 156.16406 L 193.0918 232.68555 L 281.45312 232.68555 L 237.27148 156.16406 z M 330.85547 156.16406 L 286.67578 232.68555 L 375.03711 232.68555 L 330.85547 156.16406 z M 1.546875 237.5957 L 0 240.27539 L 0 314.11719 L 45.726562 314.11719 L 1.546875 237.5957 z M 95.384766 237.5957 L 51.205078 314.11719 L 139.56445 314.11719 L 95.384766 237.5957 z M 190.40234 237.5957 L 146.2207 314.11719 L 234.58203 314.11719 L 190.40234 237.5957 z M 284.25 237.5957 L 240.07031 314.11719 L 328.43164 314.11719 L 284.25 237.5957 z M 377.45703 237.5957 L 333.27734 314.11719 L 377.95312 314.11719 L 377.95312 238.45508 L 377.45703 237.5957 z M 47.714844 319.02148 L 13.691406 377.95312 L 81.740234 377.95312 L 47.714844 319.02148 z M 142.98633 319.02148 L 108.96094 377.95312 L 177.00977 377.95312 L 142.98633 319.02148 z M 236.57031 319.02148 L 202.54688 377.95312 L 270.5957 377.95312 L 236.57031 319.02148 z M 330.04102 319.02148 L 296.01758 377.95312 L 364.06641 377.95312 L 330.04102 319.02148 z "
       transform="scale(0.26458333)" />
  </g>
</svg>
