<?xml version="1.0" encoding="UTF-8" standalone="no"?>
<svg
   xmlns:dc="http://purl.org/dc/elements/1.1/"
   xmlns:cc="http://creativecommons.org/ns#"
   xmlns:rdf="http://www.w3.org/1999/02/22-rdf-syntax-ns#"
   xmlns:svg="http://www.w3.org/2000/svg"
   xmlns="http://www.w3.org/2000/svg"
   xmlns:sodipodi="http://sodipodi.sourceforge.net/DTD/sodipodi-0.dtd"
   xmlns:inkscape="http://www.inkscape.org/namespaces/inkscape"
   width="100mm"
   height="100mm"
   viewBox="0 0 100 100"
   version="1.1"
   id="svg8"
   inkscape:export-filename="C:\Users\lrush\Documents\KTANE Mods\Not Modded Modules\Assets\!CF\DisCF\HLWav.png"
   inkscape:export-xdpi="96"
   inkscape:export-ydpi="96"
   inkscape:version="1.0.1 (3bc2e813f5, 2020-09-07)"
   sodipodi:docname="TexWav.svg">
  <style
     id="style833"></style>
  <defs
     id="defs2" />
  <sodipodi:namedview
     id="base"
     pagecolor="#ffffff"
     bordercolor="#666666"
     borderopacity="1.0"
     inkscape:pageopacity="0.0"
     inkscape:pageshadow="2"
     inkscape:zoom="1.4"
     inkscape:cx="198.45759"
     inkscape:cy="188.97498"
     inkscape:document-units="mm"
     inkscape:current-layer="layer1"
     inkscape:document-rotation="0"
     showgrid="true"
     inkscape:window-width="1920"
     inkscape:window-height="1001"
     inkscape:window-x="-9"
     inkscape:window-y="-9"
     inkscape:window-maximized="1">
    <inkscape:grid
       type="xygrid"
       id="grid835"
       units="mm"
       spacingx="8.3333329"
       spacingy="8.3333299" />
  </sodipodi:namedview>
  <metadata
     id="metadata5">
    <rdf:RDF>
      <cc:Work
         rdf:about="">
        <dc:format>image/svg+xml</dc:format>
        <dc:type
           rdf:resource="http://purl.org/dc/dcmitype/StillImage" />
        <dc:title></dc:title>
      </cc:Work>
    </rdf:RDF>
  </metadata>
  <g
     inkscape:label="Layer 1"
     inkscape:groupmode="layer"
     id="layer1">
    <rect
       style="fill:#ffffff;stroke:#000000;stroke-width:1.05833"
       id="rect837"
       width="100"
       height="100"
       x="0"
       y="0" />
    <path
       id="path884"
       style="fill:#000000;stroke:#000000;stroke-width:4.38176"
       d="M 94.488281 0 A 113.38578 94.488146 0 0 0 0 42.257812 L 0 94.488281 L 18.898438 94.488281 A 75.590543 62.992119 0 0 1 94.488281 31.496094 A 75.590543 62.992119 0 0 1 170.07812 94.488281 L 188.97656 94.488281 L 207.875 94.488281 A 113.38578 94.488146 0 0 0 207.875 94.332031 A 75.590543 62.992119 0 0 1 283.46484 31.496094 A 75.590543 62.992119 0 0 1 359.05469 94.488281 L 377.95312 94.488281 L 377.95312 42.259766 A 113.38578 94.488146 0 0 0 283.46484 0 A 113.38578 94.488146 0 0 0 188.97656 42.257812 A 113.38578 94.488146 0 0 0 94.488281 0 z M 377.95312 94.488281 A 113.38578 94.488146 0 0 0 283.46484 136.74609 A 113.38578 94.488146 0 0 0 188.97656 94.488281 A 113.38578 94.488146 0 0 0 94.488281 136.74609 A 113.38578 94.488146 0 0 0 0 94.488281 L 0 125.98438 A 75.590543 62.992119 0 0 1 75.589844 188.97656 L 94.488281 188.97656 L 113.38672 188.97656 A 75.590543 62.992119 0 0 1 188.97656 125.98438 A 75.590543 62.992119 0 0 1 264.56641 188.97656 L 283.46484 188.97656 L 302.36328 188.97656 A 113.38578 94.488146 0 0 0 302.36328 188.82031 A 75.590543 62.992119 0 0 1 377.95312 125.98438 L 377.95312 94.488281 z M 283.46484 188.97656 A 113.38578 94.488146 0 0 0 188.97656 231.23438 A 113.38578 94.488146 0 0 0 94.488281 188.97656 A 113.38578 94.488146 0 0 0 0 231.23438 L 0 283.46484 L 18.898438 283.46484 A 75.590543 62.992119 0 0 1 94.488281 220.47266 A 75.590543 62.992119 0 0 1 170.07812 283.46484 L 188.97656 283.46484 L 207.875 283.46484 A 113.38578 94.488146 0 0 0 207.875 283.30859 A 75.590543 62.992119 0 0 1 283.46484 220.47266 A 75.590543 62.992119 0 0 1 359.05469 283.46484 L 377.95312 283.46484 L 377.95312 231.23633 A 113.38578 94.488146 0 0 0 283.46484 188.97656 z M 377.95312 283.46484 A 113.38578 94.488146 0 0 0 283.46484 325.72266 A 113.38578 94.488146 0 0 0 188.97656 283.46484 A 113.38578 94.488146 0 0 0 94.488281 325.72266 A 113.38578 94.488146 0 0 0 0 283.46484 L 0 314.96094 A 75.590543 62.992119 0 0 1 75.589844 377.95312 L 113.38672 377.95312 A 75.590543 62.992119 0 0 1 188.97656 314.96094 A 75.590543 62.992119 0 0 1 264.56641 377.95312 L 302.36328 377.95312 A 113.38578 94.488146 0 0 0 302.36328 377.79688 A 75.590543 62.992119 0 0 1 377.95312 314.96094 L 377.95312 283.46484 z "
       transform="scale(0.26458333)" />
  </g>
</svg>
